<?xml version="1.0" encoding="utf-8"?>
<!-- Generator: Adobe Illustrator 23.0.1, SVG Export Plug-In . SVG Version: 6.00 Build 0)  -->
<svg version="1.1" id="Layer_1" xmlns="http://www.w3.org/2000/svg" xmlns:xlink="http://www.w3.org/1999/xlink" x="0px" y="0px"
	 viewBox="0 0 48 48" style="enable-background:new 0 0 48 48;" xml:space="preserve">
<style type="text/css">
	.st0{fill-rule:evenodd;clip-rule:evenodd;fill:#FFFFFF;}
	.st1{fill-rule:evenodd;clip-rule:evenodd;}
	.st2{fill:#FFFFFF;}
</style>
<g>
	<g>
		<path class="st0" d="M18.01,20.87c0-0.02,0.02-0.04,0.03-0.05c0.02-0.02,0.04-0.05,0.06-0.07c0.04-0.03,0.08-0.06,0.12-0.08
			c0.07-0.04,0.14-0.07,0.22-0.09c0.06-0.02,0.13-0.04,0.2-0.06c0.04-0.01,0.08-0.02,0.13-0.03c0.03-0.01,0.07-0.01,0.1-0.02
			c0.03,0,0.06-0.01,0.09-0.01c0.03,0,0.06-0.01,0.09-0.01c0.03,0,0.07,0,0.1-0.01c0.03,0,0.05,0,0.08-0.01c0.02,0,0.05,0,0.08,0
			c0.09,0,0.18,0,0.27,0c0.04,0,0.07,0,0.11,0c0.02,0,0.04,0,0.07,0c0.02,0,0.05,0,0.07,0.01c0.03,0,0.06,0.01,0.08,0.01
			c0.02,0,0.04,0,0.06,0.01c0.06,0.01,0.13,0.02,0.19,0.03c0.08,0.02,0.15,0.04,0.23,0.06c0.08,0.02,0.15,0.05,0.23,0.09
			c0.06,0.03,0.11,0.06,0.16,0.1c0.03,0.03,0.06,0.06,0.08,0.09c0,0.01,0.01,0.01,0.01,0.02c0,0,0,0,0,0c0,0-0.01,0-0.01-0.01
			c-0.04-0.04-0.08-0.06-0.12-0.09c-0.06-0.03-0.12-0.06-0.19-0.08c-0.05-0.02-0.11-0.03-0.16-0.05c-0.06-0.01-0.12-0.03-0.18-0.04
			c-0.04-0.01-0.08-0.01-0.13-0.02c-0.02,0-0.04-0.01-0.06-0.01c0,0-0.01,0-0.01,0s0,0,0,0c0,0,0,0,0,0c0,0,0.01,0,0.02,0
			c0.03,0,0.05,0.01,0.08,0.01c0.06,0.01,0.11,0.02,0.16,0.04c0.06,0.01,0.11,0.03,0.17,0.05c0.07,0.02,0.14,0.05,0.2,0.08
			c0.05,0.02,0.09,0.05,0.14,0.08c0.03,0.02,0.06,0.04,0.08,0.07c0.01,0.01,0.02,0.03,0.03,0.04c0.01,0.03,0.01,0.06,0,0.08
			c-0.02,0.04-0.04,0.07-0.07,0.1c-0.04,0.04-0.09,0.07-0.14,0.1c-0.05,0.03-0.1,0.06-0.16,0.08c-0.05,0.02-0.09,0.03-0.14,0.05
			c-0.04,0.01-0.08,0.02-0.13,0.03c-0.04,0.01-0.09,0.02-0.14,0.03c-0.01,0-0.01,0-0.02,0c0,0-0.01-0.01-0.01-0.01
			c-0.02-0.05-0.04-0.1-0.06-0.16c0,0,0-0.01,0-0.01c0.01-0.01,0.01-0.01,0.02-0.01c0.02-0.01,0.05-0.02,0.07-0.03
			c0.02-0.01,0.04-0.03,0.06-0.05c0.01-0.01,0.01-0.02,0.02-0.03c0.01-0.02,0-0.05-0.01-0.07c-0.01-0.02-0.03-0.04-0.05-0.05
			c-0.02-0.02-0.05-0.03-0.08-0.04c-0.05-0.02-0.11-0.04-0.16-0.06c-0.05-0.01-0.1-0.02-0.16-0.03c-0.04,0-0.08-0.01-0.12-0.01
			c-0.09-0.01-0.18-0.01-0.27-0.01c-0.03,0-0.06,0-0.09,0c-0.02,0-0.03,0-0.05,0c-0.06,0.01-0.12,0.01-0.17,0.03
			c-0.06,0.01-0.12,0.03-0.18,0.05c-0.04,0.02-0.08,0.03-0.12,0.06c-0.01,0.01-0.02,0.02-0.03,0.03c-0.01,0.02-0.02,0.03-0.03,0.05
			c0,0.03,0,0.05,0.02,0.07c0.01,0.01,0.02,0.02,0.03,0.03c0.03,0.02,0.06,0.04,0.1,0.05c0,0,0.01,0,0.02,0.01c0,0,0,0,0,0.01
			c-0.02,0.06-0.05,0.11-0.07,0.17c0,0,0,0,0,0.01c0,0,0,0,0,0c-0.06-0.01-0.13-0.02-0.19-0.04c-0.04-0.01-0.08-0.02-0.13-0.04
			c-0.08-0.03-0.16-0.06-0.23-0.1c-0.05-0.02-0.09-0.05-0.13-0.09c-0.03-0.03-0.06-0.06-0.08-0.09c0-0.01-0.01-0.02-0.02-0.03
			c-0.02-0.04-0.01-0.07,0-0.11c0.01-0.02,0.02-0.03,0.04-0.05c0.02-0.03,0.06-0.05,0.09-0.07c0.05-0.03,0.1-0.06,0.15-0.08
			c0.08-0.03,0.16-0.06,0.25-0.09c0.07-0.02,0.14-0.04,0.21-0.05c0.04-0.01,0.08-0.01,0.12-0.02c0.01,0,0.01,0,0.02,0c0,0,0,0,0,0
			c0,0,0-0.01,0-0.01c-0.01,0-0.02,0-0.02,0c-0.04,0.01-0.09,0.01-0.13,0.02c-0.03,0-0.07,0.01-0.1,0.02
			c-0.09,0.02-0.18,0.04-0.26,0.07c-0.06,0.02-0.12,0.05-0.18,0.08c-0.04,0.02-0.09,0.05-0.12,0.08
			C18.03,20.85,18.03,20.85,18.01,20.87C18.02,20.86,18.01,20.86,18.01,20.87z"/>
		<path class="st0" d="M18.66,20.47c0-0.01,0-0.01,0.01-0.01c0.01-0.02,0.03-0.04,0.04-0.06c0.07-0.08,0.15-0.15,0.24-0.2
			c0.05-0.03,0.11-0.06,0.17-0.08c0.05-0.02,0.1-0.03,0.15-0.04c0.07-0.01,0.14-0.02,0.21-0.01c0.09,0,0.18,0.02,0.27,0.05
			c0.11,0.04,0.22,0.09,0.31,0.17c0.06,0.05,0.11,0.11,0.16,0.17c0,0,0.01,0.01,0.01,0.01c0,0,0,0,0,0c0,0-0.01,0-0.01,0
			c-0.02,0-0.05-0.01-0.07-0.01c-0.04-0.01-0.08-0.01-0.11-0.02c-0.03-0.01-0.07-0.01-0.1-0.01c-0.04,0-0.08-0.01-0.12-0.01
			c-0.02,0-0.05,0-0.07-0.01c-0.04,0-0.09-0.01-0.13-0.01c-0.05,0-0.09,0-0.13,0c-0.05,0-0.1,0-0.15,0c-0.04,0-0.08,0-0.12,0
			c-0.05,0-0.1,0.01-0.16,0.01c-0.05,0-0.11,0.01-0.16,0.02c-0.06,0.01-0.12,0.02-0.18,0.03c-0.01,0-0.02,0-0.03,0.01
			C18.67,20.47,18.66,20.47,18.66,20.47z M19.44,20.31L19.44,20.31c0.02,0,0.05,0,0.07,0c0,0,0.01,0,0.01,0
			c0.01,0,0.01-0.01,0.01-0.01c0,0,0,0,0-0.01c0-0.02,0-0.03-0.01-0.05c0,0,0-0.01,0-0.01c0-0.01,0-0.01-0.01-0.01
			c0,0-0.01,0-0.01,0c-0.04,0-0.09,0-0.13,0c-0.02,0-0.02,0-0.02,0.02c0,0.02-0.01,0.03-0.01,0.05c0,0.01,0,0.02,0.02,0.02
			c0,0,0.01,0,0.01,0C19.39,20.31,19.42,20.31,19.44,20.31z M19.64,20.23c-0.02,0-0.02,0.01-0.02,0.02c0,0.02,0,0.03,0.01,0.05
			c0,0.01,0.01,0.02,0.02,0.02c0.02,0,0.03,0,0.05,0c0.02,0,0.04,0,0.07,0.01c0.02,0,0.03-0.01,0.02-0.03c0,0,0,0,0-0.01
			c0-0.01-0.01-0.02-0.01-0.04c0-0.01-0.01-0.02-0.02-0.02c-0.02,0-0.05-0.01-0.07-0.01C19.66,20.23,19.65,20.23,19.64,20.23z
			 M19.24,20.23c-0.01,0-0.02,0-0.03,0c-0.02,0-0.05,0.01-0.07,0.01c-0.01,0-0.02,0.01-0.02,0.02c0,0.01-0.01,0.03-0.02,0.04
			c0,0,0,0.01,0,0.01c0,0.01,0.01,0.02,0.02,0.02c0,0,0.01,0,0.01,0c0.03,0,0.06-0.01,0.09-0.01c0.01,0,0.01,0,0.02,0
			c0.01,0,0.01-0.01,0.02-0.02c0-0.02,0-0.04,0.01-0.06C19.26,20.24,19.25,20.23,19.24,20.23z M18.91,20.37c0,0,0.01,0,0.01,0
			c0.02,0,0.04-0.01,0.06-0.01c0,0,0.01,0,0.01,0c0,0,0.01,0,0.01-0.01c0-0.02,0.01-0.03,0.01-0.05c0-0.01-0.01-0.02-0.02-0.02
			c-0.02,0-0.04,0.01-0.06,0.02c-0.01,0-0.01,0.01-0.02,0.02c-0.01,0.01-0.01,0.02-0.02,0.04c0,0,0,0,0,0.01
			C18.88,20.36,18.89,20.37,18.91,20.37z M19.99,20.35C19.99,20.35,19.99,20.35,19.99,20.35c-0.01-0.02-0.02-0.03-0.02-0.05
			c0-0.01-0.01-0.01-0.02-0.01c-0.01,0-0.03-0.01-0.04-0.01c-0.01,0-0.01,0-0.02,0c-0.01,0-0.02,0.01-0.02,0.02c0,0,0,0,0,0.01
			c0,0.01,0.01,0.03,0.01,0.04c0,0.01,0.01,0.02,0.02,0.02c0.02,0,0.04,0.01,0.07,0.01c0,0,0.01,0,0.01,0
			C19.98,20.37,19.99,20.36,19.99,20.35z M20.11,20.41C20.11,20.4,20.1,20.4,20.11,20.41c-0.02-0.02-0.03-0.04-0.04-0.05
			c0,0,0,0,0,0c0,0,0,0,0,0c0,0,0,0,0,0c0,0.01,0,0.02,0.01,0.02C20.07,20.4,20.09,20.41,20.11,20.41
			C20.1,20.41,20.1,20.41,20.11,20.41z M18.82,20.35c0,0-0.01,0-0.01,0c-0.01,0.01-0.02,0.03-0.04,0.04c0,0,0,0,0,0c0,0,0,0,0,0
			c0,0,0,0,0,0c0.01,0,0.02,0,0.02-0.01c0,0,0.01,0,0.01-0.01C18.81,20.38,18.82,20.37,18.82,20.35z"/>
		<path class="st0" d="M20.02,21.25C20.02,21.25,20.01,21.25,20.02,21.25c-0.02-0.04-0.03-0.08-0.05-0.11
			c0-0.01-0.01-0.02-0.03-0.03c-0.02-0.01-0.04-0.02-0.06-0.03c-0.04-0.01-0.08-0.03-0.12-0.03c-0.05-0.01-0.09-0.02-0.14-0.02
			c-0.02,0-0.04,0-0.06-0.01c-0.03,0-0.06,0-0.09,0c-0.05,0-0.1,0-0.15,0s-0.1,0.01-0.15,0.01c-0.05,0.01-0.09,0.01-0.13,0.03
			c-0.03,0.01-0.07,0.02-0.1,0.04c0,0-0.01,0.01-0.02,0.01c-0.01,0.01-0.02,0.02-0.03,0.04c-0.01,0.03-0.03,0.07-0.04,0.1
			c0,0,0,0,0,0c0,0,0,0-0.01,0c-0.04-0.02-0.08-0.03-0.11-0.06c-0.01-0.01-0.02-0.02-0.03-0.03c-0.01-0.01-0.01-0.02-0.01-0.04
			c0-0.02,0-0.03,0.02-0.05c0.01-0.02,0.03-0.03,0.05-0.05c0.03-0.02,0.07-0.04,0.11-0.05c0.06-0.02,0.11-0.03,0.17-0.04
			c0.04-0.01,0.07-0.01,0.11-0.01c0.06-0.01,0.13-0.01,0.19-0.01c0.06,0,0.13,0,0.19,0c0.04,0,0.09,0.01,0.13,0.01
			c0.03,0,0.06,0,0.08,0.01c0.04,0,0.08,0.01,0.12,0.02c0.05,0.01,0.1,0.02,0.14,0.04c0.02,0.01,0.05,0.02,0.08,0.03
			c0.02,0.01,0.03,0.02,0.05,0.03c0.01,0.01,0.02,0.02,0.03,0.04s0.01,0.03,0,0.05c-0.01,0.02-0.02,0.03-0.03,0.04
			c-0.02,0.02-0.04,0.03-0.07,0.05c-0.02,0.01-0.03,0.01-0.05,0.02C20.02,21.25,20.02,21.25,20.02,21.25z"/>
		<path class="st1" d="M19.44,20.31c-0.02,0-0.04,0-0.07,0c0,0-0.01,0-0.01,0c-0.01,0-0.02-0.01-0.02-0.02c0-0.02,0-0.03,0.01-0.05
			c0-0.02,0.01-0.02,0.02-0.02c0.04,0,0.09,0,0.13,0c0,0,0.01,0,0.01,0c0,0,0.01,0,0.01,0.01c0,0,0,0.01,0,0.01
			c0,0.02,0,0.03,0.01,0.05c0,0,0,0,0,0.01c0,0.01-0.01,0.01-0.01,0.01c0,0-0.01,0-0.01,0C19.48,20.31,19.46,20.31,19.44,20.31
			L19.44,20.31z"/>
		<path class="st1" d="M19.64,20.23c0.01,0,0.02,0,0.03,0c0.02,0,0.05,0.01,0.07,0.01c0.01,0,0.02,0.01,0.02,0.02
			c0,0.01,0.01,0.02,0.01,0.04c0,0,0,0,0,0.01c0,0.02,0,0.03-0.02,0.03c-0.02,0-0.05-0.01-0.07-0.01c-0.02,0-0.03,0-0.05,0
			c-0.01,0-0.02-0.01-0.02-0.02c0-0.02,0-0.03-0.01-0.05C19.61,20.24,19.62,20.23,19.64,20.23z"/>
		<path class="st1" d="M19.24,20.23c0.01,0,0.02,0.01,0.02,0.02c0,0.02,0,0.04-0.01,0.06c0,0.01-0.01,0.01-0.02,0.02
			c-0.01,0-0.01,0-0.02,0c-0.03,0-0.06,0.01-0.09,0.01c0,0-0.01,0-0.01,0c-0.01,0-0.02-0.01-0.02-0.02c0,0,0-0.01,0-0.01
			c0.01-0.01,0.01-0.03,0.02-0.04c0-0.01,0.01-0.01,0.02-0.02c0.02,0,0.05-0.01,0.07-0.01C19.22,20.23,19.23,20.23,19.24,20.23z"/>
		<path class="st1" d="M18.91,20.37c-0.01,0-0.02-0.01-0.02-0.02c0,0,0,0,0-0.01c0-0.01,0.01-0.02,0.02-0.04
			c0-0.01,0.01-0.01,0.02-0.02c0.02-0.01,0.04-0.01,0.06-0.02c0.01,0,0.03,0.01,0.02,0.02c0,0.02-0.01,0.03-0.01,0.05
			c0,0,0,0.01-0.01,0.01c0,0-0.01,0-0.01,0c-0.02,0-0.04,0.01-0.06,0.01C18.91,20.37,18.91,20.37,18.91,20.37z"/>
		<path class="st1" d="M19.99,20.35c0,0.01-0.01,0.02-0.02,0.02c0,0-0.01,0-0.01,0c-0.02,0-0.04-0.01-0.07-0.01
			c-0.01,0-0.02-0.01-0.02-0.02c0-0.01-0.01-0.03-0.01-0.04c0,0,0,0,0-0.01c0-0.01,0.01-0.02,0.02-0.02c0.01,0,0.01,0,0.02,0
			c0.01,0,0.03,0.01,0.04,0.01c0.01,0,0.01,0.01,0.02,0.01C19.97,20.32,19.98,20.33,19.99,20.35
			C19.99,20.35,19.99,20.35,19.99,20.35z"/>
		<path class="st1" d="M20.11,20.41C20.1,20.41,20.1,20.41,20.11,20.41c-0.02,0-0.04,0-0.04-0.02c0-0.01-0.01-0.02-0.01-0.02
			c0,0,0,0,0,0s0,0,0,0s0,0,0,0C20.08,20.37,20.09,20.38,20.11,20.41C20.1,20.4,20.1,20.4,20.11,20.41z"/>
		<path class="st1" d="M18.82,20.35c0,0.01-0.01,0.02-0.01,0.04c0,0-0.01,0.01-0.01,0.01c-0.01,0-0.02,0.01-0.02,0.01c0,0,0,0,0,0
			c0,0,0,0,0,0c0,0,0,0,0,0c0.01-0.01,0.02-0.03,0.04-0.04C18.81,20.35,18.82,20.35,18.82,20.35z"/>
	</g>
	<g>
		<path class="st2" d="M3.38,24.14c0,0-0.29,0.34-0.91,0.34c-0.81,0-1.37-0.6-1.37-1.37c0-0.77,0.56-1.38,1.37-1.38
			c0.62,0,0.91,0.34,0.91,0.34L3.2,22.3c0,0-0.28-0.28-0.73-0.28c-0.63,0-1.06,0.49-1.06,1.09c0,0.59,0.43,1.08,1.06,1.08
			c0.45,0,0.73-0.28,0.73-0.28L3.38,24.14z"/>
		<path class="st2" d="M4.97,21.79h1.07c0.66,0,1.05,0.31,1.05,0.88c0,0.43-0.25,0.71-0.62,0.82v0.01l0.69,0.84v0.07H6.83
			l-0.72-0.87H5.28v0.87H4.97V21.79z M6.04,22.07H5.28v1.19h0.8c0.41,0,0.7-0.18,0.7-0.59C6.78,22.26,6.48,22.07,6.04,22.07z"/>
		<path class="st2" d="M10.54,23.26H9.11v0.87h1.62v0.28H8.81v-2.63h1.93v0.28H9.11v0.91h1.43V23.26z"/>
		<path class="st2" d="M13.3,21.79h0.07l1.3,2.63h-0.35l-0.23-0.46h-1.49l-0.23,0.46h-0.35L13.3,21.79z M13.35,22.41h-0.04
			l-0.56,1.22l-0.02,0.04h1.2l-0.02-0.04L13.35,22.41z"/>
		<path class="st2" d="M15.56,21.79h2.15v0.28h-0.92v2.34h-0.31v-2.34h-0.92C15.56,22.07,15.56,21.79,15.56,21.79z"/>
		<path class="st2" d="M19.55,24.42h-0.31v-2.63h0.31V24.42z"/>
		<path class="st2" d="M22.65,23.18l0.68-1.4h0.34l-1.29,2.63h-0.07l-1.29-2.63h0.34l0.7,1.4l0.27,0.64h0.03L22.65,23.18z"/>
		<path class="st2" d="M26.89,23.26h-1.43v0.87h1.62v0.28h-1.92v-2.63h1.92v0.28h-1.62v0.91h1.43V23.26z"/>
		<path class="st2" d="M30.7,23.93c0,0,0.27,0.25,0.79,0.25c0.49,0,0.7-0.18,0.7-0.45c0-0.25-0.16-0.37-0.74-0.53
			c-0.64-0.18-0.92-0.37-0.92-0.77c0-0.45,0.37-0.71,0.97-0.71c0.64,0,0.93,0.25,0.93,0.25l-0.17,0.25c0,0-0.27-0.21-0.76-0.21
			c-0.38,0-0.66,0.15-0.66,0.42c0,0.21,0.17,0.32,0.74,0.48c0.7,0.19,0.91,0.42,0.91,0.81c0,0.42-0.3,0.74-1,0.74
			c-0.66,0-0.96-0.31-0.96-0.31L30.7,23.93z"/>
		<path class="st2" d="M34.15,21.79h1.08c0.65,0,1.04,0.31,1.04,0.88c0,0.59-0.42,0.91-1.06,0.91h-0.75v0.84h-0.31V21.79z
			 M35.22,22.07h-0.76v1.22h0.76c0.45,0,0.74-0.18,0.74-0.62C35.96,22.26,35.66,22.07,35.22,22.07z"/>
		<path class="st2" d="M38.59,21.79h0.07l1.29,2.63H39.6l-0.23-0.46h-1.49l-0.23,0.46H37.3L38.59,21.79z M38.64,22.41H38.6
			l-0.55,1.22l-0.02,0.04h1.2l-0.02-0.04L38.64,22.41z"/>
		<path class="st2" d="M43.44,24.14c0,0-0.29,0.34-0.91,0.34c-0.81,0-1.37-0.6-1.37-1.37c0-0.77,0.56-1.38,1.37-1.38
			c0.62,0,0.91,0.34,0.91,0.34l-0.18,0.24c0,0-0.27-0.28-0.73-0.28c-0.63,0-1.06,0.49-1.06,1.09c0,0.59,0.43,1.08,1.06,1.08
			c0.46,0,0.73-0.28,0.73-0.28L43.44,24.14z"/>
		<path class="st2" d="M46.76,23.26h-1.43v0.87h1.62v0.28h-1.93v-2.63h1.93v0.28h-1.62v0.91h1.43
			C46.76,22.98,46.76,23.26,46.76,23.26z"/>
	</g>
</g>
</svg>
