<?xml version="1.0" encoding="utf-8"?>
<!-- Generator: Adobe Illustrator 16.0.0, SVG Export Plug-In . SVG Version: 6.00 Build 0)  -->
<!DOCTYPE svg PUBLIC "-//W3C//DTD SVG 1.1//EN" "http://www.w3.org/Graphics/SVG/1.1/DTD/svg11.dtd">
<svg version="1.1" id="Capa_1" xmlns="http://www.w3.org/2000/svg" xmlns:xlink="http://www.w3.org/1999/xlink" x="0px" y="0px"
	 width="430.113px" height="430.114px" viewBox="0 0 430.113 430.114" enable-background="new 0 0 430.113 430.114"
	 xml:space="preserve">
<g>
	<g>
		<path fill="#FFFFFF" d="M220.887,326.838c-0.508,0.293-1.104,0.441-1.789,0.441c-0.225,0-0.456-0.014-0.693-0.043l0.559-2.078
			c0.193,0,0.38,0,0.559,0c0.97,0,1.707-0.5,2.215-1.502h8.767l-0.673,2.275h-5.399l-0.973,3.822h4.003l-0.67,2.297h-3.952
			l-1.552,5.877h5.637l-0.67,2.295h-8.902"/>
		<path fill="#FFFFFF" d="M237.234,340.223h-8.901l3.534-13.385c-0.508,0.293-1.104,0.441-1.789,0.441
			c-0.225,0-0.455-0.014-0.693-0.043l0.559-2.078c0.195,0,0.381,0,0.561,0c0.971,0,1.709-0.5,2.217-1.502h3.314l-3.791,14.271h5.661
			L237.234,340.223z"/>
	</g>
</g>
<g>
	<g>
		<rect x="191.031" y="177.539" fill="none" width="43.419" height="42.279"/>
	</g>
	<g>
		<path fill="#FFFFFF" d="M215.779,248.169c0,0-1.942-2.661,6.464-2.661c2.693,0-7.271-1.14-0.627-6.387
			c0,0-7.363,2.054-6.913-2.734c0,0-3.322,4.559-6.285-0.99c0,0,2.783,5.323-4.488,3.955c-7.272-1.37,7.361,1.671,0.807,5.32
			c0,0,5.746-1.218,5.028,3.345C209.766,248.017,211.65,243.457,215.779,248.169z"/>
		<path fill="#231F20" d="M215.779,248.365c-0.054,0-0.107-0.021-0.146-0.065c-1.203-1.373-2.315-2.069-3.307-2.069
			c-1.593,0-2.373,1.843-2.381,1.861c-0.038,0.091-0.137,0.143-0.233,0.114c-0.096-0.026-0.156-0.123-0.141-0.219
			c0.157-0.995,0.002-1.775-0.458-2.312c-0.673-0.789-1.896-0.953-2.804-0.953c-0.846,0-1.524,0.141-1.531,0.142
			c-0.094,0.021-0.189-0.031-0.224-0.123c-0.033-0.09,0.004-0.191,0.088-0.238c1.112-0.619,1.662-1.253,1.636-1.884
			c-0.059-1.355-2.727-2.557-3.865-3.069c-0.677-0.305-0.798-0.36-0.757-0.557c0.014-0.062,0.066-0.17,0.261-0.17
			c0.195,0,0.673,0.078,2.048,0.338c0.782,0.146,1.479,0.22,2.075,0.22c0,0,0,0,0.001,0c1.245,0,2.07-0.317,2.452-0.948
			c0.683-1.127-0.24-2.925-0.249-2.943c-0.049-0.095-0.013-0.213,0.082-0.263c0.096-0.049,0.213-0.015,0.264,0.081
			c0.938,1.758,1.996,2.648,3.145,2.648c1.562,0,2.797-1.666,2.809-1.683c0.052-0.07,0.146-0.099,0.228-0.067
			c0.082,0.03,0.132,0.113,0.125,0.2c-0.081,0.86,0.1,1.539,0.538,2.021c0.569,0.623,1.565,0.939,2.968,0.939
			c1.596,0,3.146-0.428,3.161-0.431c0.088-0.025,0.184,0.017,0.225,0.099c0.043,0.083,0.021,0.186-0.051,0.243
			c-1.618,1.276-2.372,2.411-2.239,3.367c0.178,1.287,1.947,2.019,2.798,2.37c0.489,0.204,0.653,0.271,0.612,0.477
			c-0.041,0.213-0.29,0.213-0.665,0.213c-4.897,0-6.094,0.916-6.371,1.464c-0.236,0.466,0.062,0.882,0.066,0.887
			c0.061,0.082,0.046,0.203-0.036,0.268C215.866,248.351,215.823,248.365,215.779,248.365z M212.327,245.838
			c0.954,0,1.983,0.549,3.065,1.631c0.009-0.15,0.047-0.313,0.131-0.478c0.553-1.089,2.732-1.654,6.474-1.679
			c-0.961-0.4-2.689-1.186-2.888-2.615c-0.134-0.961,0.458-2.036,1.759-3.201c-0.618,0.119-1.525,0.259-2.466,0.259
			c-1.516,0-2.611-0.358-3.255-1.066c-0.411-0.45-0.631-1.037-0.657-1.752c-0.516,0.546-1.525,1.407-2.755,1.407
			c-0.958,0-1.846-0.519-2.652-1.546c0.1,0.597,0.087,1.272-0.255,1.836c-0.456,0.755-1.394,1.137-2.786,1.137c0,0-0.001,0-0.001,0
			c-0.62,0-1.343-0.077-2.147-0.229c-0.352-0.066-0.66-0.123-0.923-0.172c1.392,0.641,3.636,1.781,3.698,3.23
			c0.026,0.611-0.337,1.202-1.083,1.759c0.217-0.018,0.462-0.03,0.724-0.03c0.99,0,2.332,0.189,3.101,1.088
			c0.391,0.459,0.595,1.049,0.611,1.763C210.451,246.578,211.207,245.838,212.327,245.838z"/>
	</g>
	<g>
		<path fill="#231F20" d="M209.569,248.534l0.192-1.222c0.144-0.913,0.002-1.625-0.422-2.121c-0.618-0.723-1.735-0.875-2.565-0.875
			c-0.767,0-1.387,0.13-1.393,0.131l-0.949,0.2l0.847-0.472c1.019-0.568,1.522-1.151,1.498-1.736
			c-0.054-1.249-2.484-2.341-3.522-2.808c-0.607-0.272-0.701-0.315-0.667-0.47c0.013-0.06,0.059-0.131,0.207-0.131
			c0.173,0,0.606,0.071,1.85,0.308c2.204,0.412,3.618,0.182,4.135-0.674c0.628-1.036-0.215-2.684-0.224-2.698l0.259-0.138
			c0.856,1.604,1.823,2.417,2.876,2.417c1.434,0,2.559-1.524,2.57-1.538l0.313-0.432l-0.048,0.531
			c-0.075,0.788,0.093,1.413,0.495,1.855c0.52,0.57,1.432,0.861,2.712,0.861c1.452,0,2.857-0.388,2.871-0.392l0.704-0.196
			l-0.573,0.453c-1.477,1.164-2.163,2.201-2.04,3.08c0.164,1.184,1.778,1.852,2.556,2.174c0.437,0.18,0.568,0.235,0.535,0.397
			c-0.032,0.16-0.218,0.167-0.572,0.167c-4.453,0-5.547,0.841-5.802,1.345c-0.221,0.437,0.06,0.83,0.062,0.835l-0.228,0.181
			c-1.096-1.249-2.111-1.882-3.019-1.882c-1.463,0-2.179,1.688-2.186,1.705L209.569,248.534z M212.228,245.391
			c0.87,0,1.812,0.511,2.806,1.518c-0.001-0.15,0.031-0.317,0.118-0.49c0.504-0.991,2.519-1.498,5.99-1.504c0,0-0.002,0-0.003-0.002
			c-0.827-0.342-2.546-1.053-2.734-2.403c-0.119-0.881,0.439-1.873,1.67-2.95c-0.56,0.114-1.433,0.257-2.34,0.257
			c-1.365,0-2.35-0.319-2.928-0.956c-0.381-0.418-0.578-0.971-0.589-1.642c-0.445,0.486-1.379,1.319-2.525,1.319
			c-0.89,0-1.711-0.499-2.455-1.488c0.112,0.563,0.124,1.224-0.205,1.768c-0.59,0.976-2.089,1.251-4.44,0.807
			c-0.432-0.081-0.792-0.147-1.076-0.196c1.223,0.554,3.495,1.625,3.553,2.999c0.024,0.566-0.331,1.116-1.057,1.635
			c0.22-0.021,0.481-0.037,0.762-0.037c0.891,0,2.099,0.167,2.788,0.976c0.366,0.429,0.548,0.989,0.547,1.671
			C210.484,246.121,211.177,245.391,212.228,245.391z"/>
	</g>
	<g>
		<g>
			<path d="M209.459,240.482l-0.179-0.186c-0.021-0.018-0.055-0.038-0.105-0.057c-0.05-0.015-0.09-0.025-0.121-0.025
				s-0.069,0.009-0.116,0.025c-0.046,0.014-0.083,0.035-0.11,0.064c-0.023,0.023-0.054,0.091-0.091,0.203
				c-0.031,0.11-0.047,0.22-0.047,0.327v0.479h0.365v0.369h-0.365v1.204c0,0.06-0.004,0.127-0.015,0.194
				c-0.01,0.07-0.025,0.136-0.043,0.2c-0.019,0.066-0.042,0.125-0.069,0.18c-0.027,0.054-0.058,0.1-0.092,0.133l-0.185,0.181
				l-0.657-0.165l0.185-0.179c0.032-0.034,0.062-0.106,0.093-0.216c0.034-0.104,0.051-0.213,0.051-0.328v-2.053
				c0-0.06,0.005-0.124,0.015-0.192c0.01-0.069,0.025-0.137,0.044-0.197c0.019-0.064,0.041-0.123,0.069-0.179
				c0.027-0.054,0.058-0.098,0.092-0.133c0.041-0.04,0.093-0.077,0.158-0.112c0.065-0.034,0.137-0.063,0.215-0.09
				c0.079-0.025,0.162-0.047,0.249-0.062c0.087-0.017,0.171-0.022,0.254-0.022c0.085,0,0.171,0.006,0.258,0.022
				c0.088,0.015,0.17,0.036,0.25,0.062c0.078,0.026,0.149,0.056,0.212,0.09c0.063,0.035,0.115,0.072,0.156,0.112l0.186,0.186
				L209.459,240.482z"/>
		</g>
		<g>
			<path d="M210.679,240.95h-0.733v-0.369h0.733V240.95z M210.679,241.314v2.562h-0.733v-2.562H210.679z"/>
		</g>
		<g>
			<path d="M211.72,243.875h-0.733v-4.028h0.733V243.875z"/>
		</g>
		<g>
			<path d="M215.284,243.875h-0.733v-1.573c0-0.119-0.016-0.229-0.046-0.333c-0.031-0.103-0.064-0.171-0.098-0.204l-0.036-0.037
				l-0.041,0.037c-0.027,0.022-0.06,0.094-0.097,0.21c-0.03,0.111-0.045,0.223-0.045,0.327v1.573h-0.734v-1.573
				c0-0.055-0.004-0.112-0.012-0.169c-0.009-0.058-0.021-0.111-0.036-0.161c-0.015-0.049-0.032-0.092-0.049-0.128
				c-0.017-0.037-0.032-0.063-0.046-0.079l-0.041-0.037l-0.036,0.037c-0.027,0.022-0.059,0.094-0.097,0.21
				c-0.031,0.111-0.046,0.223-0.046,0.327v1.573h-0.732v-1.573c0-0.055-0.005-0.112-0.013-0.169
				c-0.008-0.058-0.021-0.111-0.036-0.161c-0.016-0.049-0.032-0.092-0.049-0.128c-0.017-0.037-0.033-0.063-0.051-0.079l-0.18-0.186
				l0.656-0.163l0.057,0.056c0.078-0.048,0.162-0.086,0.248-0.114c0.088-0.031,0.181-0.044,0.28-0.044
				c0.109,0,0.207,0.013,0.294,0.044c0.087,0.028,0.172,0.069,0.254,0.124c0.078-0.051,0.164-0.091,0.258-0.121
				c0.094-0.031,0.193-0.047,0.295-0.047c0.137,0,0.272,0.03,0.406,0.091c0.111,0.052,0.208,0.118,0.286,0.194
				c0.069,0.069,0.123,0.17,0.163,0.305c0.038,0.133,0.059,0.265,0.059,0.398V243.875z"/>
		</g>
		<g>
			<path d="M217.673,243.367c-0.04,0.085-0.093,0.159-0.159,0.228c-0.039,0.042-0.094,0.078-0.157,0.113
				c-0.067,0.034-0.139,0.064-0.214,0.092c-0.076,0.023-0.159,0.044-0.245,0.058c-0.09,0.014-0.175,0.019-0.26,0.019
				c-0.175,0-0.345-0.026-0.51-0.081c-0.169-0.056-0.294-0.122-0.367-0.2l-0.185-0.186l0.656-0.163l0.18,0.186
				c0.02,0.021,0.056,0.038,0.107,0.055c0.053,0.02,0.091,0.026,0.118,0.026c0.03,0,0.069-0.007,0.113-0.023
				c0.047-0.014,0.084-0.037,0.111-0.068c0.032-0.03,0.063-0.075,0.093-0.133c0.032-0.057,0.045-0.105,0.045-0.144
				c0-0.04-0.013-0.085-0.039-0.14c-0.027-0.054-0.061-0.101-0.104-0.144c-0.02-0.021-0.055-0.038-0.105-0.056
				c-0.05-0.017-0.087-0.025-0.113-0.025c-0.085,0-0.171-0.006-0.259-0.021c-0.088-0.013-0.171-0.033-0.251-0.059
				c-0.078-0.025-0.148-0.056-0.213-0.091c-0.062-0.036-0.112-0.076-0.154-0.116c-0.062-0.06-0.114-0.131-0.158-0.218
				c-0.046-0.088-0.068-0.165-0.068-0.229c0-0.066,0.021-0.142,0.062-0.225c0.041-0.081,0.095-0.156,0.164-0.222
				c0.042-0.041,0.093-0.076,0.154-0.112c0.064-0.034,0.135-0.063,0.213-0.089c0.08-0.025,0.163-0.047,0.251-0.062
				c0.088-0.016,0.174-0.022,0.259-0.022c0.081,0,0.164,0.007,0.253,0.022c0.089,0.015,0.171,0.036,0.248,0.062
				c0.078,0.025,0.15,0.055,0.218,0.089c0.063,0.036,0.118,0.071,0.157,0.112l0.18,0.18l-0.651,0.164l-0.186-0.178
				c-0.02-0.023-0.055-0.044-0.101-0.061c-0.045-0.015-0.086-0.021-0.118-0.021c-0.027,0-0.065,0.007-0.116,0.021
				c-0.048,0.017-0.09,0.039-0.121,0.069c-0.026,0.026-0.056,0.07-0.085,0.13c-0.031,0.058-0.048,0.106-0.048,0.142
				c0,0.038,0.015,0.085,0.042,0.139c0.027,0.055,0.062,0.104,0.103,0.143c0.023,0.024,0.059,0.045,0.104,0.061
				c0.046,0.015,0.087,0.022,0.121,0.022c0.081,0,0.164,0.008,0.253,0.022c0.089,0.016,0.171,0.037,0.248,0.062
				c0.078,0.025,0.15,0.057,0.218,0.09c0.063,0.034,0.118,0.072,0.157,0.113c0.061,0.061,0.109,0.136,0.154,0.222
				c0.044,0.088,0.066,0.162,0.066,0.225C217.734,243.208,217.715,243.284,217.673,243.367z"/>
		</g>
	</g>
	<g>
		<g>
			<path fill="#FFFFFF" d="M197.098,224.162c-0.148,0.084-0.323,0.128-0.524,0.128c-0.066,0-0.133-0.004-0.203-0.013l0.163-0.609
				c0.057,0,0.112,0,0.164,0c0.285,0,0.5-0.146,0.648-0.44h2.569l-0.197,0.666h-1.582l-0.285,1.12h1.173l-0.196,0.674h-1.158
				l-0.455,1.722h1.653l-0.197,0.674h-2.608"/>
		</g>
		<g>
			<path fill="#FFFFFF" d="M201.888,228.083h-2.608l1.036-3.921c-0.148,0.084-0.323,0.128-0.524,0.128
				c-0.066,0-0.134-0.004-0.203-0.013l0.164-0.609c0.057,0,0.111,0,0.164,0c0.285,0,0.501-0.146,0.65-0.44h0.971l-1.111,4.182h1.659
				L201.888,228.083z"/>
		</g>
	</g>
	<g>
		<g>
			<path fill="#FFFFFF" d="M205.544,224.024c-0.216,0-0.413,0.081-0.593,0.244l-0.205-0.584c0.207-0.209,0.503-0.321,0.889-0.335
				c0.404,0.005,1.277,0.006,2.621,0.006l-0.197,0.669h-1.009l-1.12,4.186h-0.973l1.112-4.186H205.544z"/>
		</g>
		<g>
			<path fill="#FFFFFF" d="M207.9,223.834c0.075,0,0.149,0,0.224,0c0.254,0,0.457-0.054,0.606-0.16
				c0.382-0.299,0.766-0.449,1.152-0.449c0.229,0,0.444,0.053,0.646,0.163c0.29,0.155,0.515,0.399,0.675,0.731
				c0.16,0.331,0.24,0.708,0.24,1.132c0,0.502-0.11,0.994-0.329,1.478c-0.233,0.517-0.545,0.931-0.936,1.242
				c-0.391,0.311-0.788,0.465-1.192,0.465c-0.229,0-0.441-0.053-0.638-0.162c-0.29-0.155-0.515-0.397-0.675-0.73
				c-0.161-0.333-0.24-0.709-0.24-1.133c0-0.501,0.109-0.992,0.33-1.477l0.144-0.246c0.066,0.019,0.129,0.025,0.191,0.025
				c0.337,0,0.601-0.184,0.79-0.555c-0.171,0.198-0.468,0.298-0.889,0.298c-0.083,0-0.171-0.006-0.264-0.014L207.9,223.834z
				 M210.206,226.269c0.166-0.447,0.25-0.863,0.25-1.258c0-0.219-0.029-0.408-0.086-0.562c-0.088-0.223-0.224-0.336-0.408-0.336
				c-0.197,0-0.409,0.127-0.632,0.376c-0.224,0.25-0.413,0.575-0.565,0.977c-0.167,0.444-0.251,0.863-0.251,1.256
				c0,0.219,0.029,0.407,0.085,0.563c0.087,0.224,0.224,0.336,0.409,0.336c0.197,0,0.407-0.124,0.628-0.375
				C209.857,226.994,210.047,226.668,210.206,226.269z"/>
		</g>
		<g>
			<path fill="#FFFFFF" d="M214.688,225.131l-1.453,2.632l-0.053-2.545l-0.793,2.991h-0.912l1.041-3.922
				c-0.15,0.087-0.326,0.128-0.526,0.128c-0.066,0-0.135-0.003-0.204-0.011l0.165-0.609c0.057,0,0.112,0,0.165,0
				c0.285,0,0.502-0.146,0.652-0.44h1.081l0.045,1.942l1.08-1.942h1.099l-1.289,4.854h-0.913L214.688,225.131z"/>
		</g>
		<g>
			<path fill="#FFFFFF" d="M217.981,227.633h-1.025l-0.331,0.576h-0.904l2.185-3.616c0.231-0.104,0.395-0.267,0.491-0.485
				c-0.224,0.2-0.488,0.303-0.795,0.303c-0.063,0-0.124-0.006-0.187-0.021l0.173-0.619c0.071,0.012,0.139,0.018,0.205,0.018
				c0.343,0,0.629-0.139,0.853-0.419l0.35-0.57v5.41h-1.014V227.633z M217.356,226.965h0.625v-1.066L217.356,226.965z"/>
		</g>
		<g>
			<path fill="#FFFFFF" d="M220.318,224.024c-0.214,0-0.412,0.081-0.591,0.244l-0.204-0.584c0.206-0.209,0.502-0.321,0.888-0.335
				c0.404,0.005,1.277,0.006,2.62,0.006l-0.196,0.669h-1.009l-1.119,4.186h-0.975l1.114-4.186H220.318z"/>
		</g>
		<g>
			<path fill="#FFFFFF" d="M223.626,224.024c-0.216,0-0.412,0.084-0.595,0.251l-0.203-0.575c0.207-0.212,0.503-0.327,0.89-0.345
				h0.186h0.189h1.198l-0.197,0.669h-0.396l-0.935,3.52h0.427l-0.156,0.666h-1.851l0.197-0.666h0.41l0.935-3.52H223.626z"/>
		</g>
		<g>
			<path fill="#FFFFFF" d="M225.344,224.024c-0.215,0-0.412,0.081-0.593,0.244l-0.205-0.584c0.208-0.209,0.503-0.321,0.889-0.335
				c0.406,0.005,1.278,0.006,2.621,0.006l-0.196,0.669h-1.009l-1.12,4.186h-0.974l1.112-4.186H225.344z"/>
		</g>
		<g>
			<path fill="#FFFFFF" d="M227.701,223.834c0.074,0,0.149,0,0.223,0c0.256,0,0.457-0.054,0.605-0.16
				c0.383-0.299,0.768-0.449,1.153-0.449c0.229,0,0.443,0.053,0.646,0.163c0.289,0.155,0.515,0.399,0.675,0.731
				c0.16,0.331,0.239,0.708,0.239,1.132c0,0.502-0.109,0.994-0.328,1.478c-0.232,0.517-0.545,0.931-0.936,1.242
				c-0.39,0.311-0.787,0.465-1.192,0.465c-0.228,0-0.44-0.053-0.638-0.162c-0.289-0.155-0.516-0.397-0.675-0.73
				c-0.161-0.333-0.239-0.709-0.239-1.133c0-0.501,0.109-0.992,0.328-1.477l0.145-0.246c0.065,0.019,0.13,0.025,0.19,0.025
				c0.338,0,0.604-0.184,0.791-0.555c-0.172,0.198-0.468,0.298-0.89,0.298c-0.083,0-0.172-0.006-0.263-0.014L227.701,223.834z
				 M230.005,226.269c0.166-0.447,0.252-0.863,0.252-1.258c0-0.219-0.028-0.408-0.088-0.562c-0.088-0.223-0.225-0.336-0.408-0.336
				c-0.196,0-0.407,0.127-0.632,0.376c-0.224,0.25-0.412,0.575-0.566,0.977c-0.166,0.444-0.248,0.863-0.248,1.256
				c0,0.219,0.027,0.407,0.084,0.563c0.088,0.224,0.224,0.336,0.407,0.336c0.198,0,0.408-0.124,0.631-0.375
				C229.657,226.994,229.847,226.668,230.005,226.269z"/>
		</g>
	</g>
	<g>
		<g>
			<path fill="#FFFFFF" d="M195.056,233.853H193.9l-0.452,1.725h1.647l-0.197,0.672h-2.599l1.031-3.922
				c-0.147,0.086-0.322,0.13-0.522,0.13c-0.065,0-0.133-0.005-0.203-0.013l0.163-0.61c0.058,0,0.112,0,0.164,0
				c0.284,0,0.499-0.146,0.647-0.438h2.56l-0.196,0.666h-1.577l-0.284,1.119h1.169L195.056,233.853z"/>
		</g>
		<g>
			<path fill="#FFFFFF" d="M197.412,236.25v-0.058l-0.26-2.938l-0.794,2.995h-0.904l1.031-3.922c-0.148,0.086-0.322,0.13-0.523,0.13
				c-0.065,0-0.132-0.005-0.202-0.013l0.163-0.61c0.057,0,0.111,0,0.164,0c0.282,0,0.498-0.146,0.646-0.438h0.94l0.268,2.785
				l0.736-2.785h0.905l-1.281,4.854H197.412z"/>
		</g>
		<g>
			<path fill="#FFFFFF" d="M202.343,233.17l-1.443,2.632l-0.052-2.545l-0.787,2.992h-0.905l1.032-3.922
				c-0.148,0.086-0.322,0.13-0.522,0.13c-0.065,0-0.133-0.005-0.202-0.013l0.163-0.61c0.057,0,0.111,0,0.163,0
				c0.282,0,0.499-0.146,0.646-0.438h1.072l0.045,1.939l1.07-1.939h1.092l-1.28,4.854h-0.904L202.343,233.17z"/>
		</g>
		<g>
			<path fill="#FFFFFF" d="M205.61,235.672h-1.018l-0.328,0.577h-0.898l2.167-3.617c0.229-0.104,0.393-0.267,0.488-0.486
				c-0.223,0.203-0.486,0.304-0.791,0.304c-0.062,0-0.123-0.006-0.184-0.018l0.171-0.621c0.07,0.012,0.138,0.018,0.204,0.018
				c0.341,0,0.622-0.14,0.846-0.418l0.348-0.572v5.411h-1.006V235.672z M204.988,235.006h0.622v-1.068L204.988,235.006z"/>
		</g>
		<g>
			<path fill="#FFFFFF" d="M209.731,231.318c0.2,0,0.435,0.036,0.705,0.109c0.249,0.068,0.42,0.14,0.517,0.207l-0.242,0.898
				c-0.328-0.222-0.726-0.337-1.196-0.341c-0.112-0.006-0.231,0.032-0.353,0.11c-0.148,0.09-0.237,0.211-0.267,0.36
				c-0.044,0.212,0.097,0.408,0.425,0.592c0.374,0.21,0.633,0.402,0.777,0.573c0.213,0.249,0.307,0.562,0.281,0.934
				c-0.026,0.43-0.235,0.811-0.626,1.14c-0.314,0.263-0.714,0.394-1.202,0.394c-0.266,0-0.539-0.045-0.817-0.137
				c-0.126-0.032-0.305-0.092-0.535-0.174l0.242-0.906c0.365,0.197,0.747,0.296,1.142,0.296c0.214,0,0.394-0.041,0.542-0.128
				c0.178-0.108,0.269-0.259,0.269-0.454c0-0.277-0.14-0.49-0.418-0.648l-0.509-0.292c-0.118-0.07-0.196-0.123-0.236-0.162
				c-0.2-0.216-0.3-0.438-0.3-0.667c0-0.082,0.012-0.174,0.033-0.273c0.148-0.014,0.296-0.079,0.444-0.194
				c0.14-0.104,0.248-0.224,0.326-0.362c-0.169,0.201-0.461,0.304-0.875,0.304c-0.086,0-0.176-0.005-0.268-0.013l0.164-0.609
				c0.079,0,0.152,0,0.222,0c0.253,0,0.453-0.054,0.601-0.16C208.928,231.449,209.312,231.318,209.731,231.318z"/>
		</g>
		<g>
			<path fill="#FFFFFF" d="M211.115,232.735c0.065,0.012,0.129,0.019,0.191,0.019c0.348,0,0.616-0.188,0.803-0.562
				c-0.17,0.201-0.463,0.304-0.882,0.304c-0.082,0-0.169-0.005-0.261-0.013l0.164-0.622c0.391,0.013,0.694-0.044,0.908-0.174
				c0.366-0.26,0.729-0.389,1.09-0.389c0.457,0,0.823,0.195,1.098,0.588l-0.203,0.765c-0.051-0.081-0.11-0.153-0.176-0.213
				c-0.147-0.148-0.304-0.223-0.47-0.229c-0.052-0.012-0.106-0.017-0.163-0.017c-0.488,0-0.904,0.438-1.249,1.312
				c-0.139,0.357-0.209,0.714-0.209,1.061c0,0.494,0.111,0.798,0.334,0.915c0.039,0.021,0.101,0.044,0.188,0.064
				c0.388,0.006,0.753-0.144,1.098-0.439l-0.255,0.964c-0.353,0.242-0.703,0.362-1.052,0.362c-0.227,0-0.435-0.052-0.627-0.155
				c-0.266-0.146-0.47-0.373-0.614-0.681c-0.144-0.305-0.216-0.654-0.216-1.047C210.612,233.922,210.78,233.317,211.115,232.735z"/>
		</g>
		<g>
			<path fill="#FFFFFF" d="M215.968,235.672h-1.016l-0.328,0.577h-0.897l2.167-3.617c0.229-0.104,0.392-0.267,0.487-0.486
				c-0.225,0.203-0.486,0.304-0.791,0.304c-0.061,0-0.122-0.006-0.183-0.018l0.17-0.621c0.07,0.012,0.139,0.018,0.203,0.018
				c0.342,0,0.623-0.14,0.847-0.418l0.346-0.572v5.411h-1.005V235.672z M215.347,235.006h0.621v-1.068L215.347,235.006z"/>
		</g>
		<g>
			<path fill="#FFFFFF" d="M218.619,232.328c-0.146,0.086-0.321,0.13-0.521,0.13c-0.064,0-0.134-0.005-0.204-0.013l0.164-0.61
				c0.059,0,0.113,0,0.163,0c0.284,0,0.5-0.146,0.646-0.438h1.039c0.519,0,0.961,0.188,1.326,0.567
				c0.157,0.212,0.235,0.45,0.235,0.715c0,0.336-0.146,0.653-0.438,0.957c-0.23,0.237-0.498,0.376-0.804,0.419
				c0.166,0.243,0.257,0.55,0.27,0.92c0,0.133-0.018,0.319-0.053,0.56c-0.035,0.239-0.053,0.397-0.053,0.475
				c0,0.114,0.022,0.195,0.066,0.241c0.085,0.099,0.132,0.149,0.137,0.149c0.043,0.042,0.095,0.063,0.156,0.063
				c0.065,0,0.158-0.022,0.28-0.07l0.125,0.693c-0.327,0.184-0.638,0.276-0.929,0.276c-0.211,0-0.39-0.045-0.528-0.137
				c-0.256-0.18-0.386-0.435-0.386-0.763c0-0.113,0.021-0.254,0.06-0.425c0.04-0.171,0.082-0.345,0.124-0.521
				c0.065-0.303,0.098-0.559,0.098-0.771c0-0.305-0.07-0.516-0.209-0.628l0.15-0.591c0.545,0.012,0.878-0.244,1-0.771
				c0.007-0.047,0.013-0.093,0.013-0.135c0-0.222-0.094-0.382-0.279-0.479c-0.13-0.071-0.271-0.1-0.423-0.091
				c-0.051,0.014-0.088,0.018-0.108,0.014l-1.109,4.187h-1.04L218.619,232.328z"/>
		</g>
		<g>
			<path fill="#FFFFFF" d="M223.39,235.672h-1.019l-0.327,0.577h-0.897l2.167-3.617c0.228-0.104,0.39-0.267,0.487-0.486
				c-0.222,0.203-0.486,0.304-0.791,0.304c-0.061,0-0.122-0.006-0.183-0.018l0.17-0.621c0.07,0.012,0.139,0.018,0.204,0.018
				c0.34,0,0.623-0.14,0.847-0.418l0.347-0.572v5.411h-1.005V235.672z M222.768,235.006h0.622v-1.068L222.768,235.006z"/>
		</g>
		<g>
			<path fill="#FFFFFF" d="M228.843,233.777c-0.188,0.803-0.49,1.413-0.908,1.831c-0.313,0.312-0.684,0.51-1.11,0.597
				c-0.151,0.03-0.397,0.045-0.738,0.045h-1.038l1.038-3.922c-0.15,0.086-0.328,0.13-0.528,0.13c-0.065,0-0.133-0.005-0.202-0.013
				l0.162-0.61c0.056,0,0.11,0,0.163,0c0.284,0,0.499-0.146,0.647-0.438v0.006v-0.006h1.031c0.584,0,1.007,0.183,1.269,0.551
				c0.195,0.275,0.295,0.639,0.295,1.092C228.923,233.285,228.895,233.53,228.843,233.777z M226.289,235.465
				c0.047,0.009,0.094,0.014,0.137,0.014c0.379,0,0.712-0.277,0.999-0.836c0.117-0.227,0.223-0.504,0.315-0.827
				c0.077-0.333,0.118-0.614,0.118-0.848c0-0.526-0.235-0.792-0.697-0.795L226.289,235.465z"/>
		</g>
		<g>
			<path fill="#FFFFFF" d="M229.464,231.874c0.072,0,0.148,0,0.222,0c0.253,0,0.452-0.054,0.603-0.16
				c0.377-0.299,0.759-0.448,1.142-0.448c0.226,0,0.439,0.055,0.641,0.162c0.286,0.154,0.51,0.399,0.668,0.731
				c0.16,0.332,0.239,0.709,0.239,1.133c0,0.502-0.108,0.993-0.327,1.477c-0.229,0.516-0.539,0.931-0.927,1.24
				c-0.389,0.312-0.781,0.466-1.184,0.466c-0.225,0-0.437-0.052-0.633-0.16c-0.287-0.156-0.51-0.399-0.669-0.731
				c-0.158-0.332-0.237-0.708-0.237-1.133c0-0.499,0.108-0.994,0.325-1.475l0.145-0.247c0.064,0.017,0.128,0.025,0.189,0.025
				c0.334,0,0.597-0.184,0.784-0.557c-0.17,0.199-0.466,0.299-0.882,0.299c-0.084,0-0.17-0.005-0.263-0.013L229.464,231.874z
				 M231.75,234.309c0.164-0.448,0.248-0.865,0.248-1.259c0-0.22-0.029-0.405-0.085-0.56c-0.087-0.226-0.222-0.338-0.404-0.338
				c-0.196,0-0.404,0.125-0.627,0.375c-0.224,0.249-0.409,0.575-0.562,0.976c-0.166,0.447-0.249,0.864-0.249,1.258
				c0,0.22,0.029,0.408,0.085,0.562c0.087,0.227,0.223,0.338,0.405,0.338c0.195,0,0.405-0.125,0.623-0.377
				C231.403,235.035,231.593,234.709,231.75,234.309z"/>
		</g>
	</g>
	<g>
		<path fill="#BD9C82" d="M207.353,213.687c0,0-0.416,1.514,0.064,2.705c0.104,0.151,0.304,0.823,0.925,1.267
			c0.456,0.325,0.912,0.212,0.912,0.212c0.176-0.216,1.127-1.198-1.465-2.703C207.385,214.933,207.228,213.98,207.353,213.687z"/>
	</g>
	<g>
		<defs>
			<rect id="SVGID_1_" x="191.081" y="177.651" width="43.466" height="42.411"/>
		</defs>
		<clipPath id="SVGID_2_">
			<use xlink:href="#SVGID_1_"  overflow="visible"/>
		</clipPath>
		<g clip-path="url(#SVGID_2_)">
			<g>
				<rect x="191.081" y="177.53" width="43.466" height="42.41"/>
			</g>
			<g>
				<polygon fill="#FFFFFF" points="212.504,171.427 215.516,181.65 224.244,173.402 220.94,183.577 233.663,178.937 
					224.694,187.046 238.888,186.936 226.034,191.375 238.888,195.815 224.694,195.704 233.663,203.812 220.94,199.174 
					224.244,209.347 215.516,201.1 212.504,211.324 209.493,201.1 200.764,209.347 204.069,199.174 191.346,203.812 
					200.314,195.704 186.121,195.815 198.973,191.375 186.121,186.936 200.314,187.046 191.346,178.937 204.069,183.577 
					200.764,173.402 209.493,181.65 				"/>
			</g>
			<g>
				<rect x="191.081" y="177.554" fill="none" width="43.466" height="42.412"/>
			</g>
			<g>
				<rect x="191.081" y="204.73" width="43.466" height="15.235"/>
			</g>
		</g>
		<g clip-path="url(#SVGID_2_)">
			<g>
				<polygon fill="#FFFFFF" points="234.546,211.4 231.79,216.267 229.255,216.267 229.264,214.383 231.8,214.383 234.537,209.79 
									"/>
			</g>
			<g>
				<rect x="231.707" y="213.985" width="0.174" height="2.255"/>
			</g>
			<g>
				<path fill="#FFFFFF" d="M207.26,214.044v1.876c0,0,0.837,1.905,1.812,1.958c0.239,0.015,14.459-0.019,14.459-0.019
					c1.769-0.04,2.473-1.245,3.005-2.208c0.599-1.195,1.55-1.217,2.747-1.164c0.256-0.079,1.162-4.116-2.934-1.504
					c0,0-0.812,0.825-1.276,2.062c0,0-0.611,0.685-1.143,0.803h-14.304c0,0-0.797,0.009-1.318-0.416
					C207.908,215.11,207.26,214.044,207.26,214.044z"/>
			</g>
			<g>
				<path fill="#FFFFFF" d="M229.686,206.879c0,0,0.775,0.619,0.491,2.304c-0.064,0.172-0.044,0.102-0.11,0.222
					c-0.303,0.555-1.263,1.864-1.263,1.864c-0.223-0.166-1.432-1.093,0.714-3.184C229.854,207.761,229.879,207.134,229.686,206.879z
					"/>
			</g>
			<g>
				<path fill="#FFFFFF" d="M231.857,209.79h2.68c0,0-0.579,0.986-0.595,1.022c-0.018,0.039-2.146,3.597-2.146,3.597l-2.496,0.014
					c0,0,0.079-1.701-0.78-1.766c-1.13-0.087-1.958,0.065-3.128,2.074c-0.448,0.769-1.304,1.374-2.17,1.374
					c-0.933,0-13.646,0-13.646,0s-2.444-0.047-2.339-2.584c0,0-0.07-3.913,4.456-6.503c0,0,1.504-0.904,2.995-0.904l13.394,0.06
					c1.271,0,2.648,0.687,1.178,2.295c-0.153,0.157-1.856,1.748-0.473,2.631C228.786,211.099,230.774,211.597,231.857,209.79z"/>
			</g>
			<g>
				<ellipse fill="#FFFFFF" cx="231.905" cy="211.786" rx="0.425" ry="0.353"/>
			</g>
		</g>
		<g clip-path="url(#SVGID_2_)">
			<g>
				<path d="M218.637,208.703c-1.269,0.263-1.905,0.596-2.37,1.294c-0.192,0.286-1.557,0.503-1.125,1.172
					c0.431,0.671,0.766,0.575,0.623,1.053c-0.144,0.479-0.336,1.869,0.525,2.108c0.862,0.239,2.108-0.193,2.588,0.671
					c0.477,0.862,1.594,0.479,2.394,0.095c0.798-0.383,0.548-1.377,2.339-1.345c0.328,0.007,4.289-0.765,2.232-2.87
					c-1.005-1.029-0.861-2.021-1.604-2.083c-0.574-0.048,0.24,0.719-1.102,0.239c-1.341-0.479-2.154-0.766-2.562-0.598
					C219.935,208.705,219.906,208.44,218.637,208.703z"/>
			</g>
			<g>
				<path d="M215.426,212.189c0,0-0.988,0.073-0.823,0.477C214.734,212.989,215.222,212.838,215.426,212.189"/>
			</g>
			<g>
				<ellipse fill="#FFFFFF" cx="220.432" cy="211.264" rx="4.286" ry="2.491"/>
			</g>
			<g>
				<path d="M217.423,211.249c-0.008,0-0.018-0.001-0.026-0.002c-0.078-0.016-0.129-0.09-0.113-0.168
					c0.049-0.253,0.172-0.446,0.368-0.572c0.402-0.257,0.965-0.122,0.988-0.116c0.077,0.02,0.124,0.098,0.106,0.175
					c-0.021,0.076-0.099,0.125-0.176,0.104c-0.005-0.001-0.466-0.112-0.766,0.079c-0.128,0.082-0.204,0.209-0.239,0.384
					C217.553,211.202,217.493,211.249,217.423,211.249z"/>
			</g>
			<g>
				<polygon points="220.904,210.016 220.413,210.061 220.174,210.491 219.979,210.038 219.496,209.941 219.865,209.617 
					219.809,209.127 220.233,209.38 220.68,209.174 220.569,209.655 				"/>
			</g>
			<g>
				<path d="M216.866,213.132c0,0-3.449,1.676-4.454,2.202c-1.005,0.529-0.287,1.293,0.335,1.055
					C213.37,216.149,216.866,213.132,216.866,213.132z"/>
			</g>
			<g>
				<ellipse fill="#3F9344" cx="212.46" cy="211.648" rx="0.479" ry="0.287"/>
			</g>
			<g>
				<path fill="#231F20" d="M218.254,209.11c0,0-0.24-2.969,2.49-2.969c0,0-2.586,1.102-2.155,2.921"/>
			</g>
			<g>
				<path d="M218.35,209.16c0,0-0.578-0.738-0.978-1.659c0.022,0.051-0.312,0.257-0.312,0.257s0.328,1.252,1.219,1.626
					L218.35,209.16z"/>
			</g>
			<g>
				<path d="M220.328,211.648c0,0,0.511,0.765,0.32,1.595c-0.191,0.831-0.32,1.852-0.32,1.852l2.491-1.341l1.474-0.963
					c0,0-1.433-0.699-2.304-0.951C221.344,211.653,220.328,211.648,220.328,211.648z"/>
			</g>
			<g>
				<path d="M218.148,215.394c0,0-0.799,0.588-0.444,0.842C217.987,216.439,218.322,216.053,218.148,215.394"/>
			</g>
			<g>
				<ellipse transform="matrix(0.8387 0.5446 -0.5446 0.8387 153.228 -87.4338)" cx="224.214" cy="214.953" rx="0.392" ry="0.286"/>
			</g>
			<g>
				<g>
					<path d="M226.362,213.467c0,0,0.727,0.671,0.909,0.276C227.419,213.427,226.976,213.172,226.362,213.467"/>
				</g>
				<g>
					<path d="M226.072,211.771c0,0,3.575,1.379,4.646,1.756c1.071,0.375,1.144-0.672,0.544-0.963
						C230.662,212.271,226.072,211.771,226.072,211.771z"/>
				</g>
				<g>
					<path d="M227.662,215.654c0.117-0.108,0.355-0.039,0.537,0.155c0.18,0.193,0.232,0.437,0.116,0.544
						c-0.116,0.11-0.356,0.041-0.536-0.153C227.598,216.006,227.545,215.762,227.662,215.654z"/>
				</g>
			</g>
			<g>
				<path d="M226.07,210.163c0,0,2.152,0.43,2.044-0.529C228.025,208.864,226.894,208.893,226.07,210.163"/>
			</g>
			<g>
				
					<ellipse transform="matrix(0.6839 0.7296 -0.7296 0.6839 228.7287 -94.3793)" cx="223.281" cy="216.771" rx="0.855" ry="0.513"/>
			</g>
		</g>
		<g clip-path="url(#SVGID_2_)">
			<g>
				<ellipse transform="matrix(0.9995 0.0302 -0.0302 0.9995 6.2094 -5.6949)" cx="191.448" cy="202.513" rx="18.632" ry="15.988"/>
				<path fill="#231F20" d="M191.635,218.79c-0.226,0-0.452-0.002-0.679-0.009c-5.042-0.153-9.735-1.983-13.211-5.156
					c-3.488-3.181-5.337-7.33-5.206-11.684c0.272-9,8.862-16.017,19.401-15.696c5.043,0.153,9.735,1.984,13.211,5.154
					c3.489,3.183,5.337,7.333,5.206,11.687C210.092,211.892,201.869,218.79,191.635,218.79z M191.264,186.806
					c-9.922,0-17.896,6.656-18.153,15.153c-0.127,4.184,1.656,8.177,5.019,11.246c3.377,3.079,7.938,4.856,12.845,5.004
					c0.221,0.007,0.44,0.01,0.661,0.01c9.922,0,17.895-6.654,18.151-15.151c0.127-4.184-1.655-8.178-5.02-11.246
					c-3.375-3.08-7.938-4.857-12.843-5.005C191.704,186.809,191.482,186.806,191.264,186.806z"/>
			</g>
			<g>
				<path fill="#FFFFFF" d="M183.304,187.989c-2.772,8.907-3.169,19.583-6.85,24.049c0,0,1.474,2.076,7.141,5.275
					c4.31,2.43,9.435,3.55,16.24,0.113c3.404-1.721,5.903-4.094,5.903-4.094c-3.232-4.266-2.27-13.236-3.676-23.577l-0.974-0.55
					c0.562,4.675,0.758,19.783-4.674,23.57c-3.036,2.115-7.154,1.336-9.382,0.043c0,0-8.932-3.556-2.728-25.191L183.304,187.989z"/>
			</g>
			<g>
				<g>
					<path fill="#E01F27" d="M184.597,219.761c0,0-5.208,3.333-3.045,11.109c0,0,1.966,0.424,3.551-0.257
						c0,0-0.457-3.943,3.958-5.09C191.213,224.962,187.405,218.23,184.597,219.761z"/>
				</g>
				<g>
					<path fill="#E01F27" d="M197.471,220.15c0,0,4.996,3.642,2.369,11.274c0,0-1.99,0.304-3.529-0.473c0,0,0.694-3.907-3.642-5.32
						C190.552,224.944,194.761,218.454,197.471,220.15z"/>
				</g>
			</g>
			<g>
				<g>
					<path fill="#B7B9BB" d="M185.196,231.154c0,0,0.607-6.981-8.388-0.617c-0.292,0.206,0.214,0.656,0.214,0.656L185.196,231.154z"
						/>
				</g>
				<g>
					<polygon fill="#FFF100" points="182.353,230.634 181.528,230.328 180.807,230.833 180.843,229.952 180.142,229.422 
						180.989,229.189 181.276,228.355 181.762,229.086 182.643,229.105 182.095,229.793 					"/>
				</g>
			</g>
			<g>
				<g>
					<path fill="#B7B9BB" d="M196.007,232.208c0,0-0.185-7.005,8.409-0.106c0.279,0.223-0.252,0.64-0.252,0.64L196.007,232.208z"/>
				</g>
				<g>
					<polygon fill="#FFF100" points="198.876,231.865 199.717,231.607 200.407,232.154 200.422,231.274 201.157,230.788 
						200.324,230.502 200.088,229.652 199.558,230.356 198.679,230.317 199.184,231.04 					"/>
				</g>
			</g>
			<g>
				<path fill="#FFFFFF" d="M197.532,218.887c0,0-0.159,0.974-0.319,1.086c-0.215,0.149-3.528,0.372-4.261,5.63
					c0,0-1.179,1.08-3.959-0.02c0,0-0.157-5.121-3.589-6.001c-0.273-0.034-0.265,0.025-0.39-0.018
					c-0.212-0.072-0.28-1.083-0.28-1.083s3.998,1.965,5.868,2.124C192.473,220.764,195.581,219.64,197.532,218.887z"/>
			</g>
			<g>
				<path fill="#FFFFFF" d="M183.11,217.22c2.533,0.896,9.749,2.641,16.382,0.417c-0.905,0.854-1.96,1.25-1.96,1.25
					s-1.298,0.757-3.346,1.269c-1.147,0.285-5.363,0.072-6.469-0.216c-0.51-0.132-3.106-1.278-3.396-1.507
					C183.315,217.641,183.11,217.22,183.11,217.22z"/>
			</g>
			<g>
				<ellipse transform="matrix(0.9995 0.0301 -0.0301 0.9995 6.7133 -5.6414)" cx="190.909" cy="220.368" rx="2.695" ry="1.251"/>
			</g>
			<g>
				<g>
					
						<ellipse transform="matrix(0.9995 0.0302 -0.0302 0.9995 6.0838 -5.6969)" fill="#FFFFFF" cx="191.609" cy="198.525" rx="8.738" ry="9.72"/>
					<path fill="#231F20" d="M191.556,208.39c-0.082,0-0.164,0-0.246-0.003c-4.897-0.148-8.747-4.692-8.583-10.13
						c0.166-5.471,4.232-9.738,9.179-9.592c4.896,0.148,8.746,4.692,8.582,10.128C200.326,204.175,196.402,208.39,191.556,208.39z
						 M191.661,188.954c-4.687,0-8.481,4.09-8.639,9.312c-0.16,5.276,3.562,9.685,8.297,9.83c4.784,0.149,8.717-4,8.877-9.31
						c0.16-5.276-3.562-9.685-8.298-9.827C191.818,188.954,191.739,188.954,191.661,188.954z"/>
				</g>
				<g>
					<path fill="#FFFFFF" d="M196.597,190.696c0,0-2.143-0.892-3.037-0.434c-0.894,0.457,2.781,1.145,2.344,3.896
						c0.616,0.414-3.911-2.56-4.524,2.233c0,0-0.712-3.63-4.268-2.445c0,0-0.713-2.305,2.392-3.429
						c2.195-0.796-1.561-0.75-2.516-0.238c0,0,2.278-1.601,4.914-1.467C194.539,188.946,195.565,189.91,196.597,190.696z"/>
					<path d="M191.38,196.626c-0.11,0-0.208-0.079-0.229-0.189c-0.021-0.102-0.522-2.495-2.703-2.495
						c-0.388,0-0.812,0.076-1.261,0.227c-0.06,0.02-0.125,0.015-0.182-0.013c-0.056-0.03-0.098-0.08-0.116-0.141
						c-0.008-0.025-0.741-2.531,2.535-3.719c0.139-0.051,0.245-0.094,0.322-0.13c-0.113-0.015-0.273-0.026-0.499-0.026
						c-0.739,0-1.744,0.129-2.149,0.346c-0.109,0.058-0.245,0.021-0.311-0.084c-0.065-0.105-0.036-0.244,0.065-0.315
						c0.092-0.064,2.375-1.65,5.061-1.51c2.498,0.127,3.602,0.984,4.576,1.741l0.222,0.17c0.075,0.04,0.125,0.118,0.125,0.208
						c0,0.129-0.104,0.234-0.234,0.234c-0.002,0-0.004,0-0.006,0c-0.031,0-0.06-0.006-0.089-0.018
						c-0.013-0.005-1.327-0.546-2.272-0.546c-0.218,0-0.396,0.028-0.529,0.086c0.096,0.085,0.279,0.209,0.434,0.314
						c0.838,0.566,2.229,1.506,2.015,3.3c0.036,0.05,0.058,0.116,0.032,0.2c-0.03,0.099-0.121,0.167-0.224,0.167
						c-0.062,0.008-0.09-0.016-0.161-0.051c-0.89-0.436-1.558-0.527-1.962-0.527c-1.26,0-2.009,0.863-2.228,2.565
						c-0.014,0.114-0.109,0.201-0.225,0.205C191.385,196.626,191.383,196.626,191.38,196.626z M188.448,193.473
						c1.652,0,2.486,1.178,2.871,2.025c0.484-1.721,1.604-2.112,2.522-2.112c0.404,0,1.041,0.08,1.864,0.435
						c0.062-1.391-1.064-2.152-1.826-2.667c-0.442-0.299-0.709-0.479-0.693-0.753c0.01-0.145,0.099-0.261,0.268-0.348
						c0.202-0.104,0.466-0.157,0.782-0.157c0.345,0,0.724,0.062,1.079,0.144c-0.777-0.499-1.761-0.912-3.424-0.996
						c-1.255-0.065-2.435,0.284-3.308,0.653c0.23-0.018,0.457-0.027,0.665-0.027c0.779,0,1.116,0.111,1.164,0.386
						c0.052,0.296-0.293,0.486-0.828,0.68c-2.312,0.838-2.366,2.333-2.292,2.909C187.697,193.531,188.085,193.473,188.448,193.473z"
						/>
				</g>
				<g>
					<path fill="#006F42" d="M191.096,189.298c0,0-3.222-6.608-9.101-3.644c0,0,5.293-0.09,7.912,3.805
						C190.537,190.394,191.096,189.298,191.096,189.298z"/>
				</g>
				<g>
					<path d="M191.713,190.546c0,0-2.218-4.914-7.114-2.447"/>
				</g>
				<g>
					<g>
						<path fill="#FFFFFF" d="M191.926,189.014c0,0,3.1-6.328,9.299-2.832c0,0-7.316-0.474-7.629,3.427
							C193.503,190.761,191.926,189.014,191.926,189.014z"/>
					</g>
					<g>
						<path fill="#FFFFFF" d="M191.744,190.248c0.172-0.295,2.403-4.47,7.302-1.617c0,0-6.8-0.032-6.354,2.853
							C192.838,192.431,191.744,190.248,191.744,190.248z"/>
					</g>
				</g>
				<g>
					<path fill="#231F20" d="M184.698,196.189c0,0-0.198,4.015,5.051,3.709C189.749,199.898,189.546,196.264,184.698,196.189z"/>
					<path fill="#FFCC0F" d="M189.19,200.252L189.19,200.252c-1.659,0-2.928-0.45-3.774-1.338c-1.119-1.176-1.058-2.677-1.055-2.741
						c0.008-0.181,0.168-0.317,0.342-0.32c5.103,0.078,5.38,3.986,5.382,4.025c0.01,0.187-0.131,0.346-0.317,0.356
						C189.568,200.247,189.376,200.252,189.19,200.252z M185.052,196.539c0.048,0.446,0.225,1.256,0.859,1.917
						c0.712,0.744,1.816,1.122,3.279,1.122l0,0c0.056,0,0.113-0.001,0.169-0.002C189.179,198.752,188.394,196.725,185.052,196.539z"
						/>
				</g>
				<g>
					<path fill="#FFFFFF" d="M198.101,196.594c0,0-0.043,4.021-5.266,3.397C192.835,199.991,193.257,196.375,198.101,196.594z"/>
					<path d="M193.884,200.394c-0.343,0-0.711-0.022-1.089-0.068c-0.185-0.022-0.316-0.19-0.294-0.374
						c0.004-0.039,0.512-3.924,5.616-3.693c0.182,0.007,0.324,0.157,0.322,0.34C198.438,196.636,198.344,200.394,193.884,200.394z
						 M193.246,199.694c0.221,0.017,0.434,0.026,0.639,0.026c3.095,0,3.722-1.99,3.848-2.798c-1.753-0.015-3.064,0.521-3.875,1.572
						C193.508,198.948,193.332,199.398,193.246,199.694z"/>
				</g>
				<g>
					<path fill="#FFFFFF" d="M196.999,204.043c0.235-1.034,0.201-1.78-0.343-2.821c0,0,0.227,1.567-0.795,3.165
						c-0.22,0.344-0.32,0.376-0.305-0.115c0,0-0.238-2.218-1.753-2.615c-1.515-0.395-4.133-0.401-5.148-0.115
						c-1.016,0.284-1.545,0.583-1.601,2.439c-0.021,0.666-0.4,0.31-0.604-0.195c-0.416-1.027-0.244-3.465-0.476-2.815
						c-0.354,0.986-0.557,1.67-0.312,2.793c0.2,0.917,1.481,2.602,2.99,3.208l0.038-1.259l4.576,0.14l-0.047,1.54
						C193.219,207.392,196.274,206.255,196.999,204.043z"/>
					<path d="M193.219,207.602c-0.043,0-0.087-0.014-0.123-0.042c-0.058-0.038-0.09-0.106-0.088-0.176l0.04-1.328l-4.154-0.126
						l-0.032,1.049c-0.002,0.07-0.038,0.133-0.095,0.169c-0.058,0.038-0.13,0.045-0.195,0.019c-1.596-0.64-2.912-2.418-3.118-3.358
						c-0.255-1.175-0.049-1.883,0.32-2.91c0.027-0.075,0.089-0.249,0.264-0.249c0.253,0,0.265,0.201,0.307,0.95
						c0.035,0.633,0.09,1.59,0.3,2.106c0.063,0.158,0.135,0.274,0.191,0.346c0.001-0.022,0.003-0.048,0.004-0.078
						c0.056-1.863,0.564-2.301,1.755-2.636c0.469-0.132,1.267-0.208,2.187-0.208c1.169,0,2.288,0.118,3.072,0.322
						c1.473,0.386,1.833,2.263,1.898,2.708c0.889-1.475,0.695-2.892,0.693-2.907c-0.015-0.102,0.046-0.2,0.144-0.231
						c0.099-0.033,0.205,0.012,0.253,0.102c0.604,1.156,0.59,1.962,0.363,2.966c-0.753,2.303-3.783,3.45-3.912,3.499
						C193.269,207.597,193.245,207.602,193.219,207.602z M188.69,205.501c0.001,0,0.004,0,0.006,0l4.577,0.138
						c0.116,0.003,0.208,0.101,0.205,0.218l-0.036,1.21c0.767-0.343,2.803-1.397,3.358-3.09c0.137-0.603,0.187-1.113,0.047-1.693
						c-0.079,0.609-0.29,1.406-0.808,2.215c-0.147,0.229-0.255,0.354-0.41,0.354c-0.068,0-0.133-0.027-0.18-0.077
						c-0.085-0.087-0.112-0.221-0.103-0.512c0,0,0,0,0,0c-0.002,0-0.244-2.051-1.596-2.406c-0.739-0.192-1.848-0.307-2.965-0.307
						c-0.871,0-1.645,0.072-2.073,0.192c-0.914,0.256-1.394,0.472-1.447,2.242c-0.015,0.496-0.236,0.569-0.367,0.569l0,0
						c-0.337,0-0.577-0.529-0.641-0.691c-0.222-0.546-0.283-1.42-0.323-2.104c-0.177,0.612-0.237,1.167-0.063,1.957
						c0.169,0.778,1.258,2.265,2.582,2.932l0.028-0.943c0.001-0.057,0.025-0.11,0.066-0.148
						C188.583,205.521,188.635,205.501,188.69,205.501z"/>
				</g>
				<g>
					<g>
						<path fill="#252223" d="M188.274,203.396c0,0-0.784,1.451,0.386,1.572l4.802,0.161c0,0,1.409,0.093,0.877-1.211
							c-0.346-0.847-0.837-1.023-1.519-1.3c-0.682-0.278-2.804-0.344-3.446-0.039C189.032,202.741,188.68,202.918,188.274,203.396z"
							/>
					</g>
					<g>
						<path d="M193.585,204.926l-4.767-0.143c0,0-0.331-0.012-0.339-0.225c-0.016-0.521,0.37-1.078,1.083-1.39
							c0.623-0.276,2.714-0.276,3.449,0.193c0.6,0.382,0.76,0.892,0.866,1.301C193.939,204.896,193.585,204.926,193.585,204.926z"/>
					</g>
				</g>
			</g>
			<g>
				<path fill="#E01F27" d="M172.85,203.289c-2.461,2.224-4.241,1.133-4.241,1.133c0.795,0.25,2.909,4.244,2.909,4.244
					c2.33-0.243,2.698,0.885,2.698,0.885c0.015,0.983-1.256,0.185-1.256,0.185c-0.133-0.004-0.704-0.379-0.644,0.607
					c0.06,0.984,2.009,1.535,2.009,1.535c0.467,0.817-0.65,0.829-0.65,0.829c0.629-0.16,0.208,0.497-0.114,0.8
					c-0.323,0.304-0.9,0.195-0.9,0.195c-0.316,0.126-0.601,0.652-1.385,0.004c-0.785-0.649-0.948-1.101-0.948-1.101
					c-2.574-0.615-2.768-3.033-2.768-3.033c-4.234-1.825-4.188-6.291-4.188-6.291c-0.771-1.097,0.327-1.956,0.327-1.956
					c1.397-3.308,6.424-4.095,6.424-4.095c1.239-4.073,5.486-2.648,5.486-2.648"/>
			</g>
			<g>
				<path d="M210.326,203.087c2.364,2.062,3.242,1.033,4.157,0.891c-1.605,1.428-1.201,3.878-1.201,3.878
					c-2.112-0.139-3.688,0.94-3.688,0.94c0.021,0.888,1.14,0.125,1.14,0.125c0.12-0.008,0.623-0.366,0.602,0.524
					c-0.02,0.891-1.762,1.455-1.762,1.455c-0.393,0.753,0.616,0.725,0.616,0.725c-0.574-0.122-0.171,0.457,0.131,0.719
					c0.3,0.263,0.817,0.147,0.817,0.147c0.291,0.102,0.564,0.568,1.251-0.043c0.686-0.615,0.819-1.028,0.819-1.028
					c2.303-0.641,2.396-2.829,2.396-2.829c3.762-1.792,3.568-5.822,3.568-5.822c0.659-1.015-0.361-1.753-0.361-1.753
					c-1.918-3.974-5.936-3.479-5.936-3.479c-1.152-2.087-3.64-2.042-4.772-1.922"/>
			</g>
		</g>
	</g>
	<g>
		<g>
			<path fill="#FFFFFF" d="M212.988,197.522c0,0-1.751-4.003-5.083-1.862C207.905,195.66,210.597,194.594,212.988,197.522z"/>
		</g>
		<g>
			<path d="M209.877,202.124c0,0,1.599,4.45,5.6,1.321C215.477,203.444,211.924,205.226,209.877,202.124z"/>
		</g>
		<g>
			<path d="M215.262,201.729c0,0-1.32-3.707-4.824-1.224C210.438,200.505,213.536,199.122,215.262,201.729z"/>
		</g>
		<g>
			<path d="M217.52,203.335c0,0-2.669,0.389-1.994,3.493C215.526,206.829,215.442,204.22,217.52,203.335z"/>
		</g>
		<g>
			<path d="M215.066,203.718c0,0-2.67,0.949-1.606,4.255C213.46,207.973,213.057,205.103,215.066,203.718z"/>
		</g>
		<g>
			<path d="M218.345,200.309c0,0-1.287-4.101-5.533-2.913C212.812,197.396,216.12,197.046,218.345,200.309z"/>
		</g>
		<g>
			<path d="M215.581,208.607c0,0,3.46-1.206,3.588-5.838C219.169,202.769,218.625,206.352,215.581,208.607z"/>
		</g>
		<g>
			<path d="M213.11,211.445c0,0,2.172-0.291,2.534-2.886C215.645,208.559,215.096,210.517,213.11,211.445z"/>
		</g>
		<g>
			<path fill="#FFFFFF" d="M212.313,211.195l0.132,0.128c0,0-0.345,0.446-0.971,0.867
				C211.158,212.401,212.02,211.623,212.313,211.195z"/>
		</g>
		<g>
			<path fill="#FFFFFF" d="M211.632,210.556l0.112,0.145c0,0-0.408,0.391-1.091,0.714
				C210.311,211.577,211.279,210.935,211.632,210.556z"/>
		</g>
	</g>
</g>
</svg>
