<?xml version="1.0" encoding="utf-8"?>
<!-- Generator: Adobe Illustrator 23.0.1, SVG Export Plug-In . SVG Version: 6.00 Build 0)  -->
<svg version="1.1" id="Capa_1" xmlns="http://www.w3.org/2000/svg" xmlns:xlink="http://www.w3.org/1999/xlink" x="0px" y="0px"
	 viewBox="0 0 10 10" style="enable-background:new 0 0 10 10;" xml:space="preserve">
<style type="text/css">
	.st0{fill:#010202;}
	.st1{fill:#FFFFFF;}
	.st2{fill:#231F20;}
</style>
<rect class="st0" width="10" height="10"/>
<g>
	<g>
		<path class="st1" d="M6.1,6.2C6,6.2,6,6.3,6,6.5l0,0c0,0,0,0,0,0c0,0,0,0,0,0l0,0.1c0,0,0,0,0,0c0,0,0,0,0,0c0,0,0,0.1,0,0.1
			c0,0,0,0,0,0c0,0,0,0,0,0l0,0.1c0,0,0,0,0,0c0,0,0,0,0,0c0,0,0,0.1,0,0.1c0,0,0,0,0,0c0,0,0,0,0,0l0,0.1c0,0,0,0,0,0
			c0,0.2,0,0.5,0,0.7C6.1,8.4,6.2,9,6.3,9.1c0,0,0.1-0.6,0.1-1.4C6.3,6.9,6.2,6.2,6.1,6.2z M6.2,6.5C6.2,6.5,6.2,6.5,6.2,6.5
			L6.2,6.5C6.2,6.6,6.2,6.6,6.2,6.5C6.2,6.6,6.1,6.6,6.2,6.5L6.2,6.5C6.1,6.5,6.1,6.5,6.2,6.5z M6.2,6.7L6.2,6.7
			C6.2,6.7,6.2,6.7,6.2,6.7C6.2,6.7,6.2,6.7,6.2,6.7L6.2,6.7C6.2,6.7,6.2,6.7,6.2,6.7C6.2,6.6,6.2,6.7,6.2,6.7z M6.3,8.9L6.3,8.9
			C6.3,8.9,6.3,8.9,6.3,8.9C6.3,8.9,6.3,8.9,6.3,8.9L6.3,8.9C6.3,8.9,6.3,8.8,6.3,8.9C6.3,8.9,6.3,8.9,6.3,8.9z M6.3,8.7L6.3,8.7
			C6.3,8.7,6.3,8.8,6.3,8.7C6.3,8.7,6.3,8.7,6.3,8.7L6.3,8.7C6.3,8.7,6.3,8.7,6.3,8.7C6.3,8.7,6.3,8.7,6.3,8.7z M6.4,8.5L6.4,8.5
			C6.3,8.6,6.3,8.6,6.4,8.5C6.3,8.6,6.3,8.6,6.4,8.5L6.4,8.5C6.3,8.5,6.3,8.5,6.4,8.5C6.3,8.5,6.4,8.5,6.4,8.5z M6.4,8.4
			C6.4,8.4,6.3,8.4,6.4,8.4C6.3,8.4,6.3,8.4,6.4,8.4L6.4,8.4C6.3,8.3,6.3,8.3,6.4,8.4C6.3,8.3,6.4,8.3,6.4,8.4L6.4,8.4z M6.4,8.1
			C6.4,8.2,6.3,8.2,6.4,8.1C6.3,8.2,6.3,8.2,6.4,8.1L6.4,8.1C6.3,8.1,6.3,8.1,6.4,8.1C6.3,8.1,6.4,8.1,6.4,8.1L6.4,8.1z M6.4,7.9
			C6.4,7.9,6.3,8,6.4,7.9C6.3,8,6.3,8,6.4,7.9L6.4,7.9C6.3,7.9,6.3,7.8,6.4,7.9C6.3,7.8,6.4,7.9,6.4,7.9L6.4,7.9z M6.4,7.7
			C6.4,7.7,6.3,7.7,6.4,7.7C6.3,7.8,6.3,7.7,6.4,7.7L6.4,7.7C6.3,7.6,6.3,7.6,6.4,7.7C6.3,7.6,6.4,7.6,6.4,7.7L6.4,7.7z M6.3,7.5
			C6.3,7.5,6.3,7.5,6.3,7.5C6.3,7.5,6.3,7.5,6.3,7.5L6.3,7.5C6.3,7.5,6.3,7.4,6.3,7.5C6.3,7.4,6.3,7.4,6.3,7.5L6.3,7.5z M6.3,7.3
			C6.3,7.3,6.3,7.3,6.3,7.3C6.3,7.3,6.3,7.3,6.3,7.3L6.3,7.3C6.3,7.2,6.3,7.2,6.3,7.3C6.3,7.2,6.3,7.2,6.3,7.3L6.3,7.3z M6.3,7.1
			C6.3,7.1,6.3,7.1,6.3,7.1C6.2,7.1,6.2,7.1,6.3,7.1L6.3,7.1C6.2,7,6.2,7,6.3,7.1C6.3,7,6.3,7,6.3,7.1L6.3,7.1z M6.2,6.9
			C6.2,6.9,6.2,6.9,6.2,6.9L6.2,6.9c0-0.1,0-0.1,0-0.1C6.2,6.8,6.2,6.8,6.2,6.9L6.2,6.9C6.3,6.9,6.3,6.9,6.2,6.9z"/>
	</g>
	<g>
		<polygon class="st1" points="2.6,1.8 2.8,1.6 2.8,1.3 3.1,1.5 3.4,1.4 3.3,1.7 3.5,2 3.2,2 3,2.3 2.9,1.9 		"/>
	</g>
	<g>
		<polygon class="st1" points="3.9,0.8 4,0.9 4.3,0.9 4.2,1.1 4.3,1.4 4,1.3 3.9,1.5 3.8,1.2 3.6,1.1 3.8,1 		"/>
	</g>
	<g>
		<polygon class="st1" points="5,0.6 5,0.8 5.2,0.8 5,0.9 5,1.1 4.9,1 4.7,1.1 4.8,0.9 4.7,0.7 4.8,0.7 		"/>
	</g>
	<g>
		<polygon class="st1" points="5.7,0.7 5.7,0.8 5.9,0.9 5.7,0.9 5.7,1.1 5.6,1 5.5,1 5.5,0.9 5.5,0.8 5.6,0.8 		"/>
	</g>
	<g>
		<g>
			<path class="st1" d="M2.5,3.5L2.5,3.5c0,0.1,0,0.1,0,0.1c0,0,0,0.1-0.1,0.1C2.3,3.9,2.1,3.9,1.9,3.9c-0.1,0-0.2,0-0.3-0.1
				C1.5,3.8,1.4,3.7,1.3,3.6C1.3,3.5,1.2,3.4,1.2,3.3c0-0.1,0-0.1,0-0.2C1.3,3,1.3,3,1.4,2.9c0-0.1,0.1-0.1,0.2-0.1
				c0.1-0.1,0.2-0.1,0.3-0.1c0,0,0.1,0,0.1,0c0,0,0.1,0,0.1,0c0,0,0.1,0,0.1,0.1c0,0,0.1,0,0.1,0c0,0,0.1,0,0.1-0.1h0l0,0.6h0
				c0,0,0-0.1,0-0.1c0,0,0-0.1,0-0.1C2.3,3,2.3,3,2.2,2.9C2.2,2.8,2.1,2.8,2.1,2.8c-0.1,0-0.1,0-0.2,0c-0.1,0-0.1,0-0.2,0.1
				c0,0-0.1,0.1-0.1,0.2c0,0.1,0,0.2,0,0.3c0,0.1,0,0.2,0,0.2c0,0.1,0,0.1,0,0.2c0,0,0,0.1,0.1,0.1c0,0,0.1,0.1,0.1,0.1
				c0,0,0.1,0,0.2,0c0.1,0,0.1,0,0.1,0c0,0,0.1,0,0.1-0.1c0,0,0.1-0.1,0.1-0.1c0,0,0.1-0.1,0.1-0.1C2.4,3.6,2.4,3.5,2.5,3.5z"/>
		</g>
		<g>
			<path class="st1" d="M2.6,3.9L2.6,3.9c0.1,0,0.2,0,0.2-0.1c0,0,0.1-0.1,0.1-0.2c0,0,0-0.1,0-0.1c0,0,0-0.1,0-0.1c0,0,0-0.1,0-0.1
				c0-0.2,0-0.3,0-0.4c0,0,0-0.1,0-0.1c0,0,0,0,0-0.1c0,0-0.1,0-0.2,0h0v0l0.7,0v0h0c-0.1,0-0.1,0-0.2,0.1c0,0-0.1,0.1-0.1,0.2
				l0,0.7c0,0.1,0,0.1,0.1,0.2c0,0,0.1,0.1,0.2,0.1h0v0L2.6,3.9L2.6,3.9L2.6,3.9z"/>
		</g>
		<g>
			<path class="st1" d="M1.2,4.3l0.5,0l0.8,0.9l0-0.5c0-0.1,0-0.1,0-0.2c0,0-0.1-0.1-0.1-0.1c0,0,0,0-0.1,0c0,0-0.1,0-0.1,0v0l0.6,0
				v0h0c-0.1,0-0.1,0-0.2,0.1c0,0.1-0.1,0.1-0.1,0.2l0,0.9h0l-1-1.1l0,0.7c0,0.1,0,0.1,0,0.2c0,0,0,0.1,0.1,0.1c0,0,0.1,0,0.1,0
				c0,0,0.1,0,0.1,0v0l-0.6,0v0c0.1,0,0.1,0,0.2,0c0,0,0.1,0,0.1-0.1c0,0,0-0.1,0-0.1l0-0.7c0,0,0-0.1,0-0.1c0,0,0-0.1-0.1-0.1
				C1.3,4.4,1.2,4.4,1.2,4.3L1.2,4.3L1.2,4.3z"/>
		</g>
		<g>
			<path class="st1" d="M2.8,4.3l1.2,0l0,0.5h0c0-0.1,0-0.1-0.1-0.2c0,0,0-0.1-0.1-0.1c0,0-0.1-0.1-0.1-0.1c-0.1,0-0.2,0-0.3,0
				l-0.2,0l0,0.6h0.1c0.1,0,0.2,0,0.2-0.1c0,0,0-0.1,0.1-0.1c0,0,0-0.1,0-0.1h0l0,0.8h0c0,0,0-0.1,0-0.1c0,0,0-0.1,0-0.1
				c0,0,0,0,0-0.1C3.5,5,3.4,5,3.3,5h0l0,0.5h0.2c0.1,0,0.1,0,0.2,0c0,0,0.1,0,0.1,0c0,0,0.1,0,0.1-0.1c0.1,0,0.1-0.1,0.1-0.2
				C4,5.2,4,5.1,4,5h0l0,0.5l-1.3,0l0,0h0C2.9,5.5,3,5.4,3,5.3l0-0.7c0-0.1,0-0.1-0.1-0.2C2.9,4.4,2.9,4.4,2.8,4.3L2.8,4.3L2.8,4.3
				L2.8,4.3z"/>
		</g>
		<g>
			<path class="st1" d="M1.2,5.9l0.5,0l0.4,0.9l0.4-0.9l0.5,0v0h0c-0.1,0-0.1,0-0.2,0.1c0,0-0.1,0.1-0.1,0.2l0,0.7
				c0,0.1,0,0.1,0.1,0.2c0,0,0.1,0.1,0.2,0.1h0v0l-0.8,0v0h0.1c0.1,0,0.1,0,0.2-0.1c0,0,0.1-0.1,0.1-0.2l0-0.8h0L2,7.1h0L1.4,6h0
				l0,0.8c0,0.1,0,0.1,0,0.1c0,0,0,0.1,0.1,0.1c0,0,0.1,0,0.1,0v0l-0.6,0v0l0,0c0.1,0,0.1,0,0.2-0.1c0,0,0.1-0.1,0.1-0.2l0-0.7
				c0-0.1,0-0.1-0.1-0.2C1.3,5.9,1.3,5.9,1.2,5.9L1.2,5.9L1.2,5.9z"/>
		</g>
		<g>
			<path class="st1" d="M3.7,5.9L3.7,5.9l0.5,1.1c0,0,0,0.1,0.1,0.1c0,0,0,0,0.1,0c0,0,0.1,0,0.1,0h0v0l-0.7,0v0h0.1
				c0,0,0.1,0,0.1,0c0,0,0,0,0-0.1c0,0,0,0,0-0.1c0,0,0-0.1-0.1-0.1c0,0,0,0,0,0c0,0,0,0,0,0l0,0l-0.5,0l0,0.1c0,0,0,0.1,0,0.1
				c0,0,0,0.1,0,0.1c0,0,0,0,0.1,0.1c0,0,0,0,0,0c0,0,0,0,0.1,0v0L3,7.1v0c0,0,0.1,0,0.1,0c0,0,0,0,0.1,0c0.1,0,0.1-0.1,0.2-0.3
				L3.7,5.9z M3.6,6.2L3.3,6.7l0.5,0L3.6,6.2z"/>
		</g>
		<g>
			<path class="st1" d="M2.2,8.3L2.1,8.7l-0.9,0c0-0.1,0-0.1,0.1-0.2c0.1-0.1,0.1-0.1,0.3-0.2c0.1-0.1,0.1-0.1,0.1-0.1c0,0,0,0,0,0
				c0,0,0,0,0,0c0,0,0.1-0.1,0.1-0.1c0,0,0-0.1,0-0.2c0-0.1,0-0.2-0.1-0.2c0-0.1-0.1-0.1-0.2-0.1c-0.1,0-0.1,0-0.2,0
				c-0.1,0-0.1,0.1-0.1,0.1c0,0,0,0.1,0,0.2c0,0.1,0,0.1,0,0.1c0,0,0,0,0,0c0,0,0,0,0,0c0,0,0-0.1,0.1-0.1c0,0,0.1,0,0.1,0
				c0,0,0.1,0,0.1,0c0,0,0,0,0.1,0.1c0,0,0,0,0,0.1c0,0,0,0.1,0,0.1c0,0,0,0-0.1,0.1c0,0-0.1,0-0.1,0c-0.1,0-0.1,0-0.2-0.1
				c0,0-0.1-0.1-0.1-0.2c0,0,0-0.1,0-0.1c0,0,0-0.1,0.1-0.1c0.1-0.1,0.2-0.1,0.4-0.1c0.1,0,0.1,0,0.2,0c0.1,0,0.1,0,0.2,0.1
				c0,0,0.1,0.1,0.1,0.1c0,0,0,0.1,0,0.1c0,0.1,0,0.1-0.1,0.2c0,0,0,0-0.1,0.1c-0.1,0-0.1,0.1-0.2,0.1C1.6,8.3,1.5,8.4,1.4,8.4
				c0,0,0,0-0.1,0.1l0.5,0c0.1,0,0.1,0,0.1,0c0,0,0,0,0.1-0.1C2.1,8.4,2.1,8.4,2.2,8.3L2.2,8.3L2.2,8.3L2.2,8.3z"/>
		</g>
		<g>
			<path class="st1" d="M3.2,8.3L3.1,8.7l-0.9,0c0-0.1,0-0.1,0.1-0.2c0.1-0.1,0.1-0.1,0.3-0.2c0.1-0.1,0.1-0.1,0.1-0.1c0,0,0,0,0,0
				c0,0,0,0,0,0c0,0,0.1-0.1,0.1-0.1c0,0,0-0.1,0-0.2c0-0.1,0-0.2-0.1-0.2c0-0.1-0.1-0.1-0.2-0.1c-0.1,0-0.1,0-0.2,0
				c-0.1,0-0.1,0.1-0.1,0.1c0,0,0,0.1,0,0.2c0,0.1,0,0.1,0,0.1c0,0,0,0,0,0c0,0,0,0,0,0c0,0,0-0.1,0.1-0.1c0,0,0.1,0,0.1,0
				c0,0,0.1,0,0.1,0c0,0,0,0,0.1,0.1c0,0,0,0,0,0.1c0,0,0,0.1,0,0.1c0,0,0,0-0.1,0.1c0,0-0.1,0-0.1,0c-0.1,0-0.1,0-0.2-0.1
				c0,0-0.1-0.1-0.1-0.2c0,0,0-0.1,0-0.1c0,0,0-0.1,0.1-0.1c0.1-0.1,0.2-0.1,0.4-0.1c0.1,0,0.1,0,0.2,0c0.1,0,0.1,0,0.2,0.1
				c0,0,0.1,0.1,0.1,0.1c0,0,0,0.1,0,0.1c0,0.1,0,0.1-0.1,0.2c0,0,0,0.1-0.1,0.1c-0.1,0-0.1,0.1-0.2,0.1C2.6,8.3,2.5,8.4,2.4,8.4
				c0,0,0,0-0.1,0.1l0.5,0c0.1,0,0.1,0,0.1,0c0,0,0,0,0.1-0.1C3.1,8.4,3.1,8.4,3.2,8.3L3.2,8.3L3.2,8.3L3.2,8.3z"/>
		</g>
		<g>
			<path class="st1" d="M3.5,8l0,0.2h0C3.6,8,3.7,8,3.8,8C3.9,8,3.9,8,4,8c0.1,0,0.1,0.1,0.1,0.1c0,0.1,0.1,0.1,0.1,0.2
				c0,0.1,0,0.1-0.1,0.2C4.1,8.6,4,8.7,4,8.7c-0.1,0-0.1,0.1-0.2,0.1c-0.1,0-0.1,0-0.2,0S3.4,8.7,3.4,8.6c0,0-0.1-0.1-0.1-0.1
				c0-0.1,0-0.1-0.1-0.2c0-0.1,0-0.1,0-0.2c0-0.1,0-0.2,0-0.3c0-0.1,0.1-0.1,0.1-0.2c0.1-0.1,0.1-0.1,0.2-0.1c0.1,0,0.1,0,0.2,0
				c0.1,0,0.1,0,0.2,0C4,7.6,4,7.6,4.1,7.6c0,0,0,0.1,0,0.1c0,0,0,0.1,0,0.1c0,0-0.1,0-0.1,0c0,0-0.1,0-0.1,0c0,0,0-0.1,0-0.1
				c0,0,0-0.1,0-0.1c0,0,0,0,0.1-0.1c0,0,0,0,0,0c0,0,0,0,0,0c0,0,0,0-0.1,0c0,0-0.1,0-0.1,0c-0.1,0-0.2,0-0.2,0.1
				C3.5,7.7,3.5,7.8,3.5,8z M3.5,8.3v0.1c0,0.1,0,0.1,0,0.2c0,0,0,0.1,0.1,0.1c0,0,0.1,0,0.1,0c0.1,0,0.1,0,0.2-0.1c0,0,0,0,0-0.1
				c0,0,0-0.1,0-0.2c0-0.1,0-0.1,0-0.2c0,0,0-0.1,0-0.1c0,0-0.1,0-0.1,0c0,0-0.1,0-0.1,0c0,0-0.1,0.1-0.1,0.1
				C3.5,8.2,3.5,8.2,3.5,8.3z"/>
		</g>
	</g>
	<g>
		<g>
			<circle class="st1" cx="1.3" cy="9.2" r="0.1"/>
		</g>
		<g>
			<circle class="st1" cx="1.8" cy="9.2" r="0.1"/>
		</g>
		<g>
			<circle class="st1" cx="2.3" cy="9.2" r="0.1"/>
		</g>
		<g>
			<circle class="st1" cx="2.7" cy="9.2" r="0.1"/>
		</g>
		<g>
			<circle class="st1" cx="3.2" cy="9.2" r="0.1"/>
		</g>
		<g>
			<circle class="st1" cx="3.7" cy="9.2" r="0.1"/>
		</g>
		<g>
			<circle class="st1" cx="4.1" cy="9.2" r="0.1"/>
		</g>
	</g>
	<g>
		<path class="st1" d="M6.9,6.1C6.5,6,6.1,6,6,6.2c0,0.2,0.4,0.4,0.8,0.6c0.5,0.2,0.8,0.2,0.9,0C7.8,6.7,7.4,6.3,6.9,6.1z M6.3,6.4
			C6.3,6.4,6.3,6.4,6.3,6.4L6.3,6.4C6.2,6.4,6.2,6.4,6.3,6.4C6.2,6.3,6.3,6.3,6.3,6.4L6.3,6.4C6.3,6.4,6.3,6.4,6.3,6.4z M6.4,6.5
			C6.4,6.5,6.4,6.5,6.4,6.5L6.4,6.5C6.3,6.4,6.3,6.4,6.4,6.5C6.3,6.4,6.3,6.4,6.4,6.5L6.4,6.5C6.4,6.4,6.4,6.4,6.4,6.5z M6.5,6.5
			C6.5,6.5,6.5,6.5,6.5,6.5L6.5,6.5C6.4,6.5,6.4,6.5,6.5,6.5C6.5,6.5,6.5,6.5,6.5,6.5L6.5,6.5C6.5,6.5,6.5,6.5,6.5,6.5z M6.6,6.6
			C6.6,6.6,6.6,6.6,6.6,6.6L6.6,6.6C6.6,6.6,6.6,6.6,6.6,6.6C6.6,6.5,6.6,6.5,6.6,6.6L6.6,6.6C6.6,6.6,6.6,6.6,6.6,6.6z M6.8,6.6
			C6.7,6.6,6.7,6.6,6.8,6.6L6.8,6.6C6.7,6.6,6.7,6.6,6.8,6.6C6.7,6.6,6.7,6.6,6.8,6.6L6.8,6.6C6.8,6.6,6.8,6.6,6.8,6.6z M7.6,6.8
			L7.6,6.8C7.6,6.8,7.5,6.8,7.6,6.8C7.5,6.8,7.5,6.8,7.6,6.8L7.6,6.8C7.6,6.8,7.6,6.8,7.6,6.8C7.6,6.8,7.6,6.8,7.6,6.8z M7.7,6.8
			L7.7,6.8C7.7,6.8,7.7,6.8,7.7,6.8C7.7,6.8,7.7,6.8,7.7,6.8L7.7,6.8C7.7,6.8,7.7,6.8,7.7,6.8C7.7,6.8,7.7,6.8,7.7,6.8z"/>
	</g>
	<g>
		<path class="st1" d="M5,3.1C4.4,2.8,3.8,2.6,3.8,2.7c0,0.1,0.3,0.4,0.9,0.7c0.6,0.3,1.1,0.5,1.2,0.4C6,3.8,5.6,3.4,5,3.1z
			 M3.9,2.8C3.9,2.9,3.9,2.9,3.9,2.8L3.9,2.8C3.9,2.8,3.9,2.8,3.9,2.8C3.9,2.8,3.9,2.8,3.9,2.8L3.9,2.8C3.9,2.8,3.9,2.8,3.9,2.8z
			 M4.1,2.9C4.1,2.9,4,3,4.1,2.9L4.1,2.9C4,2.9,4,2.9,4.1,2.9C4,2.9,4,2.9,4.1,2.9L4.1,2.9C4.1,2.9,4.1,2.9,4.1,2.9z M4.2,3
			C4.2,3.1,4.2,3.1,4.2,3L4.2,3C4.1,3,4.1,3,4.2,3C4.1,3,4.2,3,4.2,3L4.2,3C4.2,3,4.2,3,4.2,3z M4.4,3.2C4.4,3.2,4.4,3.2,4.4,3.2
			L4.4,3.2C4.3,3.1,4.3,3.1,4.4,3.2C4.3,3.1,4.3,3.1,4.4,3.2L4.4,3.2C4.4,3.1,4.4,3.1,4.4,3.2z M4.5,3.3C4.5,3.3,4.5,3.3,4.5,3.3
			L4.5,3.3C4.4,3.2,4.4,3.2,4.5,3.3C4.5,3.2,4.5,3.2,4.5,3.3L4.5,3.3C4.6,3.2,4.6,3.2,4.5,3.3z M4.7,3.4C4.7,3.4,4.7,3.4,4.7,3.4
			L4.7,3.4C4.6,3.3,4.6,3.3,4.7,3.4C4.6,3.3,4.6,3.3,4.7,3.4L4.7,3.4C4.7,3.3,4.7,3.3,4.7,3.4z M4.9,3.4C4.9,3.5,4.9,3.5,4.9,3.4
			L4.9,3.4C4.8,3.4,4.8,3.4,4.9,3.4C4.8,3.4,4.8,3.4,4.9,3.4L4.9,3.4C4.9,3.4,4.9,3.4,4.9,3.4z M5.1,3.5C5.1,3.5,5,3.5,5.1,3.5
			L5.1,3.5C5,3.5,5,3.5,5.1,3.5C5,3.5,5,3.5,5.1,3.5L5.1,3.5C5.1,3.5,5.1,3.5,5.1,3.5z M5.2,3.6C5.2,3.6,5.2,3.6,5.2,3.6L5.2,3.6
			C5.1,3.6,5.1,3.6,5.2,3.6C5.2,3.6,5.2,3.5,5.2,3.6L5.2,3.6C5.2,3.6,5.2,3.6,5.2,3.6z M5.4,3.7C5.4,3.7,5.4,3.7,5.4,3.7L5.4,3.7
			C5.3,3.7,5.3,3.7,5.4,3.7C5.3,3.6,5.3,3.6,5.4,3.7L5.4,3.7C5.4,3.6,5.4,3.7,5.4,3.7z M5.6,3.7C5.5,3.7,5.5,3.7,5.6,3.7L5.6,3.7
			C5.5,3.7,5.5,3.7,5.6,3.7C5.5,3.7,5.5,3.7,5.6,3.7L5.6,3.7C5.6,3.7,5.6,3.7,5.6,3.7z M5.7,3.8C5.7,3.8,5.7,3.8,5.7,3.8L5.7,3.8
			C5.6,3.8,5.6,3.8,5.7,3.8C5.6,3.7,5.6,3.7,5.7,3.8L5.7,3.8C5.7,3.7,5.7,3.7,5.7,3.8z"/>
	</g>
	<g>
		<path class="st1" d="M7.3,5.9C7.1,5.6,7,5,7,4.5c0,0,0-0.3,0.1-0.7C6.6,3.5,6.3,3.3,6.1,3.3c-0.3,0-0.3,0.5-0.3,0.4
			c0,0.2-0.1,1.9-1,2.3c0,0,1,0.8,1.4,0.3c0.5-0.6,1.3,0.1,1.6,0.4C7.7,6.7,7.7,6.6,7.3,5.9z"/>
	</g>
	<g>
		<path class="st1" d="M5.7,3.7C5.7,3.7,5.7,3.7,5.7,3.7C5.7,3.7,5.7,3.7,5.7,3.7z"/>
	</g>
	<g>
		<path class="st1" d="M7.7,4.9C7.3,4.5,7,4.4,7,4.5c0,0.1,0.3,0.4,0.7,0.8C8,5.5,8.4,5.7,8.4,5.6C8.5,5.5,8.1,5.2,7.7,4.9z
			 M7.1,4.6C7,4.6,7,4.6,7.1,4.6L7.1,4.6C7,4.5,7,4.5,7.1,4.6C7,4.5,7,4.5,7.1,4.6L7.1,4.6C7.1,4.6,7.1,4.6,7.1,4.6z M7.2,4.7
			C7.2,4.7,7.1,4.7,7.2,4.7L7.2,4.7C7.1,4.7,7.1,4.7,7.2,4.7C7.1,4.6,7.1,4.6,7.2,4.7L7.2,4.7C7.2,4.7,7.2,4.7,7.2,4.7z M7.3,4.8
			C7.3,4.9,7.3,4.9,7.3,4.8L7.3,4.8C7.2,4.8,7.2,4.8,7.3,4.8C7.2,4.8,7.3,4.8,7.3,4.8L7.3,4.8C7.3,4.8,7.3,4.8,7.3,4.8z M7.4,5
			C7.4,5,7.4,5,7.4,5L7.4,5C7.4,4.9,7.4,4.9,7.4,5C7.4,4.9,7.4,4.9,7.4,5L7.4,5C7.4,4.9,7.4,4.9,7.4,5z M7.6,5.1
			C7.6,5.1,7.6,5.1,7.6,5.1L7.6,5.1C7.5,5.1,7.5,5,7.6,5.1C7.5,5,7.5,5,7.6,5.1L7.6,5.1C7.6,5.1,7.6,5.1,7.6,5.1z M7.8,5.2
			C7.8,5.2,7.7,5.2,7.8,5.2L7.8,5.2C7.7,5.2,7.7,5.2,7.8,5.2C7.7,5.1,7.7,5.1,7.8,5.2L7.8,5.2C7.8,5.2,7.8,5.2,7.8,5.2z M7.9,5.4
			C7.9,5.4,7.9,5.4,7.9,5.4L7.9,5.4C7.8,5.3,7.8,5.3,7.9,5.4C7.9,5.3,7.9,5.3,7.9,5.4L7.9,5.4C8,5.3,8,5.3,7.9,5.4z M8.1,5.5
			C8.1,5.5,8.1,5.5,8.1,5.5L8.1,5.5C8,5.4,8,5.4,8.1,5.5C8,5.4,8,5.4,8.1,5.5L8.1,5.5C8.1,5.4,8.1,5.4,8.1,5.5z M8.2,5.5
			C8.2,5.6,8.2,5.6,8.2,5.5L8.2,5.5C8.1,5.5,8.1,5.5,8.2,5.5C8.2,5.5,8.2,5.5,8.2,5.5L8.2,5.5C8.2,5.5,8.2,5.5,8.2,5.5z M8.3,5.6
			C8.3,5.6,8.3,5.6,8.3,5.6L8.3,5.6C8.3,5.6,8.3,5.6,8.3,5.6C8.3,5.6,8.3,5.5,8.3,5.6L8.3,5.6C8.4,5.6,8.4,5.6,8.3,5.6z"/>
	</g>
	<g>
		<path class="st1" d="M7.4,2.9c0-0.1,0-0.2,0.1-0.3C7.6,2,7,1.7,6.7,1.8C6.5,1.9,6.4,2.1,6.3,2.2c0,0.1-0.2,0.4-0.6,0.2
			C6,3.2,6.5,2.7,6.5,2.7S7.2,2.3,7.1,3C7,4.1,7.9,3.5,7.9,3.4C7.9,3.4,7.4,3.4,7.4,2.9z"/>
	</g>
	<g>
		<path class="st1" d="M6.3,2.7c0-0.1,0-0.1,0-0.2c0.1-0.2,0.2-0.4,0.4-0.4c0.2,0,0.5,0.1,0.5,0.4c0,0.3-0.2,0.5-0.4,0.6
			C6.6,3.2,6.4,3,6.3,2.7z"/>
		<path class="st2" d="M6.8,3.3c-0.1,0-0.2,0-0.3-0.1C6.3,3.1,6.3,2.9,6.2,2.7v0c0-0.1,0-0.2,0-0.2C6.3,2.2,6.5,2.1,6.7,2
			C6.9,2,7,2,7.1,2.1c0.1,0.1,0.2,0.3,0.2,0.4C7.4,2.9,7.1,3.2,6.8,3.3C6.8,3.3,6.8,3.3,6.8,3.3z M6.5,2.7c0,0.1,0.1,0.2,0.1,0.3
			C6.7,3,6.7,3.1,6.8,3C7,3,7.2,2.8,7.1,2.6c0-0.1-0.1-0.2-0.1-0.3C6.9,2.2,6.9,2.2,6.8,2.2c-0.1,0-0.3,0.1-0.3,0.3
			C6.5,2.6,6.4,2.7,6.5,2.7z"/>
	</g>
	<g>
		<path class="st1" d="M8.4,5.6C8.1,4.4,7,3.7,6.5,3.4c-0.2-0.1-1.6-1-2.6-0.7c0,0,0,0,0,0c0,0.1,0.4,0.1,0.9,0.3
			c0.6,0.3,1.1,0.8,1.1,0.8c0,0,0,0,0,0c0,0,0,0,0,0c0,0,0,0,0,0c0,0,0,0,0,0c0,0,0,0,0,0c0,0,0,0,0,0c0,0,0,0,0,0c0,0,0,0,0,0
			c0,0,0,0,0,0c0,0,0,0,0,0c0,0,0,0,0,0C5.1,6.2,6.1,8.9,6.3,9c-0.6-2.2,0-3.3,0-3.3c0,0,0,0,0.1,0c0.4,0.9,0.4,1,0.8,1.6
			C7.8,8.2,8,8.2,8,8.2c0,0,0,0,0,0c0,0,0,0,0,0C7.5,7.9,6.8,6.6,7,4.5C7.4,4.4,8.4,5.6,8.4,5.6z"/>
	</g>
	<g>
		<path class="st1" d="M5.8,3.9C5.8,3.9,5.8,3.9,5.8,3.9C5.8,3.9,5.8,3.9,5.8,3.9z"/>
	</g>
	<g>
		<path class="st1" d="M5.8,3.8C5.8,3.8,5.8,3.8,5.8,3.8C5.8,3.8,5.8,3.8,5.8,3.8z"/>
	</g>
	<g>
		<path class="st1" d="M5.8,3.9C5.8,3.9,5.8,3.9,5.8,3.9C5.8,3.9,5.8,3.9,5.8,3.9z"/>
	</g>
	<g>
		<path class="st1" d="M5.8,3.9C5.8,3.9,5.8,3.9,5.8,3.9L5.8,3.9z"/>
	</g>
	<g>
		<path class="st1" d="M5.8,3.8C5.8,3.8,5.8,3.8,5.8,3.8C5.8,3.8,5.8,3.8,5.8,3.8z"/>
	</g>
	<g>
		<path class="st1" d="M5.8,3.9C5.8,3.9,5.8,3.9,5.8,3.9C5.8,3.9,5.8,3.9,5.8,3.9z"/>
	</g>
	<g>
		<path class="st1" d="M7.1,4.4C7.1,4.4,7.1,4.4,7.1,4.4L7.1,4.4C7.1,4.4,7.1,4.4,7.1,4.4L7.1,4.4C7,4.4,7,4.4,7.1,4.4L7.1,4.4
			C7,4.4,7,4.4,7.1,4.4L7.1,4.4z"/>
	</g>
	<g>
		<path class="st1" d="M7.2,4.4C7.2,4.4,7.2,4.4,7.2,4.4L7.2,4.4C7.2,4.5,7.2,4.5,7.2,4.4L7.2,4.4C7.2,4.5,7.2,4.4,7.2,4.4L7.2,4.4
			C7.2,4.4,7.2,4.4,7.2,4.4L7.2,4.4z"/>
	</g>
	<g>
		<path class="st1" d="M7.4,4.5C7.4,4.5,7.4,4.5,7.4,4.5L7.4,4.5C7.4,4.6,7.4,4.6,7.4,4.5L7.4,4.5C7.3,4.5,7.3,4.5,7.4,4.5L7.4,4.5
			C7.3,4.5,7.3,4.5,7.4,4.5L7.4,4.5z"/>
	</g>
	<g>
		<path class="st1" d="M7.5,4.6C7.5,4.6,7.5,4.6,7.5,4.6L7.5,4.6C7.5,4.7,7.5,4.7,7.5,4.6L7.5,4.6C7.5,4.6,7.4,4.6,7.5,4.6L7.5,4.6
			C7.5,4.6,7.5,4.6,7.5,4.6L7.5,4.6z"/>
	</g>
	<g>
		<path class="st1" d="M7.7,4.8C7.7,4.8,7.7,4.8,7.7,4.8L7.7,4.8C7.7,4.8,7.7,4.8,7.7,4.8L7.7,4.8C7.6,4.8,7.6,4.7,7.7,4.8L7.7,4.8
			C7.6,4.7,7.7,4.7,7.7,4.8L7.7,4.8z"/>
	</g>
	<g>
		<path class="st1" d="M7.9,4.9C7.9,4.9,7.9,4.9,7.9,4.9L7.9,4.9C7.9,5,7.8,5,7.9,4.9L7.9,4.9C7.8,4.9,7.8,4.9,7.9,4.9L7.9,4.9
			C7.8,4.9,7.8,4.8,7.9,4.9L7.9,4.9z"/>
	</g>
	<g>
		<path class="st1" d="M8,5C8,5,8,5.1,8,5L8,5C8,5.1,8,5.1,8,5L8,5C7.9,5,7.9,5,8,5L8,5C8,5,8,5,8,5L8,5z"/>
	</g>
	<g>
		<path class="st1" d="M8.1,5.2C8.1,5.2,8.1,5.2,8.1,5.2L8.1,5.2C8.1,5.2,8.1,5.2,8.1,5.2L8.1,5.2C8.1,5.2,8.1,5.1,8.1,5.2L8.1,5.2
			C8.1,5.1,8.1,5.1,8.1,5.2L8.1,5.2z"/>
	</g>
	<g>
		<path class="st1" d="M8.3,5.3C8.3,5.3,8.3,5.3,8.3,5.3L8.3,5.3C8.2,5.3,8.2,5.3,8.3,5.3L8.3,5.3C8.2,5.3,8.2,5.3,8.3,5.3L8.3,5.3
			C8.2,5.3,8.2,5.3,8.3,5.3L8.3,5.3z"/>
	</g>
	<g>
		<path class="st1" d="M8.4,5.4C8.4,5.4,8.4,5.5,8.4,5.4L8.4,5.4C8.3,5.5,8.3,5.5,8.4,5.4L8.4,5.4C8.3,5.4,8.3,5.4,8.4,5.4L8.4,5.4
			C8.3,5.4,8.3,5.4,8.4,5.4L8.4,5.4z"/>
	</g>
	<g>
		<path class="st1" d="M8,8.2C7.9,8.2,7.9,8.2,8,8.2L8,8.2C7.9,8.2,7.9,8.2,8,8.2z"/>
	</g>
	<g>
		<path class="st1" d="M7.6,7.1C7.4,6.5,7.2,6.2,7.1,6.2c-0.1,0,0,0.6,0.3,1.2C7.6,7.9,7.9,8.3,8,8.2C8,8.1,7.9,7.6,7.6,7.1z M7.5,7
			L7.5,7C7.4,6.9,7.5,6.9,7.5,7C7.5,6.9,7.5,6.9,7.5,7L7.5,7C7.5,6.9,7.5,7,7.5,7C7.5,7,7.5,7,7.5,7z M7.6,7.1L7.6,7.1
			C7.5,7.1,7.5,7.1,7.6,7.1C7.6,7,7.6,7.1,7.6,7.1L7.6,7.1C7.6,7.1,7.6,7.1,7.6,7.1C7.6,7.2,7.6,7.2,7.6,7.1z M7.6,7.3L7.6,7.3
			C7.6,7.3,7.6,7.2,7.6,7.3C7.7,7.2,7.7,7.2,7.6,7.3L7.6,7.3C7.7,7.3,7.7,7.3,7.6,7.3C7.7,7.3,7.6,7.3,7.6,7.3z M7.7,7.5L7.7,7.5
			C7.7,7.4,7.7,7.4,7.7,7.5C7.7,7.4,7.7,7.4,7.7,7.5L7.7,7.5C7.8,7.5,7.8,7.5,7.7,7.5C7.7,7.5,7.7,7.5,7.7,7.5z M7.8,7.7L7.8,7.7
			C7.8,7.6,7.8,7.6,7.8,7.7C7.8,7.6,7.8,7.6,7.8,7.7L7.8,7.7C7.8,7.7,7.8,7.7,7.8,7.7C7.8,7.7,7.8,7.7,7.8,7.7z M7.9,7.9L7.9,7.9
			C7.8,7.8,7.8,7.8,7.9,7.9C7.9,7.8,7.9,7.8,7.9,7.9L7.9,7.9C7.9,7.9,7.9,7.9,7.9,7.9C7.9,7.9,7.9,7.9,7.9,7.9z M8,8.2
			C8,8.2,8,8.2,8,8.2C7.9,8.2,7.9,8.2,8,8.2L8,8.2C7.9,8.1,7.9,8.1,8,8.2C8,8.1,8,8.1,8,8.2L8,8.2z M7.9,8.1
			C7.9,8.1,7.9,8.1,7.9,8.1L7.9,8.1C7.9,8,7.9,8,7.9,8.1C7.9,8,7.9,8,7.9,8.1L7.9,8.1C8,8,7.9,8.1,7.9,8.1z"/>
	</g>
	<g>
		<g>
			<path class="st1" d="M4,2.7C4,2.7,4,2.7,4,2.7L4,2.7C4,2.7,4,2.7,4,2.7L4,2.7C3.9,2.7,3.9,2.7,4,2.7L4,2.7C3.9,2.7,3.9,2.6,4,2.7
				L4,2.7z"/>
		</g>
		<g>
			<path class="st1" d="M4.2,2.7C4.2,2.7,4.2,2.7,4.2,2.7L4.2,2.7C4.2,2.7,4.2,2.7,4.2,2.7L4.2,2.7C4.1,2.7,4.1,2.7,4.2,2.7L4.2,2.7
				C4.1,2.7,4.1,2.7,4.2,2.7L4.2,2.7z"/>
		</g>
		<g>
			<path class="st1" d="M4.3,2.7C4.3,2.7,4.3,2.7,4.3,2.7L4.3,2.7C4.3,2.8,4.3,2.8,4.3,2.7L4.3,2.7C4.2,2.8,4.2,2.8,4.3,2.7L4.3,2.7
				C4.2,2.7,4.3,2.7,4.3,2.7L4.3,2.7z"/>
		</g>
		<g>
			<path class="st1" d="M4.5,2.8C4.5,2.8,4.5,2.8,4.5,2.8L4.5,2.8C4.5,2.9,4.5,2.9,4.5,2.8L4.5,2.8C4.4,2.8,4.4,2.8,4.5,2.8L4.5,2.8
				C4.4,2.8,4.4,2.8,4.5,2.8L4.5,2.8z"/>
		</g>
		<g>
			<path class="st1" d="M4.7,2.9C4.7,2.9,4.7,2.9,4.7,2.9L4.7,2.9C4.7,2.9,4.7,2.9,4.7,2.9L4.7,2.9C4.6,2.9,4.6,2.9,4.7,2.9L4.7,2.9
				C4.6,2.8,4.6,2.8,4.7,2.9L4.7,2.9z"/>
		</g>
		<g>
			<path class="st1" d="M4.9,2.9C4.9,3,4.9,3,4.9,2.9L4.9,2.9C4.9,3,4.9,3,4.9,2.9L4.9,2.9C4.8,3,4.8,3,4.9,2.9L4.9,2.9
				C4.8,2.9,4.8,2.9,4.9,2.9L4.9,2.9z"/>
		</g>
		<g>
			<path class="st1" d="M5,3.1C5.1,3.1,5.1,3.1,5,3.1L5,3.1C5.1,3.1,5,3.1,5,3.1L5,3.1C5,3.1,4.9,3.1,5,3.1L5,3.1C5,3,5,3,5,3.1
				L5,3.1z"/>
		</g>
		<g>
			<path class="st1" d="M5.2,3.2C5.2,3.2,5.2,3.2,5.2,3.2L5.2,3.2C5.2,3.3,5.2,3.3,5.2,3.2L5.2,3.2C5.1,3.2,5.1,3.2,5.2,3.2L5.2,3.2
				C5.2,3.1,5.2,3.1,5.2,3.2L5.2,3.2z"/>
		</g>
		<g>
			<path class="st1" d="M5.4,3.3C5.4,3.3,5.4,3.3,5.4,3.3L5.4,3.3C5.4,3.4,5.4,3.4,5.4,3.3L5.4,3.3C5.3,3.3,5.3,3.3,5.4,3.3L5.4,3.3
				C5.3,3.3,5.3,3.3,5.4,3.3L5.4,3.3z"/>
		</g>
		<g>
			<path class="st1" d="M5.6,3.4C5.6,3.4,5.6,3.5,5.6,3.4L5.6,3.4C5.6,3.5,5.5,3.5,5.6,3.4L5.6,3.4C5.5,3.4,5.5,3.4,5.6,3.4L5.6,3.4
				C5.5,3.4,5.5,3.4,5.6,3.4L5.6,3.4z"/>
		</g>
		<g>
			<path class="st1" d="M5.7,3.5C5.7,3.5,5.7,3.6,5.7,3.5L5.7,3.5C5.7,3.6,5.7,3.6,5.7,3.5L5.7,3.5C5.6,3.5,5.6,3.5,5.7,3.5L5.7,3.5
				C5.6,3.5,5.7,3.5,5.7,3.5L5.7,3.5z"/>
		</g>
	</g>
	<g>
		<g>
			<path class="st1" d="M6,7.3C6,7.3,6,7.3,6,7.3L6,7.3C6,7.3,6,7.3,6,7.3L6,7.3C6,7.2,6,7.2,6,7.3L6,7.3C6,7.2,6,7.2,6,7.3L6,7.3z"
				/>
		</g>
		<g>
			<path class="st1" d="M6,7.5C6,7.5,6,7.5,6,7.5L6,7.5C6,7.5,6,7.5,6,7.5L6,7.5C6,7.4,6,7.4,6,7.5L6,7.5C6,7.4,6,7.4,6,7.5L6,7.5z"
				/>
		</g>
		<g>
			<path class="st1" d="M6,7.1C6,7.1,6,7.1,6,7.1L6,7.1C6,7.1,6,7.1,6,7.1L6,7.1C6,7,6,7,6,7.1L6,7.1C6,7,6,7,6,7.1L6,7.1z"/>
		</g>
		<g>
			<path class="st1" d="M6,6.9C6,6.9,6,6.9,6,6.9L6,6.9C6,6.9,6,6.9,6,6.9L6,6.9C6,6.8,6,6.8,6,6.9L6,6.9C6,6.8,6,6.8,6,6.9L6,6.9z"
				/>
		</g>
		<g>
			<path class="st1" d="M6,6.7C6,6.7,6,6.7,6,6.7L6,6.7C6,6.7,6,6.7,6,6.7L6,6.7C6.1,6.7,6,6.6,6,6.7L6,6.7C6,6.6,6,6.6,6,6.7L6,6.7
				z"/>
		</g>
		<g>
			<path class="st1" d="M6,6.5C6,6.5,6,6.6,6,6.5L6,6.5C6,6.6,6.1,6.6,6,6.5L6,6.5C6.1,6.5,6.1,6.5,6,6.5L6,6.5C6,6.5,6,6.5,6,6.5
				L6,6.5z"/>
		</g>
		<g>
			<path class="st1" d="M6,7.7C6,7.7,6,7.7,6,7.7L6,7.7C6,7.7,6,7.7,6,7.7L6,7.7C6,7.6,6,7.6,6,7.7L6,7.7C6,7.6,6,7.6,6,7.7L6,7.7z"
				/>
		</g>
		<g>
			<path class="st1" d="M6,7.9C6,7.9,6,7.9,6,7.9L6,7.9C6,7.9,6,7.9,6,7.9L6,7.9C6,7.8,6,7.8,6,7.9L6,7.9C6,7.8,6,7.8,6,7.9L6,7.9z"
				/>
		</g>
		<g>
			<path class="st1" d="M6,8.1C6,8.1,6,8.1,6,8.1L6,8.1C6.1,8.1,6.1,8.1,6,8.1L6,8.1C6.1,8,6,8,6,8.1L6,8.1C6,8,6,8.1,6,8.1L6,8.1z"
				/>
		</g>
		<g>
			<path class="st1" d="M6,8.3C6,8.3,6.1,8.3,6,8.3L6,8.3C6.1,8.3,6.1,8.3,6,8.3L6,8.3C6.1,8.2,6.1,8.2,6,8.3L6,8.3
				C6,8.2,6,8.3,6,8.3L6,8.3z"/>
		</g>
		<g>
			<path class="st1" d="M6.1,8.5C6.1,8.5,6.1,8.5,6.1,8.5L6.1,8.5C6.1,8.5,6.1,8.5,6.1,8.5L6.1,8.5C6.1,8.5,6.1,8.4,6.1,8.5L6.1,8.5
				C6.1,8.5,6.1,8.5,6.1,8.5L6.1,8.5z"/>
		</g>
		<g>
			<path class="st1" d="M6.1,8.7C6.1,8.7,6.1,8.7,6.1,8.7L6.1,8.7C6.2,8.7,6.2,8.7,6.1,8.7L6.1,8.7C6.2,8.6,6.2,8.6,6.1,8.7L6.1,8.7
				C6.1,8.6,6.1,8.7,6.1,8.7L6.1,8.7z"/>
		</g>
		<g>
			<path class="st1" d="M6.2,8.9C6.2,8.9,6.2,8.9,6.2,8.9L6.2,8.9C6.2,8.9,6.2,8.8,6.2,8.9L6.2,8.9C6.2,8.8,6.2,8.8,6.2,8.9L6.2,8.9
				C6.2,8.8,6.2,8.8,6.2,8.9L6.2,8.9z"/>
		</g>
	</g>
	<g>
		<g>
			<path class="st1" d="M7.1,6.3C7.1,6.3,7.1,6.3,7.1,6.3L7.1,6.3C7.1,6.3,7.1,6.3,7.1,6.3L7.1,6.3C7.1,6.3,7.1,6.2,7.1,6.3L7.1,6.3
				C7.1,6.2,7.1,6.2,7.1,6.3L7.1,6.3z"/>
		</g>
		<g>
			<path class="st1" d="M7.2,6.4C7.2,6.4,7.2,6.4,7.2,6.4L7.2,6.4C7.2,6.4,7.2,6.4,7.2,6.4L7.2,6.4C7.2,6.4,7.2,6.4,7.2,6.4L7.2,6.4
				C7.2,6.4,7.2,6.4,7.2,6.4L7.2,6.4z"/>
		</g>
		<g>
			<path class="st1" d="M7.3,6.6C7.3,6.6,7.3,6.6,7.3,6.6L7.3,6.6C7.3,6.6,7.3,6.6,7.3,6.6L7.3,6.6C7.3,6.5,7.3,6.5,7.3,6.6L7.3,6.6
				C7.3,6.5,7.3,6.5,7.3,6.6L7.3,6.6z"/>
		</g>
		<g>
			<path class="st1" d="M7.4,6.7C7.4,6.8,7.4,6.8,7.4,6.7L7.4,6.7C7.4,6.8,7.4,6.8,7.4,6.7L7.4,6.7C7.4,6.7,7.4,6.7,7.4,6.7L7.4,6.7
				C7.4,6.7,7.4,6.7,7.4,6.7L7.4,6.7z"/>
		</g>
	</g>
	<g>
		<g>
			<path class="st1" d="M7.1,7.1C7.2,7.1,7.2,7.1,7.1,7.1L7.1,7.1C7.2,7.1,7.2,7.1,7.1,7.1L7.1,7.1C7.2,7,7.2,7,7.1,7.1L7.1,7.1
				C7.1,7,7.1,7,7.1,7.1L7.1,7.1z"/>
		</g>
		<g>
			<path class="st1" d="M7.2,7.3C7.2,7.3,7.3,7.3,7.2,7.3L7.2,7.3C7.3,7.3,7.3,7.3,7.2,7.3L7.2,7.3C7.3,7.2,7.2,7.2,7.2,7.3L7.2,7.3
				C7.2,7.2,7.2,7.2,7.2,7.3L7.2,7.3z"/>
		</g>
		<g>
			<path class="st1" d="M7,6.3C7,6.3,7,6.3,7,6.3L7,6.3C7,6.3,7,6.3,7,6.3L7,6.3C7,6.3,7,6.3,7,6.3L7,6.3C7,6.3,7,6.3,7,6.3L7,6.3z"
				/>
		</g>
		<g>
			<path class="st1" d="M7,6.2C7,6.2,7,6.2,7,6.2L7,6.2C7,6.2,7,6.2,7,6.2L7,6.2L7,6.2L7,6.2z"/>
		</g>
		<g>
			<path class="st1" d="M7,6.5C7,6.5,7,6.5,7,6.5L7,6.5C7,6.5,7,6.5,7,6.5L7,6.5C7,6.4,7,6.4,7,6.5L7,6.5C7,6.4,7,6.5,7,6.5L7,6.5z"
				/>
		</g>
		<g>
			<path class="st1" d="M7,6.7C7,6.7,7.1,6.7,7,6.7L7,6.7C7.1,6.7,7.1,6.7,7,6.7L7,6.7C7.1,6.6,7.1,6.6,7,6.7L7,6.7
				C7,6.6,7,6.6,7,6.7L7,6.7z"/>
		</g>
		<g>
			<path class="st1" d="M7.1,6.9C7.1,6.9,7.1,6.9,7.1,6.9L7.1,6.9C7.1,6.9,7.1,6.9,7.1,6.9L7.1,6.9C7.1,6.8,7.1,6.8,7.1,6.9L7.1,6.9
				C7.1,6.8,7.1,6.8,7.1,6.9L7.1,6.9z"/>
		</g>
		<g>
			<path class="st1" d="M7.3,7.5C7.3,7.5,7.3,7.5,7.3,7.5L7.3,7.5C7.4,7.5,7.4,7.5,7.3,7.5L7.3,7.5C7.3,7.4,7.3,7.4,7.3,7.5L7.3,7.5
				C7.3,7.4,7.3,7.4,7.3,7.5L7.3,7.5z"/>
		</g>
		<g>
			<path class="st1" d="M7.4,7.6C7.4,7.6,7.4,7.6,7.4,7.6L7.4,7.6C7.4,7.6,7.4,7.6,7.4,7.6L7.4,7.6C7.4,7.6,7.4,7.5,7.4,7.6L7.4,7.6
				C7.4,7.6,7.4,7.6,7.4,7.6L7.4,7.6z"/>
		</g>
		<g>
			<path class="st1" d="M7.5,7.7C7.5,7.7,7.5,7.7,7.5,7.7C7.5,7.8,7.5,7.8,7.5,7.7L7.5,7.7C7.5,7.7,7.5,7.7,7.5,7.7L7.5,7.7
				C7.5,7.7,7.5,7.7,7.5,7.7L7.5,7.7C7.4,7.7,7.4,7.7,7.5,7.7L7.5,7.7z"/>
		</g>
		<g>
			<path class="st1" d="M7.6,7.9L7.6,7.9C7.6,7.8,7.6,7.8,7.6,7.9L7.6,7.9C7.5,7.8,7.5,7.8,7.6,7.9L7.6,7.9C7.5,7.8,7.5,7.8,7.6,7.9
				L7.6,7.9z"/>
		</g>
	</g>
	<g>
		<g>
			<path class="st1" d="M6.5,6C6.5,6,6.5,6,6.5,6L6.5,6C6.5,6,6.5,6.1,6.5,6L6.5,6C6.5,6.1,6.5,6.1,6.5,6L6.5,6C6.4,6,6.5,6,6.5,6
				L6.5,6z"/>
		</g>
		<g>
			<path class="st1" d="M6.4,6.1C6.4,6.1,6.4,6.1,6.4,6.1L6.4,6.1C6.4,6.1,6.4,6.1,6.4,6.1L6.4,6.1C6.3,6.1,6.3,6.1,6.4,6.1L6.4,6.1
				C6.3,6.1,6.3,6.1,6.4,6.1L6.4,6.1z"/>
		</g>
		<g>
			<path class="st1" d="M6.2,6.2C6.2,6.1,6.3,6.2,6.2,6.2L6.2,6.2C6.3,6.2,6.3,6.2,6.2,6.2L6.2,6.2C6.2,6.2,6.2,6.2,6.2,6.2L6.2,6.2
				C6.2,6.2,6.2,6.2,6.2,6.2L6.2,6.2z"/>
		</g>
		<g>
			<path class="st1" d="M6.7,6C6.7,6,6.7,6,6.7,6L6.7,6C6.7,6,6.7,6,6.7,6L6.7,6C6.6,6,6.6,6,6.7,6L6.7,6C6.6,6,6.6,6,6.7,6L6.7,6z"
				/>
		</g>
		<g>
			<path class="st1" d="M6.9,6C6.9,6,6.9,6,6.9,6L6.9,6C6.9,6.1,6.9,6.1,6.9,6L6.9,6C6.8,6,6.8,6,6.9,6L6.9,6C6.8,6,6.8,6,6.9,6
				L6.9,6z"/>
		</g>
		<g>
			<path class="st1" d="M7.1,6.1C7.1,6.1,7.1,6.1,7.1,6.1L7.1,6.1C7.1,6.1,7.1,6.1,7.1,6.1L7.1,6.1C7,6.1,7,6.1,7.1,6.1L7.1,6.1
				C7,6,7,6,7.1,6.1L7.1,6.1z"/>
		</g>
		<g>
			<path class="st1" d="M7.3,6.2C7.3,6.2,7.3,6.2,7.3,6.2L7.3,6.2C7.3,6.2,7.3,6.2,7.3,6.2L7.3,6.2C7.2,6.2,7.2,6.2,7.3,6.2L7.3,6.2
				C7.2,6.1,7.2,6.1,7.3,6.2L7.3,6.2z"/>
		</g>
		<g>
			<path class="st1" d="M7.4,6.3C7.4,6.3,7.4,6.3,7.4,6.3L7.4,6.3C7.4,6.3,7.4,6.3,7.4,6.3L7.4,6.3C7.3,6.3,7.3,6.3,7.4,6.3L7.4,6.3
				C7.4,6.3,7.4,6.3,7.4,6.3L7.4,6.3z"/>
		</g>
		<g>
			<path class="st1" d="M6.1,6.3C6.1,6.3,6.1,6.3,6.1,6.3L6.1,6.3C6.1,6.3,6.1,6.3,6.1,6.3L6.1,6.3C6.1,6.2,6.2,6.2,6.1,6.3L6.1,6.3
				C6.2,6.3,6.2,6.3,6.1,6.3L6.1,6.3z"/>
		</g>
		<g>
			<path class="st1" d="M6,6.4C6,6.4,6,6.4,6,6.4L6,6.4C5.9,6.4,5.9,6.3,6,6.4L6,6.4C6,6.3,6,6.3,6,6.4L6,6.4C6,6.4,6,6.4,6,6.4
				L6,6.4z"/>
		</g>
		<g>
			<path class="st1" d="M5.8,6.4C5.8,6.4,5.8,6.4,5.8,6.4L5.8,6.4C5.8,6.4,5.8,6.3,5.8,6.4L5.8,6.4C5.9,6.4,5.9,6.4,5.8,6.4L5.8,6.4
				C5.9,6.4,5.9,6.4,5.8,6.4L5.8,6.4z"/>
		</g>
		<g>
			<path class="st1" d="M5.6,6.4C5.6,6.4,5.6,6.4,5.6,6.4L5.6,6.4C5.6,6.3,5.6,6.3,5.6,6.4L5.6,6.4C5.7,6.3,5.7,6.4,5.6,6.4L5.6,6.4
				C5.7,6.4,5.7,6.4,5.6,6.4L5.6,6.4z"/>
		</g>
		<g>
			<path class="st1" d="M5.5,6.3C5.4,6.3,5.4,6.3,5.5,6.3L5.5,6.3C5.4,6.3,5.5,6.3,5.5,6.3L5.5,6.3C5.5,6.3,5.5,6.3,5.5,6.3L5.5,6.3
				C5.5,6.3,5.5,6.4,5.5,6.3L5.5,6.3z"/>
		</g>
		<g>
			<path class="st1" d="M5.3,6.3C5.3,6.3,5.3,6.3,5.3,6.3L5.3,6.3C5.3,6.2,5.3,6.2,5.3,6.3L5.3,6.3C5.4,6.3,5.4,6.3,5.3,6.3L5.3,6.3
				C5.4,6.3,5.4,6.3,5.3,6.3L5.3,6.3z"/>
		</g>
		<g>
			<path class="st1" d="M5.2,6.2C5.2,6.2,5.2,6.2,5.2,6.2L5.2,6.2C5.2,6.2,5.2,6.2,5.2,6.2L5.2,6.2C5.2,6.2,5.3,6.2,5.2,6.2L5.2,6.2
				C5.2,6.2,5.2,6.2,5.2,6.2L5.2,6.2z"/>
		</g>
		<g>
			<path class="st1" d="M5.1,6.2C5.1,6.1,5.1,6.1,5.1,6.2L5.1,6.2C5.1,6.1,5.1,6.1,5.1,6.2L5.1,6.2C5.1,6.1,5.1,6.1,5.1,6.2L5.1,6.2
				C5.1,6.2,5.1,6.2,5.1,6.2L5.1,6.2z"/>
		</g>
		<g>
			<path class="st1" d="M4.9,6.1C4.9,6.1,4.9,6.1,4.9,6.1L4.9,6.1C4.9,6,5,6,4.9,6.1L4.9,6.1C5,6.1,5,6.1,4.9,6.1L4.9,6.1
				C5,6.1,5,6.1,4.9,6.1L4.9,6.1z"/>
		</g>
		<g>
			<path class="st1" d="M4.8,6C4.8,6,4.8,6,4.8,6L4.8,6C4.8,6,4.9,6,4.8,6L4.8,6C4.9,6,4.9,6,4.8,6L4.8,6C4.9,6,4.9,6,4.8,6L4.8,6z"
				/>
		</g>
		<g>
			<path class="st1" d="M7.5,6.4C7.5,6.4,7.5,6.4,7.5,6.4L7.5,6.4C7.5,6.5,7.5,6.5,7.5,6.4L7.5,6.4C7.5,6.4,7.5,6.4,7.5,6.4L7.5,6.4
				C7.5,6.4,7.5,6.4,7.5,6.4L7.5,6.4z"/>
		</g>
		<g>
			<path class="st1" d="M7.6,6.5C7.7,6.5,7.6,6.6,7.6,6.5L7.6,6.5C7.6,6.6,7.6,6.6,7.6,6.5L7.6,6.5C7.6,6.5,7.6,6.5,7.6,6.5L7.6,6.5
				C7.6,6.5,7.6,6.5,7.6,6.5L7.6,6.5z"/>
		</g>
	</g>
</g>
</svg>
