<?xml version="1.0" encoding="utf-8"?>
<!-- Generator: Adobe Illustrator 23.0.1, SVG Export Plug-In . SVG Version: 6.00 Build 0)  -->
<svg version="1.1" id="Layer_1" xmlns="http://www.w3.org/2000/svg" xmlns:xlink="http://www.w3.org/1999/xlink" x="0px" y="0px"
	 viewBox="0 0 48 48" style="enable-background:new 0 0 48 48;" xml:space="preserve">
<style type="text/css">
	.st0{fill:#FFFFFF;}
	.st1{fill:#231F20;}
</style>
<rect y="0.3" width="48" height="48"/>
<g>
	<g>
		<path class="st0" d="M30.3,29.2c-0.2,0-0.3,0.5-0.4,1.4l0-0.2c0-0.1,0.1-0.1,0.2-0.1c0.1,0,0.1,0.1,0.1,0.1l0,0.3
			c0,0.1-0.1,0.1-0.2,0.1c-0.1,0-0.1-0.1-0.1-0.1c0,0.1,0,0.3,0,0.4c0,0,0.1,0,0.1,0c0.1,0,0.1,0.1,0.1,0.1l0,0.3
			c0,0.1-0.1,0.1-0.1,0.1c0,0,0,0,0,0c0,0.1,0,0.3,0,0.4c0,0,0,0,0,0c0.1,0,0.1,0.1,0.1,0.1l0,0.3c0,0.1-0.1,0.1-0.1,0.1
			c0,1,0.1,2.2,0.2,3.4c0.3,3.6,0.8,6.3,1.2,6.7c0.2,0.2,0.7-3,0.5-6.6C31.4,32.3,30.7,29.2,30.3,29.2z M30.6,30.4
			c0.1,0,0.1,0,0.1,0.1l0,0.2c0,0.1,0,0.1-0.1,0.1c-0.1,0-0.1,0-0.1-0.1l0-0.2C30.5,30.5,30.5,30.5,30.6,30.4z M30.9,31.3l0,0.2
			c0,0,0,0.1-0.1,0.1c-0.1,0-0.1,0-0.1-0.1l0-0.2c0-0.1,0-0.1,0.1-0.1C30.8,31.2,30.9,31.2,30.9,31.3z M31.4,41.6l0,0.2
			c0,0,0,0.1-0.1,0.1c-0.1,0-0.1,0-0.1-0.1l0-0.2C31.2,41.6,31.2,41.5,31.4,41.6C31.3,41.5,31.4,41.6,31.4,41.6z M31.5,40.8l0,0.2
			c0,0,0,0.1-0.1,0.1c-0.1,0-0.1,0-0.1-0.1l0-0.2C31.3,40.7,31.3,40.7,31.5,40.8C31.4,40.7,31.5,40.7,31.5,40.8z M31.5,39.9l0,0.2
			c0,0.1-0.1,0.1-0.1,0.1c-0.1,0-0.1,0-0.1-0.1l0-0.2c0-0.1,0.1-0.1,0.1-0.1C31.5,39.8,31.5,39.8,31.5,39.9z M31.5,39.2
			c0,0.1-0.1,0.1-0.1,0.1c-0.1,0-0.1,0-0.1-0.1l0-0.3c0-0.1,0.1-0.1,0.1-0.1c0.1,0,0.1,0,0.1,0.1L31.5,39.2z M31.6,38.2
			c0,0.1-0.1,0.1-0.1,0.1c-0.1,0-0.2-0.1-0.2-0.1l0-0.3c0-0.1,0.1-0.1,0.1-0.1c0.1,0,0.1,0.1,0.1,0.1L31.6,38.2z M31.6,37.2
			c0,0.1-0.1,0.1-0.2,0.1c-0.1,0-0.1,0-0.2-0.1l0-0.3c0-0.1,0.1-0.1,0.1-0.1c0.1,0,0.2,0,0.2,0.1L31.6,37.2z M31.5,36.2
			c0,0.1-0.1,0.1-0.1,0.1c-0.1,0-0.2,0-0.2-0.1l0-0.3c0-0.1,0.1-0.1,0.1-0.1c0.1,0,0.2,0,0.2,0.1L31.5,36.2z M31.5,35.3
			c0,0.1-0.1,0.1-0.1,0.1c-0.1,0-0.1,0-0.1-0.1l0-0.3c0-0.1,0.1-0.1,0.1-0.1c0.1,0,0.1,0,0.1,0.1L31.5,35.3z M31.4,34.3
			c0,0.1-0.1,0.1-0.1,0.1c-0.1,0-0.1,0-0.1-0.1l0-0.3c0-0.1,0.1-0.1,0.1-0.1c0.1,0,0.1,0,0.1,0.1L31.4,34.3z M31.2,33.3
			c0,0.1,0,0.1-0.1,0.1c-0.1,0-0.1,0-0.1-0.1l0-0.3c0-0.1,0-0.1,0.1-0.1c0.1,0,0.1,0,0.1,0.1L31.2,33.3z M31,32.5
			c-0.1,0-0.1,0-0.2-0.1l0-0.3c0-0.1,0-0.1,0.1-0.1c0.1,0,0.1,0,0.2,0.1l0,0.3C31.1,32.4,31.1,32.5,31,32.5z"/>
	</g>
	<g>
		<polygon class="st0" points="13.7,8.6 15,7.7 15,6.1 16.3,7.1 17.8,6.6 17.2,8.1 18.1,9.5 16.6,9.4 15.6,10.7 15.2,9.1 		"/>
	</g>
	<g>
		<polygon class="st0" points="19.9,3.5 20.7,4.4 21.9,4.2 21.3,5.3 21.9,6.4 20.7,6.2 19.8,7 19.6,5.8 18.6,5.3 19.7,4.7 		"/>
	</g>
	<g>
		<polygon class="st0" points="25.1,2.7 25.3,3.6 26.1,4 25.3,4.4 25.2,5.3 24.6,4.7 23.7,5 24,4.1 23.6,3.3 24.5,3.4 		"/>
	</g>
	<g>
		<polygon class="st0" points="28.5,3.1 28.6,3.8 29.3,4 28.7,4.4 28.6,5 28.1,4.6 27.4,4.8 27.7,4.1 27.3,3.5 28,3.6 		"/>
	</g>
	<g>
		<g>
			<path class="st0" d="M13.2,16.4h0.1c-0.1,0.2-0.1,0.4-0.2,0.6c-0.1,0.2-0.2,0.3-0.3,0.5c-0.5,0.7-1.2,1-2.1,1
				c-0.6,0-1.1-0.1-1.6-0.4C8.6,17.8,8.3,17.4,8,17c-0.3-0.5-0.4-0.9-0.4-1.5c0-0.3,0.1-0.6,0.2-0.9C7.8,14.3,8,14,8.2,13.7
				C8.4,13.4,8.7,13.2,9,13c0.4-0.3,0.9-0.4,1.5-0.4c0.2,0,0.4,0,0.5,0.1c0.2,0,0.3,0.1,0.5,0.2c0.1,0.1,0.3,0.2,0.5,0.3
				c0.2,0.1,0.3,0.2,0.4,0.2c0.2,0,0.4-0.2,0.7-0.6h0.1l0.1,2.7h-0.1c0-0.2-0.1-0.4-0.1-0.5c0-0.1-0.1-0.3-0.2-0.4
				c-0.2-0.4-0.4-0.7-0.6-1c-0.2-0.3-0.5-0.5-0.8-0.6c-0.3-0.1-0.6-0.2-0.9-0.2c-0.4,0-0.7,0.1-0.9,0.3c-0.2,0.2-0.4,0.5-0.5,0.9
				c-0.1,0.4-0.2,1-0.2,1.6c0,0.4,0,0.7,0.1,1s0.1,0.5,0.2,0.7c0.1,0.2,0.2,0.4,0.3,0.5c0.2,0.2,0.3,0.3,0.6,0.4
				c0.2,0.1,0.5,0.1,0.7,0.1c0.2,0,0.5,0,0.7-0.1c0.2-0.1,0.4-0.2,0.6-0.3c0.2-0.1,0.4-0.3,0.5-0.5c0.1-0.2,0.2-0.3,0.3-0.5
				C13.1,16.8,13.1,16.6,13.2,16.4z"/>
		</g>
		<g>
			<path class="st0" d="M13.8,18.2H14c0.3,0,0.6-0.1,0.8-0.3c0.2-0.2,0.2-0.4,0.2-0.8c0-0.1,0-0.3,0-0.4c0-0.1,0-0.2,0-0.4
				c0-0.1,0-0.3,0-0.5c0-0.9,0-1.6-0.1-2.1c0-0.2,0-0.3-0.1-0.4c0-0.1-0.1-0.2-0.2-0.3c-0.2-0.1-0.4-0.2-0.7-0.2h-0.2v-0.1l3.5,0
				v0.2h-0.2c-0.3,0-0.6,0.1-0.8,0.3s-0.2,0.4-0.2,0.8l0,3.3c0,0.3,0.1,0.6,0.2,0.8c0.2,0.2,0.4,0.3,0.7,0.3h0.2v0.2l-3.5,0
				L13.8,18.2L13.8,18.2z"/>
		</g>
		<g>
			<path class="st0" d="M7.3,20.3l2.2,0l3.8,4.1l0-2.4c0-0.3,0-0.6-0.1-0.8c-0.1-0.2-0.2-0.4-0.4-0.5c-0.1-0.1-0.2-0.1-0.3-0.1
				c-0.1,0-0.2,0-0.4-0.1v-0.1l2.7,0v0.1h-0.1c-0.4,0-0.7,0.1-0.9,0.4c-0.2,0.3-0.3,0.6-0.3,1.1l0,4h-0.1l-4.7-5l0,3.4
				c0,0.3,0,0.6,0.1,0.8c0.1,0.2,0.2,0.4,0.4,0.5c0.1,0.1,0.3,0.1,0.5,0.2c0.1,0,0.3,0,0.5,0V26l-2.9,0v-0.1c0.3,0,0.5-0.1,0.7-0.2
				c0.2-0.1,0.3-0.2,0.4-0.4c0.1-0.2,0.1-0.4,0.1-0.7l0-3.2c0-0.2,0-0.4-0.1-0.5c-0.1-0.1-0.2-0.2-0.4-0.3c-0.2-0.1-0.4-0.1-0.6-0.1
				H7.3V20.3z"/>
		</g>
		<g>
			<path class="st0" d="M14.6,20.3l5.9,0l0,2.2h-0.1c-0.1-0.4-0.2-0.7-0.3-0.9c-0.1-0.2-0.2-0.4-0.3-0.5c-0.2-0.2-0.3-0.3-0.5-0.4
				c-0.3-0.1-0.7-0.2-1.2-0.2l-1.1,0l0,2.7h0.3c0.4,0,0.8-0.2,1-0.6c0.1-0.2,0.2-0.4,0.3-0.7c0-0.1,0.1-0.3,0.1-0.5h0.1l0,3.7h-0.1
				c0-0.2-0.1-0.4-0.1-0.6c0-0.2-0.1-0.3-0.1-0.4c-0.1-0.1-0.1-0.2-0.2-0.3c-0.2-0.3-0.6-0.5-1-0.5H17l0,2.5h0.9
				c0.3,0,0.5,0,0.7-0.1c0.2,0,0.4-0.1,0.6-0.2c0.2-0.1,0.3-0.2,0.5-0.3c0.3-0.2,0.5-0.5,0.6-0.8c0.1-0.2,0.2-0.5,0.3-0.8h0.1l0,2.3
				l-6,0l0-0.1h0.2c0.7,0,1-0.3,1-1l0-3.3c0-0.4-0.1-0.6-0.2-0.8c-0.2-0.2-0.4-0.3-0.8-0.3l-0.1,0L14.6,20.3L14.6,20.3z"/>
		</g>
		<g>
			<path class="st0" d="M7.1,27.7l2.3,0l2.1,4.3l2.1-4.3l2.2,0v0.1h-0.2c-0.3,0-0.6,0.1-0.8,0.3c-0.2,0.2-0.2,0.4-0.2,0.8l0,3.3
				c0,0.3,0.1,0.6,0.2,0.8c0.2,0.2,0.4,0.3,0.8,0.3h0.2v0.2l-3.6,0v-0.2h0.2c0.3,0,0.6-0.1,0.8-0.3c0.2-0.2,0.2-0.4,0.2-0.8l0-3.8h0
				l-2.4,5h-0.1l-2.4-5h0l0,3.6c0,0.3,0,0.5,0.1,0.6C8.7,32.8,8.9,32.9,9,33s0.4,0.1,0.7,0.2v0.2l-2.6,0v-0.2l0.1,0
				c0.4,0,0.6-0.1,0.8-0.3c0.2-0.2,0.3-0.5,0.3-0.9l0-3.1c0-0.4-0.1-0.6-0.2-0.8c-0.2-0.2-0.4-0.3-0.8-0.3H7.1V27.7z"/>
		</g>
		<g>
			<path class="st0" d="M18.9,27.6l0.1,0l2.2,4.9c0.1,0.2,0.1,0.3,0.2,0.4c0.1,0.1,0.2,0.2,0.3,0.2c0.1,0,0.2,0.1,0.4,0.1h0.1v0.2
				l-3.2,0v-0.2h0.4c0.2,0,0.4,0,0.5-0.1c0.1-0.1,0.1-0.1,0.1-0.3c0-0.1,0-0.2-0.1-0.3c0-0.1-0.1-0.3-0.3-0.6c0,0,0,0,0-0.1
				c0,0,0-0.1-0.1-0.1l-0.1-0.2l-2.3,0L17.2,32c-0.1,0.1-0.1,0.3-0.1,0.4c0,0.1,0,0.2,0.1,0.4c0.1,0.1,0.2,0.2,0.3,0.3
				c0.1,0,0.1,0.1,0.2,0.1c0.1,0,0.1,0,0.2,0v0.2l-2.2,0v-0.2c0.2,0,0.3,0,0.4-0.1c0.1,0,0.2-0.1,0.3-0.2c0.3-0.2,0.6-0.6,0.8-1.3
				L18.9,27.6z M18.5,28.9l-1.1,2.5l2.2,0L18.5,28.9z"/>
		</g>
		<g>
			<path class="st0" d="M11.8,38.8l-0.4,2.2l-4.2,0c0-0.3,0.2-0.6,0.4-0.9c0.2-0.3,0.7-0.7,1.4-1.2c0.4-0.3,0.6-0.5,0.7-0.5
				c0,0,0,0,0.1-0.1c0,0,0,0,0.1-0.1c0.2-0.2,0.4-0.4,0.5-0.7c0.1-0.2,0.1-0.5,0.1-0.7c0-0.5-0.1-0.8-0.3-1.1s-0.6-0.4-1-0.4
				c-0.3,0-0.6,0.1-0.9,0.2c-0.3,0.1-0.5,0.3-0.6,0.5c-0.2,0.2-0.2,0.5-0.2,0.7c0,0.3,0.1,0.4,0.2,0.4c0.1,0,0.1,0,0.1-0.1
				c0-0.1,0-0.1,0.1-0.2c0.1-0.2,0.2-0.3,0.3-0.4c0.1-0.1,0.2-0.1,0.4-0.1c0.1,0,0.3,0,0.4,0.1C8.9,36.6,9,36.7,9,36.8
				c0.1,0.1,0.1,0.2,0.1,0.4c0,0.2,0,0.3-0.1,0.4c-0.1,0.1-0.2,0.2-0.3,0.3C8.6,37.9,8.4,38,8.3,38c-0.3,0-0.5-0.1-0.7-0.3
				c-0.2-0.2-0.3-0.5-0.3-0.8c0-0.2,0-0.4,0.1-0.6c0.1-0.2,0.2-0.4,0.3-0.5c0.4-0.4,1-0.6,1.8-0.6c0.3,0,0.6,0,0.9,0.1
				c0.3,0.1,0.5,0.2,0.7,0.4c0.2,0.2,0.4,0.3,0.5,0.5s0.2,0.4,0.2,0.7c0,0.4-0.1,0.7-0.4,0.9c-0.1,0.1-0.2,0.2-0.3,0.3
				c-0.3,0.2-0.6,0.4-1.1,0.6c-0.7,0.3-1.2,0.6-1.5,0.8c-0.1,0-0.2,0.2-0.4,0.3l2.6,0c0.2,0,0.4,0,0.5-0.1c0.1,0,0.2-0.1,0.3-0.2
				c0.1-0.1,0.1-0.3,0.2-0.5l0.1-0.3L11.8,38.8L11.8,38.8z"/>
		</g>
		<g>
			<path class="st0" d="M16.6,38.8l-0.4,2.2l-4.2,0c0-0.3,0.2-0.6,0.4-0.9c0.2-0.3,0.7-0.7,1.4-1.2c0.4-0.3,0.6-0.5,0.7-0.5
				c0,0,0,0,0.1-0.1s0,0,0.1-0.1c0.2-0.2,0.4-0.4,0.5-0.7c0.1-0.2,0.1-0.5,0.1-0.7c0-0.5-0.1-0.8-0.3-1.1c-0.2-0.3-0.5-0.4-1-0.4
				c-0.3,0-0.6,0.1-0.9,0.2c-0.3,0.1-0.5,0.3-0.6,0.5c-0.2,0.2-0.2,0.5-0.2,0.7c0,0.3,0.1,0.4,0.2,0.4c0.1,0,0.1,0,0.1-0.1
				c0-0.1,0-0.1,0.1-0.2c0.1-0.2,0.2-0.3,0.3-0.4c0.1-0.1,0.2-0.1,0.4-0.1c0.1,0,0.3,0,0.4,0.1c0.1,0.1,0.2,0.1,0.2,0.3
				c0.1,0.1,0.1,0.2,0.1,0.4c0,0.2,0,0.3-0.1,0.4c-0.1,0.1-0.2,0.2-0.3,0.3C13.3,37.9,13.2,38,13,38c-0.3,0-0.5-0.1-0.7-0.3
				c-0.2-0.2-0.3-0.5-0.3-0.8c0-0.2,0-0.4,0.1-0.6c0.1-0.2,0.2-0.4,0.3-0.5c0.4-0.4,1-0.6,1.8-0.6c0.3,0,0.6,0,0.9,0.1
				c0.3,0.1,0.5,0.2,0.7,0.4c0.2,0.2,0.4,0.3,0.5,0.5c0.1,0.2,0.2,0.4,0.2,0.7c0,0.4-0.1,0.7-0.4,0.9c-0.1,0.1-0.2,0.2-0.3,0.3
				c-0.3,0.2-0.6,0.4-1.1,0.6c-0.7,0.3-1.2,0.6-1.5,0.8c-0.1,0-0.2,0.2-0.4,0.3l2.6,0c0.2,0,0.4,0,0.5-0.1c0.1,0,0.2-0.1,0.3-0.2
				c0.1-0.1,0.1-0.3,0.2-0.5l0.1-0.3L16.6,38.8L16.6,38.8z"/>
		</g>
		<g>
			<path class="st0" d="M18.1,37.4l0,0.8h0c0.3-0.5,0.8-0.8,1.4-0.8c0.3,0,0.7,0.1,1,0.2c0.3,0.2,0.5,0.4,0.7,0.6
				c0.2,0.3,0.3,0.6,0.3,0.9c0,0.3-0.1,0.7-0.3,1c-0.2,0.3-0.4,0.5-0.8,0.7C20,41,19.7,41,19.3,41c-0.3,0-0.6-0.1-0.9-0.2
				s-0.5-0.3-0.7-0.5c-0.2-0.2-0.3-0.4-0.4-0.6c-0.1-0.2-0.2-0.5-0.3-0.8c-0.1-0.3-0.1-0.6-0.1-0.9c0-0.4,0.1-0.8,0.2-1.2
				c0.1-0.4,0.3-0.7,0.6-1c0.2-0.3,0.5-0.4,0.9-0.6c0.3-0.1,0.7-0.2,1-0.2c0.3,0,0.6,0.1,0.8,0.2c0.2,0.1,0.4,0.3,0.6,0.5
				c0.1,0.2,0.2,0.4,0.2,0.6c0,0.2-0.1,0.3-0.2,0.5c-0.1,0.1-0.3,0.2-0.4,0.2c-0.2,0-0.3-0.1-0.5-0.2c-0.1-0.1-0.2-0.3-0.2-0.4
				c0-0.1,0-0.2,0.1-0.3c0.1-0.1,0.2-0.2,0.3-0.2c0.1-0.1,0.2-0.1,0.2-0.2c0-0.1,0-0.1-0.1-0.2c-0.1-0.1-0.2-0.1-0.3-0.1
				c-0.1,0-0.3-0.1-0.4-0.1c-0.5,0-0.8,0.2-1.1,0.5C18.2,36.2,18.1,36.7,18.1,37.4z M18.1,39v0.5c0,0.3,0,0.6,0.1,0.8
				c0.1,0.2,0.2,0.4,0.4,0.5c0.2,0.1,0.4,0.2,0.6,0.2c0.4,0,0.6-0.1,0.8-0.4c0.1-0.1,0.1-0.2,0.1-0.3c0-0.2,0.1-0.6,0.1-1.1
				c0-0.3,0-0.6-0.1-0.8c0-0.2-0.1-0.3-0.2-0.4c-0.1-0.1-0.3-0.2-0.6-0.2c-0.2,0-0.4,0.1-0.6,0.2c-0.2,0.1-0.3,0.3-0.4,0.5
				C18.2,38.5,18.1,38.7,18.1,39z"/>
		</g>
	</g>
	<g>
		<g>
			<circle class="st0" cx="7.8" cy="43" r="0.5"/>
		</g>
		<g>
			<circle class="st0" cx="10" cy="43" r="0.5"/>
		</g>
		<g>
			<circle class="st0" cx="12.3" cy="43" r="0.5"/>
		</g>
		<g>
			<circle class="st0" cx="14.5" cy="43" r="0.5"/>
		</g>
		<g>
			<circle class="st0" cx="16.7" cy="43" r="0.5"/>
		</g>
		<g>
			<circle class="st0" cx="18.9" cy="43" r="0.5"/>
		</g>
		<g>
			<circle class="st0" cx="21.1" cy="43" r="0.5"/>
		</g>
	</g>
	<g>
		<path class="st0" d="M34.2,28.8c-2.2-0.7-4.1-0.5-4.1,0.3c-0.1,0.8,1.8,1.9,3.9,2.6c2.2,0.7,3.8,0.7,4.1,0.1
			C38.3,31.4,36.4,29.5,34.2,28.8z M31.2,30C31.2,30,31.1,30,31.2,30L31,29.9c0,0,0-0.1,0-0.1c0,0,0.1,0,0.1,0l0.1,0.1
			C31.2,29.9,31.2,29.9,31.2,30z M31.7,30.3C31.7,30.3,31.6,30.3,31.7,30.3l-0.2,0c0,0,0-0.1,0-0.1c0,0,0.1-0.1,0.1,0l0.1,0.1
			C31.7,30.2,31.7,30.2,31.7,30.3z M32.2,30.6C32.2,30.6,32.2,30.7,32.2,30.6l-0.2,0c0,0,0-0.1,0-0.1c0,0,0.1-0.1,0.1-0.1l0.1,0.1
			C32.2,30.5,32.3,30.5,32.2,30.6z M32.8,30.9c0,0-0.1,0.1-0.1,0.1l-0.1-0.1c0,0,0-0.1,0-0.1c0,0,0.1-0.1,0.1-0.1l0.1,0.1
			C32.9,30.8,32.9,30.8,32.8,30.9z M33.4,31.1C33.4,31.1,33.3,31.2,33.4,31.1l-0.2,0c0,0-0.1-0.1,0-0.1c0-0.1,0.1-0.1,0.1-0.1
			l0.1,0.1C33.4,31,33.4,31,33.4,31.1z M37.3,32.1l-0.1,0c0,0-0.1,0-0.1-0.1c0,0,0-0.1,0.1-0.1l0.1,0C37.3,31.9,37.4,31.9,37.3,32.1
			C37.4,32,37.4,32.1,37.3,32.1z M37.9,31.9l-0.1,0.1c0,0-0.1,0-0.1,0c0,0,0-0.1,0-0.1l0.1-0.1c0,0,0.1,0,0.1,0
			C37.9,31.8,37.9,31.8,37.9,31.9z"/>
	</g>
	<g>
		<path class="st0" d="M25.3,14.6c-2.8-1.5-5.5-2.6-5.7-2c-0.2,0.7,1.5,2,4.3,3.5c2.8,1.5,5.3,2.4,5.7,2C30,17.7,28,16.1,25.3,14.6z
			 M20.2,13.3c0,0-0.1,0-0.1,0l-0.1-0.2c0,0,0-0.1,0-0.1c0,0,0.1-0.1,0.1,0l0.1,0.2C20.2,13.2,20.2,13.3,20.2,13.3z M20.8,13.8
			c0,0.1-0.1,0.1-0.1,0l-0.2-0.1c0,0,0-0.1,0-0.2c0-0.1,0.1-0.1,0.1,0l0.2,0.1C20.8,13.7,20.8,13.7,20.8,13.8z M21.5,14.3
			c0,0.1-0.1,0.1-0.2,0.1l-0.2-0.1c-0.1,0-0.1-0.1,0-0.2c0-0.1,0.1-0.1,0.2-0.1l0.2,0.1C21.5,14.1,21.5,14.2,21.5,14.3z M22.3,14.8
			c0,0.1-0.1,0.1-0.2,0.1l-0.2-0.1c-0.1,0-0.1-0.1,0-0.2c0-0.1,0.1-0.1,0.2-0.1l0.2,0.1C22.3,14.6,22.3,14.7,22.3,14.8z M23,15.3
			c0,0.1-0.1,0.1-0.2,0.1l-0.2-0.1c-0.1,0-0.1-0.1,0-0.2c0-0.1,0.1-0.1,0.2-0.1l0.2,0.1C23.1,15.1,23.1,15.2,23,15.3z M23.9,15.7
			c0,0.1-0.1,0.1-0.2,0.1l-0.2-0.1c-0.1,0-0.1-0.1,0-0.2c0-0.1,0.1-0.1,0.2-0.1l0.2,0.1C23.9,15.6,23.9,15.6,23.9,15.7z M24.7,16.1
			c0,0.1-0.1,0.1-0.2,0.1l-0.2-0.1c-0.1,0-0.1-0.1,0-0.2s0.1-0.1,0.2-0.1l0.2,0.1C24.7,16,24.7,16.1,24.7,16.1z M25.5,16.5
			c0,0.1-0.1,0.1-0.2,0.1l-0.2-0.1c-0.1,0-0.1-0.1,0-0.2c0-0.1,0.1-0.1,0.2-0.1l0.2,0.1C25.5,16.3,25.5,16.4,25.5,16.5z M26.3,16.9
			c0,0.1-0.1,0.1-0.2,0.1l-0.2-0.1c-0.1,0-0.1-0.1,0-0.2c0-0.1,0.1-0.1,0.2-0.1l0.2,0.1C26.3,16.8,26.3,16.8,26.3,16.9z M27,17.2
			c0,0.1-0.1,0.1-0.1,0.1l-0.2-0.1c0,0-0.1-0.1,0-0.2c0-0.1,0.1-0.1,0.1-0.1l0.2,0.1C27,17.1,27.1,17.2,27,17.2z M27.8,17.5
			c0,0.1-0.1,0.1-0.1,0.1l-0.2-0.1c0,0-0.1-0.1,0-0.1c0-0.1,0.1-0.1,0.1-0.1l0.2,0.1C27.8,17.3,27.8,17.4,27.8,17.5z M28.4,17.6
			c0,0.1-0.1,0.1-0.1,0.1l-0.2,0c0,0-0.1-0.1-0.1-0.1c0-0.1,0.1-0.1,0.1-0.1l0.2,0C28.4,17.5,28.4,17.6,28.4,17.6z"/>
	</g>
	<g>
		<path class="st0" d="M35.9,27.7c-1-1.6-1.5-4.2-1.5-6.7c0,0-0.2-1.5,0.2-3.4c-2-1.4-3.5-2.2-4.4-2.3c-1.2-0.1-1.6,2.2-1.6,2.1
			c0,0.8-0.7,9-4.6,10.8c0,0,4.9,3.6,6.7,1.5c2.5-2.7,5.9,0.3,7.4,1.9C38.1,31.4,37.9,31.1,35.9,27.7z"/>
	</g>
	<g>
		<path class="st0" d="M28.6,17.3C28.6,17.4,28.6,17.4,28.6,17.3C28.6,17.3,28.6,17.3,28.6,17.3z"/>
	</g>
	<g>
		<path class="st0" d="M38,22.9c-1.9-1.5-3.6-2.4-3.7-1.9c-0.1,0.5,1.3,2.1,3.2,3.6c1.9,1.5,3.6,2.4,3.7,1.9
			C41.4,26,40,24.4,38,22.9z M34.8,21.5c0,0-0.1,0-0.1,0l-0.1-0.2c0,0,0-0.1,0-0.1c0,0,0.1,0,0.1,0l0.1,0.1
			C34.9,21.4,34.9,21.4,34.8,21.5z M35.4,22.1c0,0-0.1,0.1-0.1,0l-0.1-0.2c0,0,0-0.1,0-0.2c0,0,0.1-0.1,0.1,0l0.1,0.2
			C35.4,22,35.4,22,35.4,22.1z M36,22.7c0,0.1-0.1,0.1-0.2,0l-0.2-0.2c0,0,0-0.1,0-0.2c0-0.1,0.1-0.1,0.2,0l0.2,0.2
			C36,22.6,36,22.6,36,22.7z M36.6,23.3c0,0.1-0.1,0.1-0.2,0l-0.2-0.2c0,0,0-0.1,0-0.2s0.1-0.1,0.2,0l0.2,0.2
			C36.7,23.1,36.7,23.2,36.6,23.3z M37.4,23.9c-0.1,0.1-0.1,0.1-0.2,0.1L37,23.8c-0.1,0-0.1-0.1,0-0.2c0.1-0.1,0.1-0.1,0.2-0.1
			l0.2,0.2C37.4,23.7,37.4,23.8,37.4,23.9z M38.2,24.5c0,0.1-0.1,0.1-0.2,0.1l-0.2-0.2c-0.1,0-0.1-0.1,0-0.2
			c0.1-0.1,0.1-0.1,0.2-0.1l0.2,0.2C38.2,24.3,38.2,24.4,38.2,24.5z M39,25.1c0,0.1-0.1,0.1-0.2,0.1L38.6,25c-0.1,0-0.1-0.1,0-0.2
			c0-0.1,0.1-0.1,0.2-0.1l0.2,0.2C39,25,39,25.1,39,25.1z M39.7,25.6c0,0.1-0.1,0.1-0.1,0.1l-0.2-0.1c0,0-0.1-0.1,0-0.2
			c0-0.1,0.1-0.1,0.1-0.1l0.2,0.1C39.7,25.5,39.7,25.5,39.7,25.6z M40.3,26c0,0.1-0.1,0.1-0.1,0.1L40,25.9c0,0-0.1-0.1,0-0.2
			c0-0.1,0.1-0.1,0.1-0.1l0.2,0.1C40.3,25.9,40.4,25.9,40.3,26z M40.9,26.3c0,0.1-0.1,0.1-0.1,0.1l-0.2-0.1c0,0-0.1-0.1,0-0.1
			c0-0.1,0.1-0.1,0.1-0.1l0.2,0.1C40.9,26.2,40.9,26.2,40.9,26.3z"/>
	</g>
	<g>
		<path class="st0" d="M36.5,13.5c0-0.4,0.2-1,0.3-1.5c0.6-2.6-2.1-4.2-3.7-3.5c-0.8,0.4-1.4,1.2-1.8,1.9c-0.2,0.4-1.1,1.7-2.6,1.1
			c1.1,3.6,3.3,0.9,3.3,0.9s3.2-1.8,2.9,1.4c-0.5,5.2,3.8,2.5,3.9,2.1C38.9,15.9,36.6,15.9,36.5,13.5z"/>
	</g>
	<g>
		<path class="st0" d="M31.5,12.7c0-0.3,0-0.7,0.1-1c0.3-0.9,1-1.6,1.8-1.8c1.2-0.2,2.2,0.7,2.3,2c0.1,1.3-0.8,2.6-2,2.8
			C32.6,15,31.6,14.1,31.5,12.7z"/>
		<path class="st1" d="M33.4,15.3c-0.5,0-1-0.2-1.4-0.5c-0.6-0.5-1-1.2-1-2v0c0-0.4,0-0.8,0.1-1.1c0.3-1.1,1.2-2,2.2-2.2
			c0.7-0.1,1.3,0,1.8,0.5c0.6,0.5,1,1.2,1,2c0.1,1.6-1,3-2.4,3.3C33.7,15.3,33.6,15.3,33.4,15.3z M32,12.7c0,0.5,0.3,1,0.6,1.3
			c0.3,0.2,0.7,0.3,1.1,0.3c0.9-0.2,1.6-1.2,1.5-2.2c0-0.5-0.3-1-0.6-1.3c-0.3-0.2-0.7-0.3-1-0.3c-0.7,0.1-1.2,0.7-1.5,1.5
			C32,12.2,32,12.4,32,12.7z"/>
	</g>
	<g>
		<path class="st0" d="M41.3,26.3c-1.5-5.9-6.9-9-9.3-10.5c-1-0.6-7.6-4.8-12.4-3.4c0,0-0.1,0.1-0.1,0.2c0.1,0.2,1.7,0.3,4.5,1.6
			c2.6,1.3,5.1,3.6,5.1,3.8c0,0,0,0,0,0c0,0,0,0,0,0c0,0,0,0,0,0c0,0,0,0,0,0.1c0,0.1,0,0.1,0,0.1c0,0,0,0,0,0c0,0,0-0.1,0-0.1
			c0,0,0,0,0-0.1c0,0,0,0,0,0c0,0,0,0,0,0c0,0,0,0,0,0c-3.6,11.2,1.4,23.8,2.1,24.5c-2.7-10.2,0.2-15.5,0.2-15.5
			c0.1-0.1,0.1-0.2,0.2,0c1.9,4.3,2,4.6,3.9,7.6c2.5,3.9,3.5,4,3.5,4c0,0,0,0-0.1-0.1c0,0-0.1,0-0.1,0c-1.9-1.5-5.1-7.3-4.5-17.5
			C36.6,20.7,41.3,26.3,41.3,26.3z"/>
	</g>
	<g>
		<path class="st0" d="M29.1,18.1C29.1,18.1,29.1,18.1,29.1,18.1C29.1,18.1,29.1,18.1,29.1,18.1z"/>
	</g>
	<g>
		<path class="st0" d="M29.1,18C29.1,18,29.1,18,29.1,18C29.1,18,29.1,18,29.1,18z"/>
	</g>
	<g>
		<path class="st0" d="M29.1,18.1c0,0.1,0,0.1,0,0.1C29.1,18.2,29.1,18.2,29.1,18.1z"/>
	</g>
	<g>
		<path class="st0" d="M29.1,18.3C29,18.3,29,18.3,29.1,18.3L29.1,18.3z"/>
	</g>
	<g>
		<path class="st0" d="M29.1,18C29.1,18,29.1,18,29.1,18C29.1,18,29.1,18,29.1,18z"/>
	</g>
	<g>
		<path class="st0" d="M29.1,18.1c0,0,0,0.1,0,0.1C29.1,18.2,29.1,18.2,29.1,18.1z"/>
	</g>
	<g>
		<path class="st0" d="M34.9,20.6c0,0,0.1,0.1,0.1,0.1l0,0c0,0.1,0,0.1-0.1,0.1l-0.2,0c0,0-0.1-0.1-0.1-0.1l0,0c0-0.1,0-0.1,0.1-0.1
			L34.9,20.6z"/>
	</g>
	<g>
		<path class="st0" d="M35.6,20.8c0,0,0.1,0.1,0,0.1l0,0c0,0.1-0.1,0.1-0.1,0.1l-0.2-0.1c0,0-0.1-0.1,0-0.1l0,0
			c0-0.1,0.1-0.1,0.1-0.1L35.6,20.8z"/>
	</g>
	<g>
		<path class="st0" d="M36.3,21.1c0,0,0.1,0.1,0,0.2l0,0c0,0.1-0.1,0.1-0.1,0.1L36,21.2c0,0-0.1-0.1,0-0.2l0,0
			c0-0.1,0.1-0.1,0.1-0.1L36.3,21.1z"/>
	</g>
	<g>
		<path class="st0" d="M37.1,21.6c0,0,0,0.1,0,0.2l0,0c0,0.1-0.1,0.1-0.2,0.1l-0.2-0.2c0,0-0.1-0.1,0-0.2l0,0c0-0.1,0.1-0.1,0.2-0.1
			L37.1,21.6z"/>
	</g>
	<g>
		<path class="st0" d="M37.9,22.3c0,0,0,0.1,0,0.2l0,0c0,0.1-0.1,0.1-0.2,0l-0.2-0.2c-0.1,0,0-0.1,0-0.2l0,0c0.1-0.1,0.1-0.1,0.2,0
			L37.9,22.3z"/>
	</g>
	<g>
		<path class="st0" d="M38.7,23c0,0,0,0.1,0,0.2l0,0c-0.1,0.1-0.1,0.1-0.2,0L38.3,23c0,0,0-0.1,0-0.2l0,0c0.1-0.1,0.1-0.1,0.2,0
			L38.7,23z"/>
	</g>
	<g>
		<path class="st0" d="M39.4,23.6c0,0,0,0.1,0,0.2l0,0c-0.1,0.1-0.1,0.1-0.2,0L39,23.7c0,0,0-0.1,0-0.2l0,0c0.1-0.1,0.1-0.1,0.2,0
			L39.4,23.6z"/>
	</g>
	<g>
		<path class="st0" d="M39.9,24.2c0,0,0,0.1,0,0.1l0,0c0,0-0.1,0.1-0.1,0l-0.1-0.1c0,0,0-0.1,0-0.2l0,0c0,0,0.1-0.1,0.1,0L39.9,24.2
			z"/>
	</g>
	<g>
		<path class="st0" d="M40.5,24.9c0,0,0,0.1,0,0.1l0,0c0,0-0.1,0-0.1,0l-0.1-0.1c0,0,0-0.1,0-0.1l0,0c0,0,0.1,0,0.1,0L40.5,24.9z"/>
	</g>
	<g>
		<path class="st0" d="M40.9,25.5C41,25.5,40.9,25.6,40.9,25.5L40.9,25.5c-0.1,0.1-0.1,0.1-0.1,0.1l-0.1-0.1c0,0,0-0.1,0-0.1l0,0
			c0,0,0.1,0,0.1,0L40.9,25.5z"/>
	</g>
	<g>
		<path class="st0" d="M39,38.4C39,38.4,38.9,38.4,39,38.4L39,38.4C38.9,38.4,39,38.4,39,38.4z"/>
	</g>
	<g>
		<path class="st0" d="M37.6,33.2c-1.2-2.6-2.3-4.3-2.7-4.2c-0.2,0,0.2,2.8,1.4,5.4c1.2,2.6,2.5,4.4,2.9,4.1
			C39.5,38.1,38.7,35.8,37.6,33.2z M36.8,32.6l-0.1-0.2c0-0.1,0-0.1,0.1-0.2c0.1,0,0.1,0,0.2,0l0.1,0.2c0,0.1,0,0.1-0.1,0.2
			C36.9,32.7,36.8,32.7,36.8,32.6z M37.2,33.5l-0.1-0.2c0-0.1,0-0.1,0.1-0.2c0.1,0,0.1,0,0.2,0l0.1,0.2c0,0.1,0,0.1-0.1,0.2
			C37.3,33.6,37.2,33.6,37.2,33.5z M37.6,34.4l-0.1-0.3c0-0.1,0-0.1,0.1-0.2c0.1,0,0.2,0,0.2,0l0.1,0.3c0,0.1,0,0.1-0.1,0.2
			C37.7,34.5,37.6,34.5,37.6,34.4z M37.9,35.3L37.8,35c0-0.1,0-0.1,0.1-0.2c0.1,0,0.2,0,0.2,0l0.1,0.3c0,0.1,0,0.1-0.1,0.2
			C38.1,35.4,38,35.3,37.9,35.3z M38.3,36.1l-0.1-0.2c0-0.1,0-0.1,0.1-0.2c0.1,0,0.1,0,0.2,0l0.1,0.2c0,0.1,0,0.1-0.1,0.2
			C38.4,36.2,38.3,36.2,38.3,36.1z M38.6,37l-0.1-0.2c0-0.1,0-0.1,0.1-0.1s0.1,0,0.1,0.1l0.1,0.2c0,0.1,0,0.1-0.1,0.1
			C38.7,37.1,38.6,37,38.6,37z M39.1,38.3C39.1,38.3,39.1,38.4,39.1,38.3c-0.1,0.1-0.2,0.1-0.2,0l0-0.2c0,0,0-0.1,0.1-0.1
			c0,0,0.1,0,0.1,0.1L39.1,38.3z M38.9,37.8c-0.1,0-0.1,0-0.1-0.1l-0.1-0.2c0,0,0-0.1,0.1-0.1c0.1,0,0.1,0,0.1,0.1l0.1,0.2
			C39,37.7,39,37.8,38.9,37.8z"/>
	</g>
	<g>
		<g>
			<path class="st0" d="M20.5,12.4c0,0,0.1,0.1,0.1,0.1l0,0c0,0.1,0,0.1-0.1,0.1l-0.2,0c-0.1,0-0.1-0.1-0.1-0.1l0,0
				c0-0.1,0.1-0.1,0.1-0.1L20.5,12.4z"/>
		</g>
		<g>
			<path class="st0" d="M21.2,12.6c0,0,0.1,0.1,0.1,0.1l0,0c0,0.1-0.1,0.1-0.1,0.1l-0.2,0c0,0-0.1-0.1-0.1-0.2l0,0
				c0-0.1,0.1-0.1,0.1-0.1L21.2,12.6z"/>
		</g>
		<g>
			<path class="st0" d="M22,12.8c0.1,0,0.1,0.1,0.1,0.2l0,0c0,0.1-0.1,0.1-0.1,0.1L21.7,13c-0.1,0-0.1-0.1-0.1-0.2l0,0
				c0-0.1,0.1-0.1,0.1-0.1L22,12.8z"/>
		</g>
		<g>
			<path class="st0" d="M22.8,13.1c0.1,0,0.1,0.1,0.1,0.2l0,0c0,0.1-0.1,0.1-0.1,0.1l-0.2-0.1c-0.1,0-0.1-0.1-0.1-0.2l0,0
				c0-0.1,0.1-0.1,0.1-0.1L22.8,13.1z"/>
		</g>
		<g>
			<path class="st0" d="M23.7,13.4c0.1,0,0.1,0.1,0.1,0.2l0,0c0,0.1-0.1,0.2-0.2,0.1l-0.3-0.1c-0.1,0-0.1-0.1-0.1-0.2l0,0
				c0-0.1,0.1-0.2,0.2-0.1L23.7,13.4z"/>
		</g>
		<g>
			<path class="st0" d="M24.5,13.8c0.1,0,0.1,0.1,0.1,0.2l0,0c0,0.1-0.1,0.1-0.2,0.1L24.2,14c-0.1,0-0.1-0.1-0.1-0.2l0,0
				c0-0.1,0.1-0.1,0.2-0.1L24.5,13.8z"/>
		</g>
		<g>
			<path class="st0" d="M25.4,14.3c0.1,0,0.1,0.1,0.1,0.2l0,0c0,0.1-0.1,0.1-0.2,0.1L25,14.5c-0.1,0-0.1-0.1-0.1-0.2l0,0
				c0-0.1,0.1-0.1,0.2-0.1L25.4,14.3z"/>
		</g>
		<g>
			<path class="st0" d="M26.3,14.9c0.1,0,0.1,0.1,0,0.2l0,0c0,0.1-0.1,0.1-0.2,0.1l-0.2-0.2c-0.1,0-0.1-0.1,0-0.2l0,0
				c0-0.1,0.1-0.1,0.2-0.1L26.3,14.9z"/>
		</g>
		<g>
			<path class="st0" d="M27.1,15.5c0.1,0,0.1,0.1,0,0.2l0,0c0,0.1-0.1,0.1-0.2,0.1l-0.2-0.2c-0.1,0-0.1-0.1,0-0.2l0,0
				c0-0.1,0.1-0.1,0.2-0.1L27.1,15.5z"/>
		</g>
		<g>
			<path class="st0" d="M27.8,16.1c0,0,0.1,0.1,0,0.2l0,0c0,0.1-0.1,0.1-0.2,0.1l-0.2-0.1c0,0-0.1-0.1,0-0.2l0,0
				c0-0.1,0.1-0.1,0.2-0.1L27.8,16.1z"/>
		</g>
		<g>
			<path class="st0" d="M28.5,16.6c0,0,0,0.1,0,0.2l0,0c0,0.1-0.1,0.1-0.1,0l-0.2-0.1c0,0,0-0.1,0-0.2l0,0c0-0.1,0.1-0.1,0.1,0
				L28.5,16.6z"/>
		</g>
	</g>
	<g>
		<g>
			<path class="st0" d="M29.7,34.3c0,0.1,0.1,0.1,0.1,0.1l0,0c0.1,0,0.1-0.1,0.1-0.1l0-0.3c0-0.1-0.1-0.1-0.1-0.1l0,0
				c-0.1,0-0.1,0.1-0.1,0.1L29.7,34.3z"/>
		</g>
		<g>
			<path class="st0" d="M29.7,35.2c0,0.1,0.1,0.1,0.1,0.1l0,0c0.1,0,0.1-0.1,0.1-0.1l0-0.3c0-0.1-0.1-0.1-0.1-0.1l0,0
				c-0.1,0-0.1,0.1-0.1,0.1L29.7,35.2z"/>
		</g>
		<g>
			<path class="st0" d="M29.7,33.3c0,0.1,0.1,0.1,0.1,0.1l0,0c0.1,0,0.1,0,0.1-0.1l0-0.3c0-0.1-0.1-0.1-0.1-0.1l0,0
				c-0.1,0-0.1,0-0.1,0.1L29.7,33.3z"/>
		</g>
		<g>
			<path class="st0" d="M29.8,32.4c0,0.1,0.1,0.1,0.1,0.1l0,0c0.1,0,0.1,0,0.1-0.1l0-0.3c0-0.1-0.1-0.1-0.1-0.1l0,0
				c-0.1,0-0.1,0-0.1,0.1L29.8,32.4z"/>
		</g>
		<g>
			<path class="st0" d="M29.8,31.5c0,0.1,0,0.1,0.1,0.1l0,0c0.1,0,0.1,0,0.1-0.1l0-0.3c0-0.1,0-0.1-0.1-0.1l0,0
				c-0.1,0-0.1,0-0.1,0.1L29.8,31.5z"/>
		</g>
		<g>
			<path class="st0" d="M29.9,30.6c0,0.1,0,0.1,0.1,0.1l0,0c0.1,0,0.1,0,0.1-0.1l0-0.3c0-0.1,0-0.1-0.1-0.1l0,0
				c-0.1,0-0.1,0-0.1,0.1L29.9,30.6z"/>
		</g>
		<g>
			<path class="st0" d="M29.7,36.2c0,0.1,0.1,0.1,0.2,0.1l0,0c0.1,0,0.1-0.1,0.1-0.1l0-0.3c0-0.1-0.1-0.1-0.2-0.1l0,0
				c-0.1,0-0.1,0.1-0.1,0.1L29.7,36.2z"/>
		</g>
		<g>
			<path class="st0" d="M29.8,37.1c0,0.1,0.1,0.1,0.2,0.1l0,0c0.1,0,0.1-0.1,0.1-0.1l0-0.3c0-0.1-0.1-0.1-0.2-0.1l0,0
				c-0.1,0-0.1,0.1-0.1,0.1L29.8,37.1z"/>
		</g>
		<g>
			<path class="st0" d="M29.9,38.1c0,0.1,0.1,0.1,0.1,0.1l0,0c0.1,0,0.1-0.1,0.1-0.1l0-0.3c0-0.1-0.1-0.1-0.2-0.1l0,0
				c-0.1,0-0.1,0.1-0.1,0.1L29.9,38.1z"/>
		</g>
		<g>
			<path class="st0" d="M30.1,39c0,0.1,0.1,0.1,0.1,0.1l0,0c0.1,0,0.1-0.1,0.1-0.1l0-0.3c0-0.1-0.1-0.1-0.2-0.1l0,0
				c-0.1,0-0.1,0.1-0.1,0.1L30.1,39z"/>
		</g>
		<g>
			<path class="st0" d="M30.3,40c0,0.1,0.1,0.1,0.1,0.1l0,0c0.1,0,0.1-0.1,0.1-0.1l0-0.2c0-0.1-0.1-0.1-0.1-0.1l0,0
				c-0.1,0-0.1,0.1-0.1,0.1L30.3,40z"/>
		</g>
		<g>
			<path class="st0" d="M30.5,40.8c0,0,0.1,0.1,0.1,0.1l0,0c0.1,0,0.1-0.1,0.1-0.1l-0.1-0.2c0,0-0.1-0.1-0.1-0.1l0,0
				c-0.1,0-0.1,0.1-0.1,0.1L30.5,40.8z"/>
		</g>
		<g>
			<path class="st0" d="M30.7,41.5c0,0,0.1,0.1,0.1,0l0,0c0,0,0.1-0.1,0.1-0.1l0-0.2c0,0-0.1-0.1-0.1,0l0,0c0,0-0.1,0.1-0.1,0.1
				L30.7,41.5z"/>
		</g>
	</g>
	<g>
		<g>
			<path class="st0" d="M35.2,29.4c0,0,0,0.1,0,0.1l0,0c-0.1,0-0.1,0-0.1,0l-0.1-0.2c0,0,0-0.1,0-0.1l0,0c0.1,0,0.1,0,0.1,0
				L35.2,29.4z"/>
		</g>
		<g>
			<path class="st0" d="M35.7,30.1c0,0,0,0.1,0,0.1l0,0c0,0-0.1,0-0.1,0L35.4,30c0,0,0-0.1,0-0.1l0,0c0.1,0,0.1,0,0.1,0L35.7,30.1z"
				/>
		</g>
		<g>
			<path class="st0" d="M36.1,30.8c0,0.1,0,0.1-0.1,0.2l0,0c-0.1,0-0.1,0-0.2,0l-0.1-0.2c0-0.1,0-0.1,0.1-0.2l0,0c0.1,0,0.1,0,0.2,0
				L36.1,30.8z"/>
		</g>
		<g>
			<path class="st0" d="M36.6,31.6c0,0.1,0,0.1-0.1,0.2l0,0c-0.1,0-0.1,0-0.2,0l-0.1-0.2c0-0.1,0-0.1,0.1-0.2l0,0c0.1,0,0.1,0,0.2,0
				L36.6,31.6z"/>
		</g>
	</g>
	<g>
		<g>
			<path class="st0" d="M35.3,33.3c0,0.1,0.1,0.1,0.2,0.1l0,0c0.1,0,0.1-0.1,0.1-0.2l-0.1-0.2c0-0.1-0.1-0.1-0.2-0.1l0,0
				c-0.1,0-0.1,0.1-0.1,0.2L35.3,33.3z"/>
		</g>
		<g>
			<path class="st0" d="M35.7,34.3c0,0.1,0.1,0.1,0.2,0l0,0c0.1,0,0.1-0.1,0.1-0.1l-0.1-0.2c0-0.1-0.1-0.1-0.2,0l0,0
				c-0.1,0-0.1,0.1-0.1,0.1L35.7,34.3z"/>
		</g>
		<g>
			<path class="st0" d="M34.5,29.7c0,0,0.1,0.1,0.1,0.1l0,0c0.1,0,0.1,0,0.1-0.1l0-0.2c0,0,0-0.1-0.1-0.1l0,0c-0.1,0-0.1,0-0.1,0.1
				L34.5,29.7z"/>
		</g>
		<g>
			<path class="st0" d="M34.4,29C34.4,29,34.5,29.1,34.4,29L34.4,29c0.2,0.1,0.2,0.1,0.2,0l0-0.1l-0.2-0.1L34.4,29z"/>
		</g>
		<g>
			<path class="st0" d="M34.6,30.5c0,0.1,0.1,0.1,0.1,0.1l0,0c0.1,0,0.1-0.1,0.1-0.1l0-0.2c0-0.1-0.1-0.1-0.1-0.1l0,0
				c-0.1,0-0.1,0.1-0.1,0.1L34.6,30.5z"/>
		</g>
		<g>
			<path class="st0" d="M34.7,31.4c0,0.1,0.1,0.1,0.2,0.1l0,0c0.1,0,0.1-0.1,0.1-0.1l-0.1-0.3c0-0.1-0.1-0.1-0.2-0.1l0,0
				c-0.1,0-0.1,0.1-0.1,0.1L34.7,31.4z"/>
		</g>
		<g>
			<path class="st0" d="M35,32.3c0,0.1,0.1,0.1,0.2,0.1l0,0c0.1,0,0.1-0.1,0.1-0.2L35.2,32c0-0.1-0.1-0.1-0.2-0.1l0,0
				c-0.1,0-0.1,0.1-0.1,0.2L35,32.3z"/>
		</g>
		<g>
			<path class="st0" d="M36,35c0,0,0.1,0.1,0.1,0l0,0c0.1,0,0.1-0.1,0.1-0.1l-0.1-0.2c0,0-0.1-0.1-0.1,0l0,0c-0.1,0-0.1,0.1-0.1,0.1
				L36,35z"/>
		</g>
		<g>
			<path class="st0" d="M36.4,35.7c0,0,0.1,0,0.1,0l0,0c0.1,0,0.1-0.1,0.1-0.1l-0.1-0.2c0,0-0.1-0.1-0.1,0l0,0c0,0-0.1,0.1,0,0.1
				L36.4,35.7z"/>
		</g>
		<g>
			<path class="st0" d="M36.7,36.3C36.8,36.3,36.8,36.4,36.7,36.3c0.1,0.1,0.1,0.1,0.1,0.1l0,0c0,0,0.1-0.1,0-0.1l-0.1-0.2
				c0,0-0.1,0-0.1,0l0,0c0,0-0.1,0.1,0,0.1L36.7,36.3z"/>
		</g>
		<g>
			<path class="st0" d="M37.2,36.8L37.2,36.8c0,0,0-0.1,0-0.1l-0.1-0.1c0,0-0.1,0-0.1,0l0,0c0,0,0,0,0,0L37.2,36.8z"/>
		</g>
	</g>
	<g>
		<g>
			<path class="st0" d="M32.3,28.1c0.1,0,0.1,0,0.1,0.1l0,0c0,0.1,0,0.1-0.1,0.2l-0.2,0.1c-0.1,0-0.1,0-0.1-0.1l0,0
				c0-0.1,0-0.1,0.1-0.2L32.3,28.1z"/>
		</g>
		<g>
			<path class="st0" d="M31.6,28.5c0,0,0.1,0,0.1,0.1l0,0c0,0.1,0,0.1,0,0.2l-0.2,0.1c0,0-0.1,0-0.1-0.1l0,0c0-0.1,0-0.1,0-0.2
				L31.6,28.5z"/>
		</g>
		<g>
			<path class="st0" d="M31,28.9c0,0,0.1,0,0.1,0l0,0c0,0.1,0,0.1,0,0.1L31,29.2c0,0-0.1,0-0.1,0l0,0c0-0.1,0-0.1,0-0.1L31,28.9z"/>
		</g>
		<g>
			<path class="st0" d="M33.1,28c0.1,0,0.1,0.1,0.1,0.1l0,0c0,0.1,0,0.1-0.1,0.2l-0.2,0c-0.1,0-0.1-0.1-0.1-0.1l0,0
				c0-0.1,0-0.1,0.1-0.2L33.1,28z"/>
		</g>
		<g>
			<path class="st0" d="M34.1,28.1c0.1,0,0.1,0.1,0.1,0.2l0,0c0,0.1-0.1,0.1-0.1,0.1l-0.3-0.1c-0.1,0-0.1-0.1-0.1-0.2l0,0
				c0-0.1,0.1-0.1,0.1-0.1L34.1,28.1z"/>
		</g>
		<g>
			<path class="st0" d="M35,28.4c0.1,0,0.1,0.1,0.1,0.2l0,0c0,0.1-0.1,0.1-0.2,0.1l-0.3-0.1c-0.1,0-0.1-0.1-0.1-0.2l0,0
				c0-0.1,0.1-0.1,0.2-0.1L35,28.4z"/>
		</g>
		<g>
			<path class="st0" d="M35.8,28.9c0.1,0,0.1,0.1,0,0.2l0,0c0,0.1-0.1,0.1-0.2,0.1l-0.2-0.1c0,0-0.1-0.1,0-0.2l0,0
				c0-0.1,0.1-0.1,0.2-0.1L35.8,28.9z"/>
		</g>
		<g>
			<path class="st0" d="M36.5,29.5c0,0,0,0.1,0,0.2l0,0c0,0.1-0.1,0.1-0.1,0l-0.2-0.1c0,0,0-0.1,0-0.2l0,0c0-0.1,0.1-0.1,0.1,0
				L36.5,29.5z"/>
		</g>
		<g>
			<path class="st0" d="M30.5,29.6c0,0-0.1,0-0.1,0l0,0c0,0,0-0.1,0-0.2l0.2-0.1c0,0,0.1,0,0.1,0l0,0c0,0.1,0,0.1,0,0.2L30.5,29.6z"
				/>
		</g>
		<g>
			<path class="st0" d="M29.8,30c-0.1,0-0.1,0-0.1-0.1l0,0c0-0.1,0-0.2,0.1-0.2l0.2-0.1c0.1,0,0.1,0,0.1,0.1l0,0
				c0,0.1,0,0.2-0.1,0.2L29.8,30z"/>
		</g>
		<g>
			<path class="st0" d="M28.9,30.1c-0.1,0-0.1-0.1-0.1-0.2l0,0c0-0.1,0.1-0.2,0.1-0.1l0.3,0c0.1,0,0.1,0.1,0.1,0.2l0,0
				c0,0.1-0.1,0.2-0.1,0.1L28.9,30.1z"/>
		</g>
		<g>
			<path class="st0" d="M28.1,30c-0.1,0-0.1-0.1-0.1-0.2l0,0c0-0.1,0.1-0.1,0.1-0.1l0.3,0.1c0.1,0,0.1,0.1,0.1,0.2l0,0
				c0,0.1-0.1,0.1-0.1,0.1L28.1,30z"/>
		</g>
		<g>
			<path class="st0" d="M27.3,29.7c-0.1,0-0.1-0.1-0.1-0.2l0,0c0-0.1,0.1-0.1,0.1-0.1l0.2,0.1c0.1,0,0.1,0.1,0.1,0.2l0,0
				c0,0.1-0.1,0.1-0.1,0.1L27.3,29.7z"/>
		</g>
		<g>
			<path class="st0" d="M26.6,29.5c0,0-0.1-0.1,0-0.1l0,0c0-0.1,0.1-0.1,0.1-0.1l0.2,0.1c0,0,0.1,0.1,0,0.1l0,0
				c0,0.1-0.1,0.1-0.1,0.1L26.6,29.5z"/>
		</g>
		<g>
			<path class="st0" d="M26,29.2c0,0-0.1-0.1,0-0.1l0,0c0-0.1,0.1-0.1,0.1-0.1l0.2,0.1c0,0,0.1,0.1,0,0.1l0,0c0,0.1-0.1,0.1-0.1,0.1
				L26,29.2z"/>
		</g>
		<g>
			<path class="st0" d="M25.5,28.9c0,0-0.1-0.1,0-0.1l0,0c0-0.1,0.1-0.1,0.1-0.1l0.2,0.1c0,0,0.1,0.1,0,0.1l0,0
				c0,0.1-0.1,0.1-0.1,0.1L25.5,28.9z"/>
		</g>
		<g>
			<path class="st0" d="M24.9,28.5c0,0,0-0.1,0-0.1l0,0c0-0.1,0.1-0.1,0.1-0.1l0.2,0.1c0,0,0,0.1,0,0.1l0,0c0,0.1-0.1,0.1-0.1,0.1
				L24.9,28.5z"/>
		</g>
		<g>
			<path class="st0" d="M24.4,28.2c0,0,0-0.1,0-0.1l0,0c0,0,0.1-0.1,0.1,0l0.1,0.1c0,0,0,0.1,0,0.1l0,0c0,0-0.1,0.1-0.1,0L24.4,28.2
				z"/>
		</g>
		<g>
			<path class="st0" d="M37.1,30.1c0,0,0,0.1,0,0.1l0,0c0,0-0.1,0.1-0.1,0l-0.1-0.1c0,0,0-0.1,0-0.1l0,0c0,0,0.1-0.1,0.1,0
				L37.1,30.1z"/>
		</g>
		<g>
			<path class="st0" d="M37.6,30.7c0,0,0,0.1,0,0.1l0,0c0,0-0.1,0-0.1,0l-0.1-0.1c0,0,0-0.1,0-0.1l0,0c0,0,0.1,0,0.1,0L37.6,30.7z"
				/>
		</g>
	</g>
</g>
</svg>
