<?xml version="1.0" encoding="utf-8"?>
<!-- Generator: Adobe Illustrator 16.0.0, SVG Export Plug-In . SVG Version: 6.00 Build 0)  -->
<!DOCTYPE svg PUBLIC "-//W3C//DTD SVG 1.1//EN" "http://www.w3.org/Graphics/SVG/1.1/DTD/svg11.dtd">
<svg version="1.1" id="Layer_1" xmlns="http://www.w3.org/2000/svg" xmlns:xlink="http://www.w3.org/1999/xlink" x="0px" y="0px"
	 width="160px" height="160px" viewBox="180 0 160 160" enable-background="new 180 0 160 160" xml:space="preserve">
<g>
	<g>
		<path fill="#FFFFFF" d="M80,6.5C39.468,6.5,6.5,39.468,6.5,80c0,40.533,32.968,73.5,73.5,73.5c40.533,0,73.5-32.967,73.5-73.5
			C153.5,39.468,120.533,6.5,80,6.5z M80,147.555C42.739,147.556,12.445,117.261,12.445,80S42.739,12.445,80,12.445
			S147.555,42.739,147.555,80C147.556,117.261,117.261,147.555,80,147.555z"/>
		<path fill="#FFFFFF" d="M90.449,55.59c-0.571-0.57-1.352-0.871-2.103-0.871c-0.75,0-1.53,0.301-2.102,0.871L63.937,77.898
			c-0.57,0.571-0.87,1.321-0.87,2.102c0,0.781,0.3,1.531,0.87,2.102l22.309,22.309c1.171,1.171,3.033,1.171,4.204,0
			s1.171-3.032,0-4.203L70.242,80l20.207-20.207C91.59,58.623,91.59,56.731,90.449,55.59z"/>
	</g>
</g>
<g>
	<g>
		<path fill="#FFFFFF" d="M260,153.498c40.532,0,73.5-32.968,73.5-73.5c0-40.533-32.968-73.5-73.5-73.5
			c-40.533,0-73.5,32.967-73.5,73.5C186.5,120.53,219.467,153.498,260,153.498z M260,12.443
			c37.261-0.001,67.555,30.294,67.555,67.555S297.261,147.553,260,147.553s-67.555-30.294-67.555-67.555
			C192.444,42.737,222.739,12.443,260,12.443z"/>
		<path fill="#FFFFFF" d="M249.551,104.408c0.571,0.57,1.352,0.871,2.103,0.871c0.75,0,1.53-0.301,2.102-0.871L276.063,82.1
			c0.57-0.571,0.87-1.321,0.87-2.102c0-0.781-0.3-1.531-0.87-2.102l-22.309-22.309c-1.171-1.171-3.033-1.171-4.204,0
			s-1.171,3.032,0,4.203l20.207,20.207l-20.207,20.207C248.41,101.375,248.41,103.267,249.551,104.408z"/>
	</g>
</g>
</svg>
