<?xml version="1.0" encoding="utf-8"?>
<!-- Generator: Adobe Illustrator 16.0.0, SVG Export Plug-In . SVG Version: 6.00 Build 0)  -->
<!DOCTYPE svg PUBLIC "-//W3C//DTD SVG 1.1//EN" "http://www.w3.org/Graphics/SVG/1.1/DTD/svg11.dtd">
<svg version="1.1" id="Layer_1" xmlns="http://www.w3.org/2000/svg" xmlns:xlink="http://www.w3.org/1999/xlink" x="0px" y="0px"
	 width="1785.83px" height="1247.24px" viewBox="0 0 1785.83 1247.24" enable-background="new 0 0 1785.83 1247.24"
	 xml:space="preserve">
<g>
	<g>
		<path fill-rule="evenodd" clip-rule="evenodd" fill="#FFFFFF" d="M674.783,589.059c0.181-0.703,0.579-1.262,0.994-1.805
			c0.653-0.854,1.408-1.607,2.229-2.298c1.292-1.085,2.69-2.014,4.163-2.831c2.379-1.318,4.873-2.373,7.439-3.265
			c2.204-0.765,4.438-1.421,6.703-1.968c1.428-0.345,2.868-0.641,4.309-0.93c1.16-0.232,2.327-0.437,3.495-0.627
			c1.055-0.17,2.115-0.312,3.175-0.453c1.004-0.131,2.007-0.263,3.013-0.363c1.139-0.113,2.283-0.199,3.424-0.285
			c0.915-0.069,1.828-0.133,2.744-0.185c0.859-0.048,1.717-0.079,2.575-0.111c3.113-0.114,6.228-0.12,9.34,0.013
			c1.24,0.053,2.48,0.104,3.72,0.171c0.744,0.04,1.485,0.102,2.229,0.161c0.799,0.065,1.598,0.129,2.395,0.213
			c0.95,0.102,1.897,0.221,2.844,0.338c0.72,0.091,1.439,0.186,2.159,0.291c2.152,0.313,4.292,0.711,6.423,1.146
			c2.66,0.544,5.283,1.227,7.867,2.052c2.658,0.849,5.263,1.837,7.752,3.112c1.944,0.996,3.801,2.121,5.476,3.535
			c1.114,0.943,2.1,2.002,2.876,3.244c0.142,0.225,0.258,0.468,0.38,0.705c0.014,0.024-0.008,0.066-0.022,0.145
			c-0.101-0.078-0.193-0.135-0.269-0.211c-1.258-1.25-2.721-2.219-4.262-3.072c-2.043-1.133-4.19-2.039-6.393-2.805
			c-1.804-0.626-3.636-1.166-5.484-1.646c-2.034-0.529-4.08-1.002-6.148-1.369c-1.465-0.26-2.937-0.474-4.407-0.698
			c-0.698-0.105-1.399-0.188-2.101-0.274c-0.11-0.015-0.231-0.018-0.337,0.008c-0.056,0.016-0.12,0.104-0.127,0.164
			c-0.007,0.061,0.039,0.166,0.089,0.187c0.177,0.066,0.363,0.116,0.549,0.151c0.919,0.172,1.838,0.334,2.759,0.504
			c1.86,0.342,3.701,0.768,5.538,1.216c1.948,0.473,3.878,1.01,5.788,1.622c2.385,0.764,4.719,1.662,6.99,2.719
			c1.649,0.768,3.224,1.664,4.697,2.73c0.992,0.722,1.901,1.536,2.646,2.521c0.359,0.475,0.661,0.982,0.869,1.541
			c0.357,0.953,0.365,1.896-0.042,2.846c-0.572,1.337-1.409,2.486-2.419,3.52c-1.371,1.402-2.951,2.535-4.634,3.53
			c-1.73,1.022-3.536,1.893-5.397,2.647c-1.522,0.617-3.065,1.182-4.639,1.65c-1.41,0.419-2.819,0.846-4.244,1.203
			c-1.537,0.383-3.092,0.688-4.639,1.027c-0.222,0.047-0.444,0.082-0.658,0.121c-0.178-0.148-0.234-0.332-0.303-0.508
			c-0.698-1.777-1.397-3.555-2.092-5.334c-0.053-0.137-0.079-0.283-0.118-0.432c0.205-0.175,0.425-0.236,0.637-0.318
			c0.836-0.327,1.655-0.694,2.421-1.167c0.8-0.493,1.553-1.046,2.135-1.8c0.234-0.304,0.425-0.632,0.558-0.994
			c0.309-0.844,0.208-1.652-0.201-2.434c-0.39-0.744-0.98-1.312-1.632-1.822c-0.802-0.626-1.691-1.107-2.61-1.539
			c-1.77-0.831-3.62-1.434-5.51-1.912c-1.777-0.451-3.57-0.83-5.39-1.068c-1.326-0.173-2.646-0.395-3.979-0.486
			c-3.03-0.212-6.062-0.374-9.102-0.191c-1.087,0.064-2.176,0.102-3.262,0.168c-0.553,0.034-1.103,0.104-1.654,0.159
			c-1.996,0.196-3.979,0.488-5.945,0.891c-2.097,0.431-4.171,0.946-6.173,1.718c-1.446,0.559-2.853,1.197-4.121,2.108
			c-0.436,0.313-0.838,0.665-1.197,1.063c-0.479,0.532-0.839,1.131-0.965,1.853c-0.162,0.929,0.111,1.738,0.667,2.467
			c0.338,0.443,0.75,0.815,1.19,1.153c1.026,0.785,2.182,1.33,3.372,1.809c0.207,0.084,0.445,0.119,0.612,0.324
			c-0.01,0.068-0.008,0.146-0.034,0.214c-0.76,1.938-1.522,3.875-2.287,5.811c-0.034,0.086-0.094,0.161-0.138,0.235
			c-0.076,0.008-0.134,0.027-0.187,0.018c-2.157-0.414-4.307-0.857-6.419-1.461c-1.45-0.414-2.897-0.842-4.33-1.314
			c-2.745-0.903-5.401-2.018-7.933-3.418c-1.525-0.844-2.971-1.802-4.298-2.934c-1.11-0.947-2.102-2.004-2.854-3.264
			c-0.214-0.359-0.401-0.736-0.585-1.115c-0.613-1.256-0.473-2.482,0.173-3.679c0.337-0.625,0.766-1.188,1.255-1.702
			c0.888-0.932,1.901-1.709,2.978-2.408c1.591-1.033,3.276-1.879,5.016-2.63c2.774-1.197,5.626-2.171,8.538-2.976
			c2.337-0.647,4.691-1.226,7.07-1.697c1.367-0.271,2.737-0.519,4.106-0.78c0.187-0.036,0.374-0.081,0.553-0.146
			c0.052-0.019,0.101-0.111,0.11-0.179c0.015-0.106-0.06-0.195-0.162-0.194c-0.266,0.003-0.534,0.011-0.796,0.047
			c-1.493,0.21-2.986,0.406-4.474,0.648c-1.167,0.188-2.327,0.426-3.486,0.666c-3.051,0.627-6.058,1.422-9.015,2.404
			c-2.161,0.717-4.263,1.576-6.288,2.615c-1.5,0.77-2.929,1.651-4.222,2.74c-0.262,0.221-0.504,0.463-0.758,0.697
			C674.984,588.891,674.883,588.973,674.783,589.059z"/>
		<path fill-rule="evenodd" clip-rule="evenodd" fill="#FFFFFF" d="M696.986,575.353c-0.048-0.239,0.105-0.382,0.211-0.529
			c0.491-0.681,0.968-1.374,1.5-2.023c2.274-2.78,5.007-5.022,8.103-6.833c1.853-1.083,3.792-1.98,5.819-2.684
			c1.661-0.576,3.357-1.024,5.092-1.328c2.381-0.418,4.772-0.587,7.187-0.498c3.111,0.115,6.145,0.654,9.103,1.625
			c3.871,1.268,7.401,3.164,10.556,5.746c2.082,1.703,3.908,3.646,5.406,5.887c0.107,0.158,0.202,0.324,0.297,0.489
			c0.016,0.028,0.002,0.073,0.002,0.119c-0.101,0.13-0.239,0.061-0.36,0.035c-0.805-0.169-1.604-0.356-2.409-0.513
			c-1.312-0.25-2.626-0.493-3.942-0.713c-1.093-0.182-2.19-0.34-3.289-0.477c-1.363-0.17-2.73-0.312-4.098-0.459
			c-0.797-0.084-1.594-0.17-2.395-0.222c-1.524-0.102-3.049-0.198-4.577-0.26c-1.526-0.063-3.054-0.108-4.583-0.11
			c-1.757-0.003-3.513,0.037-5.271,0.083c-1.336,0.035-2.673,0.075-4.007,0.167c-1.791,0.123-3.577,0.295-5.365,0.451
			c-1.826,0.16-3.642,0.414-5.454,0.689c-2.039,0.309-4.069,0.669-6.083,1.115c-0.353,0.078-0.705,0.168-1.061,0.237
			C697.246,575.373,697.114,575.353,696.986,575.353z M723.644,569.985L723.644,569.985c0.782,0.001,1.562,0.001,2.342,0.001
			c0.134-0.001,0.269,0.006,0.399-0.011c0.271-0.036,0.449-0.218,0.485-0.485c0.011-0.093,0.011-0.189,0.001-0.284
			c-0.064-0.548-0.13-1.097-0.202-1.644c-0.014-0.111-0.049-0.222-0.083-0.331c-0.062-0.198-0.202-0.322-0.397-0.376
			c-0.107-0.029-0.224-0.051-0.336-0.051c-1.485-0.002-2.971-0.012-4.455,0.003c-0.551,0.006-0.72,0.157-0.809,0.69
			c-0.097,0.581-0.169,1.169-0.223,1.756c-0.044,0.484,0.174,0.71,0.651,0.731c0.114,0.005,0.228,0,0.343,0
			C722.121,569.985,722.882,569.985,723.644,569.985z M730.466,567.129c-0.572-0.048-0.822,0.342-0.754,0.821
			c0.081,0.567,0.146,1.135,0.232,1.701c0.062,0.409,0.213,0.546,0.641,0.595c0.531,0.061,1.064,0.101,1.594,0.162
			c0.759,0.088,1.516,0.191,2.274,0.281c0.646,0.077,0.934-0.262,0.765-0.889c-0.02-0.074-0.047-0.146-0.073-0.219
			c-0.15-0.432-0.314-0.86-0.449-1.297c-0.113-0.369-0.33-0.582-0.72-0.639c-0.812-0.117-1.622-0.252-2.432-0.374
			C731.185,567.219,730.826,567.177,730.466,567.129z M716.847,567.122c-0.378,0.049-0.756,0.092-1.133,0.149
			c-0.831,0.123-1.659,0.258-2.489,0.383c-0.339,0.051-0.549,0.235-0.657,0.557c-0.168,0.508-0.35,1.011-0.521,1.518
			c-0.036,0.107-0.069,0.22-0.077,0.333c-0.028,0.36,0.211,0.632,0.57,0.647c0.113,0.005,0.228-0.02,0.341-0.033
			c1.043-0.116,2.086-0.232,3.13-0.35c0.227-0.026,0.455-0.051,0.682-0.082c0.36-0.051,0.532-0.187,0.588-0.521
			c0.098-0.622,0.177-1.247,0.255-1.873C717.587,567.448,717.281,567.087,716.847,567.122z M705.397,572.091
			c0.083-0.015,0.216-0.032,0.345-0.061c0.632-0.143,1.262-0.286,1.892-0.432c0.167-0.038,0.333-0.079,0.496-0.13
			c0.174-0.053,0.308-0.166,0.362-0.34c0.177-0.561,0.371-1.119,0.505-1.693c0.122-0.508-0.267-0.855-0.78-0.719
			c-0.716,0.19-1.428,0.405-2.14,0.609c-0.292,0.082-0.5,0.258-0.631,0.535c-0.192,0.414-0.395,0.824-0.59,1.236
			c-0.041,0.085-0.079,0.176-0.098,0.267C704.677,571.764,704.944,572.088,705.397,572.091z M742.488,571.425
			c-0.019-0.064-0.04-0.178-0.089-0.279c-0.21-0.448-0.429-0.892-0.644-1.339c-0.123-0.256-0.332-0.406-0.602-0.482
			c-0.511-0.146-1.022-0.299-1.534-0.445c-0.22-0.062-0.438-0.133-0.662-0.18c-0.449-0.091-0.792,0.234-0.736,0.688
			c0.01,0.073,0.034,0.147,0.056,0.221c0.131,0.436,0.276,0.869,0.391,1.311c0.092,0.357,0.301,0.539,0.66,0.612
			c0.746,0.154,1.484,0.341,2.224,0.511c0.112,0.025,0.226,0.047,0.339,0.047C742.254,572.091,742.503,571.83,742.488,571.425z
			 M746.523,573.24c-0.029-0.076-0.038-0.178-0.091-0.24c-0.438-0.504-0.882-0.999-1.325-1.494c-0.026-0.027-0.056-0.059-0.089-0.07
			c-0.051-0.018-0.128-0.045-0.158-0.021c-0.05,0.039-0.114,0.127-0.1,0.174c0.085,0.29,0.185,0.577,0.291,0.861
			c0.231,0.624,0.75,0.812,1.348,0.866C746.428,573.318,746.461,573.279,746.523,573.24z M702.535,571.476
			c-0.201-0.146-0.303-0.058-0.396,0.046c-0.42,0.468-0.838,0.939-1.256,1.41c-0.038,0.041-0.076,0.09-0.094,0.142
			c-0.018,0.05-0.035,0.13-0.01,0.159c0.045,0.048,0.135,0.109,0.184,0.093c0.286-0.095,0.573-0.196,0.844-0.327
			c0.112-0.055,0.213-0.173,0.273-0.285C702.283,572.325,702.459,571.924,702.535,571.476z"/>
		<path fill-rule="evenodd" clip-rule="evenodd" fill="#FFFFFF" d="M743.505,602.16c-0.064-0.112-0.121-0.188-0.154-0.273
			c-0.479-1.227-0.958-2.453-1.431-3.684c-0.179-0.466-0.514-0.799-0.899-1.088c-0.6-0.452-1.272-0.773-1.965-1.049
			c-1.333-0.533-2.72-0.893-4.126-1.173c-1.593-0.318-3.194-0.57-4.816-0.692c-0.741-0.057-1.481-0.15-2.224-0.191
			c-0.991-0.057-1.985-0.108-2.978-0.107c-1.718,0.002-3.438,0.009-5.154,0.083c-1.716,0.073-3.429,0.244-5.128,0.497
			c-1.511,0.226-3.014,0.506-4.484,0.927c-1.176,0.336-2.338,0.72-3.395,1.354c-0.197,0.117-0.392,0.24-0.572,0.379
			c-0.43,0.332-0.747,0.734-0.937,1.266c-0.433,1.203-0.92,2.387-1.389,3.576c-0.025,0.068-0.081,0.126-0.126,0.193
			c-0.064,0-0.127,0.016-0.175-0.002c-1.33-0.547-2.611-1.179-3.74-2.082c-0.435-0.348-0.829-0.736-1.132-1.208
			c-0.25-0.39-0.429-0.808-0.469-1.276c-0.053-0.624,0.167-1.162,0.511-1.662c0.474-0.691,1.122-1.193,1.821-1.633
			c1.219-0.768,2.548-1.301,3.908-1.758c1.96-0.656,3.972-1.102,6.004-1.459c1.224-0.213,2.453-0.357,3.684-0.506
			c2.164-0.26,4.336-0.414,6.51-0.465c2.119-0.053,4.241-0.026,6.358,0.035c1.526,0.043,3.048,0.191,4.571,0.312
			c0.97,0.079,1.94,0.17,2.904,0.298c1.38,0.183,2.753,0.415,4.118,0.702c1.666,0.348,3.308,0.771,4.907,1.356
			c0.88,0.321,1.735,0.702,2.563,1.14c0.593,0.314,1.14,0.699,1.648,1.136c0.454,0.39,0.818,0.85,1.072,1.397
			c0.281,0.609,0.277,1.215,0.013,1.83c-0.247,0.574-0.633,1.041-1.086,1.457c-0.696,0.639-1.491,1.133-2.325,1.561
			c-0.526,0.27-1.073,0.498-1.611,0.742C743.716,602.123,743.637,602.131,743.505,602.16z"/>
		<path fill-rule="evenodd" clip-rule="evenodd" d="M723.644,569.985c-0.762,0-1.523,0-2.285,0c-0.115,0-0.229,0.005-0.343,0
			c-0.478-0.021-0.695-0.247-0.651-0.731c0.054-0.587,0.126-1.175,0.223-1.756c0.089-0.533,0.258-0.685,0.809-0.69
			c1.484-0.015,2.97-0.005,4.455-0.003c0.112,0,0.229,0.021,0.336,0.051c0.196,0.054,0.336,0.178,0.397,0.376
			c0.034,0.109,0.07,0.22,0.083,0.331c0.072,0.547,0.138,1.096,0.202,1.644c0.01,0.095,0.01,0.191-0.001,0.284
			c-0.036,0.268-0.214,0.449-0.485,0.485c-0.131,0.017-0.265,0.01-0.399,0.011C725.206,569.986,724.426,569.986,723.644,569.985
			L723.644,569.985z"/>
		<path fill-rule="evenodd" clip-rule="evenodd" d="M730.466,567.129c0.36,0.048,0.719,0.09,1.078,0.144
			c0.811,0.122,1.62,0.257,2.432,0.374c0.39,0.057,0.606,0.27,0.72,0.639c0.135,0.437,0.299,0.865,0.449,1.297
			c0.025,0.072,0.053,0.145,0.073,0.219c0.169,0.627-0.119,0.966-0.765,0.889c-0.758-0.09-1.516-0.193-2.274-0.281
			c-0.53-0.062-1.063-0.102-1.594-0.162c-0.428-0.049-0.579-0.186-0.641-0.595c-0.086-0.566-0.151-1.134-0.232-1.701
			C729.644,567.471,729.894,567.081,730.466,567.129z"/>
		<path fill-rule="evenodd" clip-rule="evenodd" d="M716.847,567.122c0.435-0.035,0.74,0.326,0.689,0.728
			c-0.078,0.626-0.157,1.251-0.255,1.873c-0.056,0.335-0.228,0.471-0.588,0.521c-0.227,0.031-0.455,0.056-0.682,0.082
			c-1.044,0.117-2.087,0.233-3.13,0.35c-0.113,0.014-0.228,0.038-0.341,0.033c-0.359-0.016-0.598-0.287-0.57-0.647
			c0.008-0.113,0.041-0.226,0.077-0.333c0.171-0.507,0.352-1.01,0.521-1.518c0.108-0.321,0.317-0.506,0.657-0.557
			c0.83-0.125,1.659-0.26,2.489-0.383C716.09,567.214,716.468,567.171,716.847,567.122z"/>
		<path fill-rule="evenodd" clip-rule="evenodd" d="M705.397,572.091c-0.453-0.003-0.72-0.327-0.638-0.727
			c0.019-0.091,0.057-0.182,0.098-0.267c0.195-0.412,0.397-0.822,0.59-1.236c0.13-0.277,0.338-0.453,0.631-0.535
			c0.712-0.204,1.423-0.419,2.14-0.609c0.513-0.137,0.901,0.211,0.78,0.719c-0.135,0.574-0.329,1.133-0.505,1.693
			c-0.054,0.174-0.188,0.287-0.362,0.34c-0.163,0.051-0.329,0.092-0.496,0.13c-0.63,0.146-1.259,0.289-1.892,0.432
			C705.613,572.059,705.48,572.076,705.397,572.091z"/>
		<path fill-rule="evenodd" clip-rule="evenodd" d="M742.488,571.425c0.015,0.405-0.234,0.666-0.597,0.663
			c-0.113,0-0.227-0.021-0.339-0.047c-0.74-0.17-1.479-0.356-2.224-0.511c-0.359-0.073-0.568-0.255-0.66-0.612
			c-0.114-0.441-0.26-0.875-0.391-1.311c-0.022-0.073-0.046-0.147-0.056-0.221c-0.056-0.453,0.288-0.778,0.736-0.688
			c0.223,0.047,0.441,0.117,0.662,0.18c0.512,0.146,1.022,0.299,1.534,0.445c0.27,0.076,0.479,0.227,0.602,0.482
			c0.215,0.447,0.434,0.891,0.644,1.339C742.448,571.247,742.469,571.36,742.488,571.425z"/>
		<path fill-rule="evenodd" clip-rule="evenodd" d="M746.523,573.24c-0.062,0.039-0.095,0.078-0.125,0.075
			c-0.598-0.055-1.117-0.242-1.348-0.866c-0.106-0.284-0.206-0.571-0.291-0.861c-0.015-0.047,0.049-0.135,0.1-0.174
			c0.03-0.023,0.107,0.004,0.158,0.021c0.033,0.012,0.063,0.043,0.089,0.07c0.443,0.495,0.888,0.99,1.325,1.494
			C746.485,573.062,746.494,573.164,746.523,573.24z"/>
		<path fill-rule="evenodd" clip-rule="evenodd" d="M702.535,571.476c-0.075,0.448-0.252,0.85-0.455,1.237
			c-0.06,0.112-0.161,0.23-0.273,0.285c-0.271,0.131-0.558,0.232-0.844,0.327c-0.049,0.017-0.139-0.045-0.184-0.093
			c-0.025-0.029-0.008-0.109,0.01-0.159c0.019-0.052,0.056-0.101,0.094-0.142c0.417-0.471,0.836-0.942,1.256-1.41
			C702.231,571.418,702.334,571.33,702.535,571.476z"/>
	</g>
	<g>
		<path fill="#FFFFFF" d="M173.519,701.143c0,0-10.05,11.55-31.199,11.55c-27.899,0-46.948-20.698-46.948-46.948
			c0-26.549,19.049-47.098,46.948-47.098c21.149,0,31.199,11.55,31.199,11.55l-6,8.1c0,0-9.45-9.75-25.049-9.75
			c-21.599,0-36.449,16.8-36.449,37.198c0,20.25,14.85,37.049,36.449,37.049c15.599,0,25.049-9.75,25.049-9.75L173.519,701.143z"/>
		<path fill="#FFFFFF" d="M227.97,620.597h36.749c22.499,0,35.999,10.499,35.999,29.999c0,14.85-8.399,24.449-21.149,28.198v0.45
			l23.699,28.799v2.55h-11.399l-24.749-29.849h-28.649v29.849h-10.5V620.597z M264.568,630.346h-26.099v40.648h27.449
			c13.949,0,23.999-6.299,23.999-20.1C289.917,636.945,279.868,630.346,264.568,630.346z"/>
		<path fill="#FFFFFF" d="M418.917,671.145h-48.898v29.699h55.498v9.749H359.52v-89.996h65.998v9.749h-55.498v31.049h48.898V671.145
			z"/>
		<path fill="#FFFFFF" d="M513.266,620.597h2.4l44.398,89.996h-12l-7.95-15.6h-51.148l-7.95,15.6h-11.85L513.266,620.597z
			 M515.066,641.896h-1.2l-19.049,41.698l-0.75,1.35h40.949l-0.75-1.35L515.066,641.896z"/>
		<path fill="#FFFFFF" d="M590.669,620.597h73.647v9.749h-31.648v80.247h-10.5v-80.247h-31.499V620.597z"/>
		<path fill="#FFFFFF" d="M727.466,710.593h-10.5v-89.996h10.5V710.593z"/>
		<path fill="#FFFFFF" d="M833.664,668.444l23.399-47.848h11.7l-44.099,89.996h-2.399l-44.099-89.996h11.7l23.849,47.848
			l9.299,21.899h1.05L833.664,668.444z"/>
		<path fill="#FFFFFF" d="M979.011,671.145h-48.897v29.699h55.498v9.749h-65.997v-89.996h65.997v9.749h-55.498v31.049h48.897
			V671.145z"/>
		<path fill="#FFFFFF" d="M1109.512,694.094c0,0,9.3,8.699,27.149,8.699c16.648,0,23.848-6.3,23.848-15.449
			c0-8.4-5.549-12.6-25.198-18.149c-21.899-6.3-31.349-12.749-31.349-26.399c0-15.299,12.75-24.148,33.299-24.148
			c21.898,0,31.799,8.55,31.799,8.55l-5.7,8.7c0,0-9.149-7.351-26.099-7.351c-12.9,0-22.649,4.95-22.649,14.249
			c0,7.35,5.85,11.1,25.349,16.5c24,6.6,31.199,14.549,31.199,27.898c0,14.55-10.35,25.499-34.349,25.499
			c-22.8,0-32.999-10.649-32.999-10.649L1109.512,694.094z"/>
		<path fill="#FFFFFF" d="M1227.561,620.597h36.898c22.349,0,35.849,10.499,35.849,29.999c0,20.398-14.25,31.198-36.449,31.198
			h-25.799v28.799h-10.499V620.597z M1264.159,630.346h-26.1v41.699h26.1c15.449,0,25.498-6.15,25.498-21.15
			C1289.657,636.945,1279.458,630.346,1264.159,630.346z"/>
		<path fill="#FFFFFF" d="M1379.659,620.597h2.4l44.398,89.996h-12l-7.949-15.6h-51.148l-7.949,15.6h-11.85L1379.659,620.597z
			 M1381.46,641.896h-1.201l-19.049,41.698l-0.75,1.35h40.949l-0.75-1.35L1381.46,641.896z"/>
		<path fill="#FFFFFF" d="M1545.858,701.143c0,0-10.051,11.55-31.199,11.55c-27.898,0-46.947-20.698-46.947-46.948
			c0-26.549,19.049-47.098,46.947-47.098c21.148,0,31.199,11.55,31.199,11.55l-6,8.1c0,0-9.449-9.75-25.049-9.75
			c-21.6,0-36.449,16.8-36.449,37.198c0,20.25,14.85,37.049,36.449,37.049c15.6,0,25.049-9.75,25.049-9.75L1545.858,701.143z"/>
		<path fill="#FFFFFF" d="M1659.706,671.145h-48.898v29.699h55.498v9.749h-65.998v-89.996h65.998v9.749h-55.498v31.049h48.898
			V671.145z"/>
	</g>
</g>
</svg>
