<?xml version="1.0" encoding="utf-8"?>
<!-- Generator: Adobe Illustrator 23.0.1, SVG Export Plug-In . SVG Version: 6.00 Build 0)  -->
<svg version="1.1" id="Layer_1" xmlns="http://www.w3.org/2000/svg" xmlns:xlink="http://www.w3.org/1999/xlink" x="0px" y="0px"
	 viewBox="0 0 48 48" style="enable-background:new 0 0 48 48;" xml:space="preserve">
<style type="text/css">
	.st0{fill:#FFFFFF;}
</style>
<g>
	<path class="st0" d="M22.8,13.1c-0.4,0.3-0.6,0.5-0.6,0.9c0,0.4,0.3,0.7,0.7,0.7c0.2,0,0.3-0.1,0.4-0.2c0.1-0.1,0.2-0.3,0.4-0.7
		c0.1-0.1,0.1-0.1,0.1-0.2c0.1-0.2,0.2-0.3,0.3-0.4c0.2-0.2,0.4-0.3,0.7-0.3c0.6,0,1,0.4,1,1c0,0.3-0.1,0.5-0.2,0.7
		c-0.1,0.1-0.1,0.2-0.3,0.3L25,14.6c0.2-0.2,0.4-0.5,0.4-0.7c0-0.3-0.2-0.6-0.5-0.6c-0.2,0-0.3,0.1-0.4,0.2
		c-0.1,0.1-0.2,0.2-0.4,0.6c-0.1,0.2-0.1,0.2-0.2,0.4c-0.1,0.2-0.2,0.3-0.3,0.3c-0.2,0.1-0.4,0.2-0.6,0.2c-0.7,0-1.2-0.5-1.2-1.1
		c0-0.5,0.3-0.9,0.8-1.2L22.8,13.1z"/>
	<path class="st0" d="M22.1,19.3c-0.2-0.3-0.3-0.7-0.3-1c0-0.5,0.2-1,0.6-1.4c0.3-0.3,0.9-0.6,1.3-0.6c0.8,0,1.4,0.3,1.8,0.9
		c0.2,0.3,0.3,0.6,0.3,1c0,0.4,0,0.6-0.2,1c0,0.1,0,0.1,0,0.1H25c0.2-0.4,0.3-0.7,0.3-1c0-0.8-0.7-1.5-1.5-1.5
		c-0.9,0-1.6,0.6-1.6,1.5c0,0.4,0.1,0.6,0.3,1H22.1z"/>
	<path class="st0" d="M25.6,21.4c0,0.8-0.3,1.2-1,1.2c-0.6,0-1-0.3-1-1l-1.7,1.1v-0.5l1.6-1.1v-0.1h-1.6v-0.4h3.7V21.4z M25.2,21.1
		H24v0.4c0,0.5,0.2,0.8,0.6,0.8c0.4,0,0.6-0.2,0.6-0.8L25.2,21.1L25.2,21.1z"/>
	<path class="st0" d="M25.2,27.1c-0.4,0.4-0.8,0.6-1.5,0.6c-1.1,0-2-0.8-2-2c0-1.1,0.8-2,2-2c1.1,0,2,0.9,2,1.9c0,0,0,0,0,0
		C25.7,26.4,25.6,26.8,25.2,27.1z M23.8,24.2c-0.9,0-1.5,0.6-1.5,1.5c0,0.9,0.6,1.5,1.5,1.5c0.7,0,1.2-0.3,1.4-0.9
		c0.1-0.2,0.1-0.4,0.1-0.6v0C25.3,24.8,24.7,24.2,23.8,24.2z"/>
	<path class="st0" d="M25.6,29.5h-3.3v1.2h-0.4v-1.6h3.7V29.5z"/>
	<path class="st0" d="M25.6,32.4h-3.3v1.2h-0.4V32h3.7V32.4z"/>
	<path class="st0" d="M24,40.1h-0.3l-1.3-3.2h0.4l1.1,2.7l1.1-2.7h0.4L24,40.1z"/>
</g>
</svg>
