<?xml version="1.0" encoding="utf-8"?>
<!-- Generator: Adobe Illustrator 23.0.1, SVG Export Plug-In . SVG Version: 6.00 Build 0)  -->
<svg version="1.1" id="Layer_1" xmlns="http://www.w3.org/2000/svg" xmlns:xlink="http://www.w3.org/1999/xlink" x="0px" y="0px"
	 viewBox="0 0 48 48" style="enable-background:new 0 0 48 48;" xml:space="preserve">
<style type="text/css">
	.st0{fill:#FFFFFF;}
</style>
<g>
	<path class="st0" d="M24.8,39.7c0.4-0.3,0.6-0.5,0.6-0.9c0-0.4-0.3-0.7-0.7-0.7c-0.2,0-0.3,0.1-0.4,0.2c-0.1,0.1-0.2,0.3-0.4,0.7
		c-0.1,0.1-0.1,0.1-0.1,0.2c-0.1,0.2-0.2,0.3-0.3,0.4c-0.2,0.2-0.4,0.3-0.7,0.3c-0.6,0-1-0.4-1-1c0-0.3,0.1-0.5,0.2-0.7
		c0.1-0.1,0.1-0.2,0.3-0.3l0.3,0.3c-0.2,0.2-0.4,0.5-0.4,0.7c0,0.3,0.2,0.6,0.5,0.6c0.2,0,0.3-0.1,0.4-0.2c0.1-0.1,0.2-0.2,0.4-0.6
		c0.1-0.2,0.1-0.2,0.2-0.4c0.1-0.2,0.2-0.3,0.3-0.3c0.2-0.1,0.4-0.2,0.6-0.2c0.7,0,1.2,0.5,1.2,1.1c0,0.5-0.3,0.9-0.8,1.2L24.8,39.7
		z"/>
	<path class="st0" d="M25.5,33.5c0.2,0.3,0.3,0.7,0.3,1c0,0.5-0.2,1-0.6,1.4c-0.3,0.3-0.9,0.6-1.3,0.6c-0.8,0-1.4-0.3-1.8-0.9
		c-0.2-0.3-0.3-0.6-0.3-1c0-0.4,0-0.6,0.2-1c0-0.1,0-0.1,0-0.1h0.5c-0.2,0.4-0.3,0.7-0.3,1c0,0.8,0.7,1.5,1.5,1.5
		c0.9,0,1.6-0.6,1.6-1.5c0-0.4-0.1-0.6-0.3-1H25.5z"/>
	<path class="st0" d="M21.9,31.4c0-0.8,0.3-1.2,1-1.2c0.6,0,1,0.3,1,1l1.7-1.1v0.5L24,31.6v0.1h1.6v0.4h-3.7V31.4z M22.3,31.7h1.3
		v-0.4c0-0.5-0.2-0.8-0.6-0.8c-0.4,0-0.6,0.2-0.6,0.8L22.3,31.7L22.3,31.7z"/>
	<path class="st0" d="M22.3,25.7c0.4-0.4,0.8-0.6,1.5-0.6c1.1,0,2,0.8,2,2c0,1.1-0.8,2-2,2c-1.1,0-2-0.9-2-1.9c0,0,0,0,0,0
		C21.8,26.4,22,26,22.3,25.7z M23.8,28.6c0.9,0,1.5-0.6,1.5-1.5c0-0.9-0.6-1.5-1.5-1.5c-0.7,0-1.2,0.3-1.4,0.9
		c-0.1,0.2-0.1,0.4-0.1,0.6v0C22.3,28,22.9,28.6,23.8,28.6z"/>
	<path class="st0" d="M21.9,23.3h3.3v-1.2h0.4v1.6h-3.7V23.3z"/>
	<path class="st0" d="M21.9,20.4h3.3v-1.2h0.4v1.6h-3.7V20.4z"/>
	<path class="st0" d="M23.5,12.7h0.3l1.3,3.2h-0.4l-1.1-2.7l-1.1,2.7h-0.4L23.5,12.7z"/>
</g>
</svg>
