<?xml version="1.0" encoding="utf-8"?>
<!-- Generator: Adobe Illustrator 16.0.0, SVG Export Plug-In . SVG Version: 6.00 Build 0)  -->
<!DOCTYPE svg PUBLIC "-//W3C//DTD SVG 1.1//EN" "http://www.w3.org/Graphics/SVG/1.1/DTD/svg11.dtd">
<svg version="1.1" id="Capa_1" xmlns="http://www.w3.org/2000/svg" xmlns:xlink="http://www.w3.org/1999/xlink" x="0px" y="0px"
	 width="430.113px" height="430.114px" viewBox="0 0 430.113 430.114" enable-background="new 0 0 430.113 430.114"
	 xml:space="preserve">
<g>
	<circle fill="#FDFEFF" cx="183.713" cy="214.183" r="4.559"/>
	<path fill="#FDFEFF" d="M170.246,177.756l0.106,5.948c0.038,1.984,0.066,3.966,0.087,5.949l0.073,5.948l0.054,5.947l0.089,11.896
		l0.039,11.896l-1.081-1.1c2.284-0.037,4.57-0.092,6.856-0.125l6.855-0.1l13.709-0.199l-1.443,1.441l-0.063-18.494l-0.004-1.565
		l1.585-0.009l11.342-0.069l11.345-0.043l0.693-0.003l0.499,0.498l5.884,5.865l-1.204-0.499l8.306-0.006l-1.213,0.501l6.119-6.104
		l0.498-0.499l0.702,0.002l8.895,0.022l8.895,0.036l1.653,0.006l-0.011,1.638l-0.06,9.367l-0.073,9.366l-0.009,1.529l-1.501-0.021
		l-3.645-0.029l-1.494-0.014l0.014-1.465l0.063-6.008l0.082-6.008l1.335,1.336l-10.938-0.14l0.846-0.351l-1.621,1.58l-1.631,1.573
		l-3.26,3.146l-0.328,0.313l-0.413-0.008l-11.413-0.207l-0.363-0.007l-0.228-0.24l-7.092-7.416l0.427,0.174l-3.317-0.079
		l-3.317-0.09l-6.633-0.186l0.247-0.246c-0.083,2.47-0.152,4.943-0.247,7.414c-0.094-2.471-0.165-4.943-0.248-7.414l-0.006-0.24
		l0.254-0.007l6.633-0.185l3.317-0.092l3.317-0.079l0.234-0.005l0.192,0.182l7.418,7.089l-0.589-0.245l11.413-0.209l-0.739,0.307
		l3.149-3.261l1.573-1.629l1.578-1.625l0.334-0.344l0.512-0.006l10.938-0.141l1.316-0.017l0.018,1.354l0.078,6.008l0.065,6.008
		l-1.478-1.479l3.645-0.035l-1.51,1.514l-0.077-9.366l-0.055-9.367l1.642,1.644l-8.895,0.034l-8.895,0.021l1.201-0.499l-6.099,6.118
		l-0.503,0.502l-0.706-0.001l-8.306-0.007h-0.708l-0.498-0.498l-5.865-5.882l1.199,0.495l-11.345-0.044l-11.342-0.068l1.58-1.574
		l-0.202,18.5l-0.016,1.453l-1.429-0.012l-13.712-0.145l-6.857-0.07c-2.285-0.02-4.569-0.068-6.856-0.1l-1.112-0.012l0.031-1.08
		l0.355-11.89l0.404-11.89l0.21-5.943l0.23-5.945c0.077-1.982,0.156-3.962,0.245-5.943L170.246,177.756z"/>
	<g>
		<path fill="#FDFEFF" d="M179.05,246.708c0,0.877-0.706,1.584-1.579,1.584h-2.545v-6.172h2.217c0.871,0,1.58,0.707,1.58,1.592
			c0,0.637-0.389,1.193-0.942,1.439C178.505,245.295,179.05,245.932,179.05,246.708z M175.089,245.124h2.054
			c0.777,0,1.407-0.641,1.407-1.412c0-0.791-0.629-1.428-1.407-1.428h-2.054V245.124z M178.886,246.708
			c0-0.779-0.629-1.422-1.416-1.422h-2.381v2.842h2.381C178.257,248.127,178.886,247.485,178.886,246.708z"/>
		<path fill="#FDFEFF" d="M185.826,242.12v6.172h-0.164v-5.762l-2.711,5.762h-0.18l-2.693-5.762v5.762h-0.163v-6.172h0.163
			l2.788,5.965l2.796-5.965H185.826z"/>
		<path fill="#FDFEFF" d="M192.601,242.12v6.172h-0.164v-5.762l-2.71,5.762h-0.183l-2.692-5.762v5.762h-0.163v-6.172h0.163
			l2.788,5.965l2.797-5.965H192.601z"/>
	</g>
	<g>
		<path fill="#FDFEFF" d="M200.325,248.133c-0.146,0.098-0.319,0.158-0.509,0.158c-0.483,0-0.889-0.379-0.916-0.863h-0.006
			c-0.261,0.514-0.787,0.863-1.4,0.863h-0.44c-0.871,0-1.58-0.707-1.58-1.584c0-0.775,0.554-1.412,1.269-1.557
			c-0.552-0.246-0.933-0.803-0.933-1.439c0-0.885,0.71-1.592,1.571-1.592h0.199c0.829,0,1.484,0.742,1.484,1.576h-0.17
			c0-0.748-0.58-1.361-1.313-1.412h-0.199c-0.776,0-1.404,0.637-1.404,1.428c0,0.771,0.628,1.412,1.404,1.412h1.513v-0.727h0.17
			v0.727h0.683v0.162h-0.683v2.143c0,0.389,0.354,0.699,0.751,0.699c0.147,0,0.293-0.051,0.406-0.121L200.325,248.133z
			 M198.894,246.856v-1.57h-1.84c-0.777,0-1.416,0.643-1.416,1.422c0,0.777,0.639,1.42,1.416,1.42h0.44
			C198.219,248.127,198.815,247.575,198.894,246.856z"/>
	</g>
	<g>
		<path fill="#FDFEFF" d="M206.154,246.227h-3.417l-0.916,2.064h-0.182l2.712-6.172h0.181l2.717,6.172h-0.18L206.154,246.227z
			 M206.084,246.055l-1.639-3.729l-1.64,3.729H206.084z"/>
		<path fill="#FDFEFF" d="M212.48,246.708c0,0.877-0.845,1.584-1.899,1.584h-0.571c-1.042,0-1.897-0.707-1.897-1.584
			c0-0.016,0-0.027,0-0.035h0.199c0,0.008,0,0.02,0,0.035c0,0.777,0.768,1.42,1.699,1.42h0.571c0.941,0,1.7-0.643,1.7-1.42
			c0-0.779-0.759-1.422-1.7-1.422c-0.949,0.025-1.311-0.186-1.311-0.186c-0.596-0.359-0.958-0.803-0.958-1.389
			c0-0.885,0.854-1.592,1.899-1.592h0.171c1.011,0,1.849,0.668,1.9,1.5h-0.207c-0.053-0.74-0.786-1.336-1.693-1.336h-0.171
			c-0.932,0-1.702,0.637-1.702,1.428c0,0.771,0.77,1.412,1.702,1.412c-0.078,0,0,0,0,0s0.492-0.008,0.742,0.027
			C211.826,245.276,212.48,245.932,212.48,246.708z"/>
		<path fill="#FDFEFF" d="M213.344,245.208c0-1.707,1.381-3.088,3.08-3.088c1.7,0,3.085,1.381,3.085,3.088
			c0,1.699-1.385,3.084-3.085,3.084C214.725,248.292,213.344,246.907,213.344,245.208z M213.508,245.208
			c0,1.607,1.304,2.92,2.916,2.92c1.606,0,2.916-1.312,2.916-2.92c0-1.613-1.31-2.924-2.916-2.924
			C214.812,242.284,213.508,243.594,213.508,245.208z"/>
		<path fill="#FDFEFF" d="M226.479,245.764c-0.258,1.438-1.519,2.527-3.029,2.527c-1.699,0-3.08-1.385-3.08-3.084
			c0-1.707,1.381-3.088,3.08-3.088c1.511,0,2.771,1.092,3.029,2.527h-0.162c-0.261-1.346-1.447-2.363-2.867-2.363
			c-1.615,0-2.917,1.311-2.917,2.924c0,1.607,1.302,2.92,2.917,2.92c1.42,0,2.606-1.018,2.867-2.363H226.479z"/>
		<path fill="#FDFEFF" d="M228.654,242.284v5.844h1.145v0.164h-2.455v-0.164h1.145v-5.844h-1.145v-0.164h2.455v0.164H228.654z"/>
		<path fill="#FDFEFF" d="M235.184,246.227h-3.422l-0.914,2.064h-0.179l2.706-6.172h0.182l2.72,6.172h-0.18L235.184,246.227z
			 M235.107,246.055l-1.638-3.729l-1.638,3.729H235.107z"/>
		<path fill="#FDFEFF" d="M242.093,245.208c0,1.699-1.379,3.084-3.079,3.084h-1.865h-0.011v-6.172h0.011h1.865
			C240.714,242.12,242.093,243.5,242.093,245.208z M241.938,245.208c0-1.613-1.311-2.924-2.924-2.924h-1.71v5.844h1.71
			C240.627,248.127,241.938,246.815,241.938,245.208z"/>
		<path fill="#FDFEFF" d="M242.956,245.208c0-1.707,1.385-3.088,3.082-3.088c1.698,0,3.079,1.381,3.079,3.088
			c0,1.699-1.381,3.084-3.079,3.084C244.341,248.292,242.956,246.907,242.956,245.208z M243.12,245.208
			c0,1.607,1.301,2.92,2.918,2.92c1.605,0,2.915-1.312,2.915-2.92c0-1.613-1.31-2.924-2.915-2.924
			C244.421,242.284,243.12,243.594,243.12,245.208z"/>
		<path fill="#FDFEFF" d="M254.349,246.708c0,0.877-0.845,1.584-1.898,1.584h-0.568c-1.043,0-1.899-0.707-1.899-1.584
			c0-0.016,0-0.027,0-0.035h0.199c0,0.008,0,0.02,0,0.035c0,0.777,0.769,1.42,1.7,1.42h0.568c0.94,0,1.702-0.643,1.702-1.42
			c0-0.779-0.762-1.422-1.702-1.422c-0.949,0.025-1.31-0.186-1.31-0.186c-0.596-0.359-0.959-0.803-0.959-1.389
			c0-0.885,0.853-1.592,1.898-1.592h0.171c1.009,0,1.846,0.668,1.901,1.5h-0.211c-0.051-0.74-0.783-1.336-1.69-1.336h-0.171
			c-0.932,0-1.701,0.637-1.701,1.428c0,0.771,0.77,1.412,1.701,1.412c-0.077,0,0,0,0,0s0.492-0.008,0.742,0.027
			C253.691,245.276,254.349,245.932,254.349,246.708z"/>
	</g>
</g>
</svg>
