<?xml version="1.0" encoding="utf-8"?>
<!-- Generator: Adobe Illustrator 23.0.1, SVG Export Plug-In . SVG Version: 6.00 Build 0)  -->
<svg version="1.1" id="Capa_1" xmlns="http://www.w3.org/2000/svg" xmlns:xlink="http://www.w3.org/1999/xlink" x="0px" y="0px"
	 viewBox="0 0 430.11 430.11" style="enable-background:new 0 0 430.11 430.11;" xml:space="preserve">
<style type="text/css">
	.st0{fill:#FFFFFF;}
	.st1{font-family:'Angelina';}
	.st2{font-size:12.6672px;}
	.st3{fill:#1D1D1B;}
	.st4{clip-path:url(#SVGID_2_);}
	.st5{clip-path:url(#SVGID_4_);}
	.st6{fill:#009EE2;}
	.st7{fill:#4F4F4F;}
	.st8{fill:#FFFFFF;stroke:#FFFFFF;stroke-width:0.1957;stroke-linecap:round;stroke-linejoin:round;stroke-miterlimit:10;}
	.st9{fill:#202020;}
</style>
<text transform="matrix(1 0 0 1 196.8701 243.2725)" class="st0 st1 st2">y</text>
<g>
	<path class="st0" d="M215.13,240.52c0.82-1.19,1.64-1.79,2.46-1.79c0.54,0,0.8,0.38,0.8,1.15c0,0.63-0.28,1.33-0.85,2.1
		c-0.58,0.8-1.14,1.19-1.68,1.19c-0.41,0-0.61-0.21-0.61-0.62c0-0.13,0.04-0.29,0.13-0.49h0.25c0.01,0.08,0,0.17-0.01,0.26
		c-0.02,0.1-0.02,0.19-0.02,0.25c0,0.09,0.05,0.14,0.16,0.14c0.51,0,1-0.41,1.48-1.22c0.42-0.71,0.63-1.29,0.63-1.75
		c0-0.41-0.11-0.61-0.33-0.61c-0.43,0-0.94,0.36-1.53,1.07c-0.53,0.65-0.84,1.18-0.92,1.6c-0.15,0.72-0.23,1.57-0.24,2.53
		c-0.02,1.35,0.18,2.02,0.59,2.02c0,0,0.03-0.01,0.06-0.02c0.04-0.01,0.14-0.05,0.3-0.11v0.23c0,0.08-0.06,0.14-0.19,0.2
		c-0.11,0.05-0.18,0.07-0.23,0.07c-0.34-0.03-0.6-0.28-0.78-0.74c-0.14-0.35-0.22-0.77-0.24-1.25c-0.01-0.23-0.01-0.46-0.01-0.69
		c0-0.86,0.1-2.36,0.3-4.5c0.06-0.59,0.23-0.88,0.51-0.88c0.18,0,0.27,0.1,0.27,0.29c0,0.02,0,0.05-0.01,0.07L215.13,240.52z"/>
	<path class="st0" d="M220.48,243.68c-0.38,0-0.67-0.3-0.88-0.89c-0.14-0.41-0.21-0.81-0.21-1.2c0-0.36,0.04-0.8,0.13-1.32
		c0.13-0.76,0.31-1.13,0.54-1.13c0.18,0,0.27,0.1,0.27,0.31c0,0.1-0.06,0.28-0.17,0.54c-0.12,0.29-0.2,0.78-0.25,1.48
		c0.01,0.33,0.01,0.53,0,0.59c0.05,0.25,0.1,0.5,0.16,0.75c0.1,0.33,0.26,0.5,0.46,0.5c0.05,0,0.08-0.01,0.1-0.02
		c0.06-0.08,0.13-0.14,0.24-0.19c0.08,0.07,0.13,0.14,0.13,0.21c0,0.11-0.07,0.2-0.21,0.28
		C220.68,243.64,220.58,243.68,220.48,243.68z M220.12,237.72c-0.09,0-0.16-0.04-0.23-0.11s-0.09-0.15-0.09-0.22
		c0-0.08,0.03-0.16,0.09-0.24c0.06-0.08,0.14-0.12,0.24-0.12c0.21,0,0.31,0.11,0.31,0.34C220.45,237.6,220.34,237.72,220.12,237.72z
		"/>
	<path class="st0" d="M222.98,243.55c-0.35,0.03-0.63-0.09-0.84-0.36c-0.19-0.24-0.29-0.54-0.29-0.91c0-0.62,0.15-1.29,0.44-2.01
		c0.29-0.72,0.57-1.08,0.83-1.08c0.23,0,0.35,0.1,0.35,0.29c0,0.06-0.07,0.17-0.2,0.35c-0.63,0.84-0.95,1.62-0.95,2.35
		c0,0.63,0.16,0.94,0.47,0.94c0.47,0,0.94-0.43,1.39-1.3c0.4-0.75,0.6-1.35,0.6-1.8c0-0.66-0.16-0.98-0.49-0.98
		c-0.25,0-0.51,0.13-0.8,0.4l-0.09-0.05c-0.06-0.03-0.08-0.08-0.08-0.14c0-0.14,0.14-0.28,0.43-0.42c0.24-0.12,0.42-0.17,0.54-0.17
		c0.65,0,0.99,0.5,1.01,1.51c0.01,0.49-0.2,1.13-0.65,1.92C224.15,243.01,223.58,243.5,222.98,243.55z"/>
	<path class="st0" d="M224.21,247.28c-0.58,0-1.07-0.2-1.48-0.59c-0.41-0.39-0.62-0.88-0.62-1.47c0-0.19,0.07-0.29,0.21-0.29
		c0.14,0,0.21,0.08,0.19,0.23c-0.03,0.41,0.11,0.79,0.42,1.13s0.66,0.52,1.06,0.52c0.86,0,1.5-0.67,1.91-2.01
		c0.26-0.85,0.39-1.71,0.39-2.59c0-1.11-0.1-2.04-0.29-2.78c-0.02-0.08-0.01-0.18,0.03-0.3c0.05-0.15,0.15-0.22,0.3-0.22
		c0.31,0,0.46,0.93,0.46,2.79c0,0.64-0.01,1.1-0.04,1.37c-0.1,1.03-0.38,1.96-0.83,2.79C225.42,246.81,224.85,247.28,224.21,247.28z
		 M226.44,238.21c-0.23,0-0.34-0.1-0.34-0.29c0-0.16,0.09-0.25,0.26-0.25c0.24,0,0.36,0.07,0.36,0.22
		C226.72,238.11,226.63,238.21,226.44,238.21z"/>
	<path class="st0" d="M229.04,243.68c-0.38,0-0.67-0.3-0.88-0.89c-0.14-0.41-0.21-0.81-0.21-1.2c0-0.36,0.04-0.8,0.13-1.32
		c0.13-0.76,0.31-1.13,0.54-1.13c0.18,0,0.27,0.1,0.27,0.31c0,0.1-0.06,0.28-0.17,0.54c-0.12,0.29-0.2,0.78-0.25,1.48
		c0.01,0.33,0.01,0.53,0,0.59c0.05,0.25,0.1,0.5,0.16,0.75c0.1,0.33,0.26,0.5,0.46,0.5c0.05,0,0.08-0.01,0.1-0.02
		c0.06-0.08,0.13-0.14,0.24-0.19c0.08,0.07,0.13,0.14,0.13,0.21c0,0.11-0.07,0.2-0.21,0.28
		C229.23,243.64,229.13,243.68,229.04,243.68z M228.68,237.72c-0.09,0-0.16-0.04-0.23-0.11s-0.09-0.15-0.09-0.22
		c0-0.08,0.03-0.16,0.09-0.24c0.06-0.08,0.14-0.12,0.24-0.12c0.21,0,0.31,0.11,0.31,0.34C229,237.6,228.89,237.72,228.68,237.72z"/>
	<path class="st0" d="M231.44,239.54c0.18-0.04,0.4-0.07,0.65-0.07c0.12,0,0.25,0.04,0.42,0.13c0.21,0.11,0.31,0.25,0.31,0.4
		c0,0.03-0.01,0.05-0.02,0.08l-0.01,0.02c0-0.01-0.01,0.01-0.02,0.05c-0.04,0.02-0.06,0.03-0.05,0.03h-0.01
		c-0.02,0.01-0.05,0.02-0.08,0.02c-0.02,0-0.06-0.02-0.1-0.07c-0.08-0.19-0.21-0.29-0.4-0.29c-0.06,0-0.14,0.01-0.22,0.04
		c-0.17,0.04-0.34,0.12-0.52,0.23c0,0.02,0,0.05-0.01,0.1c-0.05,0.41-0.07,0.9-0.04,1.47c0.04,1.07,0.28,1.6,0.72,1.6
		c0.12,0,0.24-0.06,0.34-0.19c0.1-0.13,0.18-0.19,0.22-0.19c0.13,0,0.19,0.06,0.19,0.18c0,0.14-0.12,0.28-0.36,0.41
		c-0.2,0.1-0.34,0.16-0.44,0.16c-0.37,0-0.66-0.2-0.87-0.6c-0.15-0.29-0.25-0.6-0.28-0.95c-0.06-0.61-0.07-1.22-0.01-1.82
		c-0.23,0.08-0.5,0.24-0.81,0.47c-0.04,0.03-0.08,0.05-0.11,0.05c-0.11,0-0.16-0.11-0.16-0.34c0-0.14,0.33-0.37,1-0.68
		c0.04-0.01,0.08-0.02,0.12-0.03c0.03-0.27,0.07-0.68,0.13-1.22c0.06-0.54,0.19-0.81,0.4-0.81c0.17,0,0.26,0.11,0.28,0.34
		L231.44,239.54z"/>
	<path class="st0" d="M234.88,243.55c-0.35,0.03-0.63-0.09-0.84-0.36c-0.19-0.24-0.29-0.54-0.29-0.91c0-0.62,0.15-1.29,0.44-2.01
		c0.29-0.72,0.57-1.08,0.83-1.08c0.23,0,0.35,0.1,0.35,0.29c0,0.06-0.07,0.17-0.2,0.35c-0.63,0.84-0.95,1.62-0.95,2.35
		c0,0.63,0.16,0.94,0.47,0.94c0.47,0,0.94-0.43,1.39-1.3c0.4-0.75,0.6-1.35,0.6-1.8c0-0.66-0.16-0.98-0.49-0.98
		c-0.25,0-0.51,0.13-0.8,0.4l-0.09-0.05c-0.06-0.03-0.08-0.08-0.08-0.14c0-0.14,0.14-0.28,0.43-0.42c0.24-0.12,0.42-0.17,0.54-0.17
		c0.65,0,0.99,0.5,1.01,1.51c0.01,0.49-0.2,1.13-0.65,1.92C236.05,243.01,235.49,243.5,234.88,243.55z"/>
</g>
<g>
	<path class="st0" d="M206.35,239.12c-0.02,0-0.1-0.04-0.24-0.11s-0.24-0.11-0.3-0.11c-0.27-0.02-0.66,0.17-1.15,0.6
		c-0.51,0.43-0.76,0.81-0.76,1.12c0,0.17,0.29,0.25,0.88,0.25c1.13,0,1.7,0.32,1.7,0.95c0,0.45-0.25,0.85-0.75,1.2
		c-0.46,0.32-0.91,0.48-1.37,0.48c-0.2,0-0.39-0.06-0.56-0.19c-0.2-0.14-0.3-0.32-0.3-0.55c0-0.09,0.04-0.2,0.12-0.33
		c0.09-0.14,0.19-0.22,0.29-0.22c0.03,0,0.06,0.01,0.08,0.02c-0.01,0.14-0.04,0.25-0.07,0.33c-0.02,0.04-0.03,0.09-0.03,0.14
		c0,0.18,0.11,0.27,0.32,0.27c0.33,0,0.71-0.11,1.14-0.33c0.48-0.24,0.72-0.49,0.72-0.76c0-0.17-0.08-0.3-0.25-0.41
		c-0.14-0.09-0.29-0.14-0.45-0.14l-1.16-0.04c-0.19-0.01-0.38-0.05-0.56-0.12c-0.25-0.1-0.37-0.23-0.37-0.39
		c0-0.4,0.31-0.9,0.94-1.51c0.63-0.61,1.15-0.91,1.58-0.91c0.12,0,0.27,0.05,0.44,0.14c0.21,0.11,0.31,0.24,0.31,0.37
		C206.56,239.03,206.49,239.12,206.35,239.12z"/>
	<path class="st0" d="M209.99,240.78c-0.43,0.9-0.71,1.45-0.84,1.65c-0.43,0.66-0.88,1-1.36,1c-0.38,0-0.57-0.38-0.57-1.13
		c0-0.22,0.11-0.8,0.34-1.75c0.27-1.09,0.49-1.63,0.67-1.64c0.09,0,0.17,0.03,0.26,0.08c0.08,0.05,0.12,0.12,0.12,0.18
		c0,0.03-0.02,0.08-0.04,0.15l-0.11,0.28c-0.51,1.38-0.77,2.34-0.77,2.9c0,0.34,0.06,0.51,0.17,0.51c0.14,0,0.37-0.19,0.68-0.56
		c0.33-0.41,0.66-0.92,0.98-1.56c0.36-0.71,0.54-1.25,0.55-1.62c0-0.13,0.04-0.25,0.12-0.36c0.07-0.11,0.16-0.16,0.27-0.16
		c0.2,0,0.3,0.1,0.3,0.3c0,0.03-0.04,0.23-0.11,0.59c-0.07,0.36-0.11,0.71-0.11,1.03c0,1.26,0.19,1.89,0.58,1.89
		c0.09,0,0.19-0.05,0.3-0.16c0.05-0.05,0.12-0.1,0.21-0.16c0.09,0.08,0.13,0.14,0.13,0.19c0,0.14-0.1,0.27-0.3,0.39
		c-0.16,0.09-0.29,0.14-0.39,0.14c-0.63,0-0.99-0.69-1.1-2.06L209.99,240.78z"/>
</g>
<g>
	<path d="M214.13,183.84c-1.67-0.69-1.59-0.91-3.44-1.02c-3.23-0.2-5.18,1.02-6.34,2.27c-1.6,1.63-2.37,3.78-3.96,5.4
		c-1.84,1.95-4.08,2.16-6.45,3c2.28,0.05,3.15,0.14,5.16,1.35c3.59,2.15,1.76,2.63,5.05-0.71c2.43-2.46,2.17-4.37,3.62-6.57
		C209.09,185.56,211.66,183.83,214.13,183.84"/>
</g>
<g>
	<path class="st0" d="M200.66,191.53c-0.09-0.13-0.41-0.35-0.25-0.48c0.1-0.1,0.32-0.34,0.42-0.45c0.14,0.1,0.58,0.53,0.46,0.66
		c-0.1,0.11-0.22,0.24-0.48,0.44L200.66,191.53z"/>
</g>
<g>
	<path class="st0" d="M199.4,192.34c-0.05-0.13-0.29-0.38-0.12-0.47c0.11-0.06,0.35-0.24,0.46-0.31c0.11,0.11,0.4,0.57,0.27,0.67
		c-0.1,0.08-0.23,0.16-0.5,0.29L199.4,192.34z"/>
</g>
<g>
	<path class="st0" d="M201.78,190.29c-0.12-0.11-0.5-0.25-0.37-0.42c0.09-0.12,0.27-0.4,0.36-0.53c0.17,0.06,0.72,0.39,0.62,0.55
		c-0.08,0.13-0.18,0.28-0.41,0.53L201.78,190.29z"/>
</g>
<g>
	<path class="st0" d="M202.7,188.87c-0.1-0.09-0.43-0.18-0.32-0.32c0.07-0.1,0.21-0.35,0.29-0.45c0.15,0.04,0.62,0.28,0.54,0.42
		c-0.06,0.11-0.14,0.24-0.33,0.46L202.7,188.87z"/>
</g>
<g>
	<path class="st0" d="M206.28,184.37c-0.04-0.1-0.26-0.29-0.11-0.36c0.11-0.05,0.33-0.18,0.44-0.23c0.1,0.09,0.36,0.44,0.24,0.51
		c-0.1,0.06-0.22,0.13-0.48,0.22L206.28,184.37z"/>
</g>
<g>
	<path class="st0" d="M204.3,186.33c-0.09-0.09-0.38-0.21-0.26-0.33c0.08-0.09,0.25-0.3,0.33-0.39c0.13,0.05,0.55,0.32,0.46,0.44
		c-0.07,0.09-0.17,0.21-0.37,0.39L204.3,186.33z"/>
</g>
<g>
	<path class="st0" d="M205.17,185.33c-0.08-0.09-0.36-0.23-0.23-0.34c0.09-0.08,0.28-0.28,0.37-0.37c0.13,0.06,0.52,0.35,0.41,0.46
		c-0.08,0.09-0.19,0.2-0.41,0.37L205.17,185.33z"/>
</g>
<g>
	<path class="st0" d="M207.38,183.79c-0.02-0.1-0.2-0.32-0.04-0.36c0.11-0.03,0.35-0.12,0.46-0.15c0.08,0.1,0.27,0.47,0.13,0.52
		c-0.11,0.04-0.24,0.08-0.5,0.13L207.38,183.79z"/>
</g>
<g>
	<path class="st0" d="M208.55,183.44c0-0.11-0.13-0.34,0.03-0.36c0.11-0.01,0.37-0.05,0.49-0.06c0.06,0.11,0.18,0.51,0.04,0.53
		c-0.11,0.02-0.25,0.04-0.52,0.04L208.55,183.44z"/>
</g>
<g>
	<path class="st0" d="M211.37,183.31c-0.02-0.09,0.03-0.3-0.11-0.3c-0.1,0-0.33-0.03-0.43-0.03c-0.02,0.09-0.03,0.44,0.1,0.45
		c0.1,0.01,0.22,0.02,0.45,0.01L211.37,183.31z"/>
</g>
<g>
	<path class="st0" d="M212.28,183.41c0-0.07,0.08-0.23-0.04-0.25c-0.08-0.02-0.26-0.07-0.34-0.09c-0.03,0.07-0.1,0.34,0,0.37
		c0.08,0.02,0.18,0.05,0.37,0.07L212.28,183.41z"/>
</g>
<g>
	<path class="st0" d="M213.07,183.63c0.01-0.05,0.09-0.16,0-0.19c-0.06-0.02-0.19-0.08-0.26-0.1c-0.04,0.05-0.12,0.24-0.05,0.28
		c0.06,0.03,0.13,0.05,0.28,0.09L213.07,183.63z"/>
</g>
<g>
	<path class="st0" d="M210.36,183.32c-0.04-0.1,0-0.35-0.16-0.34c-0.11,0.01-0.38,0-0.5,0c-0.02,0.11,0.02,0.52,0.17,0.52
		c0.12,0,0.26,0,0.52-0.03L210.36,183.32z"/>
</g>
<g>
	<path class="st0" d="M203.53,187.57c-0.09-0.09-0.39-0.18-0.28-0.32c0.08-0.09,0.23-0.32,0.3-0.41c0.14,0.05,0.56,0.29,0.48,0.41
		c-0.07,0.1-0.15,0.22-0.35,0.41L203.53,187.57z"/>
</g>
<g>
	<path class="st0" d="M198.13,192.98c-0.04-0.11-0.25-0.32-0.09-0.39c0.11-0.05,0.34-0.19,0.46-0.24c0.09,0.09,0.35,0.48,0.21,0.55
		c-0.1,0.06-0.23,0.13-0.5,0.22L198.13,192.98z"/>
</g>
<g>
	<path class="st0" d="M196.98,193.35c-0.02-0.09-0.17-0.28-0.03-0.32c0.1-0.02,0.31-0.1,0.41-0.13c0.07,0.09,0.24,0.42,0.12,0.47
		c-0.1,0.03-0.21,0.07-0.45,0.11L196.98,193.35z"/>
</g>
<g>
	<path class="st3" d="M196.39,193.45c-0.04-0.06-0.04-0.24-0.16-0.2c-0.08,0.02-0.26,0.07-0.34,0.09c0,0.08,0.08,0.34,0.18,0.32
		c0.08-0.02,0.18-0.05,0.35-0.12L196.39,193.45z"/>
</g>
<g>
	<g>
		<path d="M217.56,183.8c1.68-0.69,1.59-0.9,3.44-1.02c3.23-0.2,5.18,1.02,6.34,2.27c1.59,1.63,2.37,3.78,3.96,5.4
			c1.84,1.95,4.09,2.17,6.45,3c-2.28,0.05-3.15,0.13-5.16,1.35c-3.58,2.15-1.76,2.63-5.05-0.71c-2.43-2.46-2.17-4.37-3.62-6.57
			C222.6,185.52,220.04,183.79,217.56,183.8"/>
	</g>
	<g>
		<path class="st0" d="M231.04,191.53c0.09-0.13,0.4-0.35,0.25-0.48c-0.11-0.1-0.32-0.34-0.43-0.45c-0.14,0.1-0.58,0.53-0.46,0.66
			c0.1,0.11,0.22,0.24,0.48,0.44L231.04,191.53z"/>
	</g>
	<g>
		<path class="st0" d="M232.3,192.34c0.05-0.13,0.28-0.38,0.12-0.47c-0.11-0.06-0.35-0.24-0.46-0.31c-0.11,0.11-0.4,0.57-0.27,0.67
			c0.1,0.08,0.23,0.16,0.5,0.29L232.3,192.34z"/>
	</g>
	<g>
		<path class="st0" d="M229.92,190.29c0.12-0.11,0.5-0.25,0.37-0.42c-0.09-0.12-0.26-0.4-0.36-0.53c-0.17,0.06-0.72,0.39-0.62,0.55
			c0.08,0.13,0.18,0.28,0.41,0.53L229.92,190.29z"/>
	</g>
	<g>
		<path class="st0" d="M229,188.87c0.1-0.09,0.43-0.18,0.32-0.32c-0.07-0.1-0.21-0.35-0.29-0.45c-0.14,0.04-0.62,0.28-0.54,0.42
			c0.06,0.11,0.14,0.24,0.33,0.46L229,188.87z"/>
	</g>
	<g>
		<path class="st0" d="M225.42,184.37c0.04-0.1,0.26-0.29,0.11-0.36c-0.11-0.05-0.33-0.18-0.44-0.23c-0.1,0.09-0.36,0.44-0.24,0.51
			c0.1,0.06,0.23,0.13,0.48,0.22L225.42,184.37z"/>
	</g>
	<g>
		<path class="st0" d="M227.4,186.33c0.09-0.09,0.38-0.21,0.26-0.33c-0.08-0.09-0.25-0.3-0.33-0.39c-0.13,0.05-0.55,0.32-0.45,0.44
			c0.07,0.09,0.17,0.21,0.37,0.39L227.4,186.33z"/>
	</g>
	<g>
		<path class="st0" d="M226.46,185.25c0.06-0.1,0.33-0.27,0.19-0.37c-0.1-0.07-0.3-0.25-0.41-0.33c-0.12,0.07-0.47,0.4-0.36,0.5
			c0.09,0.08,0.21,0.17,0.45,0.32L226.46,185.25z"/>
	</g>
	<g>
		<path class="st0" d="M224.2,183.73c0.02-0.1,0.19-0.32,0.03-0.36c-0.11-0.03-0.35-0.12-0.46-0.15c-0.08,0.1-0.26,0.47-0.13,0.52
			c0.1,0.04,0.24,0.08,0.5,0.13L224.2,183.73z"/>
	</g>
	<g>
		<path class="st0" d="M223.08,183.44c0-0.11,0.14-0.34-0.03-0.36c-0.11-0.01-0.37-0.05-0.49-0.06c-0.06,0.11-0.18,0.51-0.04,0.53
			c0.11,0.02,0.25,0.04,0.52,0.04L223.08,183.44z"/>
	</g>
	<g>
		<path class="st0" d="M220.33,183.31c0.03-0.09-0.03-0.3,0.12-0.3c0.1,0,0.32-0.03,0.43-0.03c0.02,0.09,0.03,0.44-0.1,0.45
			c-0.1,0.01-0.22,0.02-0.45,0.01L220.33,183.31z"/>
	</g>
	<g>
		<path class="st0" d="M219.42,183.41c0.01-0.07-0.07-0.23,0.04-0.25c0.08-0.02,0.26-0.07,0.35-0.09c0.04,0.07,0.09,0.34,0,0.37
			c-0.08,0.02-0.18,0.05-0.37,0.07L219.42,183.41z"/>
	</g>
	<g>
		<path class="st0" d="M218.63,183.63c0-0.05-0.09-0.16,0-0.19c0.06-0.02,0.2-0.08,0.26-0.1c0.03,0.05,0.12,0.24,0.05,0.28
			c-0.06,0.03-0.13,0.05-0.28,0.09L218.63,183.63z"/>
	</g>
	<g>
		<path class="st0" d="M221.34,183.32c0.04-0.1,0-0.35,0.16-0.34c0.12,0.01,0.38,0,0.5,0c0.02,0.11-0.02,0.52-0.17,0.52
			c-0.12,0-0.26,0-0.52-0.03L221.34,183.32z"/>
	</g>
	<g>
		<path class="st0" d="M228.17,187.57c0.09-0.09,0.4-0.18,0.28-0.32c-0.08-0.09-0.23-0.32-0.31-0.41c-0.13,0.05-0.56,0.29-0.48,0.41
			c0.07,0.1,0.15,0.22,0.35,0.41L228.17,187.57z"/>
	</g>
	<g>
		<path class="st0" d="M233.57,192.98c0.04-0.11,0.25-0.32,0.09-0.39c-0.11-0.05-0.34-0.19-0.46-0.24
			c-0.09,0.09-0.35,0.48-0.21,0.55c0.1,0.06,0.23,0.13,0.5,0.22L233.57,192.98z"/>
	</g>
	<g>
		<path class="st0" d="M234.72,193.35c0.02-0.09,0.18-0.28,0.03-0.32c-0.1-0.02-0.31-0.1-0.42-0.13c-0.07,0.09-0.24,0.42-0.12,0.47
			c0.1,0.03,0.21,0.07,0.45,0.11L234.72,193.35z"/>
	</g>
	<g>
		<path class="st0" d="M235.31,193.45c0.04-0.06,0.04-0.24,0.16-0.2c0.08,0.02,0.26,0.07,0.34,0.09c0,0.08-0.08,0.34-0.18,0.32
			c-0.08-0.02-0.18-0.05-0.35-0.12L235.31,193.45z"/>
	</g>
</g>
<g>
	<g>
		<path class="st0" d="M205.69,190.69c-0.12-0.06-0.46-0.09-0.38-0.25c0.05-0.11,0.14-0.38,0.19-0.5c0.15,0.01,0.66,0.15,0.61,0.3
			c-0.04,0.12-0.09,0.26-0.23,0.52L205.69,190.69z"/>
	</g>
	<g>
		<path class="st0" d="M203.72,193.63c-0.1-0.12-0.45-0.29-0.31-0.45c0.09-0.11,0.27-0.38,0.37-0.5c0.15,0.08,0.64,0.45,0.54,0.6
			c-0.08,0.12-0.18,0.26-0.42,0.49L203.72,193.63z"/>
	</g>
	<g>
		<path class="st0" d="M204.83,192.21c-0.12-0.11-0.51-0.23-0.39-0.4c0.09-0.12,0.25-0.42,0.33-0.55c0.17,0.05,0.73,0.35,0.64,0.52
			c-0.07,0.13-0.16,0.29-0.39,0.55L204.83,192.21z"/>
	</g>
	<g>
		<path class="st0" d="M206.28,189.3c-0.1-0.07-0.4-0.11-0.33-0.26c0.06-0.1,0.15-0.34,0.21-0.44c0.14,0.02,0.59,0.18,0.53,0.32
			c-0.04,0.1-0.1,0.23-0.25,0.45L206.28,189.3z"/>
	</g>
	<g>
		<path class="st0" d="M209.44,185.16c-0.04-0.07-0.22-0.17-0.12-0.24c0.07-0.05,0.21-0.17,0.28-0.22c0.08,0.05,0.32,0.26,0.24,0.33
			c-0.06,0.05-0.14,0.12-0.31,0.22L209.44,185.16z"/>
	</g>
	<g>
		<path class="st0" d="M207.39,187.21c-0.08-0.07-0.34-0.15-0.25-0.26c0.06-0.08,0.18-0.27,0.25-0.36c0.12,0.04,0.48,0.23,0.42,0.34
			c-0.05,0.09-0.13,0.19-0.29,0.36L207.39,187.21z"/>
	</g>
	<g>
		<path class="st0" d="M210.3,184.62c-0.04-0.07-0.2-0.18-0.1-0.24c0.07-0.04,0.22-0.15,0.29-0.2c0.07,0.05,0.28,0.27,0.19,0.33
			c-0.07,0.05-0.15,0.1-0.32,0.19L210.3,184.62z"/>
	</g>
	<g>
		<path class="st0" d="M206.84,188.2c-0.09-0.06-0.35-0.11-0.27-0.24c0.06-0.09,0.16-0.29,0.21-0.38c0.12,0.02,0.51,0.18,0.45,0.3
			c-0.05,0.09-0.11,0.2-0.25,0.39L206.84,188.2z"/>
	</g>
	<g>
		<path class="st0" d="M212.28,183.9c-0.02-0.04-0.02-0.16-0.1-0.13c-0.05,0.02-0.18,0.05-0.23,0.06c0,0.05,0.04,0.23,0.11,0.22
			c0.06-0.01,0.12-0.03,0.24-0.08L212.28,183.9z"/>
	</g>
	<g>
		<path class="st0" d="M211.5,184.07c-0.04-0.05-0.06-0.19-0.16-0.15c-0.06,0.03-0.21,0.09-0.27,0.12c0.01,0.06,0.11,0.28,0.19,0.24
			c0.06-0.03,0.14-0.06,0.28-0.14L211.5,184.07z"/>
	</g>
	<g>
		<path class="st0" d="M208.65,185.78c-0.05-0.07-0.26-0.17-0.16-0.25c0.07-0.06,0.22-0.21,0.29-0.27c0.09,0.05,0.37,0.26,0.29,0.34
			c-0.06,0.07-0.15,0.14-0.32,0.27L208.65,185.78z"/>
	</g>
	<g>
		<path class="st0" d="M208.02,186.43c-0.06-0.07-0.29-0.15-0.19-0.25c0.07-0.07,0.21-0.24,0.28-0.31c0.1,0.04,0.41,0.24,0.33,0.33
			c-0.06,0.08-0.14,0.16-0.32,0.31L208.02,186.43z"/>
	</g>
	<g>
		<path class="st0" d="M202.55,194.96c-0.08-0.12-0.37-0.3-0.24-0.43c0.09-0.09,0.27-0.32,0.36-0.41c0.13,0.08,0.53,0.45,0.43,0.58
			c-0.08,0.1-0.19,0.22-0.41,0.4L202.55,194.96z"/>
	</g>
	<g>
		<path class="st0" d="M201.49,196.1c-0.07-0.09-0.34-0.22-0.21-0.34c0.09-0.08,0.27-0.28,0.36-0.37c0.12,0.06,0.48,0.34,0.38,0.46
			c-0.08,0.09-0.18,0.2-0.4,0.37L201.49,196.1z"/>
	</g>
</g>
<g>
	<g>
		<path class="st0" d="M226.02,190.63c0.12-0.06,0.45-0.09,0.38-0.25c-0.05-0.11-0.14-0.38-0.19-0.5c-0.15,0.01-0.66,0.15-0.61,0.3
			c0.04,0.12,0.09,0.26,0.23,0.52L226.02,190.63z"/>
	</g>
	<g>
		<path class="st0" d="M227.99,193.57c0.1-0.12,0.44-0.29,0.31-0.45c-0.09-0.11-0.27-0.38-0.37-0.5c-0.16,0.08-0.64,0.45-0.54,0.6
			c0.08,0.12,0.19,0.26,0.42,0.49L227.99,193.57z"/>
	</g>
	<g>
		<path class="st0" d="M226.87,192.15c0.12-0.11,0.51-0.22,0.39-0.4c-0.08-0.12-0.25-0.42-0.33-0.55c-0.17,0.05-0.73,0.35-0.64,0.52
			c0.07,0.13,0.16,0.29,0.38,0.55L226.87,192.15z"/>
	</g>
	<g>
		<path class="st0" d="M225.42,189.24c0.1-0.07,0.4-0.11,0.33-0.26c-0.05-0.1-0.15-0.34-0.21-0.44c-0.13,0.02-0.58,0.18-0.53,0.32
			c0.04,0.1,0.1,0.23,0.25,0.45L225.42,189.24z"/>
	</g>
	<g>
		<path class="st0" d="M222.26,185.1c0.04-0.07,0.22-0.17,0.12-0.24c-0.07-0.05-0.21-0.17-0.29-0.22c-0.08,0.05-0.32,0.26-0.24,0.33
			c0.06,0.05,0.14,0.12,0.32,0.22L222.26,185.1z"/>
	</g>
	<g>
		<path class="st0" d="M224.31,187.15c0.08-0.07,0.33-0.15,0.25-0.26c-0.06-0.08-0.18-0.27-0.25-0.36
			c-0.12,0.04-0.48,0.23-0.42,0.34c0.06,0.08,0.13,0.19,0.29,0.36L224.31,187.15z"/>
	</g>
	<g>
		<path class="st0" d="M221.4,184.56c0.04-0.07,0.2-0.18,0.1-0.24c-0.07-0.04-0.22-0.15-0.29-0.2c-0.07,0.05-0.28,0.27-0.19,0.33
			c0.07,0.05,0.15,0.1,0.32,0.19L221.4,184.56z"/>
	</g>
	<g>
		<path class="st0" d="M224.87,188.14c0.09-0.06,0.35-0.11,0.27-0.24c-0.05-0.09-0.16-0.29-0.21-0.38c-0.12,0.02-0.51,0.18-0.45,0.3
			c0.05,0.09,0.11,0.2,0.25,0.39L224.87,188.14z"/>
	</g>
	<g>
		<path class="st0" d="M219.42,183.84c0.02-0.04,0.02-0.16,0.1-0.13c0.05,0.02,0.18,0.05,0.23,0.06c0,0.05-0.05,0.23-0.11,0.22
			c-0.06-0.01-0.12-0.03-0.24-0.08L219.42,183.84z"/>
	</g>
	<g>
		<path class="st0" d="M220.2,184.01c0.04-0.05,0.07-0.19,0.16-0.15c0.06,0.03,0.21,0.09,0.27,0.12c-0.01,0.07-0.11,0.28-0.19,0.24
			c-0.07-0.03-0.14-0.06-0.28-0.14L220.2,184.01z"/>
	</g>
	<g>
		<path class="st0" d="M223.05,185.72c0.05-0.07,0.26-0.17,0.15-0.25c-0.07-0.06-0.21-0.21-0.29-0.27
			c-0.09,0.05-0.37,0.26-0.28,0.34c0.07,0.07,0.15,0.14,0.32,0.27L223.05,185.72z"/>
	</g>
	<g>
		<path class="st0" d="M223.68,186.37c0.06-0.07,0.29-0.15,0.18-0.25c-0.07-0.07-0.21-0.24-0.28-0.31c-0.1,0.04-0.41,0.24-0.33,0.33
			c0.06,0.07,0.14,0.16,0.32,0.31L223.68,186.37z"/>
	</g>
	<g>
		<path class="st0" d="M229.15,194.9c0.08-0.12,0.37-0.3,0.24-0.43c-0.09-0.09-0.27-0.32-0.36-0.41c-0.13,0.08-0.54,0.45-0.43,0.58
			c0.08,0.1,0.18,0.22,0.41,0.41L229.15,194.9z"/>
	</g>
	<g>
		<path class="st0" d="M230.22,196.04c0.07-0.09,0.33-0.22,0.21-0.34c-0.09-0.08-0.27-0.28-0.36-0.37
			c-0.12,0.06-0.48,0.34-0.38,0.46c0.08,0.09,0.18,0.2,0.4,0.37L230.22,196.04z"/>
	</g>
</g>
<g>
	<defs>
		<path id="SVGID_1_" d="M224.73,210.85c-0.7-1.51-1.5-2.66-2.34-3.84c-1.02-1.33-2.01-2.28-3.51-2.99
			c-2.65-1.11-4.35-1.2-6.97,0.08c-1.67,0.82-3.92,2.59-5.16,3.77c-1.22,1.17-2.6,3.45-0.8,3.43c1.3-0.01,2.99-1.41,4.24-1.48
			c1.75-0.1,1.31,3.51,1.13,4.8c-0.4,2.89-1.02,7.21-0.43,8.87c0.62,1.75,1.7,0,2.48-1.48c0.59-1.11,1.27-3.69,1.77-5.02
			c0.84-2.27,0.94-2.24,2.3-0.15c0.87,1.35,1.37,2.86,2.23,4.32c0.67,1.02,2.71,3.98,2.83,1.29c0.04-1.02-0.92-8.5-0.05-8.87
			c0.37-0.16,3.01,5.03,3.7,2.7c0.36-1.21-0.81-4.16-1.3-5.24L224.73,210.85z"/>
	</defs>
	<clipPath id="SVGID_2_">
		<use xlink:href="#SVGID_1_"  style="overflow:visible;"/>
	</clipPath>
	<g class="st4">
		<path class="st0" d="M227.41,215.86c1.14-2.1,0.37-4.72-1.73-5.86c-2.09-1.14-4.72-0.37-5.86,1.73c-1.14,2.09-0.37,4.72,1.72,5.86
			C223.65,218.73,226.27,217.96,227.41,215.86z"/>
		<path class="st0" d="M213.19,212.11c1.23-2.25,0.4-5.07-1.86-6.3c-2.25-1.23-5.07-0.4-6.3,1.86c-1.23,2.25-0.4,5.08,1.86,6.3
			C209.15,215.2,211.97,214.36,213.19,212.11z"/>
		<g>
			<path class="st0" d="M218.87,207.62c0.91-1.66,0.29-3.74-1.37-4.65c-1.66-0.91-3.74-0.29-4.65,1.37
				c-0.9,1.66-0.29,3.74,1.37,4.65C215.88,209.9,217.96,209.28,218.87,207.62z"/>
			<path d="M225.28,211.69c1.09-1.99,0.35-4.48-1.64-5.57c-1.99-1.08-4.48-0.35-5.57,1.64c-1.09,1.99-0.35,4.49,1.64,5.57
				C221.7,214.42,224.2,213.68,225.28,211.69z"/>
			<path d="M216.02,208.59c0.92-1.69,0.29-3.8-1.39-4.72c-1.69-0.92-3.8-0.3-4.72,1.39c-0.92,1.69-0.3,3.8,1.39,4.72
				C212.99,210.89,215.1,210.27,216.02,208.59z"/>
		</g>
		<path class="st0" d="M221.35,212.34c1.29-2.38,0.42-5.35-1.96-6.65c-2.38-1.29-5.35-0.42-6.65,1.96
			c-1.29,2.38-0.42,5.35,1.96,6.65C217.08,215.59,220.06,214.71,221.35,212.34z"/>
		<path d="M213.29,213.91c0.69-1.27,0.22-2.87-1.05-3.56c-1.27-0.69-2.87-0.23-3.56,1.05c-0.69,1.27-0.22,2.87,1.05,3.56
			C211,215.65,212.59,215.18,213.29,213.91z"/>
	</g>
	<g class="st4">
		<path class="st0" d="M209.04,221.36c-0.02-2.23,1.77-4.05,4-4.07c2.23-0.02,4.05,1.77,4.07,4c0.02,2.23-1.77,4.05-4,4.07
			C210.88,225.38,209.06,223.59,209.04,221.36z"/>
		<g>
			<path d="M217.44,205.21c-0.02-2.35,1.87-4.26,4.22-4.28c2.35-0.02,4.26,1.87,4.28,4.21c0.02,2.35-1.87,4.26-4.22,4.28
				C219.38,209.44,217.46,207.55,217.44,205.21z"/>
			<path d="M214.19,216.85c-0.02-2.62,2.09-4.77,4.71-4.79c2.62-0.02,4.77,2.09,4.79,4.71c0.02,2.62-2.09,4.77-4.71,4.79
				C216.36,221.59,214.21,219.48,214.19,216.85z"/>
			<path d="M201.62,212.64c-0.01-1.77,1.41-3.22,3.18-3.24c1.77-0.01,3.22,1.41,3.24,3.18c0.01,1.77-1.41,3.22-3.18,3.24
				C203.08,215.84,201.63,214.41,201.62,212.64z"/>
		</g>
		<path class="st0" d="M219.77,220.47c-0.02-2.05,1.64-3.74,3.69-3.75c2.06-0.02,3.74,1.64,3.76,3.7c0.02,2.06-1.64,3.74-3.69,3.76
			C221.46,224.18,219.78,222.53,219.77,220.47z"/>
	</g>
</g>
<g>
	<g>
		<path class="st0" d="M211.32,205.67c-0.04-0.13-0.25-0.38-0.08-0.48c0.11-0.06,0.36-0.24,0.47-0.31c0.09,0.11,0.34,0.58,0.21,0.67
			c-0.11,0.08-0.24,0.17-0.51,0.3L211.32,205.67z"/>
	</g>
	<g>
		<path class="st0" d="M212.67,205.09c-0.02-0.18-0.24-0.53-0.02-0.62c0.15-0.06,0.49-0.23,0.65-0.29c0.1,0.16,0.33,0.8,0.14,0.89
			c-0.15,0.07-0.33,0.16-0.69,0.26L212.67,205.09z"/>
	</g>
	<g>
		<path class="st0" d="M214.12,204.6c0.02-0.18-0.12-0.59,0.11-0.61c0.16-0.01,0.52-0.09,0.69-0.11c0.06,0.19,0.15,0.87-0.05,0.91
			c-0.16,0.03-0.35,0.06-0.73,0.06L214.12,204.6z"/>
	</g>
	<g>
		<path d="M215.69,204.52c0.06-0.17,0.02-0.61,0.25-0.55c0.16,0.04,0.52,0.08,0.69,0.12c0.01,0.2-0.07,0.88-0.27,0.86
			c-0.16-0.02-0.36-0.05-0.71-0.17L215.69,204.52z"/>
	</g>
	<g>
		<path class="st0" d="M217.23,204.9c0.08-0.15,0.1-0.59,0.32-0.5c0.15,0.06,0.5,0.17,0.66,0.24c-0.01,0.2-0.18,0.86-0.38,0.8
			c-0.16-0.05-0.34-0.12-0.68-0.3L217.23,204.9z"/>
	</g>
	<g>
		<path class="st0" d="M221.08,206.97c0.11-0.07,0.26-0.37,0.38-0.21c0.08,0.11,0.29,0.33,0.38,0.44c-0.07,0.13-0.41,0.52-0.53,0.4
			c-0.09-0.1-0.2-0.23-0.37-0.49L221.08,206.97z"/>
	</g>
	<g>
		<path class="st0" d="M218.76,205.35c0.08-0.11,0.13-0.45,0.3-0.35c0.11,0.07,0.38,0.19,0.49,0.26c-0.03,0.15-0.22,0.65-0.37,0.58
			c-0.12-0.05-0.26-0.13-0.5-0.31L218.76,205.35z"/>
	</g>
	<g>
		<path class="st0" d="M219.99,206.07c0.09-0.1,0.2-0.42,0.35-0.29c0.1,0.09,0.34,0.27,0.44,0.36c-0.05,0.15-0.32,0.6-0.45,0.5
			c-0.11-0.08-0.23-0.18-0.45-0.41L219.99,206.07z"/>
	</g>
	<g>
		<path class="st0" d="M222.04,208.17c0.11-0.06,0.29-0.35,0.4-0.18c0.07,0.11,0.27,0.36,0.35,0.47c-0.08,0.13-0.44,0.49-0.55,0.35
			c-0.09-0.11-0.19-0.24-0.34-0.52L222.04,208.17z"/>
	</g>
	<g>
		<path class="st0" d="M222.89,209.58c0.11-0.06,0.31-0.32,0.41-0.15c0.07,0.12,0.24,0.38,0.32,0.5c-0.09,0.12-0.47,0.45-0.57,0.31
			c-0.08-0.11-0.17-0.26-0.31-0.55L222.89,209.58z"/>
	</g>
	<g>
		<path class="st0" d="M207.48,208.58c-0.05-0.11-0.26-0.28-0.13-0.39c0.09-0.07,0.27-0.27,0.36-0.35c0.09,0.08,0.36,0.43,0.26,0.53
			c-0.08,0.08-0.19,0.18-0.4,0.34L207.48,208.58z"/>
	</g>
	<g>
		<path class="st0" d="M206.47,209.51c-0.04-0.08-0.22-0.21-0.13-0.31c0.07-0.07,0.21-0.23,0.27-0.31c0.08,0.06,0.32,0.32,0.24,0.42
			c-0.06,0.07-0.14,0.16-0.3,0.3L206.47,209.51z"/>
	</g>
	<g>
		<path class="st0" d="M205.67,210.54c-0.05-0.06-0.21-0.14-0.14-0.23c0.05-0.06,0.14-0.22,0.19-0.29c0.07,0.04,0.3,0.21,0.25,0.3
			c-0.04,0.07-0.1,0.15-0.21,0.29L205.67,210.54z"/>
	</g>
	<g>
		<path class="st0" d="M208.75,207.51c-0.04-0.13-0.26-0.37-0.1-0.47c0.11-0.07,0.35-0.26,0.46-0.34c0.1,0.11,0.37,0.56,0.24,0.66
			c-0.1,0.09-0.24,0.18-0.5,0.33L208.75,207.51z"/>
	</g>
	<g>
		<path class="st0" d="M210,206.57c-0.04-0.13-0.27-0.36-0.11-0.47c0.11-0.07,0.34-0.27,0.45-0.35c0.1,0.1,0.38,0.55,0.25,0.66
			c-0.1,0.09-0.23,0.19-0.49,0.34L210,206.57z"/>
	</g>
	<g>
		<path d="M224.96,213.64c0.09-0.07,0.35-0.11,0.28-0.27c-0.05-0.11-0.12-0.38-0.17-0.5c-0.12,0.02-0.5,0.18-0.46,0.33
			c0.03,0.12,0.08,0.26,0.2,0.51L224.96,213.64z"/>
	</g>
	<g>
		<path d="M225.37,215.2c0.08-0.04,0.29-0.01,0.27-0.16c-0.02-0.1-0.04-0.33-0.05-0.43c-0.1-0.01-0.43,0.04-0.42,0.17
			c0.01,0.1,0.03,0.22,0.08,0.45L225.37,215.2z"/>
	</g>
	<g>
		<path d="M225.53,216.54c0.07-0.01,0.24,0.04,0.24-0.08c0-0.08,0.01-0.27,0.01-0.36c-0.07-0.02-0.35-0.04-0.35,0.07
			c-0.01,0.08-0.01,0.19,0.01,0.38L225.53,216.54z"/>
	</g>
	<g>
		<path class="st0" d="M224.25,211.9c0.09-0.1,0.39-0.18,0.29-0.36c-0.07-0.12-0.19-0.42-0.26-0.55c-0.13,0.04-0.56,0.29-0.49,0.45
			c0.05,0.13,0.13,0.29,0.3,0.56L224.25,211.9z"/>
	</g>
</g>
<g>
	<g>
		<g>
			<path d="M222.25,213.88c-0.01,0.11,0.08,1,0.38,2.14c0.21,0.81,0.52,1.32,1.21,2.15c3.49,4.22-1.89,1.22-6.68,0.96
				c-8.51-0.46-13.14,1.25-6.59-3.5c0.76-0.55,0.82-2.22,0.87-2.72c0,0-0.17-0.41,5.72-0.18
				C220.62,213.06,222.26,213.87,222.25,213.88z"/>
		</g>
	</g>
</g>
<g>
	<g>
		<path class="st3" d="M221.29,219.16c0.04-0.11,0-0.43,0.17-0.37c0.12,0.03,0.39,0.09,0.51,0.12c0.01,0.14-0.03,0.62-0.18,0.59
			c-0.12-0.02-0.26-0.06-0.53-0.16L221.29,219.16z"/>
	</g>
	<g>
		<path class="st3" d="M223.23,219.68c0-0.08,0.11-0.24-0.02-0.28c-0.09-0.02-0.28-0.1-0.37-0.13c-0.04,0.07-0.14,0.35-0.03,0.4
			c0.08,0.03,0.19,0.07,0.39,0.12L223.23,219.68z"/>
	</g>
	<g>
		<path class="st3" d="M224.31,220.05c0.01-0.06,0.11-0.17,0.02-0.21c-0.06-0.03-0.2-0.11-0.27-0.14c-0.04,0.05-0.15,0.25-0.08,0.3
			c0.06,0.04,0.14,0.07,0.29,0.13L224.31,220.05z"/>
	</g>
	<g>
		<path class="st3" d="M209.31,218.53c0.02-0.12-0.08-0.4,0.11-0.4c0.13,0,0.42-0.04,0.55-0.04c0.04,0.12,0.09,0.58-0.07,0.6
			c-0.13,0.01-0.29,0.02-0.58,0.01L209.31,218.53z"/>
	</g>
	<g>
		<path class="st3" d="M210.75,218.55c0.01-0.13-0.12-0.42,0.07-0.43c0.13,0,0.42-0.04,0.56-0.05c0.06,0.13,0.15,0.62-0.02,0.64
			c-0.13,0.02-0.29,0.03-0.59,0.02L210.75,218.55z"/>
	</g>
	<g>
		<path class="st3" d="M219.83,218.78c0.04-0.12,0-0.44,0.18-0.39c0.13,0.03,0.42,0.08,0.55,0.11c0.02,0.14-0.03,0.64-0.19,0.61
			c-0.13-0.02-0.28-0.05-0.57-0.15L219.83,218.78z"/>
	</g>
	<g>
		<path class="st3" d="M212.37,218.44c0.02-0.14-0.09-0.49,0.12-0.48c0.25,0.02,0.38-0.01,0.64,0c0.05,0.16,0.1,0.73-0.08,0.74
			c-0.15,0.01-0.33,0.01-0.67-0.04L212.37,218.44z"/>
	</g>
	<g>
		<path class="st3" d="M214.17,218.44c0.02-0.14-0.09-0.49,0.12-0.48c0.25,0.02,0.37-0.01,0.64,0c0.05,0.16,0.11,0.73-0.08,0.74
			c-0.15,0.01-0.33,0.01-0.68-0.04L214.17,218.44z"/>
	</g>
	<g>
		<path class="st3" d="M216.09,218.49c0.03-0.17-0.1-0.57,0.16-0.56c0.3,0.01,0.45-0.02,0.77-0.02c0.06,0.18,0.11,0.84-0.11,0.85
			c-0.18,0.01-0.39,0.02-0.81-0.03L216.09,218.49z"/>
	</g>
	<g>
		<path class="st3" d="M218.06,218.5c0.05-0.16-0.02-0.58,0.23-0.54c0.3,0.05,0.45,0.04,0.76,0.08c0.03,0.19,0,0.85-0.23,0.83
			c-0.17-0.01-0.39-0.04-0.79-0.14L218.06,218.5z"/>
	</g>
	<g>
		<path class="st3" d="M208.02,218.38c0.03-0.09-0.02-0.31,0.12-0.28c0.09,0.02,0.31,0.06,0.4,0.08c0.02,0.1,0.01,0.46-0.11,0.44
			c-0.09-0.01-0.21-0.03-0.42-0.11L208.02,218.38z"/>
	</g>
</g>
<g>
	<g>
		<path class="st0" d="M221.08,214.44c0.04-0.11,0-0.42,0.17-0.37c0.12,0.04,0.38,0.09,0.5,0.12c0.02,0.14-0.03,0.62-0.18,0.59
			c-0.12-0.02-0.26-0.06-0.52-0.16L221.08,214.44z"/>
	</g>
	<g>
		<path class="st0" d="M219.62,214.07c0.04-0.12,0-0.44,0.19-0.39c0.12,0.03,0.42,0.08,0.55,0.11c0.02,0.14-0.03,0.64-0.19,0.61
			c-0.13-0.02-0.29-0.05-0.57-0.14L219.62,214.07z"/>
	</g>
	<g>
		<path class="st0" d="M212.15,213.73c0.02-0.14-0.09-0.49,0.13-0.48c0.25,0.02,0.38-0.01,0.64,0c0.05,0.16,0.11,0.73-0.08,0.74
			c-0.15,0.01-0.33,0.01-0.68-0.04L212.15,213.73z"/>
	</g>
	<g>
		<path class="st0" d="M213.96,213.73c0.02-0.14-0.09-0.49,0.13-0.48c0.25,0.02,0.37-0.01,0.64,0c0.05,0.16,0.11,0.73-0.08,0.74
			c-0.15,0.01-0.33,0.01-0.67-0.04L213.96,213.73z"/>
	</g>
	<g>
		<path class="st0" d="M215.88,213.77c0.03-0.17-0.1-0.57,0.16-0.56c0.3,0.01,0.45-0.02,0.76-0.02c0.06,0.18,0.11,0.84-0.11,0.85
			c-0.18,0.01-0.39,0.01-0.8-0.03L215.88,213.77z"/>
	</g>
	<g>
		<path class="st0" d="M217.85,213.78c0.05-0.16-0.02-0.58,0.23-0.54c0.3,0.05,0.45,0.04,0.76,0.08c0.03,0.19,0,0.85-0.22,0.83
			c-0.18-0.01-0.4-0.04-0.8-0.14L217.85,213.78z"/>
	</g>
</g>
<g>
	<defs>
		<path id="SVGID_3_" d="M224.55,193.45c0,4.76-3.86,8.62-8.62,8.62c-4.76,0-8.63-3.86-8.63-8.62c0-4.76,3.86-8.62,8.63-8.62
			C220.69,184.83,224.55,188.69,224.55,193.45z"/>
	</defs>
	<clipPath id="SVGID_4_">
		<use xlink:href="#SVGID_3_"  style="overflow:visible;"/>
	</clipPath>
	<g class="st5">
		<g>
			<path class="st6" d="M221.59,191.96c1.22-2.24,0.39-5.05-1.85-6.27c-2.24-1.22-5.05-0.39-6.27,1.85
				c-1.22,2.24-0.39,5.05,1.85,6.27C217.56,195.03,220.37,194.2,221.59,191.96z"/>
			<path d="M225.81,196.29c1.04-1.9,0.34-4.29-1.57-5.33c-1.9-1.04-4.28-0.34-5.32,1.57c-1.04,1.9-0.34,4.29,1.57,5.32
				C222.39,198.9,224.77,198.19,225.81,196.29z"/>
			<path d="M213.46,190.84c1.03-1.88,0.33-4.23-1.55-5.26c-1.88-1.02-4.23-0.33-5.26,1.55c-1.02,1.88-0.33,4.23,1.55,5.26
				C210.08,193.41,212.43,192.72,213.46,190.84z"/>
			<g>
				<path class="st0" d="M218.33,187.51c0.84-1.54,0.27-3.47-1.27-4.31c-1.54-0.84-3.47-0.27-4.31,1.27
					c-0.84,1.54-0.27,3.47,1.27,4.31C215.56,189.62,217.49,189.05,218.33,187.51z"/>
				<path d="M222.34,187.95c0.77-1.42,0.25-3.2-1.17-3.98c-1.42-0.78-3.21-0.25-3.98,1.17c-0.77,1.42-0.25,3.2,1.17,3.98
					C219.78,189.9,221.56,189.37,222.34,187.95z"/>
				<path d="M225.87,191.89c1.02-1.88,0.33-4.23-1.55-5.25c-1.88-1.02-4.23-0.33-5.25,1.55c-1.02,1.88-0.33,4.23,1.55,5.25
					C222.49,194.46,224.84,193.77,225.87,191.89z"/>
				<path class="st0" d="M216.53,186.44c0.64-1.17,0.21-2.63-0.96-3.27c-1.17-0.64-2.63-0.21-3.27,0.96
					c-0.64,1.17-0.2,2.63,0.96,3.27C214.43,188.04,215.9,187.61,216.53,186.44z"/>
			</g>
			<path class="st0" d="M214.8,195.19c0.96-1.76,0.31-3.95-1.45-4.91c-1.76-0.96-3.95-0.31-4.91,1.45
				c-0.96,1.75-0.31,3.95,1.45,4.91C211.64,197.59,213.84,196.94,214.8,195.19z"/>
		</g>
		<g>
			<g>
				<path class="st0" d="M216.2,193.39c-0.01-1.77,1.41-3.21,3.17-3.22c1.77-0.01,3.21,1.4,3.22,3.17c0.02,1.77-1.4,3.21-3.17,3.22
					C217.66,196.57,216.21,195.16,216.2,193.39z"/>
				<path class="st0" d="M204.97,198.75c-0.02-2.08,1.66-3.78,3.74-3.8c2.08-0.02,3.78,1.66,3.8,3.74c0.02,2.08-1.66,3.78-3.74,3.8
					C206.69,202.5,204.99,200.83,204.97,198.75z"/>
				<path class="st0" d="M212.53,191.48c-0.02-1.99,1.58-3.61,3.57-3.63c1.99-0.02,3.61,1.58,3.63,3.57
					c0.02,1.99-1.58,3.61-3.57,3.63C214.17,195.06,212.54,193.46,212.53,191.48z"/>
				<path class="st0" d="M219.72,198.26c-0.02-1.99,1.59-3.61,3.57-3.63c1.99-0.02,3.61,1.58,3.63,3.57
					c0.02,1.99-1.58,3.61-3.57,3.63C221.37,201.85,219.74,200.25,219.72,198.26z"/>
				<path d="M204.59,190c-0.02-1.93,1.54-3.52,3.47-3.53c1.93-0.02,3.52,1.54,3.53,3.47c0.02,1.93-1.54,3.52-3.47,3.53
					C206.19,193.49,204.61,191.94,204.59,190z"/>
				<path d="M203.11,193.08c-0.01-1.78,1.41-3.23,3.19-3.24c1.78-0.01,3.23,1.41,3.25,3.19c0.01,1.78-1.42,3.23-3.19,3.24
					C204.58,196.28,203.13,194.86,203.11,193.08z"/>
			</g>
			<path d="M210,197.11c-0.03-3.55,2.82-6.45,6.37-6.48c3.55-0.03,6.45,2.82,6.48,6.37c0.03,3.55-2.83,6.45-6.37,6.48
				C212.92,203.51,210.03,200.65,210,197.11z"/>
		</g>
	</g>
</g>
<path class="st7" d="M214.94,190.38c0,0.95-0.77,1.72-1.72,1.72c-0.95,0-1.72-0.77-1.72-1.72c0-0.95,0.77-1.72,1.72-1.72
	C214.17,188.66,214.94,189.43,214.94,190.38z"/>
<path class="st7" d="M220.48,190.38c0,0.95-0.77,1.72-1.72,1.72c-0.95,0-1.72-0.77-1.72-1.72c0-0.95,0.77-1.72,1.72-1.72
	C219.7,188.66,220.48,189.43,220.48,190.38z"/>
<path class="st0" d="M217.46,198.18c0,0.78-0.63,1.41-1.41,1.41c-0.78,0-1.42-0.63-1.42-1.41c0-0.78,0.63-1.41,1.42-1.41
	C216.83,196.77,217.46,197.4,217.46,198.18z"/>
<path class="st7" d="M211.93,194.8c0,0.95-0.77,1.72-1.72,1.72c-0.95,0-1.72-0.77-1.72-1.72c0-0.95,0.77-1.72,1.72-1.72
	C211.16,193.08,211.93,193.85,211.93,194.8z"/>
<path class="st7" d="M223.43,194.8c0,0.95-0.77,1.72-1.72,1.72c-0.95,0-1.72-0.77-1.72-1.72c0-0.95,0.77-1.72,1.72-1.72
	C222.65,193.08,223.43,193.85,223.43,194.8z"/>
<path class="st0" d="M209.49,202.68c0.44,1.88-0.76,3.76-2.67,4.2c-1.91,0.44-3.81-0.72-4.25-2.6c-0.44-1.88,0.76-3.76,2.67-4.2
	C207.15,199.64,209.05,200.8,209.49,202.68z"/>
<path d="M205.58,202.9c-0.02,0.83-0.71,1.49-1.54,1.47c-0.83-0.02-1.49-0.71-1.47-1.54c0.02-0.83,0.71-1.49,1.54-1.47
	C204.94,201.38,205.6,202.07,205.58,202.9z"/>
<path class="st0" d="M205.58,202.78c-0.01,0.54-0.46,0.97-1.01,0.96c-0.54-0.01-0.97-0.46-0.96-1.01c0.01-0.54,0.46-0.97,1.01-0.96
	C205.17,201.79,205.6,202.24,205.58,202.78z"/>
<g>
	<path class="st8" d="M209.01,202.09c-0.02,0.83-0.71,1.49-1.54,1.47c-0.83-0.02-1.49-0.71-1.47-1.54c0.02-0.83,0.71-1.49,1.54-1.47
		C208.37,200.57,209.03,201.26,209.01,202.09z"/>
	<path class="st3" d="M209.02,201.87c-0.01,0.54-0.46,0.97-1.01,0.96c-0.54-0.01-0.97-0.46-0.96-1.01c0.01-0.54,0.46-0.97,1.01-0.96
		C208.6,200.88,209.03,201.33,209.02,201.87z"/>
</g>
<g>
	<path class="st0" d="M203.76,205.83c0.57,0.66,1.03,1.06,1.55,1.41c0.96,0.65,0.85,0.62,0.31-0.43c-0.13-0.24-1.09-1.98-1.24-2.08
		c-0.57-0.42-0.31,0.79-0.52,1L203.76,205.83z"/>
	<g>
		<path class="st0" d="M203.18,206.42c0.48,0.55,1.01,1.04,1.61,1.46c0.35,0.24,0.78,0.63,1.23,0.62c0.82-0.01,0.95-0.85,0.67-1.43
			c-0.17-0.36-0.36-0.7-0.55-1.04c-0.37-0.66-0.76-1.72-1.47-2.08c-0.61-0.3-1.25,0.03-1.44,0.66c-0.06,0.22-0.07,0.46-0.09,0.69
			c-0.01,0.15-0.06,0.13-0.01,0.08c0.05-0.06,0.21-0.29,0.05-0.12c-0.76,0.75,0.41,1.92,1.17,1.17c0.23-0.23,0.36-0.46,0.41-0.79
			c0.02-0.14,0.03-0.28,0.04-0.43c0-0.05,0.02-0.11,0.01-0.17c-0.01,0.08-0.01,0.09,0,0.03c0.06-0.22-0.08-0.09-0.4,0.37
			c-0.15,0-0.29,0-0.44,0c-0.1-0.02-0.22-0.23-0.16-0.12c0.08,0.12,0.15,0.24,0.23,0.36c0.18,0.29,0.34,0.59,0.51,0.88
			c0.12,0.21,0.24,0.43,0.35,0.64c0.09,0.17,0.18,0.34,0.26,0.5c0.02,0.05,0.05,0.13,0.08,0.16c0.09,0.09-0.06-0.07-0.04-0.2
			c0.08-0.19,0.16-0.39,0.24-0.58c0,0-0.01,0.01-0.01,0.01c0.19-0.08,0.39-0.16,0.58-0.24c0.51,0,0.35,0.15,0.21,0.01
			c-0.04-0.04-0.11-0.07-0.16-0.11c-0.2-0.14-0.41-0.27-0.61-0.42c-0.41-0.31-0.77-0.69-1.11-1.08
			C203.64,204.45,202.48,205.62,203.18,206.42z"/>
	</g>
</g>
<g>
	<path class="st0" d="M209.14,204.59c-0.22,0.85-0.46,1.41-0.78,1.95c-0.58,1-0.49,0.94-0.47-0.25c0.01-0.27,0.1-2.26,0.2-2.41
		c0.33-0.62,0.63,0.58,0.9,0.67L209.14,204.59z"/>
	<g>
		<path class="st0" d="M208.35,204.37c-0.13,0.49-0.29,0.98-0.52,1.43c-0.1,0.2-0.22,0.4-0.33,0.6c-0.04,0.07-0.08,0.14-0.12,0.21
			c-0.13,0.22,0.06-0.04-0.02,0.04c0.12-0.07,0.24-0.14,0.36-0.21c-0.01,0-0.01,0-0.02,0.01c0.27,0.07,0.54,0.14,0.8,0.21
			c-0.01,0-0.01-0.01-0.02-0.01c0.07,0.12,0.14,0.24,0.21,0.36c0.02,0.06-0.01,0.2,0.01,0.07c0.01-0.08,0-0.17,0-0.25
			c0-0.19,0.01-0.38,0.02-0.57c0.01-0.24,0.02-0.48,0.04-0.71c0.02-0.32,0.04-0.63,0.06-0.95c0.01-0.14,0.03-0.28,0.04-0.42
			c-0.01,0.13-0.03,0.02,0.01,0c0.02-0.01-0.14,0.21-0.19,0.24c-0.14,0.04-0.28,0.08-0.42,0.11c-0.25,0.02-0.5-0.35-0.31,0
			c0.08,0.14,0.16,0.27,0.26,0.4c0.19,0.25,0.42,0.37,0.71,0.47c1.01,0.34,1.45-1.26,0.44-1.59c-0.27-0.09,0.11,0.1,0.13,0.1
			c0.05,0.07,0.05,0.05-0.01-0.04c-0.02-0.04-0.05-0.08-0.07-0.12c-0.12-0.2-0.24-0.41-0.41-0.57c-0.48-0.45-1.21-0.35-1.56,0.2
			c-0.41,0.65-0.31,1.73-0.35,2.47c-0.04,0.73-0.26,2.57,1.06,2.19c0.51-0.15,0.76-0.78,1-1.2c0.35-0.64,0.6-1.32,0.79-2.02
			C210.22,203.78,208.62,203.34,208.35,204.37z"/>
	</g>
</g>
<g>
	<path class="st9" d="M204.88,200.43c-0.07-0.26-0.26-0.5-0.38-0.73c-0.17-0.32-0.35-0.65-0.59-0.93c-0.33-0.38-0.96-0.05-0.83,0.58
		L204.88,200.43z"/>
</g>
<g>
	<path class="st0" d="M205.73,200.07c0.01-0.32-0.06-0.65-0.03-0.98c0.03-0.34,0.08-0.65,0.32-0.9c0.19-0.2,0.34-0.32,0.57-0.15
		c0.15,0.12,0.27,0.3,0.25,0.58L205.73,200.07z"/>
	<g>
		<path class="st0" d="M206.22,200.07c0-0.56-0.08-1.01,0.15-1.53c0.01-0.02-0.08-0.16,0.05-0.16c-0.01,0-0.04,0.05-0.04,0.06
			c-0.07,0.08-0.13,0.17-0.2,0.26c-0.29,0.38-0.58,0.76-0.86,1.14c-0.38,0.5,0.47,0.99,0.84,0.49c0.22-0.29,0.45-0.59,0.67-0.88
			c0.29-0.38,0.6-0.65,0.47-1.17c-0.19-0.75-1-1.01-1.56-0.47c-0.64,0.62-0.48,1.47-0.49,2.28
			C205.24,200.7,206.22,200.7,206.22,200.07z"/>
	</g>
</g>
<g>
	<path class="st0" d="M197.39,236.45h-3.71l1.47-5.65c-0.21,0.13-0.46,0.19-0.75,0.19c-0.09,0-0.19-0.01-0.29-0.02l0.23-0.9
		c0.08,0.01,0.16,0.02,0.23,0.02c0.4,0,0.71-0.21,0.92-0.63h1.38l-1.58,6.03h2.36L197.39,236.45z"/>
	<path class="st0" d="M198.98,236.44c-0.5-0.22-0.76-0.72-0.76-1.5c0-0.43,0.09-0.87,0.28-1.31c0.21-0.49,0.49-0.88,0.84-1.19
		s0.71-0.46,1.06-0.46c0.35,0,0.63,0.14,0.83,0.43l0.1-0.38h1.26l-0.81,3.13c-0.01,0.04-0.02,0.08-0.02,0.12
		c0,0.12,0.07,0.19,0.21,0.19c0.08,0,0.17-0.02,0.27-0.06l-0.23,0.82c-0.32,0.22-0.62,0.33-0.9,0.33c-0.31,0-0.57-0.14-0.78-0.42
		c-0.32,0.25-0.64,0.37-0.96,0.37C199.24,236.51,199.1,236.49,198.98,236.44z M200.54,232.98c-0.15,0-0.31,0.09-0.48,0.28
		s-0.31,0.43-0.42,0.74c-0.11,0.28-0.16,0.55-0.16,0.81c0,0.42,0.11,0.63,0.33,0.63c0.14,0,0.3-0.1,0.48-0.3
		c0.17-0.2,0.32-0.45,0.43-0.76c0.11-0.28,0.17-0.54,0.17-0.79C200.87,233.17,200.76,232.98,200.54,232.98z"/>
	<path class="st0" d="M208.92,233h-1.65l-0.64,2.48h2.35l-0.28,0.97h-3.71l1.47-5.65c-0.21,0.13-0.46,0.19-0.75,0.19
		c-0.09,0-0.19-0.01-0.29-0.02l0.23-0.9c0.08,0.01,0.16,0.02,0.23,0.02c0.4,0,0.71-0.21,0.92-0.63h3.66l-0.28,0.96h-2.25l-0.41,1.61
		h1.67L208.92,233z"/>
	<path class="st0" d="M212.77,233.28c-0.35-0.25-0.77-0.38-1.25-0.38c-0.11,0-0.21,0.03-0.32,0.1c-0.11,0.07-0.16,0.15-0.16,0.25
		s0.13,0.22,0.4,0.35c0.37,0.19,0.62,0.33,0.75,0.43c0.26,0.22,0.39,0.48,0.39,0.78c0,0.53-0.18,0.95-0.53,1.27s-0.8,0.48-1.33,0.48
		c-0.18,0-0.44-0.04-0.77-0.11c-0.36-0.07-0.59-0.15-0.7-0.23l0.26-1.04c0.34,0.2,0.75,0.3,1.23,0.3c0.41,0,0.62-0.12,0.62-0.35
		c0-0.17-0.12-0.33-0.37-0.47s-0.49-0.27-0.73-0.4c-0.26-0.19-0.38-0.44-0.38-0.73c0-0.48,0.19-0.88,0.56-1.2
		c0.35-0.3,0.77-0.46,1.26-0.46c0.55,0,1,0.12,1.33,0.35L212.77,233.28z"/>
	<path class="st0" d="M216.15,233.68c-0.18-0.38-0.41-0.6-0.69-0.65c-0.03-0.01-0.06-0.02-0.09-0.02c-0.15,0-0.32,0.08-0.5,0.25
		c-0.21,0.19-0.36,0.43-0.48,0.73c-0.09,0.24-0.14,0.48-0.14,0.72c0,0.17,0.02,0.32,0.07,0.47c0.07,0.19,0.18,0.29,0.33,0.29
		c0.37,0.01,0.77-0.21,1.2-0.64l-0.35,1.34c-0.35,0.22-0.7,0.33-1.04,0.33c-0.22,0-0.42-0.05-0.61-0.14
		c-0.58-0.28-0.88-0.82-0.88-1.62c0-0.43,0.1-0.85,0.3-1.27c0.22-0.44,0.51-0.8,0.88-1.07c0.37-0.27,0.75-0.41,1.13-0.41
		c0.47,0,0.85,0.2,1.15,0.6L216.15,233.68z"/>
	<path class="st0" d="M217.77,235.42c0.04,0.03,0.09,0.05,0.16,0.05c0.11,0,0.25-0.04,0.4-0.11c0.19-0.09,0.34-0.28,0.46-0.56
		l0.72-2.75h1.29l-1.15,4.44h-1.3l0.08-0.27c-0.37,0.2-0.75,0.3-1.14,0.3c-0.08,0-0.15,0-0.21-0.01c-0.51-0.13-0.76-0.5-0.76-1.12
		c0-0.11,0.01-0.21,0.03-0.3l0.8-3.04h1.29l-0.8,3.04c-0.01,0.03-0.01,0.06-0.01,0.09C217.62,235.28,217.67,235.36,217.77,235.42z"
		/>
	<path class="st0" d="M223.13,232.02l-1.16,4.43h-1.29l1.16-4.43H223.13z M222.83,231.31c-0.21,0.01-0.39-0.04-0.54-0.15
		c-0.15-0.1-0.22-0.23-0.22-0.39s0.08-0.29,0.22-0.41c0.15-0.12,0.33-0.18,0.54-0.18c0.21-0.01,0.39,0.04,0.54,0.14
		c0.15,0.1,0.22,0.23,0.22,0.39s-0.08,0.29-0.22,0.41C223.22,231.24,223.04,231.3,222.83,231.31z"/>
	<path class="st0" d="M227.05,237.15c0.14,0.01,0.28-0.05,0.4-0.18l0.28,0.84c-0.29,0.31-0.71,0.48-1.26,0.5
		c-0.36,0-0.66-0.13-0.89-0.38c-0.2-0.21-0.3-0.44-0.31-0.67c0,0.03,0.03-0.24,0.08-0.81l0.77-2.96c0.01-0.03,0.02-0.06,0.02-0.09
		c0-0.11-0.05-0.19-0.15-0.24c-0.04-0.04-0.09-0.06-0.15-0.06c-0.11,0-0.23,0.05-0.36,0.16c-0.09,0.07-0.19,0.15-0.28,0.23
		c-0.09,0.08-0.16,0.17-0.21,0.27l-0.71,2.69H223l1.16-4.4h1.29l-0.07,0.3c0.35-0.21,0.69-0.31,1.02-0.31
		c0.12,0,0.22,0.01,0.31,0.04c0.51,0.23,0.77,0.61,0.77,1.15c0,0.1-0.01,0.19-0.03,0.27l-0.78,2.96
		C226.64,236.89,226.77,237.12,227.05,237.15z"/>
	<path class="st0" d="M230.85,233.68c-0.18-0.38-0.41-0.6-0.69-0.65c-0.03-0.01-0.06-0.02-0.09-0.02c-0.15,0-0.32,0.08-0.5,0.25
		c-0.21,0.19-0.36,0.43-0.48,0.73c-0.09,0.24-0.14,0.48-0.14,0.72c0,0.17,0.02,0.32,0.07,0.47c0.07,0.19,0.18,0.29,0.33,0.29
		c0.37,0.01,0.77-0.21,1.2-0.64l-0.35,1.34c-0.35,0.22-0.7,0.33-1.04,0.33c-0.22,0-0.42-0.05-0.61-0.14
		c-0.58-0.28-0.88-0.82-0.88-1.62c0-0.43,0.1-0.85,0.3-1.27c0.22-0.44,0.51-0.8,0.88-1.07s0.75-0.41,1.13-0.41
		c0.47,0,0.86,0.2,1.15,0.6L230.85,233.68z"/>
	<path class="st0" d="M232.12,236.46h-1.29l1.74-6.63h1.3L232.12,236.46z"/>
	<path class="st0" d="M234.06,236.44c-0.5-0.22-0.76-0.72-0.76-1.5c0-0.43,0.09-0.87,0.28-1.31c0.21-0.49,0.49-0.88,0.84-1.19
		s0.71-0.46,1.06-0.46c0.35,0,0.63,0.14,0.83,0.43l0.1-0.38h1.26l-0.81,3.13c-0.01,0.04-0.02,0.08-0.02,0.12
		c0,0.12,0.07,0.19,0.21,0.19c0.08,0,0.17-0.02,0.27-0.06l-0.23,0.82c-0.32,0.22-0.62,0.33-0.9,0.33c-0.31,0-0.57-0.14-0.78-0.42
		c-0.32,0.25-0.64,0.37-0.96,0.37C234.32,236.51,234.19,236.49,234.06,236.44z M235.62,232.98c-0.15,0-0.31,0.09-0.48,0.28
		c-0.17,0.19-0.31,0.43-0.42,0.74c-0.11,0.28-0.16,0.55-0.16,0.81c0,0.42,0.11,0.63,0.33,0.63c0.14,0,0.3-0.1,0.48-0.3
		s0.32-0.45,0.43-0.76c0.11-0.28,0.17-0.54,0.17-0.79C235.96,233.17,235.84,232.98,235.62,232.98z"/>
</g>
<path class="st3" d="M207.5,204.72c0.06,0.23-0.35,0.53-0.91,0.69c-0.56,0.15-1.07,0.09-1.13-0.14c-0.06-0.23,0.35-0.53,0.91-0.68
	C206.93,204.43,207.44,204.49,207.5,204.72z"/>
<g>
	<path class="st0" d="M228.15,245.75h0.83v0.28h-0.83V245.75z M228.33,245.53c0-0.15,0.03-0.26,0.1-0.33s0.17-0.11,0.31-0.11h0.24
		v0.31h-0.23c-0.03,0-0.05,0.01-0.07,0.04c-0.02,0.02-0.02,0.05-0.02,0.09v1.88h-0.32V245.53z"/>
	<path class="st0" d="M229.48,245.09h0.32v0.33h-0.32V245.09z M229.48,245.75h0.32v1.65h-0.32V245.75z"/>
	<path class="st0" d="M230.74,246.98c0,0.04,0.01,0.07,0.03,0.09c0.02,0.02,0.04,0.03,0.07,0.03h0.15v0.31h-0.19
		c-0.12,0-0.22-0.04-0.29-0.11s-0.1-0.18-0.1-0.32v-1.88h0.32V246.98z"/>
	<path class="st0" d="M231.46,245.75h0.32v1.65h-0.32V245.75z M232.45,246.4c0-0.12-0.03-0.21-0.09-0.27
		c-0.06-0.06-0.14-0.09-0.24-0.09s-0.19,0.03-0.25,0.08s-0.09,0.13-0.09,0.24l-0.03-0.32c0.05-0.1,0.12-0.18,0.2-0.23
		c0.08-0.05,0.17-0.08,0.27-0.08c0.12,0,0.21,0.03,0.3,0.08c0.08,0.05,0.14,0.13,0.19,0.23s0.06,0.22,0.06,0.36v1h-0.32V246.4z
		 M233.43,246.4c0-0.12-0.03-0.21-0.09-0.27c-0.06-0.06-0.15-0.09-0.25-0.09c-0.1,0-0.18,0.03-0.23,0.09
		c-0.06,0.06-0.08,0.15-0.08,0.26l-0.07-0.32c0.05-0.11,0.12-0.19,0.21-0.25c0.09-0.06,0.18-0.09,0.28-0.09
		c0.12,0,0.22,0.03,0.3,0.08c0.08,0.05,0.15,0.13,0.19,0.23s0.07,0.22,0.07,0.36v1h-0.32V246.4z"/>
	<path class="st0" d="M234.8,247.43c0,0-0.04-0.01-0.13-0.03c-0.08-0.02-0.17-0.05-0.24-0.09s-0.14-0.09-0.21-0.14l0.19-0.24
		c0.09,0.07,0.18,0.12,0.27,0.15s0.18,0.05,0.26,0.05c0.13,0,0.22-0.02,0.29-0.06c0.06-0.04,0.1-0.1,0.1-0.18
		c0-0.05-0.02-0.09-0.05-0.12s-0.08-0.04-0.13-0.05c-0.05-0.01-0.13-0.02-0.22-0.02c-0.01,0-0.02,0-0.03,0c-0.01,0-0.02,0-0.03,0
		c0,0-0.01,0-0.01,0c0,0-0.01,0-0.01,0c-0.11-0.01-0.2-0.02-0.27-0.05s-0.14-0.07-0.19-0.13c-0.05-0.06-0.07-0.15-0.07-0.27
		c0-0.12,0.02-0.21,0.07-0.29c0.05-0.08,0.12-0.13,0.21-0.17c0.09-0.04,0.21-0.06,0.35-0.06c0.09,0,0.17,0.01,0.25,0.02
		c0.08,0.02,0.15,0.04,0.22,0.07c0.07,0.03,0.14,0.07,0.21,0.12l-0.2,0.24c-0.08-0.05-0.16-0.09-0.24-0.12
		c-0.08-0.03-0.16-0.04-0.23-0.04c-0.11,0-0.19,0.02-0.25,0.06c-0.06,0.04-0.08,0.09-0.08,0.17c0,0.04,0.02,0.08,0.05,0.1
		s0.07,0.04,0.12,0.04c0.05,0.01,0.12,0.01,0.2,0.02c0.01,0,0.01,0,0.02,0s0.01,0,0.02,0c0,0,0.01,0,0.01,0s0.01,0,0.01,0
		c0.12,0.01,0.21,0.02,0.29,0.05s0.15,0.07,0.2,0.14c0.06,0.07,0.08,0.17,0.08,0.3c0,0.12-0.03,0.22-0.08,0.29s-0.13,0.14-0.23,0.18
		c-0.1,0.04-0.23,0.06-0.39,0.06C234.85,247.43,234.8,247.43,234.8,247.43z"/>
</g>
</svg>
