<?xml version="1.0" encoding="utf-8"?>
<!-- Generator: Adobe Illustrator 23.0.1, SVG Export Plug-In . SVG Version: 6.00 Build 0)  -->
<svg version="1.1" id="Capa_1" xmlns="http://www.w3.org/2000/svg" xmlns:xlink="http://www.w3.org/1999/xlink" x="0px" y="0px"
	 viewBox="0 0 430.11 430.11" style="enable-background:new 0 0 430.11 430.11;" xml:space="preserve">
<style type="text/css">
	.st0{clip-path:url(#SVGID_2_);fill:#FFFFFF;}
	.st1{clip-path:url(#SVGID_2_);}
	.st2{fill:#FFFFFF;}
	.st3{fill:#929191;}
</style>
<g>
	<g>
		<defs>
			<rect id="SVGID_1_" x="192.77" y="184.92" width="45.52" height="46.5"/>
		</defs>
		<clipPath id="SVGID_2_">
			<use xlink:href="#SVGID_1_"  style="overflow:visible;"/>
		</clipPath>
		<path class="st0" d="M235.4,206.23c0,1.46-1.06,2.64-2.37,2.64l0,0c-1.31,0-2.37-1.18-2.37-2.64v-21.08
			c0-1.46,1.06-2.64,2.37-2.64l0,0c1.31,0,2.37,1.18,2.37,2.64V206.23z"/>
		<path class="st0" d="M207.42,206.23c0,1.46-1.06,2.64-2.37,2.64l0,0c-1.31,0-2.37-1.18-2.37-2.64v-21.08
			c0-1.46,1.06-2.64,2.37-2.64l0,0c1.31,0,2.37,1.18,2.37,2.64V206.23z"/>
		<g class="st1">
			<path class="st2" d="M218.04,200.32c0-2-0.14-3.98-1.24-6.38l4.45-2.28c1.88,3.26,2.06,7,2.06,8.98c0,4.8-1.77,8.91-5.31,12.31
				c-3.54,3.4-7.81,5.1-12.81,5.1c-5,0-9.27-1.7-12.81-5.1c-3.54-3.4-5.31-7.51-5.31-12.31c0-1.99,0.34-3.92,1.02-5.8h5.91
				c-1.03,1.8-1.54,3.73-1.54,5.8c0,3.37,1.25,6.25,3.75,8.63c2.48,2.39,5.48,3.58,8.99,3.58c3.51,0,6.51-1.19,8.99-3.58
				C216.65,206.88,218.04,203.44,218.04,200.32z"/>
		</g>
		<path class="st0" d="M199.8,195.17v5.02c0,0-5.57,0.09-8.5-4.16v-4.86C192.82,192.33,194.83,194.77,199.8,195.17z"/>
	</g>
	<g>
		<g>
			<path class="st2" d="M194.82,229.13v-8.15h12.47v6.34h-11.58v1.81H194.82z M195.71,226.41h10.69v-4.53h-10.69V226.41z"/>
			<path class="st2" d="M195.9,229.31h-1.26v-8.52h12.84v6.71H195.9V229.31z M195.01,228.94h0.52v-1.81h11.58v-5.97h-12.1V228.94z
				 M206.59,226.59h-11.06v-4.89h11.06V226.59z M195.9,226.23h10.32v-4.16H195.9V226.23z"/>
		</g>
		<g>
			<path class="st2" d="M210.23,221.88v6.34h11.58v0.91h-12.47v-8.15h12.47v0.91H210.23z"/>
			<path class="st2" d="M222,229.31h-12.84v-8.52H222v1.27h-11.58v5.97H222V229.31z M209.53,228.94h12.1v-0.54h-11.58v-6.71h11.58
				v-0.54h-12.1V228.94z"/>
		</g>
		<g>
			<path class="st2" d="M230.63,221.88v7.24h-0.89v-7.24h-4.99v7.24h-0.89v-8.15h12.47v8.15h-0.89v-7.24H230.63z"/>
			<path class="st2" d="M236.52,229.31h-1.26v-7.24h-4.44v7.24h-1.26v-7.24h-4.62v7.24h-1.26v-8.52h12.84V229.31z M235.63,228.94
				h0.52v-7.78h-12.1v7.78h0.52v-7.24h5.36v7.24h0.52v-7.24h5.18V228.94z"/>
		</g>
	</g>
	<g>
		<g>
			<path class="st3" d="M195.71,230.93v1.81h11.58v6.34h-12.47v-8.15H195.71z M195.71,238.17h10.69v-4.53h-10.69V238.17z"/>
			<path class="st3" d="M207.48,239.26h-12.84v-8.52h1.26v1.81h11.58V239.26z M195.01,238.9h12.1v-5.97h-11.58v-1.81h-0.52V238.9z
				 M206.59,238.36h-11.06v-4.89h11.06V238.36z M195.9,237.99h10.32v-4.16H195.9V237.99z"/>
		</g>
		<g>
			<path class="st3" d="M221.81,238.17v0.91h-12.47v-8.15h12.47v0.91h-11.58v6.34H221.81z"/>
			<path class="st3" d="M222,239.26h-12.84v-8.52H222v1.27h-11.58v5.97H222V239.26z M209.53,238.9h12.1v-0.54h-11.58v-6.71h11.58
				v-0.54h-12.1V238.9z"/>
		</g>
		<g>
			<path class="st3" d="M235.44,238.17v-7.24h0.89v8.15h-12.47v-8.15h0.89v7.24h4.99v-7.24h0.89v7.24H235.44z"/>
			<path class="st3" d="M236.52,239.26h-12.84v-8.52h1.26v7.24h4.62v-7.24h1.26v7.24h4.44v-7.24h1.26V239.26z M224.05,238.9h12.1
				v-7.78h-0.52v7.24h-5.18v-7.24h-0.52v7.24h-5.36v-7.24h-0.52V238.9z"/>
		</g>
	</g>
</g>
</svg>
