<?xml version="1.0" encoding="utf-8"?>
<!-- Generator: Adobe Illustrator 23.0.1, SVG Export Plug-In . SVG Version: 6.00 Build 0)  -->
<svg version="1.1" id="Layer_1" xmlns="http://www.w3.org/2000/svg" xmlns:xlink="http://www.w3.org/1999/xlink" x="0px" y="0px"
	 viewBox="0 0 1785.8 1247.2" style="enable-background:new 0 0 1785.8 1247.2;" xml:space="preserve">
<style type="text/css">
	.st0{fill-rule:evenodd;clip-rule:evenodd;fill:#FFFFFF;}
	.st1{fill-rule:evenodd;clip-rule:evenodd;}
	.st2{fill:#FFFFFF;}
</style>
<g>
	<g>
		<g>
			<path class="st0" d="M1151.6,594.3c0.1-0.4,0.4-0.8,0.6-1.1c0.4-0.5,0.9-1,1.4-1.4c0.8-0.7,1.6-1.2,2.5-1.7c1.4-0.8,3-1.4,4.5-2
				c1.3-0.5,2.7-0.9,4.1-1.2c0.9-0.2,1.7-0.4,2.6-0.6c0.7-0.1,1.4-0.3,2.1-0.4c0.6-0.1,1.3-0.2,1.9-0.3c0.6-0.1,1.2-0.2,1.8-0.2
				c0.7-0.1,1.4-0.1,2.1-0.2c0.6,0,1.1-0.1,1.7-0.1c0.5,0,1,0,1.6-0.1c1.9-0.1,3.8-0.1,5.7,0c0.8,0,1.5,0.1,2.3,0.1
				c0.5,0,0.9,0.1,1.4,0.1c0.5,0,1,0.1,1.5,0.1c0.6,0.1,1.2,0.1,1.7,0.2c0.4,0.1,0.9,0.1,1.3,0.2c1.3,0.2,2.6,0.4,3.9,0.7
				c1.6,0.3,3.2,0.7,4.8,1.2c1.6,0.5,3.2,1.1,4.7,1.9c1.2,0.6,2.3,1.3,3.3,2.1c0.7,0.6,1.3,1.2,1.7,2c0.1,0.1,0.2,0.3,0.2,0.4
				c0,0,0,0,0,0.1c-0.1,0-0.1-0.1-0.2-0.1c-0.8-0.8-1.7-1.3-2.6-1.9c-1.2-0.7-2.5-1.2-3.9-1.7c-1.1-0.4-2.2-0.7-3.3-1
				c-1.2-0.3-2.5-0.6-3.7-0.8c-0.9-0.2-1.8-0.3-2.7-0.4c-0.4-0.1-0.8-0.1-1.3-0.2c-0.1,0-0.1,0-0.2,0c0,0-0.1,0.1-0.1,0.1
				c0,0,0,0.1,0.1,0.1c0.1,0,0.2,0.1,0.3,0.1c0.6,0.1,1.1,0.2,1.7,0.3c1.1,0.2,2.2,0.5,3.4,0.7c1.2,0.3,2.4,0.6,3.5,1
				c1.4,0.5,2.9,1,4.2,1.6c1,0.5,2,1,2.8,1.7c0.6,0.4,1.2,0.9,1.6,1.5c0.2,0.3,0.4,0.6,0.5,0.9c0.2,0.6,0.2,1.2,0,1.7
				c-0.3,0.8-0.9,1.5-1.5,2.1c-0.8,0.9-1.8,1.5-2.8,2.1c-1,0.6-2.1,1.1-3.3,1.6c-0.9,0.4-1.9,0.7-2.8,1c-0.9,0.3-1.7,0.5-2.6,0.7
				c-0.9,0.2-1.9,0.4-2.8,0.6c-0.1,0-0.3,0-0.4,0.1c-0.1-0.1-0.1-0.2-0.2-0.3c-0.4-1.1-0.8-2.2-1.3-3.2c0-0.1,0-0.2-0.1-0.3
				c0.1-0.1,0.3-0.1,0.4-0.2c0.5-0.2,1-0.4,1.5-0.7c0.5-0.3,0.9-0.6,1.3-1.1c0.1-0.2,0.3-0.4,0.3-0.6c0.2-0.5,0.1-1-0.1-1.5
				c-0.2-0.5-0.6-0.8-1-1.1c-0.5-0.4-1-0.7-1.6-0.9c-1.1-0.5-2.2-0.9-3.3-1.2c-1.1-0.3-2.2-0.5-3.3-0.6c-0.8-0.1-1.6-0.2-2.4-0.3
				c-1.8-0.1-3.7-0.2-5.5-0.1c-0.7,0-1.3,0.1-2,0.1c-0.3,0-0.7,0.1-1,0.1c-1.2,0.1-2.4,0.3-3.6,0.5c-1.3,0.3-2.5,0.6-3.7,1
				c-0.9,0.3-1.7,0.7-2.5,1.3c-0.3,0.2-0.5,0.4-0.7,0.6c-0.3,0.3-0.5,0.7-0.6,1.1c-0.1,0.6,0.1,1.1,0.4,1.5c0.2,0.3,0.5,0.5,0.7,0.7
				c0.6,0.5,1.3,0.8,2,1.1c0.1,0.1,0.3,0.1,0.4,0.2c0,0,0,0.1,0,0.1c-0.5,1.2-0.9,2.4-1.4,3.5c0,0.1-0.1,0.1-0.1,0.1
				c0,0-0.1,0-0.1,0c-1.3-0.3-2.6-0.5-3.9-0.9c-0.9-0.3-1.8-0.5-2.6-0.8c-1.7-0.5-3.3-1.2-4.8-2.1c-0.9-0.5-1.8-1.1-2.6-1.8
				c-0.7-0.6-1.3-1.2-1.7-2c-0.1-0.2-0.2-0.4-0.4-0.7c-0.4-0.8-0.3-1.5,0.1-2.2c0.2-0.4,0.5-0.7,0.8-1c0.5-0.6,1.2-1,1.8-1.5
				c1-0.6,2-1.1,3-1.6c1.7-0.7,3.4-1.3,5.2-1.8c1.4-0.4,2.8-0.7,4.3-1c0.8-0.2,1.7-0.3,2.5-0.5c0.1,0,0.2,0,0.3-0.1
				c0,0,0.1-0.1,0.1-0.1c0-0.1,0-0.1-0.1-0.1c-0.2,0-0.3,0-0.5,0c-0.9,0.1-1.8,0.2-2.7,0.4c-0.7,0.1-1.4,0.3-2.1,0.4
				c-1.9,0.4-3.7,0.9-5.5,1.5c-1.3,0.4-2.6,1-3.8,1.6c-0.9,0.5-1.8,1-2.6,1.7c-0.2,0.1-0.3,0.3-0.5,0.4
				C1151.7,594.2,1151.6,594.3,1151.6,594.3z"/>
		</g>
		<g>
			<path class="st0" d="M1165,586c0-0.1,0.1-0.2,0.1-0.3c0.3-0.4,0.6-0.8,0.9-1.2c1.4-1.7,3-3,4.9-4.1c1.1-0.7,2.3-1.2,3.5-1.6
				c1-0.3,2-0.6,3.1-0.8c1.4-0.3,2.9-0.4,4.4-0.3c1.9,0.1,3.7,0.4,5.5,1c2.3,0.8,4.5,1.9,6.4,3.5c1.3,1,2.4,2.2,3.3,3.6
				c0.1,0.1,0.1,0.2,0.2,0.3c0,0,0,0,0,0.1c-0.1,0.1-0.1,0-0.2,0c-0.5-0.1-1-0.2-1.5-0.3c-0.8-0.2-1.6-0.3-2.4-0.4
				c-0.7-0.1-1.3-0.2-2-0.3c-0.8-0.1-1.7-0.2-2.5-0.3c-0.5-0.1-1-0.1-1.5-0.1c-0.9-0.1-1.8-0.1-2.8-0.2c-0.9,0-1.9-0.1-2.8-0.1
				c-1.1,0-2.1,0-3.2,0.1c-0.8,0-1.6,0-2.4,0.1c-1.1,0.1-2.2,0.2-3.3,0.3c-1.1,0.1-2.2,0.3-3.3,0.4c-1.2,0.2-2.5,0.4-3.7,0.7
				c-0.2,0-0.4,0.1-0.6,0.1C1165.2,586,1165.1,586,1165,586z M1181.2,582.7L1181.2,582.7c0.5,0,0.9,0,1.4,0c0.1,0,0.2,0,0.2,0
				c0.2,0,0.3-0.1,0.3-0.3c0-0.1,0-0.1,0-0.2c0-0.3-0.1-0.7-0.1-1c0-0.1,0-0.1-0.1-0.2c0-0.1-0.1-0.2-0.2-0.2c-0.1,0-0.1,0-0.2,0
				c-0.9,0-1.8,0-2.7,0c-0.3,0-0.4,0.1-0.5,0.4c-0.1,0.4-0.1,0.7-0.1,1.1c0,0.3,0.1,0.4,0.4,0.4c0.1,0,0.1,0,0.2,0
				C1180.3,582.7,1180.7,582.7,1181.2,582.7z M1185.3,581c-0.3,0-0.5,0.2-0.5,0.5c0,0.3,0.1,0.7,0.1,1c0,0.2,0.1,0.3,0.4,0.4
				c0.3,0,0.6,0.1,1,0.1c0.5,0.1,0.9,0.1,1.4,0.2c0.4,0,0.6-0.2,0.5-0.5c0,0,0-0.1,0-0.1c-0.1-0.3-0.2-0.5-0.3-0.8
				c-0.1-0.2-0.2-0.4-0.4-0.4c-0.5-0.1-1-0.2-1.5-0.2C1185.8,581.1,1185.5,581,1185.3,581z M1177.1,581c-0.2,0-0.5,0.1-0.7,0.1
				c-0.5,0.1-1,0.2-1.5,0.2c-0.2,0-0.3,0.1-0.4,0.3c-0.1,0.3-0.2,0.6-0.3,0.9c0,0.1,0,0.1,0,0.2c0,0.2,0.1,0.4,0.3,0.4
				c0.1,0,0.1,0,0.2,0c0.6-0.1,1.3-0.1,1.9-0.2c0.1,0,0.3,0,0.4,0c0.2,0,0.3-0.1,0.4-0.3c0.1-0.4,0.1-0.8,0.2-1.1
				C1177.5,581.2,1177.3,581,1177.1,581z M1170.1,584c0.1,0,0.1,0,0.2,0c0.4-0.1,0.8-0.2,1.1-0.3c0.1,0,0.2,0,0.3-0.1
				c0.1,0,0.2-0.1,0.2-0.2c0.1-0.3,0.2-0.7,0.3-1c0.1-0.3-0.2-0.5-0.5-0.4c-0.4,0.1-0.9,0.2-1.3,0.4c-0.2,0-0.3,0.2-0.4,0.3
				c-0.1,0.3-0.2,0.5-0.4,0.7c0,0.1,0,0.1-0.1,0.2C1169.7,583.8,1169.8,584,1170.1,584z M1192.6,583.6c0,0,0-0.1-0.1-0.2
				c-0.1-0.3-0.3-0.5-0.4-0.8c-0.1-0.2-0.2-0.2-0.4-0.3c-0.3-0.1-0.6-0.2-0.9-0.3c-0.1,0-0.3-0.1-0.4-0.1c-0.3-0.1-0.5,0.1-0.4,0.4
				c0,0,0,0.1,0,0.1c0.1,0.3,0.2,0.5,0.2,0.8c0.1,0.2,0.2,0.3,0.4,0.4c0.5,0.1,0.9,0.2,1.3,0.3c0.1,0,0.1,0,0.2,0
				C1192.5,584,1192.6,583.9,1192.6,583.6z M1195.1,584.7c0,0,0-0.1-0.1-0.1c-0.3-0.3-0.5-0.6-0.8-0.9c0,0,0,0-0.1,0
				c0,0-0.1,0-0.1,0c0,0-0.1,0.1-0.1,0.1c0.1,0.2,0.1,0.4,0.2,0.5C1194.3,584.6,1194.6,584.7,1195.1,584.7
				C1195,584.8,1195,584.7,1195.1,584.7z M1168.4,583.7c-0.1-0.1-0.2,0-0.2,0c-0.3,0.3-0.5,0.6-0.8,0.9c0,0,0,0.1-0.1,0.1
				c0,0,0,0.1,0,0.1c0,0,0.1,0.1,0.1,0.1c0.2-0.1,0.3-0.1,0.5-0.2c0.1,0,0.1-0.1,0.2-0.2C1168.2,584.2,1168.3,583.9,1168.4,583.7z"
				/>
		</g>
		<g>
			<path class="st0" d="M1193.2,602.3c0-0.1-0.1-0.1-0.1-0.2c-0.3-0.7-0.6-1.5-0.9-2.2c-0.1-0.3-0.3-0.5-0.5-0.7
				c-0.4-0.3-0.8-0.5-1.2-0.6c-0.8-0.3-1.6-0.5-2.5-0.7c-1-0.2-1.9-0.3-2.9-0.4c-0.4,0-0.9-0.1-1.3-0.1c-0.6,0-1.2-0.1-1.8-0.1
				c-1,0-2.1,0-3.1,0.1c-1,0-2.1,0.1-3.1,0.3c-0.9,0.1-1.8,0.3-2.7,0.6c-0.7,0.2-1.4,0.4-2.1,0.8c-0.1,0.1-0.2,0.1-0.3,0.2
				c-0.3,0.2-0.5,0.4-0.6,0.8c-0.3,0.7-0.6,1.4-0.8,2.2c0,0,0,0.1-0.1,0.1c0,0-0.1,0-0.1,0c-0.8-0.3-1.6-0.7-2.3-1.3
				c-0.3-0.2-0.5-0.4-0.7-0.7c-0.2-0.2-0.3-0.5-0.3-0.8c0-0.4,0.1-0.7,0.3-1c0.3-0.4,0.7-0.7,1.1-1c0.7-0.5,1.5-0.8,2.4-1.1
				c1.2-0.4,2.4-0.7,3.6-0.9c0.7-0.1,1.5-0.2,2.2-0.3c1.3-0.2,2.6-0.3,3.9-0.3c1.3,0,2.6,0,3.9,0c0.9,0,1.8,0.1,2.8,0.2
				c0.6,0,1.2,0.1,1.8,0.2c0.8,0.1,1.7,0.3,2.5,0.4c1,0.2,2,0.5,3,0.8c0.5,0.2,1.1,0.4,1.6,0.7c0.4,0.2,0.7,0.4,1,0.7
				c0.3,0.2,0.5,0.5,0.7,0.8c0.2,0.4,0.2,0.7,0,1.1c-0.1,0.3-0.4,0.6-0.7,0.9c-0.4,0.4-0.9,0.7-1.4,0.9c-0.3,0.2-0.7,0.3-1,0.5
				C1193.4,602.2,1193.3,602.2,1193.2,602.3z"/>
		</g>
		<g>
			<path class="st1" d="M1181.2,582.7c-0.5,0-0.9,0-1.4,0c-0.1,0-0.1,0-0.2,0c-0.3,0-0.4-0.1-0.4-0.4c0-0.4,0.1-0.7,0.1-1.1
				c0.1-0.3,0.2-0.4,0.5-0.4c0.9,0,1.8,0,2.7,0c0.1,0,0.1,0,0.2,0c0.1,0,0.2,0.1,0.2,0.2c0,0.1,0,0.1,0.1,0.2c0,0.3,0.1,0.7,0.1,1
				c0,0.1,0,0.1,0,0.2c0,0.2-0.1,0.3-0.3,0.3c-0.1,0-0.2,0-0.2,0C1182.1,582.7,1181.7,582.7,1181.2,582.7L1181.2,582.7z"/>
		</g>
		<g>
			<path class="st1" d="M1185.3,581c0.2,0,0.4,0.1,0.7,0.1c0.5,0.1,1,0.2,1.5,0.2c0.2,0,0.4,0.2,0.4,0.4c0.1,0.3,0.2,0.5,0.3,0.8
				c0,0,0,0.1,0,0.1c0.1,0.4-0.1,0.6-0.5,0.5c-0.5-0.1-0.9-0.1-1.4-0.2c-0.3,0-0.6-0.1-1-0.1c-0.3,0-0.4-0.1-0.4-0.4
				c-0.1-0.3-0.1-0.7-0.1-1C1184.8,581.2,1185,581,1185.3,581z"/>
		</g>
		<g>
			<path class="st1" d="M1177.1,581c0.3,0,0.4,0.2,0.4,0.4c0,0.4-0.1,0.8-0.2,1.1c0,0.2-0.1,0.3-0.4,0.3c-0.1,0-0.3,0-0.4,0
				c-0.6,0.1-1.3,0.1-1.9,0.2c-0.1,0-0.1,0-0.2,0c-0.2,0-0.4-0.2-0.3-0.4c0-0.1,0-0.1,0-0.2c0.1-0.3,0.2-0.6,0.3-0.9
				c0.1-0.2,0.2-0.3,0.4-0.3c0.5-0.1,1-0.2,1.5-0.2C1176.6,581.1,1176.8,581,1177.1,581z"/>
		</g>
		<g>
			<path class="st1" d="M1170.1,584c-0.3,0-0.4-0.2-0.4-0.4c0-0.1,0-0.1,0.1-0.2c0.1-0.2,0.2-0.5,0.4-0.7c0.1-0.2,0.2-0.3,0.4-0.3
				c0.4-0.1,0.9-0.3,1.3-0.4c0.3-0.1,0.5,0.1,0.5,0.4c-0.1,0.3-0.2,0.7-0.3,1c0,0.1-0.1,0.2-0.2,0.2c-0.1,0-0.2,0.1-0.3,0.1
				c-0.4,0.1-0.8,0.2-1.1,0.3C1170.3,584,1170.2,584,1170.1,584z"/>
		</g>
		<g>
			<path class="st1" d="M1192.6,583.6c0,0.2-0.1,0.4-0.4,0.4c-0.1,0-0.1,0-0.2,0c-0.4-0.1-0.9-0.2-1.3-0.3c-0.2,0-0.3-0.2-0.4-0.4
				c-0.1-0.3-0.2-0.5-0.2-0.8c0,0,0-0.1,0-0.1c0-0.3,0.2-0.5,0.4-0.4c0.1,0,0.3,0.1,0.4,0.1c0.3,0.1,0.6,0.2,0.9,0.3
				c0.2,0,0.3,0.1,0.4,0.3c0.1,0.3,0.3,0.5,0.4,0.8C1192.6,583.5,1192.6,583.6,1192.6,583.6z"/>
		</g>
		<g>
			<path class="st1" d="M1195.1,584.7C1195,584.7,1195,584.8,1195.1,584.7c-0.4,0-0.8-0.1-0.9-0.5c-0.1-0.2-0.1-0.3-0.2-0.5
				c0,0,0-0.1,0.1-0.1c0,0,0.1,0,0.1,0c0,0,0,0,0.1,0c0.3,0.3,0.5,0.6,0.8,0.9C1195,584.6,1195.1,584.7,1195.1,584.7z"/>
		</g>
		<g>
			<path class="st1" d="M1168.4,583.7c0,0.3-0.2,0.5-0.3,0.8c0,0.1-0.1,0.1-0.2,0.2c-0.2,0.1-0.3,0.1-0.5,0.2c0,0-0.1,0-0.1-0.1
				c0,0,0-0.1,0-0.1c0,0,0-0.1,0.1-0.1c0.3-0.3,0.5-0.6,0.8-0.9C1168.2,583.6,1168.3,583.6,1168.4,583.7z"/>
		</g>
	</g>
	<g>
		<path class="st2" d="M76.2,664.5c0,0-6.6,7.5-20.6,7.5c-18.5,0-30.9-13.7-30.9-30.8c0-17.3,12.4-30.9,30.9-30.9
			c14.1,0,20.6,7.5,20.6,7.5l-4.6,6.3c0,0-6.2-6.1-15.8-6.1c-13.4,0-22.7,10.3-22.7,23.2c0,12.8,9.3,23.1,22.7,23.1
			c9.9,0,15.8-6.1,15.8-6.1L76.2,664.5z"/>
		<path class="st2" d="M155,631.4c0,9.4-5.2,15.6-13.3,18.4v0.4L157,669v1.6h-9l-15.4-19.2h-18v19.2h-8.1v-59h24.7
			C145.9,611.5,155,618.5,155,631.4z M131,618.9h-16.4v25.2h17.2c8.7,0,14.8-3.9,14.8-12.5C146.5,623,140.4,618.9,131,618.9z"/>
		<path class="st2" d="M227.4,645h-31.1v18.2h35.8v7.4h-43.9v-59h43.9v7.4h-35.8v18.9h31.1V645z"/>
		<path class="st2" d="M284.8,611.5h1.7l29.4,59h-9.2l-4.8-9.6h-32.4l-4.8,9.6h-9.2L284.8,611.5z M286.1,627.5h-1l-11.5,25.3l-0.6,1
			h25.3l-0.6-1L286.1,627.5z"/>
		<path class="st2" d="M330.6,611.5h48.9v7.4h-20.5v51.7H351v-51.7h-20.4V611.5z"/>
		<path class="st2" d="M447.9,645h-31.1v18.2h35.8v7.4h-43.9v-59h43.9v7.4h-35.8v18.9h31.1V645z"/>
		<path class="st2" d="M505.4,670.6h-21.2v-59h21.2c18.8,0,31.4,11.6,31.4,29.5C536.8,659,524.2,670.6,505.4,670.6z M492.3,618.9
			v44.3h12.5c13.5,0,23.7-8.1,23.7-22.1s-10.2-22.1-23.7-22.1H492.3z"/>
		<path class="st2" d="M635.5,670.6h-27.7v-59h26.6c13.2,0,21.2,5.5,21.2,15.9c0,6.2-3.3,10.5-8.8,12.5v0.7
			c6.3,1.9,10.7,6.5,10.7,13.4C657.5,665.2,648.6,670.6,635.5,670.6z M634.2,618.9h-18.3v18.3h18.3c8,0,12.9-3.5,12.9-9.2
			C647.1,621.7,642.3,618.9,634.2,618.9z M615.9,644.3v18.9h19.9c7.4,0,13.3-3.2,13.3-9.6c0-5.8-5.4-9-12.5-9.2H615.9z"/>
		<path class="st2" d="M724.6,611.5h9.3l-22.7,36.4v22.6h-8.2V648l-22.6-36.5h9.4l15.4,25l1.7,3.6h0.6l1.8-3.6L724.6,611.5z"/>
		<path class="st2" d="M845,664.5c0,0-6.6,7.5-20.6,7.5c-18.5,0-30.9-13.7-30.9-30.8c0-17.3,12.4-30.9,30.9-30.9
			c14.1,0,20.6,7.5,20.6,7.5l-4.6,6.3c0,0-6.2-6.1-15.8-6.1c-13.4,0-22.7,10.3-22.7,23.2c0,12.8,9.3,23.1,22.7,23.1
			c9.9,0,15.8-6.1,15.8-6.1L845,664.5z"/>
		<path class="st2" d="M923.8,631.4c0,9.4-5.2,15.6-13.3,18.4v0.4l15.3,18.8v1.6h-9l-15.4-19.2h-18v19.2h-8.1v-59H900
			C914.7,611.5,923.8,618.5,923.8,631.4z M899.8,618.9h-16.4v25.2h17.2c8.7,0,14.8-3.9,14.8-12.5C915.3,623,909.2,618.9,899.8,618.9
			z"/>
		<path class="st2" d="M996.2,645h-31.1v18.2h35.8v7.4H957v-59h43.9v7.4h-35.8v18.9h31.1V645z"/>
		<path class="st2" d="M1053.6,611.5h1.7l29.4,59h-9.2l-4.8-9.6h-32.4l-4.8,9.6h-9.2L1053.6,611.5z M1054.9,627.5h-1l-11.5,25.3
			l-0.6,1h25.3l-0.6-1L1054.9,627.5z"/>
		<path class="st2" d="M1099.4,611.5h48.9v7.4h-20.5v51.7h-8.1v-51.7h-20.4V611.5z"/>
		<path class="st2" d="M1185.6,670.6h-8.1v-59h8.1V670.6z"/>
		<path class="st2" d="M1244,655.1l5.9-13.4l14.7-30.2h9.1l-29.2,59h-1.8l-29.2-59h9.1l15,30.2l5.7,13.4H1244z"/>
		<path class="st2" d="M1340.6,645h-31.1v18.2h35.8v7.4h-43.9v-59h43.9v7.4h-35.8v18.9h31.1V645z"/>
		<path class="st2" d="M1416.3,658.7c0,0,6.5,5.7,17.7,5.7c9.9,0,14.2-3.8,14.2-9.3c0-5-3.3-7.6-15.5-11c-14.2-4-20.6-8.4-20.6-17.5
			c0-10.1,8.3-16.2,22.1-16.2c14.8,0,21.3,5.7,21.3,5.7l-4.4,6.7c0,0-6-4.8-16.8-4.8c-8,0-13.6,3.1-13.6,8.6c0,4.4,3.6,6.7,15.5,9.9
			c15.4,4.2,20.7,9.4,20.7,18.4c0,9.7-6.9,17.2-22.7,17.2c-15.3,0-22.2-7.2-22.2-7.2L1416.3,658.7z"/>
		<path class="st2" d="M1488.4,611.5h24.8c14.8,0,23.7,7,23.7,19.9c0,13.4-9.6,20.6-24.2,20.6h-16.2v18.6h-8.1V611.5z M1512.9,618.9
			h-16.4v25.8h16.4c9.5,0,15.6-3.9,15.6-13.1C1528.5,623,1522.3,618.9,1512.9,618.9z"/>
		<path class="st2" d="M1583.8,611.5h1.7l29.4,59h-9.2l-4.8-9.6h-32.4l-4.8,9.6h-9.2L1583.8,611.5z M1585.1,627.5h-1l-11.5,25.3
			l-0.6,1h25.3l-0.6-1L1585.1,627.5z"/>
		<path class="st2" d="M1688,664.5c0,0-6.6,7.5-20.6,7.5c-18.5,0-30.9-13.7-30.9-30.8c0-17.3,12.4-30.9,30.9-30.9
			c14.1,0,20.6,7.5,20.6,7.5l-4.6,6.3c0,0-6.2-6.1-15.8-6.1c-13.4,0-22.7,10.3-22.7,23.2c0,12.8,9.3,23.1,22.7,23.1
			c9.9,0,15.8-6.1,15.8-6.1L1688,664.5z"/>
		<path class="st2" d="M1757.4,645h-31.1v18.2h35.8v7.4h-43.9v-59h43.9v7.4h-35.8v18.9h31.1V645z"/>
	</g>
</g>
</svg>
