<?xml version="1.0" encoding="utf-8"?>
<!-- Generator: Adobe Illustrator 16.0.0, SVG Export Plug-In . SVG Version: 6.00 Build 0)  -->
<!DOCTYPE svg PUBLIC "-//W3C//DTD SVG 1.1//EN" "http://www.w3.org/Graphics/SVG/1.1/DTD/svg11.dtd">
<svg version="1.1" id="Layer_1" xmlns="http://www.w3.org/2000/svg" xmlns:xlink="http://www.w3.org/1999/xlink" x="0px" y="0px"
	 width="48px" height="48px" viewBox="0 0 48 48" enable-background="new 0 0 48 48" xml:space="preserve">
<g>
	<g>
		<path fill-rule="evenodd" clip-rule="evenodd" fill="#FFFFFF" d="M18.012,20.867c0.005-0.021,0.017-0.037,0.029-0.052
			c0.019-0.025,0.042-0.047,0.064-0.067c0.039-0.032,0.08-0.06,0.122-0.083c0.069-0.038,0.142-0.069,0.217-0.095
			c0.064-0.022,0.129-0.041,0.196-0.057c0.042-0.01,0.083-0.02,0.126-0.028c0.034-0.007,0.067-0.012,0.102-0.018
			c0.03-0.005,0.062-0.01,0.093-0.014c0.029-0.004,0.059-0.008,0.088-0.011c0.032-0.003,0.065-0.005,0.099-0.008
			c0.027-0.002,0.054-0.004,0.081-0.006c0.024-0.001,0.05-0.002,0.075-0.002c0.092-0.003,0.182-0.004,0.272,0
			c0.037,0.001,0.073,0.004,0.109,0.005c0.021,0.001,0.042,0.002,0.065,0.005c0.023,0.001,0.047,0.003,0.069,0.006
			c0.028,0.003,0.056,0.006,0.083,0.01c0.02,0.002,0.041,0.005,0.063,0.009c0.062,0.009,0.125,0.021,0.187,0.033
			c0.079,0.016,0.154,0.036,0.23,0.06c0.077,0.025,0.153,0.053,0.226,0.091c0.057,0.029,0.112,0.062,0.16,0.103
			c0.034,0.028,0.063,0.059,0.085,0.095c0.003,0.007,0.008,0.014,0.011,0.021c0,0-0.001,0.002-0.001,0.004
			c-0.002-0.002-0.006-0.004-0.008-0.006c-0.037-0.036-0.08-0.064-0.124-0.09c-0.06-0.033-0.123-0.059-0.187-0.082
			c-0.052-0.018-0.107-0.034-0.161-0.047c-0.059-0.015-0.118-0.029-0.18-0.041c-0.042-0.007-0.084-0.013-0.128-0.02
			c-0.02-0.003-0.04-0.006-0.061-0.008c-0.003,0-0.007,0-0.009,0c-0.002,0-0.003,0.002-0.004,0.005c0,0.001,0.001,0.004,0.003,0.005
			c0.004,0.002,0.01,0.003,0.016,0.004c0.027,0.005,0.054,0.01,0.081,0.014c0.055,0.011,0.108,0.023,0.162,0.036
			c0.057,0.014,0.113,0.03,0.168,0.048c0.07,0.022,0.137,0.048,0.205,0.079c0.048,0.022,0.094,0.049,0.137,0.08
			c0.029,0.021,0.055,0.044,0.077,0.074c0.01,0.014,0.019,0.028,0.026,0.044c0.01,0.028,0.01,0.056-0.002,0.083
			c-0.017,0.04-0.04,0.073-0.07,0.103c-0.039,0.041-0.086,0.074-0.135,0.103c-0.05,0.03-0.103,0.055-0.158,0.077
			c-0.045,0.019-0.089,0.035-0.135,0.048c-0.042,0.012-0.083,0.025-0.125,0.035c-0.044,0.012-0.09,0.02-0.135,0.03
			c-0.008,0.001-0.014,0.002-0.02,0.003c-0.005-0.004-0.007-0.01-0.009-0.015c-0.02-0.052-0.04-0.104-0.06-0.156
			c-0.002-0.004-0.002-0.008-0.003-0.012c0.006-0.006,0.012-0.008,0.018-0.01c0.025-0.009,0.048-0.021,0.072-0.034
			c0.022-0.015,0.044-0.031,0.061-0.052c0.007-0.009,0.014-0.019,0.018-0.029c0.008-0.025,0.005-0.048-0.006-0.071
			c-0.013-0.022-0.029-0.038-0.048-0.053c-0.023-0.019-0.049-0.033-0.076-0.044c-0.053-0.025-0.106-0.042-0.161-0.056
			c-0.053-0.013-0.105-0.024-0.158-0.031c-0.039-0.005-0.077-0.011-0.116-0.014c-0.089-0.006-0.178-0.011-0.266-0.006
			c-0.033,0.002-0.064,0.003-0.095,0.005c-0.017,0.001-0.032,0.004-0.049,0.005c-0.058,0.006-0.116,0.015-0.173,0.026
			c-0.062,0.013-0.122,0.027-0.181,0.05c-0.042,0.016-0.083,0.035-0.119,0.062c-0.014,0.009-0.025,0.02-0.035,0.031
			c-0.015,0.016-0.025,0.033-0.029,0.053c-0.005,0.028,0.003,0.052,0.02,0.073c0.009,0.013,0.021,0.023,0.035,0.033
			c0.03,0.023,0.064,0.039,0.098,0.052c0.005,0.003,0.014,0.004,0.018,0.01c0,0.002,0,0.004-0.001,0.007
			c-0.022,0.057-0.045,0.113-0.067,0.169c0,0.003-0.002,0.005-0.003,0.007c-0.002,0-0.004,0-0.005,0
			c-0.064-0.012-0.126-0.025-0.188-0.043c-0.042-0.012-0.084-0.024-0.126-0.039c-0.081-0.026-0.159-0.059-0.232-0.099
			c-0.045-0.025-0.086-0.053-0.125-0.086c-0.033-0.027-0.061-0.058-0.084-0.095c-0.005-0.011-0.011-0.022-0.017-0.033
			c-0.018-0.037-0.014-0.072,0.005-0.107c0.009-0.018,0.023-0.035,0.037-0.05c0.025-0.027,0.055-0.049,0.086-0.07
			c0.047-0.03,0.096-0.055,0.147-0.077c0.081-0.035,0.164-0.064,0.249-0.087c0.068-0.019,0.136-0.036,0.206-0.05
			c0.04-0.008,0.08-0.015,0.12-0.022c0.006-0.002,0.01-0.003,0.016-0.004c0.002,0,0.004-0.003,0.004-0.005
			c0.001-0.004-0.001-0.006-0.005-0.006c-0.007,0-0.016,0-0.023,0.001c-0.044,0.006-0.087,0.012-0.131,0.02
			c-0.033,0.005-0.068,0.012-0.102,0.019c-0.089,0.018-0.177,0.042-0.264,0.07c-0.062,0.021-0.124,0.046-0.183,0.077
			c-0.044,0.022-0.086,0.048-0.123,0.081c-0.008,0.006-0.015,0.012-0.022,0.02C18.017,20.862,18.014,20.864,18.012,20.867z"/>
		<path fill-rule="evenodd" clip-rule="evenodd" fill="#FFFFFF" d="M18.659,20.467c-0.001-0.007,0.004-0.011,0.007-0.015
			c0.015-0.02,0.028-0.041,0.043-0.06c0.066-0.081,0.146-0.146,0.236-0.199c0.054-0.032,0.111-0.058,0.17-0.079
			c0.048-0.017,0.099-0.03,0.149-0.038c0.07-0.013,0.139-0.018,0.21-0.015c0.091,0.003,0.18,0.019,0.266,0.047
			c0.113,0.037,0.216,0.092,0.308,0.167c0.06,0.049,0.114,0.107,0.158,0.172c0.002,0.004,0.006,0.009,0.008,0.015
			c0.001,0,0,0.001,0,0.003c-0.003,0.004-0.006,0.001-0.01,0.001c-0.023-0.005-0.047-0.011-0.07-0.015
			c-0.038-0.007-0.077-0.015-0.115-0.021c-0.032-0.006-0.065-0.01-0.096-0.014c-0.04-0.005-0.08-0.009-0.119-0.013
			c-0.024-0.003-0.047-0.005-0.071-0.007c-0.044-0.003-0.088-0.006-0.134-0.007c-0.045-0.002-0.088-0.003-0.133-0.003
			c-0.051,0-0.103,0.001-0.154,0.002c-0.04,0.001-0.078,0.002-0.118,0.005c-0.052,0.003-0.104,0.008-0.156,0.013
			c-0.054,0.005-0.106,0.013-0.16,0.021c-0.059,0.009-0.118,0.02-0.177,0.033c-0.01,0.002-0.02,0.005-0.03,0.007
			C18.667,20.468,18.664,20.467,18.659,20.467z M19.437,20.31L19.437,20.31c0.024,0,0.046,0,0.069,0c0.004,0,0.007,0,0.011,0
			c0.008-0.001,0.014-0.006,0.015-0.014c0-0.002,0-0.005,0-0.008c-0.002-0.016-0.004-0.032-0.006-0.048
			c0-0.003-0.001-0.006-0.003-0.009c-0.001-0.006-0.005-0.009-0.011-0.011c-0.003-0.001-0.007-0.001-0.01-0.001
			c-0.043,0-0.086,0-0.129,0c-0.017,0-0.021,0.005-0.023,0.021c-0.003,0.017-0.006,0.034-0.007,0.051
			c-0.002,0.014,0.005,0.021,0.02,0.021c0.002,0,0.006,0,0.008,0C19.393,20.31,19.416,20.31,19.437,20.31z M19.637,20.227
			c-0.017-0.001-0.024,0.01-0.022,0.024c0.002,0.016,0.004,0.033,0.007,0.049c0.001,0.012,0.007,0.017,0.019,0.018
			c0.016,0.001,0.03,0.002,0.047,0.004c0.021,0.002,0.043,0.005,0.066,0.008c0.019,0.003,0.026-0.007,0.022-0.026
			c0-0.002-0.001-0.004-0.002-0.006c-0.004-0.012-0.009-0.025-0.014-0.038c-0.003-0.011-0.009-0.017-0.02-0.019
			c-0.025-0.003-0.048-0.007-0.072-0.011C19.657,20.229,19.647,20.228,19.637,20.227z M19.24,20.227
			c-0.011,0.001-0.022,0.003-0.034,0.004c-0.024,0.004-0.048,0.007-0.072,0.011c-0.01,0.001-0.016,0.006-0.02,0.016
			c-0.005,0.015-0.01,0.03-0.016,0.044c-0.001,0.003-0.002,0.006-0.002,0.01c-0.001,0.011,0.007,0.018,0.017,0.019
			c0.004,0,0.007,0,0.01-0.001c0.03-0.003,0.062-0.006,0.092-0.01c0.006-0.001,0.013-0.001,0.02-0.002
			c0.01-0.001,0.015-0.006,0.017-0.016c0.002-0.018,0.004-0.037,0.008-0.055C19.261,20.236,19.252,20.226,19.24,20.227z
			 M18.905,20.372c0.002,0,0.007-0.001,0.01-0.001c0.019-0.004,0.037-0.009,0.056-0.013c0.004-0.001,0.01-0.002,0.014-0.003
			c0.005-0.001,0.009-0.004,0.01-0.01c0.005-0.016,0.011-0.033,0.015-0.05c0.004-0.015-0.008-0.025-0.022-0.021
			c-0.022,0.005-0.042,0.012-0.063,0.018c-0.009,0.002-0.015,0.007-0.018,0.016c-0.006,0.012-0.013,0.024-0.018,0.036
			c-0.001,0.002-0.002,0.005-0.002,0.008C18.883,20.362,18.893,20.372,18.905,20.372z M19.988,20.353
			c0-0.002-0.001-0.005-0.002-0.009c-0.007-0.013-0.013-0.025-0.019-0.039c-0.003-0.007-0.01-0.012-0.018-0.014
			c-0.014-0.004-0.03-0.009-0.044-0.013c-0.007-0.001-0.013-0.004-0.019-0.005c-0.014-0.003-0.024,0.006-0.021,0.02
			c0,0.001,0,0.004,0.001,0.006c0.004,0.013,0.008,0.026,0.011,0.039c0.003,0.01,0.009,0.016,0.019,0.018
			c0.022,0.004,0.043,0.01,0.066,0.015c0.002,0.001,0.006,0.001,0.01,0.001C19.981,20.372,19.988,20.364,19.988,20.353z
			 M20.106,20.405c-0.001-0.002-0.002-0.005-0.003-0.007c-0.013-0.014-0.025-0.029-0.039-0.043c0-0.001-0.001-0.002-0.002-0.002
			c-0.001,0-0.003-0.002-0.004,0c-0.001,0.001-0.003,0.003-0.003,0.004c0.003,0.009,0.005,0.017,0.009,0.025
			c0.006,0.018,0.022,0.023,0.039,0.025C20.103,20.407,20.104,20.406,20.106,20.405z M18.821,20.354
			c-0.005-0.004-0.008-0.001-0.011,0.001c-0.013,0.014-0.025,0.027-0.037,0.041c-0.001,0.001-0.002,0.003-0.002,0.004
			c-0.001,0.001-0.001,0.004,0,0.004c0.001,0.001,0.004,0.004,0.005,0.002c0.009-0.002,0.017-0.005,0.024-0.009
			c0.003-0.002,0.006-0.005,0.009-0.008C18.814,20.378,18.819,20.367,18.821,20.354z"/>
		<path fill-rule="evenodd" clip-rule="evenodd" fill="#FFFFFF" d="M20.018,21.25c-0.002-0.003-0.004-0.005-0.004-0.008
			c-0.015-0.036-0.028-0.071-0.042-0.107c-0.004-0.013-0.015-0.023-0.027-0.031c-0.017-0.013-0.037-0.023-0.057-0.031
			c-0.039-0.015-0.079-0.026-0.121-0.034c-0.045-0.009-0.092-0.017-0.141-0.02c-0.021-0.002-0.042-0.004-0.064-0.006
			c-0.029-0.001-0.057-0.003-0.086-0.003c-0.051,0-0.101,0-0.151,0.002c-0.05,0.002-0.1,0.007-0.149,0.015
			c-0.045,0.007-0.088,0.015-0.132,0.027c-0.033,0.01-0.068,0.021-0.098,0.04c-0.005,0.003-0.012,0.007-0.017,0.011
			c-0.012,0.009-0.022,0.021-0.028,0.037c-0.012,0.035-0.026,0.07-0.04,0.105c-0.001,0.002-0.002,0.003-0.003,0.005
			c-0.002,0-0.005,0-0.006,0c-0.039-0.016-0.076-0.035-0.109-0.061c-0.013-0.01-0.024-0.021-0.033-0.035
			c-0.008-0.011-0.012-0.023-0.015-0.037c-0.001-0.018,0.005-0.034,0.016-0.049c0.013-0.021,0.033-0.034,0.054-0.047
			c0.035-0.022,0.073-0.038,0.114-0.051c0.057-0.02,0.115-0.032,0.175-0.042c0.036-0.006,0.071-0.011,0.107-0.015
			c0.063-0.007,0.126-0.012,0.19-0.014c0.062-0.001,0.125,0,0.186,0.001c0.044,0.001,0.089,0.006,0.134,0.009
			c0.028,0.002,0.056,0.005,0.085,0.009c0.04,0.005,0.081,0.012,0.12,0.021c0.049,0.01,0.097,0.022,0.144,0.04
			c0.025,0.009,0.05,0.02,0.075,0.033c0.017,0.009,0.032,0.021,0.048,0.033c0.013,0.012,0.023,0.025,0.031,0.042
			c0.008,0.017,0.008,0.035,0,0.053c-0.006,0.017-0.018,0.03-0.031,0.042c-0.02,0.019-0.043,0.033-0.068,0.045
			c-0.016,0.008-0.032,0.015-0.047,0.022C20.023,21.249,20.021,21.249,20.018,21.25z"/>
		<path fill-rule="evenodd" clip-rule="evenodd" d="M19.437,20.31c-0.021,0-0.044,0-0.067,0c-0.002,0-0.006,0-0.008,0
			c-0.015,0-0.022-0.007-0.02-0.021c0.001-0.017,0.004-0.035,0.007-0.051c0.002-0.016,0.007-0.021,0.023-0.021
			c0.043,0,0.086,0,0.129,0c0.003,0,0.007,0,0.01,0.001c0.005,0.002,0.01,0.005,0.011,0.011c0.001,0.003,0.003,0.006,0.003,0.009
			c0.002,0.017,0.004,0.032,0.006,0.048c0,0.002,0,0.005,0,0.008c-0.001,0.008-0.006,0.013-0.015,0.014c-0.004,0-0.007,0-0.011,0
			C19.483,20.31,19.461,20.31,19.437,20.31L19.437,20.31z"/>
		<path fill-rule="evenodd" clip-rule="evenodd" d="M19.637,20.227c0.01,0.001,0.021,0.002,0.032,0.004
			c0.023,0.004,0.047,0.007,0.072,0.011c0.011,0.002,0.017,0.008,0.02,0.019c0.004,0.013,0.009,0.025,0.014,0.038
			c0.001,0.002,0.002,0.004,0.002,0.006c0.004,0.019-0.003,0.029-0.022,0.026c-0.022-0.002-0.045-0.006-0.066-0.008
			c-0.017-0.002-0.031-0.003-0.047-0.004c-0.012-0.001-0.018-0.006-0.019-0.018c-0.002-0.016-0.004-0.033-0.007-0.049
			C19.613,20.237,19.62,20.226,19.637,20.227z"/>
		<path fill-rule="evenodd" clip-rule="evenodd" d="M19.24,20.227c0.012-0.001,0.021,0.01,0.02,0.021
			c-0.003,0.019-0.005,0.037-0.008,0.055c-0.002,0.01-0.007,0.014-0.017,0.016c-0.007,0-0.014,0.001-0.02,0.002
			c-0.03,0.003-0.062,0.007-0.092,0.01c-0.003,0-0.006,0.001-0.01,0.001c-0.01,0-0.018-0.008-0.017-0.019
			c0-0.003,0.001-0.007,0.002-0.01c0.006-0.015,0.01-0.029,0.016-0.044c0.004-0.01,0.009-0.015,0.02-0.016
			c0.024-0.004,0.048-0.007,0.072-0.011C19.217,20.229,19.229,20.228,19.24,20.227z"/>
		<path fill-rule="evenodd" clip-rule="evenodd" d="M18.905,20.372c-0.012,0-0.021-0.01-0.018-0.021
			c0-0.003,0.001-0.005,0.002-0.008c0.005-0.012,0.012-0.024,0.018-0.036c0.003-0.008,0.009-0.013,0.018-0.016
			c0.021-0.006,0.041-0.013,0.063-0.018c0.014-0.004,0.026,0.006,0.022,0.021c-0.003,0.017-0.009,0.034-0.015,0.05
			c-0.001,0.005-0.005,0.009-0.01,0.01c-0.004,0.001-0.01,0.002-0.014,0.003c-0.019,0.004-0.037,0.009-0.056,0.013
			C18.912,20.371,18.907,20.371,18.905,20.372z"/>
		<path fill-rule="evenodd" clip-rule="evenodd" d="M19.988,20.353c0,0.011-0.006,0.019-0.017,0.019c-0.004,0-0.008,0-0.01-0.001
			c-0.022-0.004-0.043-0.01-0.066-0.015c-0.01-0.002-0.016-0.008-0.019-0.018c-0.003-0.013-0.007-0.026-0.011-0.039
			c-0.001-0.002-0.001-0.004-0.001-0.006c-0.002-0.014,0.008-0.023,0.021-0.02c0.006,0.001,0.012,0.003,0.019,0.005
			c0.014,0.004,0.03,0.009,0.044,0.013c0.008,0.002,0.015,0.006,0.018,0.014c0.006,0.014,0.012,0.026,0.019,0.039
			C19.987,20.347,19.988,20.351,19.988,20.353z"/>
		<path fill-rule="evenodd" clip-rule="evenodd" d="M20.106,20.405c-0.002,0.001-0.003,0.002-0.004,0.002
			c-0.017-0.001-0.032-0.007-0.039-0.025c-0.004-0.008-0.006-0.017-0.009-0.025c0-0.001,0.002-0.003,0.003-0.004
			c0.001-0.001,0.003,0,0.004,0c0.001,0,0.002,0.001,0.002,0.002c0.013,0.014,0.025,0.029,0.039,0.043
			C20.104,20.4,20.105,20.403,20.106,20.405z"/>
		<path fill-rule="evenodd" clip-rule="evenodd" d="M18.821,20.354c-0.002,0.013-0.006,0.024-0.012,0.036
			c-0.003,0.003-0.006,0.006-0.009,0.008c-0.008,0.004-0.016,0.007-0.024,0.009c-0.001,0.001-0.004-0.001-0.005-0.002
			c-0.001,0-0.001-0.003,0-0.004c0-0.001,0.001-0.003,0.002-0.004c0.012-0.014,0.024-0.027,0.037-0.041
			C18.813,20.353,18.815,20.35,18.821,20.354z"/>
	</g>
	<g>
		<path fill="#FFFFFF" d="M3.379,24.139c0,0-0.294,0.337-0.911,0.337c-0.814,0-1.37-0.604-1.37-1.37c0-0.775,0.556-1.375,1.37-1.375
			c0.617,0,0.911,0.337,0.911,0.337l-0.176,0.237c0,0-0.275-0.285-0.73-0.285c-0.631,0-1.064,0.49-1.064,1.086
			c0,0.59,0.433,1.081,1.064,1.081c0.455,0,0.73-0.285,0.73-0.285L3.379,24.139z"/>
		<path fill="#FFFFFF" d="M4.968,21.788h1.073c0.657,0,1.051,0.307,1.051,0.876c0,0.433-0.246,0.714-0.617,0.823V23.5l0.691,0.84
			v0.074H6.833l-0.722-0.871H5.275v0.871H4.968V21.788z M6.037,22.072H5.275v1.186h0.802c0.406,0,0.7-0.183,0.7-0.586
			C6.777,22.265,6.483,22.072,6.037,22.072z"/>
		<path fill="#FFFFFF" d="M10.542,23.263H9.114v0.867h1.621v0.284H8.809v-2.627h1.926v0.285H9.114v0.906h1.428V23.263z"/>
		<path fill="#FFFFFF" d="M13.296,21.788h0.07l1.297,2.627h-0.351l-0.232-0.456h-1.493l-0.232,0.456h-0.346L13.296,21.788z
			 M13.35,22.409h-0.036l-0.556,1.217l-0.022,0.04h1.196l-0.022-0.04L13.35,22.409z"/>
		<path fill="#FFFFFF" d="M15.556,21.788h2.149v0.285h-0.923v2.342h-0.307v-2.342h-0.919V21.788z"/>
		<path fill="#FFFFFF" d="M19.549,24.415h-0.306v-2.627h0.306V24.415z"/>
		<path fill="#FFFFFF" d="M22.649,23.185l0.684-1.397h0.34l-1.287,2.627h-0.07l-1.286-2.627h0.341l0.696,1.397l0.271,0.639h0.031
			L22.649,23.185z"/>
		<path fill="#FFFFFF" d="M26.893,23.263h-1.427v0.867h1.618v0.284h-1.925v-2.627h1.925v0.285h-1.618v0.906h1.427V23.263z"/>
		<path fill="#FFFFFF" d="M30.7,23.933c0,0,0.271,0.254,0.793,0.254c0.485,0,0.697-0.184,0.697-0.451
			c0-0.245-0.163-0.368-0.735-0.53c-0.641-0.184-0.916-0.372-0.916-0.77c0-0.447,0.372-0.706,0.973-0.706
			c0.638,0,0.928,0.25,0.928,0.25l-0.167,0.253c0,0-0.266-0.214-0.761-0.214c-0.377,0-0.66,0.145-0.66,0.417
			c0,0.214,0.169,0.324,0.738,0.481c0.701,0.192,0.91,0.424,0.91,0.814c0,0.425-0.3,0.744-1.003,0.744
			c-0.664,0-0.962-0.31-0.962-0.31L30.7,23.933z"/>
		<path fill="#FFFFFF" d="M34.147,21.788h1.077c0.652,0,1.045,0.307,1.045,0.876c0,0.595-0.415,0.911-1.063,0.911h-0.753v0.84
			h-0.306V21.788z M35.215,22.072h-0.762v1.217h0.762c0.45,0,0.744-0.179,0.744-0.617C35.959,22.265,35.661,22.072,35.215,22.072z"
			/>
		<path fill="#FFFFFF" d="M38.587,21.788h0.07l1.295,2.627h-0.349l-0.233-0.456h-1.494l-0.229,0.456h-0.346L38.587,21.788z
			 M38.64,22.409h-0.036l-0.554,1.217l-0.022,0.04h1.196l-0.022-0.04L38.64,22.409z"/>
		<path fill="#FFFFFF" d="M43.439,24.139c0,0-0.294,0.337-0.912,0.337c-0.813,0-1.369-0.604-1.369-1.37
			c0-0.775,0.556-1.375,1.369-1.375c0.618,0,0.912,0.337,0.912,0.337l-0.177,0.237c0,0-0.274-0.285-0.731-0.285
			c-0.63,0-1.062,0.49-1.062,1.086c0,0.59,0.433,1.081,1.062,1.081c0.457,0,0.731-0.285,0.731-0.285L43.439,24.139z"/>
		<path fill="#FFFFFF" d="M46.762,23.263h-1.428v0.867h1.621v0.284h-1.927v-2.627h1.927v0.285h-1.621v0.906h1.428V23.263z"/>
	</g>
</g>
</svg>
