<?xml version="1.0" encoding="utf-8"?>
<!-- Generator: Adobe Illustrator 16.0.0, SVG Export Plug-In . SVG Version: 6.00 Build 0)  -->
<!DOCTYPE svg PUBLIC "-//W3C//DTD SVG 1.1//EN" "http://www.w3.org/Graphics/SVG/1.1/DTD/svg11.dtd">
<svg version="1.1" id="Capa_1" xmlns="http://www.w3.org/2000/svg" xmlns:xlink="http://www.w3.org/1999/xlink" x="0px" y="0px"
	 width="430.113px" height="430.114px" viewBox="0 0 430.113 430.114" enable-background="new 0 0 430.113 430.114"
	 xml:space="preserve">
<path fill="#FFFFFF" d="M10.935,383.049c0-112.631,0-225.263,0-337.895c0.249-0.584,0.606-1.146,0.73-1.756
	c1.977-9.721,6.883-17.627,14.453-24.018c5.818-4.914,12.744-7.289,19.882-9.291c112.631,0,225.263,0,337.895,0
	c0.195,0.17,0.373,0.455,0.591,0.49c20.443,3.316,34.797,22.077,34.693,44.377c-0.492,106.228-0.22,212.459-0.223,318.689
	c0,1.858,0.048,3.722-0.062,5.575c-0.683,11.429-5.471,20.852-13.882,28.555c-6.043,5.536-13.415,8.25-21.117,10.337
	c-112.632,0-225.263,0-337.895,0c-0.584-0.249-1.147-0.605-1.757-0.73c-9.72-1.977-17.626-6.883-24.018-14.451
	C15.312,397.113,12.935,390.187,10.935,383.049z M357.535,356.634c0.057-1.255,0.143-2.285,0.144-3.316
	c0.006-37.315,0.109-74.633-0.032-111.949c-0.096-24.88-10.613-44.765-30.796-58.969c-28.9-20.339-62.373-16.894-86.673,9.056
	c-1.464,1.562-2.725,3.313-4.08,4.978c-0.274-0.107-0.549-0.214-0.824-0.321c0-7.493,0-14.986,0-22.456c-20.578,0-40.69,0-60.78,0
	c0,61.162,0,122.038,0,182.878c20.378,0,40.474,0,60.898,0c0-1.877,0-3.449,0-5.021c0-32.935-0.007-65.868,0.015-98.803
	c0.001-2.52,0.087-5.049,0.317-7.557c1.623-17.71,21.277-30.901,38.17-25.655c14.224,4.417,22.568,15.911,22.594,31.464
	c0.056,33.599,0.018,67.196,0.019,100.795c0,1.559,0,3.117,0,4.878C316.987,356.634,337,356.634,357.535,356.634z M133.127,356.661
	c0-61.2,0-122.075,0-183.041c-20.369,0-40.479,0-60.683,0c0,61.121,0,121.991,0,183.041
	C92.687,356.661,112.694,356.661,133.127,356.661z M139.344,101.727c-0.134-20.322-16.873-36.917-36.87-36.549
	c-20.232,0.374-36.395,16.631-36.455,36.673c-0.061,20.152,16.528,36.688,36.773,36.653
	C123.131,138.468,139.477,122.022,139.344,101.727z"/>
</svg>
