<?xml version="1.0" encoding="utf-8"?>
<!-- Generator: Adobe Illustrator 16.0.0, SVG Export Plug-In . SVG Version: 6.00 Build 0)  -->
<!DOCTYPE svg PUBLIC "-//W3C//DTD SVG 1.1//EN" "http://www.w3.org/Graphics/SVG/1.1/DTD/svg11.dtd">
<svg version="1.1" id="Layer_1" xmlns="http://www.w3.org/2000/svg" xmlns:xlink="http://www.w3.org/1999/xlink" x="0px" y="0px"
	 width="48px" height="48px" viewBox="0 0 48 48" enable-background="new 0 0 48 48" xml:space="preserve">
<g>
	<path fill="#FFFFFF" d="M30.271,29.209c-0.188-0.01-0.301,0.508-0.352,1.368l0.03-0.205c0.011-0.063,0.079-0.101,0.153-0.089
		c0.073,0.015,0.127,0.077,0.117,0.14l-0.039,0.261c-0.01,0.061-0.078,0.101-0.152,0.085c-0.061-0.011-0.104-0.054-0.113-0.103
		c-0.008,0.134-0.013,0.276-0.018,0.426c0.021-0.013,0.052-0.02,0.082-0.017c0.076,0.01,0.131,0.067,0.127,0.133l-0.023,0.258
		c-0.006,0.062-0.07,0.108-0.146,0.1c-0.018-0.003-0.034-0.008-0.047-0.016c-0.001,0.127-0.003,0.259-0.001,0.393
		c0.009-0.001,0.021-0.002,0.028-0.002c0.078,0.009,0.131,0.065,0.127,0.131l-0.021,0.259c-0.006,0.06-0.062,0.101-0.131,0.098
		c0.014,0.997,0.068,2.157,0.154,3.393c0.253,3.614,0.756,6.263,1.177,6.655c0.222,0.203,0.701-2.971,0.452-6.585
		C31.42,32.277,30.721,29.229,30.271,29.209z M30.585,30.441c0.062-0.017,0.119,0.01,0.129,0.062l0.043,0.205
		c0.01,0.051-0.029,0.104-0.092,0.119c-0.057,0.016-0.113-0.012-0.123-0.063l-0.045-0.205
		C30.484,30.509,30.523,30.456,30.585,30.441z M30.882,31.276l0.04,0.206c0.009,0.05-0.032,0.103-0.093,0.118
		c-0.059,0.015-0.117-0.016-0.125-0.067l-0.039-0.205c-0.01-0.052,0.029-0.104,0.09-0.117C30.813,31.195,30.87,31.225,30.882,31.276
		z M31.362,41.618l-0.015,0.179c-0.003,0.043-0.046,0.076-0.099,0.074c-0.055-0.004-0.091-0.042-0.088-0.087l0.013-0.18
		c0.003-0.045,0.048-0.079,0.103-0.072C31.327,41.535,31.366,41.573,31.362,41.618z M31.466,40.787l-0.016,0.192
		c0,0.046-0.049,0.081-0.103,0.077c-0.058-0.004-0.098-0.043-0.093-0.089l0.012-0.191c0.002-0.048,0.051-0.081,0.104-0.077
		C31.427,40.703,31.469,40.742,31.466,40.787z M31.523,39.868l-0.013,0.213c-0.003,0.058-0.059,0.101-0.123,0.098
		c-0.062-0.003-0.111-0.048-0.111-0.101l0.014-0.227c0.002-0.055,0.056-0.094,0.12-0.091C31.476,39.761,31.526,39.81,31.523,39.868z
		 M31.55,39.195c0.002,0.062-0.061,0.117-0.137,0.118c-0.077,0-0.137-0.048-0.137-0.112l-0.002-0.262
		c0-0.065,0.063-0.116,0.136-0.118c0.076-0.002,0.137,0.049,0.139,0.111L31.55,39.195z M31.567,38.232c0,0.07-0.068,0.13-0.15,0.133
		c-0.082,0.001-0.152-0.053-0.152-0.123l-0.002-0.291c-0.001-0.071,0.064-0.129,0.15-0.134c0.08-0.002,0.15,0.054,0.15,0.124
		L31.567,38.232z M31.569,37.229c0,0.068-0.064,0.129-0.152,0.134c-0.085,0.004-0.15-0.05-0.152-0.122l-0.006-0.291
		c-0.004-0.07,0.064-0.129,0.146-0.133c0.086-0.006,0.151,0.05,0.154,0.121L31.569,37.229z M31.549,36.23
		c0.003,0.069-0.065,0.131-0.15,0.138c-0.081,0.005-0.153-0.047-0.153-0.117l-0.014-0.29c-0.002-0.072,0.061-0.133,0.146-0.141
		c0.083-0.004,0.155,0.049,0.156,0.117L31.549,36.23z M31.458,35.273c0.005,0.063-0.057,0.119-0.131,0.124
		c-0.076,0.006-0.139-0.039-0.141-0.1l-0.02-0.263c-0.002-0.063,0.056-0.119,0.133-0.126c0.075-0.006,0.139,0.04,0.141,0.104
		L31.458,35.273z M31.368,34.301c0.004,0.063-0.053,0.12-0.129,0.127c-0.076,0.009-0.14-0.038-0.144-0.1l-0.02-0.261
		c-0.002-0.062,0.054-0.121,0.13-0.129c0.076-0.007,0.137,0.035,0.142,0.099L31.368,34.301z M31.249,33.323
		c0.008,0.063-0.049,0.123-0.123,0.135c-0.074,0.011-0.141-0.032-0.148-0.094l-0.03-0.26c-0.01-0.061,0.046-0.12,0.122-0.134
		c0.072-0.012,0.141,0.031,0.146,0.095L31.249,33.323z M30.993,32.508c-0.074,0.019-0.144-0.019-0.154-0.081l-0.047-0.258
		c-0.012-0.062,0.039-0.125,0.113-0.142c0.072-0.016,0.144,0.02,0.153,0.08l0.048,0.257C31.118,32.429,31.063,32.489,30.993,32.508z
		"/>
	<polygon fill="#FFFFFF" points="13.689,8.583 15.01,7.701 15.048,6.091 16.282,7.101 17.796,6.639 17.237,8.147 18.138,9.475 
		16.558,9.394 15.598,10.674 15.183,9.119 	"/>
	<polygon fill="#FFFFFF" points="19.858,3.54 20.69,4.415 21.887,4.212 21.307,5.291 21.852,6.373 20.663,6.165 19.802,7.04 
		19.649,5.83 18.573,5.289 19.666,4.749 	"/>
	<polygon fill="#FFFFFF" points="25.086,2.729 25.271,3.624 26.123,3.969 25.32,4.433 25.241,5.347 24.558,4.739 23.656,4.96 
		24.038,4.119 23.562,3.344 24.479,3.431 	"/>
	<polygon fill="#FFFFFF" points="28.485,3.086 28.626,3.757 29.264,4.015 28.662,4.362 28.604,5.047 28.091,4.593 27.415,4.758 
		27.701,4.128 27.344,3.547 28.032,3.612 	"/>
	<g>
		<path fill="#FFFFFF" d="M13.226,16.373h0.137c-0.062,0.241-0.133,0.44-0.209,0.6c-0.076,0.159-0.181,0.326-0.316,0.498
			c-0.534,0.674-1.247,1.011-2.14,1.01c-0.562,0-1.085-0.135-1.573-0.405c-0.484-0.269-0.87-0.631-1.156-1.086
			c-0.286-0.456-0.428-0.946-0.428-1.474c0-0.312,0.057-0.624,0.169-0.932c0.115-0.31,0.281-0.598,0.498-0.867
			c0.216-0.268,0.468-0.498,0.755-0.689c0.434-0.291,0.933-0.437,1.502-0.436c0.188,0,0.367,0.018,0.537,0.051
			c0.169,0.034,0.33,0.089,0.481,0.163c0.15,0.075,0.306,0.173,0.466,0.294c0.178,0.127,0.31,0.19,0.395,0.19
			c0.187,0.001,0.42-0.199,0.702-0.598h0.139l0.11,2.721h-0.13c-0.044-0.197-0.086-0.357-0.128-0.482
			c-0.039-0.124-0.094-0.253-0.163-0.389c-0.181-0.38-0.395-0.708-0.641-0.98c-0.246-0.273-0.517-0.481-0.806-0.625
			c-0.292-0.144-0.592-0.215-0.899-0.216c-0.368,0-0.667,0.101-0.898,0.301c-0.232,0.201-0.404,0.514-0.516,0.938
			C9,14.386,8.944,14.926,8.943,15.583c0,0.378,0.019,0.712,0.058,1.004c0.039,0.292,0.1,0.538,0.184,0.739
			c0.081,0.201,0.186,0.37,0.311,0.504c0.156,0.163,0.344,0.287,0.566,0.372c0.221,0.085,0.463,0.128,0.726,0.129
			c0.245,0,0.479-0.032,0.703-0.097c0.224-0.064,0.435-0.161,0.63-0.29c0.196-0.127,0.376-0.286,0.539-0.476
			c0.131-0.155,0.239-0.313,0.319-0.47C13.063,16.84,13.144,16.632,13.226,16.373z"/>
		<path fill="#FFFFFF" d="M13.823,18.208h0.154c0.338,0,0.59-0.084,0.756-0.253c0.164-0.168,0.247-0.427,0.247-0.774
			c0.021-0.146,0.038-0.275,0.048-0.387c0.014-0.112,0.021-0.24,0.024-0.384c0.001-0.145,0.003-0.327,0-0.545
			c-0.01-0.923-0.035-1.619-0.076-2.085c-0.016-0.189-0.045-0.336-0.088-0.442c-0.043-0.105-0.109-0.192-0.195-0.263
			c-0.157-0.144-0.395-0.215-0.709-0.216h-0.154v-0.15l3.467,0.003v0.151h-0.152c-0.338-0.001-0.59,0.083-0.753,0.25
			s-0.245,0.426-0.245,0.777l-0.004,3.293c0,0.347,0.081,0.606,0.246,0.775c0.164,0.168,0.415,0.253,0.749,0.253h0.154v0.158
			l-3.468-0.003V18.208z"/>
		<path fill="#FFFFFF" d="M7.275,20.31l2.211,0.002l3.824,4.078l0.001-2.437c0.001-0.297-0.048-0.558-0.147-0.781
			c-0.098-0.222-0.239-0.392-0.426-0.508c-0.101-0.064-0.2-0.111-0.301-0.138c-0.103-0.027-0.243-0.048-0.424-0.062v-0.149
			l2.728,0.002v0.149h-0.057c-0.396,0-0.697,0.129-0.905,0.388c-0.208,0.259-0.312,0.636-0.314,1.13L13.46,26.03h-0.13l-4.747-5.023
			l-0.002,3.362c-0.001,0.326,0.038,0.587,0.113,0.783c0.075,0.195,0.2,0.35,0.37,0.46c0.139,0.087,0.308,0.142,0.508,0.166
			c0.109,0.02,0.268,0.033,0.472,0.042v0.148l-2.873-0.003v-0.149c0.294-0.015,0.534-0.068,0.719-0.158
			c0.186-0.091,0.323-0.225,0.411-0.403c0.087-0.178,0.133-0.399,0.133-0.664l0.003-3.199c0-0.197-0.043-0.364-0.129-0.502
			c-0.083-0.137-0.207-0.244-0.37-0.318c-0.163-0.074-0.36-0.112-0.591-0.112H7.275V20.31z"/>
		<path fill="#FFFFFF" d="M14.638,20.317l5.856,0.005l-0.002,2.191h-0.119c-0.108-0.383-0.206-0.67-0.289-0.86
			c-0.085-0.19-0.196-0.371-0.332-0.541c-0.166-0.203-0.346-0.348-0.54-0.434c-0.324-0.138-0.714-0.207-1.177-0.208l-1.083-0.001
			l-0.004,2.689h0.292c0.433,0,0.777-0.191,1.034-0.574c0.129-0.197,0.229-0.432,0.292-0.704c0.033-0.116,0.061-0.288,0.087-0.515
			l0.138,0l-0.002,3.709h-0.139c-0.03-0.199-0.068-0.388-0.112-0.565c-0.042-0.178-0.092-0.32-0.144-0.432
			c-0.054-0.111-0.123-0.222-0.208-0.332c-0.234-0.3-0.57-0.45-1.006-0.45h-0.229l-0.003,2.53h0.906c0.269,0,0.51-0.019,0.725-0.058
			c0.212-0.039,0.405-0.098,0.578-0.181c0.169-0.083,0.33-0.189,0.48-0.323c0.257-0.223,0.457-0.502,0.6-0.836
			c0.081-0.191,0.167-0.45,0.258-0.777h0.144l-0.002,2.329l-5.994-0.007l-0.009-0.149h0.151c0.667,0,1.001-0.345,1.001-1.036
			l0.004-3.292c0-0.351-0.081-0.609-0.244-0.777c-0.162-0.167-0.414-0.251-0.755-0.251l-0.15-0.001V20.317z"/>
		<path fill="#FFFFFF" d="M7.131,27.667l2.301,0.002l2.069,4.332l2.062-4.327l2.171,0.002v0.149h-0.201
			c-0.339,0-0.592,0.084-0.756,0.252c-0.164,0.169-0.246,0.427-0.247,0.776l-0.003,3.292c0,0.345,0.082,0.604,0.248,0.772
			c0.164,0.171,0.417,0.256,0.753,0.258h0.201v0.157l-3.56-0.004v-0.157h0.236c0.337,0,0.587-0.084,0.751-0.253
			c0.166-0.168,0.247-0.427,0.248-0.775l0.003-3.847h-0.016l-2.37,5.032h-0.133l-2.388-5.021H8.486l-0.003,3.648
			c0,0.253,0.046,0.469,0.14,0.645c0.095,0.178,0.233,0.315,0.417,0.411s0.408,0.148,0.67,0.156v0.157l-2.585-0.002v-0.158
			l0.055,0.001c0.354,0,0.632-0.107,0.835-0.32c0.202-0.213,0.304-0.502,0.304-0.867l0.004-3.133c0-0.352-0.081-0.611-0.243-0.777
			c-0.165-0.169-0.417-0.252-0.758-0.253H7.131V27.667z"/>
		<path fill="#FFFFFF" d="M18.907,27.565l0.146,0.001l2.208,4.95c0.071,0.155,0.15,0.281,0.237,0.382
			c0.089,0.101,0.188,0.172,0.298,0.216c0.111,0.046,0.24,0.067,0.389,0.067h0.147v0.158l-3.196-0.003v-0.158h0.418
			c0.208,0.001,0.359-0.028,0.456-0.086c0.095-0.058,0.145-0.147,0.145-0.269c0-0.075-0.02-0.168-0.057-0.275
			c-0.038-0.109-0.121-0.305-0.25-0.588c-0.007-0.018-0.019-0.044-0.037-0.082c-0.015-0.036-0.032-0.074-0.051-0.108l-0.09-0.206
			l-2.332-0.003l-0.178,0.421c-0.058,0.143-0.088,0.287-0.088,0.434c0,0.123,0.035,0.246,0.101,0.368
			c0.067,0.121,0.155,0.213,0.262,0.275c0.072,0.043,0.135,0.072,0.19,0.087c0.058,0.017,0.137,0.025,0.244,0.031v0.158
			l-2.243-0.003v-0.157c0.163-0.02,0.292-0.05,0.388-0.09c0.095-0.039,0.204-0.106,0.322-0.201c0.279-0.221,0.552-0.639,0.817-1.25
			L18.907,27.565z M18.487,28.89l-1.083,2.521l2.188,0.004L18.487,28.89z"/>
		<path fill="#FFFFFF" d="M11.833,38.754l-0.396,2.174l-4.174-0.005c0.017-0.263,0.158-0.557,0.423-0.877
			c0.237-0.278,0.69-0.665,1.364-1.16c0.372-0.282,0.596-0.458,0.679-0.53c0.015-0.016,0.034-0.035,0.055-0.054
			c0.021-0.021,0.045-0.047,0.071-0.073c0.21-0.223,0.361-0.445,0.454-0.666c0.091-0.222,0.138-0.471,0.138-0.749
			c0.001-0.476-0.113-0.84-0.339-1.094s-0.55-0.383-0.967-0.383c-0.315,0-0.606,0.066-0.871,0.198
			c-0.267,0.133-0.475,0.311-0.626,0.538c-0.153,0.226-0.229,0.475-0.23,0.745c-0.001,0.294,0.064,0.441,0.191,0.441
			c0.052,0,0.083-0.041,0.092-0.118c0.01-0.064,0.028-0.13,0.055-0.198c0.071-0.166,0.161-0.289,0.271-0.365
			c0.108-0.078,0.245-0.115,0.409-0.115c0.133,0,0.252,0.03,0.359,0.089c0.107,0.061,0.189,0.144,0.247,0.254
			c0.058,0.109,0.087,0.229,0.087,0.362c-0.001,0.15-0.039,0.287-0.114,0.411c-0.074,0.122-0.175,0.219-0.304,0.289
			c-0.126,0.07-0.271,0.105-0.43,0.105c-0.298,0-0.542-0.107-0.732-0.318c-0.19-0.21-0.285-0.479-0.285-0.805
			c0.001-0.197,0.039-0.392,0.112-0.581c0.075-0.19,0.184-0.359,0.327-0.505c0.383-0.401,0.975-0.603,1.773-0.602
			c0.332,0.001,0.637,0.043,0.918,0.126c0.281,0.082,0.522,0.2,0.724,0.354c0.202,0.153,0.356,0.335,0.464,0.543
			s0.162,0.433,0.162,0.677c0,0.354-0.12,0.669-0.359,0.948c-0.1,0.123-0.216,0.233-0.347,0.33c-0.252,0.171-0.63,0.362-1.135,0.578
			c-0.707,0.305-1.203,0.568-1.486,0.795c-0.066,0.05-0.192,0.161-0.379,0.333l2.573,0.003c0.238,0,0.421-0.022,0.546-0.066
			c0.125-0.045,0.223-0.125,0.293-0.24c0.071-0.117,0.133-0.291,0.185-0.522l0.055-0.268H11.833z"/>
		<path fill="#FFFFFF" d="M16.57,38.759l-0.396,2.175L12,40.929c0.016-0.265,0.157-0.556,0.423-0.879
			c0.236-0.276,0.69-0.663,1.364-1.16c0.371-0.28,0.596-0.457,0.678-0.529c0.016-0.018,0.034-0.034,0.055-0.055
			c0.021-0.021,0.044-0.044,0.072-0.07c0.209-0.224,0.361-0.447,0.455-0.668c0.09-0.221,0.137-0.472,0.137-0.749
			c0.001-0.476-0.112-0.84-0.34-1.094c-0.227-0.254-0.549-0.381-0.967-0.382c-0.315,0-0.605,0.065-0.87,0.197
			c-0.266,0.132-0.476,0.312-0.628,0.539c-0.151,0.226-0.229,0.475-0.229,0.744c0,0.295,0.063,0.441,0.193,0.441
			c0.052,0,0.083-0.039,0.092-0.117c0.01-0.065,0.027-0.131,0.054-0.198c0.071-0.168,0.162-0.29,0.272-0.366
			c0.107-0.077,0.243-0.115,0.408-0.115c0.133,0.001,0.253,0.028,0.36,0.09c0.107,0.06,0.189,0.144,0.247,0.253
			c0.057,0.109,0.085,0.23,0.085,0.363c0,0.15-0.037,0.288-0.113,0.409c-0.075,0.123-0.175,0.221-0.303,0.29
			c-0.127,0.07-0.271,0.105-0.432,0.105c-0.296-0.002-0.541-0.106-0.731-0.317c-0.191-0.211-0.286-0.479-0.286-0.806
			c0-0.197,0.04-0.391,0.114-0.581c0.075-0.19,0.184-0.358,0.325-0.504c0.385-0.401,0.975-0.603,1.774-0.602
			c0.33,0,0.637,0.041,0.919,0.124c0.28,0.083,0.522,0.201,0.723,0.355c0.203,0.154,0.358,0.335,0.466,0.542
			c0.106,0.209,0.162,0.435,0.162,0.678c0,0.354-0.121,0.669-0.361,0.947c-0.099,0.124-0.215,0.235-0.347,0.331
			c-0.252,0.17-0.63,0.363-1.135,0.578c-0.708,0.304-1.203,0.569-1.487,0.797c-0.065,0.048-0.191,0.158-0.379,0.33l2.575,0.003
			c0.239,0.002,0.421-0.021,0.544-0.066c0.126-0.044,0.224-0.124,0.294-0.24c0.072-0.115,0.135-0.289,0.186-0.521l0.055-0.268H16.57
			z"/>
		<path fill="#FFFFFF" d="M18.113,37.367l-0.002,0.847h0.017c0.317-0.512,0.784-0.769,1.4-0.769c0.345,0.002,0.662,0.078,0.95,0.229
			c0.287,0.152,0.515,0.36,0.682,0.624c0.168,0.266,0.253,0.556,0.252,0.875c0,0.348-0.093,0.666-0.283,0.954
			c-0.188,0.289-0.447,0.514-0.778,0.676c-0.328,0.162-0.695,0.243-1.097,0.243c-0.328,0-0.629-0.058-0.904-0.17
			c-0.275-0.112-0.518-0.275-0.734-0.489c-0.172-0.175-0.318-0.381-0.439-0.618c-0.122-0.235-0.214-0.493-0.279-0.771
			c-0.063-0.279-0.096-0.567-0.096-0.867c0-0.435,0.069-0.837,0.205-1.207c0.136-0.369,0.338-0.688,0.605-0.959
			c0.245-0.25,0.531-0.445,0.861-0.583c0.328-0.14,0.665-0.208,1.011-0.208c0.294,0,0.563,0.056,0.805,0.166
			c0.244,0.111,0.437,0.264,0.581,0.456c0.142,0.193,0.214,0.405,0.214,0.631c-0.002,0.185-0.061,0.339-0.178,0.466
			c-0.119,0.126-0.268,0.189-0.446,0.188c-0.184,0-0.336-0.058-0.458-0.174c-0.12-0.115-0.179-0.263-0.179-0.441
			c0-0.13,0.029-0.238,0.091-0.329c0.062-0.088,0.162-0.168,0.297-0.241c0.125-0.07,0.188-0.135,0.188-0.19
			c0-0.064-0.042-0.126-0.125-0.187c-0.083-0.06-0.191-0.108-0.325-0.145c-0.136-0.035-0.284-0.055-0.44-0.055
			c-0.47,0-0.822,0.167-1.051,0.503C18.229,36.159,18.113,36.675,18.113,37.367z M18.11,38.964v0.513
			c0,0.312,0.04,0.573,0.122,0.785c0.081,0.212,0.203,0.372,0.364,0.48c0.161,0.107,0.354,0.162,0.582,0.162
			c0.352,0,0.603-0.135,0.756-0.408c0.058-0.086,0.101-0.198,0.13-0.34c0.042-0.194,0.063-0.554,0.065-1.077
			c0-0.325-0.022-0.578-0.067-0.762c-0.043-0.183-0.121-0.333-0.233-0.449c-0.133-0.144-0.324-0.215-0.571-0.215
			c-0.225,0-0.424,0.054-0.597,0.164c-0.176,0.111-0.309,0.265-0.407,0.463C18.16,38.479,18.111,38.707,18.11,38.964z"/>
	</g>
	<g>
		<circle fill="#FFFFFF" cx="7.842" cy="43.035" r="0.524"/>
		<circle fill="#FFFFFF" cx="10.039" cy="43.035" r="0.524"/>
		<circle fill="#FFFFFF" cx="12.279" cy="43.035" r="0.525"/>
		<circle fill="#FFFFFF" cx="14.475" cy="43.035" r="0.525"/>
		<circle fill="#FFFFFF" cx="16.673" cy="43.035" r="0.525"/>
		<circle fill="#FFFFFF" cx="18.913" cy="43.035" r="0.525"/>
		<circle fill="#FFFFFF" cx="21.109" cy="43.035" r="0.525"/>
	</g>
	<path fill="#FFFFFF" d="M34.243,28.752c-2.189-0.748-4.078-0.504-4.13,0.294c-0.053,0.801,1.755,1.853,3.944,2.603
		c2.184,0.748,3.82,0.725,4.092,0.097C38.292,31.418,36.433,29.5,34.243,28.752z M31.2,29.965c-0.023,0.036-0.066,0.051-0.094,0.03
		l-0.113-0.086c-0.023-0.021-0.025-0.068-0.002-0.106c0.023-0.037,0.064-0.05,0.092-0.03l0.111,0.087
		C31.22,29.879,31.223,29.926,31.2,29.965z M31.694,30.27c-0.021,0.044-0.062,0.064-0.095,0.045l-0.124-0.073
		c-0.031-0.017-0.04-0.065-0.02-0.11c0.02-0.042,0.062-0.062,0.093-0.043l0.128,0.074C31.706,30.181,31.712,30.228,31.694,30.27z
		 M32.236,30.587c-0.017,0.043-0.058,0.066-0.092,0.051l-0.128-0.067c-0.03-0.015-0.043-0.064-0.025-0.107
		c0.021-0.045,0.061-0.067,0.093-0.053l0.13,0.069C32.243,30.494,32.255,30.542,32.236,30.587z M32.849,30.875
		c-0.021,0.045-0.066,0.071-0.102,0.053l-0.145-0.073c-0.035-0.019-0.045-0.074-0.025-0.121c0.021-0.049,0.066-0.073,0.1-0.055
		l0.145,0.076C32.856,30.771,32.868,30.826,32.849,30.875z M33.405,31.073c-0.016,0.05-0.059,0.078-0.094,0.063l-0.148-0.062
		c-0.037-0.013-0.055-0.065-0.035-0.114c0.016-0.053,0.059-0.08,0.096-0.066l0.148,0.062C33.409,30.97,33.423,31.023,33.405,31.073z
		 M37.329,32.053l-0.135,0.013c-0.035,0.004-0.062-0.03-0.07-0.075c-0.002-0.045,0.02-0.088,0.053-0.089l0.139-0.011
		c0.033-0.006,0.061,0.028,0.066,0.074C37.384,32.011,37.364,32.051,37.329,32.053z M37.884,31.864l-0.127,0.069
		c-0.031,0.02-0.074-0.004-0.096-0.043c-0.02-0.045-0.01-0.091,0.02-0.109l0.129-0.07c0.031-0.02,0.072,0.003,0.094,0.044
		C37.923,31.798,37.917,31.849,37.884,31.864z"/>
	<path fill="#FFFFFF" d="M25.26,14.624c-2.773-1.487-5.539-2.584-5.671-2.015c-0.155,0.66,1.475,2.002,4.25,3.491
		c2.771,1.488,5.336,2.367,5.729,1.957C29.96,17.652,28.031,16.113,25.26,14.624z M20.161,13.331
		c-0.048,0.044-0.109,0.049-0.142,0.007l-0.132-0.153c-0.033-0.039-0.022-0.104,0.023-0.148c0.047-0.043,0.109-0.051,0.138-0.011
		l0.135,0.154C20.213,13.219,20.205,13.285,20.161,13.331z M20.781,13.773c-0.038,0.054-0.096,0.074-0.134,0.042l-0.162-0.123
		c-0.036-0.033-0.038-0.099-0.001-0.151c0.036-0.055,0.096-0.072,0.134-0.042l0.159,0.125
		C20.816,13.654,20.819,13.721,20.781,13.773z M21.496,14.287c-0.036,0.071-0.11,0.101-0.161,0.071l-0.209-0.132
		c-0.053-0.031-0.062-0.115-0.023-0.183c0.038-0.069,0.111-0.1,0.163-0.069l0.21,0.131C21.525,14.138,21.536,14.218,21.496,14.287z
		 M22.272,14.793c-0.038,0.071-0.11,0.104-0.163,0.072L21.9,14.737c-0.053-0.031-0.062-0.113-0.025-0.182
		c0.036-0.071,0.109-0.103,0.161-0.073l0.212,0.128C22.298,14.641,22.31,14.72,22.272,14.793z M23.049,15.284
		c-0.04,0.079-0.12,0.116-0.177,0.082l-0.237-0.137c-0.058-0.034-0.071-0.126-0.032-0.204c0.042-0.079,0.121-0.115,0.18-0.08
		l0.238,0.136C23.077,15.116,23.09,15.205,23.049,15.284z M23.876,15.729c-0.042,0.08-0.121,0.119-0.176,0.089l-0.243-0.132
		c-0.058-0.033-0.074-0.126-0.034-0.203c0.038-0.081,0.119-0.12,0.176-0.086l0.242,0.131C23.898,15.56,23.914,15.649,23.876,15.729z
		 M24.669,16.137c-0.036,0.081-0.113,0.12-0.174,0.091l-0.242-0.129c-0.059-0.03-0.074-0.122-0.037-0.202s0.117-0.122,0.174-0.089
		l0.243,0.127C24.692,15.968,24.711,16.056,24.669,16.137z M25.501,16.502c-0.032,0.07-0.104,0.111-0.155,0.083l-0.222-0.11
		c-0.053-0.024-0.07-0.107-0.037-0.18c0.032-0.073,0.102-0.11,0.156-0.083l0.219,0.11C25.517,16.349,25.534,16.427,25.501,16.502z
		 M26.313,16.917c-0.03,0.073-0.098,0.114-0.152,0.089l-0.225-0.1c-0.056-0.021-0.076-0.104-0.044-0.178
		c0.029-0.076,0.101-0.116,0.151-0.091l0.225,0.099C26.323,16.762,26.343,16.842,26.313,16.917z M27.04,17.228
		c-0.027,0.066-0.088,0.106-0.137,0.084l-0.205-0.089c-0.049-0.019-0.068-0.093-0.041-0.159c0.026-0.069,0.086-0.105,0.137-0.083
		l0.203,0.085C27.045,17.088,27.063,17.158,27.04,17.228z M27.771,17.469c-0.021,0.061-0.077,0.093-0.121,0.077l-0.185-0.074
		c-0.044-0.019-0.062-0.083-0.038-0.144c0.021-0.062,0.076-0.096,0.121-0.077l0.184,0.074
		C27.777,17.344,27.794,17.409,27.771,17.469z M28.431,17.638c-0.013,0.063-0.065,0.104-0.112,0.094l-0.189-0.047
		c-0.048-0.012-0.075-0.073-0.058-0.138c0.014-0.064,0.062-0.106,0.11-0.093l0.192,0.046C28.421,17.514,28.446,17.576,28.431,17.638
		z"/>
	<path fill="#FFFFFF" d="M35.903,27.681c-0.975-1.638-1.48-4.174-1.52-6.748c0,0-0.225-1.484,0.238-3.375
		c-1.959-1.36-3.463-2.182-4.411-2.257c-1.239-0.098-1.604,2.208-1.614,2.09c-0.046,0.767-0.68,9.035-4.571,10.781
		c0,0,4.866,3.605,6.736,1.536c2.462-2.725,5.876,0.3,7.396,1.942C38.069,31.379,37.946,31.103,35.903,27.681z"/>
	<path fill="#FFFFFF" d="M28.597,17.347c0,0.024-0.002,0.037,0,0.044C28.599,17.335,28.599,17.317,28.597,17.347z"/>
	<path fill="#FFFFFF" d="M38.048,22.854c-1.918-1.521-3.578-2.387-3.709-1.93c-0.131,0.453,1.318,2.055,3.238,3.579
		c1.916,1.522,3.58,2.39,3.707,1.935C41.413,25.983,39.966,24.38,38.048,22.854z M34.827,21.455c-0.043,0.039-0.1,0.04-0.125,0.002
		l-0.107-0.151c-0.029-0.037-0.016-0.095,0.023-0.132c0.047-0.037,0.102-0.038,0.127-0.001l0.113,0.149
		C34.882,21.36,34.87,21.419,34.827,21.455z M35.374,22.075c-0.043,0.046-0.105,0.053-0.139,0.016l-0.133-0.154
		c-0.033-0.037-0.025-0.104,0.02-0.151c0.043-0.045,0.104-0.053,0.139-0.016l0.135,0.155C35.427,21.962,35.419,22.03,35.374,22.075z
		 M35.987,22.706c-0.043,0.055-0.111,0.069-0.15,0.032l-0.166-0.157c-0.039-0.035-0.033-0.112,0.01-0.169
		c0.043-0.055,0.111-0.069,0.15-0.032l0.164,0.155C36.036,22.574,36.032,22.649,35.987,22.706z M36.612,23.266
		c-0.047,0.06-0.125,0.076-0.17,0.033l-0.18-0.176c-0.043-0.042-0.037-0.126,0.012-0.187s0.125-0.077,0.168-0.034l0.182,0.175
		C36.669,23.119,36.663,23.202,36.612,23.266z M37.358,23.893c-0.051,0.071-0.133,0.096-0.186,0.053l-0.213-0.178
		c-0.053-0.045-0.055-0.138-0.004-0.209c0.051-0.073,0.133-0.097,0.186-0.053l0.211,0.178
		C37.405,23.726,37.411,23.818,37.358,23.893z M38.175,24.514c-0.049,0.072-0.133,0.098-0.184,0.057l-0.219-0.175
		c-0.051-0.041-0.053-0.135-0.002-0.209c0.051-0.071,0.131-0.097,0.184-0.056l0.215,0.173
		C38.222,24.347,38.224,24.441,38.175,24.514z M38.997,25.13c-0.049,0.073-0.133,0.101-0.184,0.059l-0.221-0.169
		c-0.055-0.04-0.059-0.133-0.01-0.207c0.047-0.073,0.131-0.102,0.182-0.062l0.219,0.17C39.04,24.961,39.042,25.057,38.997,25.13z
		 M39.679,25.608c-0.033,0.062-0.1,0.091-0.146,0.058l-0.186-0.122c-0.045-0.029-0.053-0.104-0.018-0.166
		c0.035-0.064,0.1-0.093,0.146-0.063l0.186,0.126C39.704,25.47,39.714,25.545,39.679,25.608z M40.323,25.989
		c-0.033,0.065-0.094,0.093-0.143,0.062l-0.188-0.119c-0.049-0.029-0.059-0.102-0.023-0.166c0.031-0.065,0.1-0.094,0.145-0.064
		l0.188,0.118C40.345,25.851,40.354,25.925,40.323,25.989z M40.905,26.283c-0.023,0.062-0.08,0.093-0.123,0.073l-0.18-0.085
		c-0.043-0.021-0.059-0.087-0.035-0.147c0.023-0.06,0.078-0.093,0.123-0.072l0.178,0.086C40.911,26.156,40.929,26.224,40.905,26.283
		z"/>
	<path fill="#FFFFFF" d="M36.513,13.534c-0.018-0.353,0.156-1.037,0.271-1.486c0.646-2.569-2.146-4.205-3.654-3.516
		c-0.845,0.449-1.408,1.232-1.791,1.889c-0.225,0.388-1.148,1.653-2.592,1.105c1.125,3.607,3.31,0.935,3.31,0.935
		s3.243-1.809,2.935,1.377c-0.508,5.238,3.816,2.526,3.926,2.069C38.917,15.906,36.638,15.913,36.513,13.534z"/>
	<path fill="#FFFFFF" stroke="#231F20" stroke-miterlimit="10" d="M31.509,12.731c-0.021-0.331,0.016-0.655,0.105-0.959
		c0.262-0.916,0.973-1.65,1.846-1.805c1.166-0.206,2.18,0.7,2.266,2.021c0.088,1.32-0.787,2.557-1.951,2.762
		C32.61,14.954,31.595,14.052,31.509,12.731z"/>
	<path fill="#FFFFFF" d="M41.329,26.329c-1.523-5.861-6.857-8.972-9.26-10.514c-0.988-0.634-7.553-4.828-12.372-3.418
		c-0.032,0.016-0.146,0.062-0.109,0.212c0.056,0.235,1.742,0.267,4.456,1.623c2.607,1.301,5.131,3.576,5.081,3.764
		c-0.005,0.018-0.008,0.032-0.013,0.048c-0.004,0.012-0.008,0.025-0.01,0.036c-0.003,0.005-0.003,0.012-0.006,0.018
		c-0.004,0.02-0.008,0.036-0.012,0.052c-0.016,0.057-0.025,0.094-0.031,0.115c-0.008,0.029-0.01,0.035,0,0
		c0.006-0.027,0.018-0.07,0.031-0.115c0.004-0.016,0.008-0.032,0.012-0.052c0.003-0.006,0.003-0.013,0.006-0.018
		c0.002-0.011,0.006-0.024,0.01-0.036c0.008-0.028,0.013-0.048,0.013-0.048c-3.64,11.16,1.4,23.778,2.124,24.465
		c-2.695-10.232,0.18-15.528,0.18-15.528c0.09-0.137,0.131-0.222,0.238,0.018c1.918,4.321,2.047,4.642,3.916,7.573
		c2.512,3.946,3.471,3.968,3.471,3.968c-0.037-0.026-0.029-0.04-0.07-0.069c-0.047,0.008-0.096,0.011-0.102-0.029
		c-1.869-1.524-5.055-7.3-4.465-17.477C36.562,20.744,41.329,26.329,41.329,26.329z"/>
	<path fill="#FFFFFF" d="M29.103,18.08c-0.003,0.005-0.003,0.013-0.006,0.018C29.1,18.092,29.1,18.085,29.103,18.08z"/>
	<path fill="#FFFFFF" d="M29.125,17.996c-0.005,0.018-0.008,0.032-0.013,0.048C29.12,18.016,29.125,17.996,29.125,17.996z"/>
	<path fill="#FFFFFF" d="M29.085,18.15c-0.016,0.057-0.025,0.094-0.031,0.115C29.06,18.238,29.071,18.195,29.085,18.15z"/>
	<path fill="#FFFFFF" d="M29.054,18.265C29.044,18.3,29.046,18.294,29.054,18.265L29.054,18.265z"/>
	<path fill="#FFFFFF" d="M29.125,17.996c0,0-0.005,0.02-0.013,0.048C29.117,18.028,29.12,18.014,29.125,17.996z"/>
	<path fill="#FFFFFF" d="M29.085,18.15c-0.014,0.045-0.025,0.088-0.031,0.115C29.06,18.244,29.069,18.207,29.085,18.15z"/>
	<path fill="#FFFFFF" d="M34.911,20.57c0.035,0.012,0.057,0.058,0.053,0.113l0,0c-0.012,0.051-0.049,0.088-0.086,0.078l-0.158-0.036
		c-0.039-0.008-0.061-0.057-0.051-0.11l0,0c0.012-0.051,0.047-0.087,0.086-0.081L34.911,20.57z"/>
	<path fill="#FFFFFF" d="M35.573,20.777c0.039,0.016,0.053,0.075,0.033,0.131l0,0c-0.021,0.054-0.068,0.083-0.105,0.066
		l-0.164-0.075c-0.041-0.018-0.057-0.077-0.035-0.13l0,0c0.021-0.055,0.072-0.086,0.107-0.067L35.573,20.777z"/>
	<path fill="#FFFFFF" d="M36.339,21.131c0.047,0.026,0.057,0.104,0.021,0.168l0,0c-0.033,0.062-0.098,0.093-0.145,0.062l-0.184-0.12
		c-0.049-0.028-0.057-0.104-0.025-0.167l0,0c0.035-0.065,0.1-0.091,0.145-0.062L36.339,21.131z"/>
	<path fill="#FFFFFF" d="M37.087,21.642c0.047,0.037,0.049,0.122,0.006,0.188l0,0c-0.043,0.066-0.115,0.091-0.162,0.053
		l-0.197-0.152c-0.049-0.038-0.053-0.122-0.012-0.188l0,0c0.045-0.067,0.121-0.092,0.168-0.055L37.087,21.642z"/>
	<path fill="#FFFFFF" d="M37.929,22.289c0.047,0.046,0.043,0.14-0.01,0.209l0,0c-0.049,0.07-0.135,0.089-0.184,0.044l-0.207-0.189
		c-0.053-0.043-0.047-0.138,0.006-0.208l0,0c0.055-0.07,0.139-0.089,0.186-0.043L37.929,22.289z"/>
	<path fill="#FFFFFF" d="M38.688,22.974c0.049,0.045,0.047,0.139-0.006,0.208l0,0c-0.055,0.071-0.135,0.091-0.186,0.046
		l-0.209-0.188c-0.049-0.044-0.047-0.137,0.006-0.207l0,0c0.053-0.072,0.135-0.093,0.186-0.044L38.688,22.974z"/>
	<path fill="#FFFFFF" d="M39.362,23.644c0.041,0.045,0.033,0.126-0.018,0.188l0,0c-0.051,0.06-0.125,0.071-0.17,0.027l-0.176-0.184
		c-0.041-0.044-0.033-0.126,0.016-0.185l0,0c0.053-0.06,0.129-0.071,0.17-0.027L39.362,23.644z"/>
	<path fill="#FFFFFF" d="M39.919,24.21c0.033,0.033,0.027,0.102-0.012,0.149l0,0c-0.041,0.05-0.104,0.062-0.139,0.025l-0.143-0.146
		c-0.033-0.034-0.027-0.103,0.014-0.151l0,0c0.039-0.047,0.102-0.059,0.137-0.023L39.919,24.21z"/>
	<path fill="#FFFFFF" d="M40.472,24.874c0.027,0.033,0.016,0.094-0.021,0.133l0,0c-0.045,0.042-0.102,0.046-0.127,0.01l-0.117-0.143
		c-0.029-0.033-0.02-0.095,0.021-0.135l0,0c0.041-0.04,0.098-0.045,0.125-0.009L40.472,24.874z"/>
	<path fill="#FFFFFF" d="M40.937,25.519c0.018,0.026,0.008,0.071-0.025,0.097l0,0c-0.031,0.025-0.07,0.024-0.092-0.003l-0.076-0.114
		c-0.016-0.025-0.006-0.067,0.023-0.095l0,0c0.035-0.025,0.074-0.025,0.094,0.005L40.937,25.519z"/>
	<path fill="#FFFFFF" d="M39.032,38.396c-0.029,0.026-0.104-0.028-0.1-0.078l0.004,0.022C38.942,38.379,38.985,38.403,39.032,38.396
		z"/>
	<path fill="#FFFFFF" d="M37.554,33.19c-1.164-2.598-2.277-4.258-2.734-4.233c-0.238,0.014,0.199,2.841,1.361,5.441
		c1.162,2.597,2.545,4.412,2.926,4.08C39.483,38.145,38.714,35.792,37.554,33.19z M36.802,32.64l-0.107-0.235
		c-0.025-0.057,0.008-0.132,0.074-0.168c0.066-0.038,0.145-0.021,0.17,0.033l0.107,0.235c0.027,0.058-0.008,0.134-0.074,0.171
		C36.905,32.714,36.829,32.694,36.802,32.64z M37.22,33.502l-0.105-0.234c-0.023-0.059,0.01-0.133,0.078-0.17
		c0.068-0.035,0.143-0.019,0.168,0.04l0.102,0.235c0.025,0.057-0.006,0.134-0.074,0.167C37.321,33.577,37.243,33.56,37.22,33.502z
		 M37.583,34.391l-0.113-0.265c-0.025-0.064,0.016-0.147,0.088-0.185c0.078-0.039,0.162-0.02,0.188,0.045l0.113,0.266
		c0.027,0.064-0.016,0.147-0.092,0.185C37.694,34.476,37.61,34.456,37.583,34.391z M37.946,35.271l-0.107-0.269
		c-0.027-0.062,0.014-0.144,0.09-0.181c0.08-0.039,0.16-0.014,0.186,0.049l0.107,0.268c0.025,0.065-0.014,0.146-0.092,0.184
		C38.054,35.361,37.972,35.337,37.946,35.271z M38.271,36.108l-0.092-0.24c-0.023-0.06,0.016-0.133,0.084-0.165
		c0.07-0.032,0.145-0.01,0.166,0.05l0.092,0.239c0.023,0.062-0.014,0.132-0.084,0.165C38.37,36.189,38.294,36.168,38.271,36.108z
		 M38.579,36.973l-0.068-0.225c-0.016-0.055,0.021-0.117,0.086-0.141s0.129,0,0.145,0.057l0.068,0.223
		c0.018,0.054-0.021,0.118-0.084,0.141C38.659,37.051,38.593,37.027,38.579,36.973z M39.114,38.303
		c0.006,0.043-0.029,0.084-0.074,0.092c-0.053,0.011-0.098-0.015-0.104-0.055l-0.027-0.17c-0.008-0.04,0.027-0.08,0.076-0.09
		c0.049-0.013,0.092,0.011,0.1,0.055L39.114,38.303z M38.942,37.816c-0.057,0.018-0.117-0.005-0.129-0.055l-0.051-0.207
		c-0.012-0.05,0.025-0.103,0.084-0.119c0.057-0.02,0.113,0.004,0.127,0.055l0.053,0.204C39.04,37.741,39.001,37.799,38.942,37.816z"
		/>
	<g>
		<path fill="#FFFFFF" d="M20.469,12.443c0.049,0.004,0.088,0.07,0.082,0.143l0,0c-0.004,0.073-0.048,0.127-0.098,0.125
			l-0.209-0.028c-0.051-0.004-0.086-0.066-0.083-0.14l0,0c0.007-0.071,0.051-0.127,0.101-0.124L20.469,12.443z"/>
		<path fill="#FFFFFF" d="M21.21,12.59c0.049,0.012,0.081,0.076,0.072,0.149l0,0c-0.011,0.07-0.059,0.122-0.109,0.111l-0.204-0.042
			c-0.048-0.011-0.083-0.079-0.073-0.151l0,0c0.012-0.071,0.058-0.121,0.108-0.109L21.21,12.59z"/>
		<path fill="#FFFFFF" d="M22.01,12.782c0.061,0.02,0.09,0.106,0.069,0.194l0,0c-0.021,0.087-0.086,0.139-0.146,0.119l-0.246-0.087
			c-0.058-0.023-0.091-0.11-0.068-0.196l0,0c0.02-0.088,0.087-0.139,0.146-0.121L22.01,12.782z"/>
		<path fill="#FFFFFF" d="M22.823,13.085c0.061,0.021,0.091,0.108,0.068,0.194l0,0c-0.023,0.091-0.088,0.141-0.146,0.121
			l-0.247-0.092c-0.06-0.021-0.088-0.11-0.067-0.194l0,0c0.022-0.088,0.09-0.141,0.148-0.119L22.823,13.085z"/>
		<path fill="#FFFFFF" d="M23.667,13.388c0.065,0.026,0.099,0.122,0.073,0.218l0,0c-0.024,0.097-0.099,0.152-0.161,0.13
			l-0.276-0.104c-0.065-0.026-0.098-0.123-0.073-0.218l0,0c0.027-0.097,0.099-0.155,0.164-0.129L23.667,13.388z"/>
		<path fill="#FFFFFF" d="M24.545,13.832c0.062,0.028,0.088,0.13,0.058,0.221l0,0c-0.029,0.093-0.109,0.146-0.172,0.113
			l-0.266-0.125c-0.062-0.032-0.09-0.131-0.059-0.221l0,0c0.031-0.096,0.109-0.146,0.174-0.114L24.545,13.832z"/>
		<path fill="#FFFFFF" d="M25.403,14.313c0.062,0.032,0.086,0.131,0.053,0.225l0,0c-0.033,0.091-0.113,0.139-0.176,0.105
			l-0.262-0.135c-0.064-0.034-0.088-0.134-0.055-0.227l0,0c0.035-0.088,0.111-0.14,0.176-0.104L25.403,14.313z"/>
		<path fill="#FFFFFF" d="M26.285,14.928c0.058,0.041,0.073,0.144,0.026,0.229l0,0c-0.043,0.085-0.121,0.123-0.184,0.08
			l-0.242-0.167c-0.059-0.042-0.072-0.142-0.03-0.228l0,0c0.043-0.085,0.128-0.12,0.185-0.081L26.285,14.928z"/>
		<path fill="#FFFFFF" d="M27.09,15.493c0.054,0.039,0.063,0.134,0.021,0.216l0,0c-0.04,0.079-0.123,0.112-0.176,0.071l-0.232-0.165
			c-0.055-0.042-0.062-0.142-0.02-0.218l0,0c0.043-0.079,0.121-0.113,0.176-0.072L27.09,15.493z"/>
		<path fill="#FFFFFF" d="M27.827,16.107c0.045,0.034,0.054,0.121,0.013,0.185l0,0c-0.036,0.069-0.106,0.092-0.151,0.06
			l-0.195-0.148c-0.045-0.035-0.053-0.119-0.016-0.184l0,0c0.041-0.071,0.105-0.097,0.154-0.06L27.827,16.107z"/>
		<path fill="#FFFFFF" d="M28.454,16.6c0.045,0.038,0.047,0.114,0.008,0.172l0,0c-0.034,0.06-0.102,0.082-0.141,0.045l-0.174-0.141
			c-0.043-0.033-0.046-0.109-0.009-0.172l0,0c0.038-0.059,0.099-0.082,0.142-0.047L28.454,16.6z"/>
	</g>
	<g>
		<path fill="#FFFFFF" d="M29.667,34.252c0.002,0.062,0.064,0.113,0.139,0.113l0,0c0.076,0,0.139-0.052,0.137-0.116l-0.006-0.26
			c-0.002-0.065-0.064-0.115-0.139-0.114l0,0c-0.076,0.001-0.138,0.052-0.135,0.115L29.667,34.252z"/>
		<path fill="#FFFFFF" d="M29.667,35.23c0.002,0.062,0.066,0.112,0.144,0.111l0,0c0.071-0.002,0.134-0.055,0.132-0.118l-0.008-0.262
			c-0.002-0.062-0.064-0.113-0.141-0.111l0,0c-0.076,0.001-0.135,0.056-0.134,0.117L29.667,35.23z"/>
		<path fill="#FFFFFF" d="M29.7,33.319c-0.002,0.064,0.059,0.117,0.133,0.121l0,0c0.076,0.006,0.137-0.046,0.14-0.107l0.007-0.26
			c0.004-0.065-0.058-0.12-0.133-0.122l0,0c-0.076-0.004-0.139,0.045-0.139,0.106L29.7,33.319z"/>
		<path fill="#FFFFFF" d="M29.769,32.411c-0.003,0.064,0.058,0.117,0.133,0.121l0,0c0.075,0.004,0.136-0.045,0.139-0.107l0.008-0.26
			c0.003-0.066-0.058-0.12-0.134-0.122l0,0c-0.075-0.004-0.138,0.044-0.139,0.107L29.769,32.411z"/>
		<path fill="#FFFFFF" d="M29.81,31.513c-0.009,0.063,0.047,0.123,0.121,0.136l0,0c0.074,0.013,0.139-0.03,0.146-0.093l0.035-0.257
			c0.008-0.065-0.049-0.126-0.122-0.136l0,0c-0.075-0.013-0.142,0.028-0.149,0.091L29.81,31.513z"/>
		<path fill="#FFFFFF" d="M29.909,30.635c-0.008,0.066,0.047,0.126,0.123,0.141l0,0c0.076,0.013,0.142-0.031,0.15-0.095l0.033-0.263
			c0.011-0.064-0.047-0.126-0.123-0.137l0,0c-0.076-0.013-0.144,0.028-0.148,0.092L29.909,30.635z"/>
		<path fill="#FFFFFF" d="M29.701,36.195c0.009,0.072,0.081,0.123,0.163,0.113l0,0c0.083-0.004,0.147-0.071,0.141-0.14l-0.027-0.289
			c-0.008-0.072-0.078-0.12-0.162-0.112l0,0c-0.084,0.007-0.146,0.07-0.14,0.14L29.701,36.195z"/>
		<path fill="#FFFFFF" d="M29.798,37.122c0.006,0.067,0.074,0.115,0.154,0.109l0,0c0.078-0.007,0.139-0.067,0.131-0.136
			l-0.023-0.273c-0.004-0.066-0.074-0.114-0.154-0.105l0,0c-0.079,0.003-0.14,0.064-0.133,0.131L29.798,37.122z"/>
		<path fill="#FFFFFF" d="M29.917,38.126c0.011,0.062,0.078,0.103,0.15,0.094l0,0c0.078-0.013,0.131-0.07,0.123-0.135l-0.037-0.26
			c-0.008-0.063-0.078-0.104-0.151-0.095l0,0c-0.077,0.013-0.13,0.072-0.12,0.136L29.917,38.126z"/>
		<path fill="#FFFFFF" d="M30.071,39.033c0.008,0.062,0.079,0.104,0.15,0.092l0,0c0.074-0.013,0.127-0.073,0.115-0.136L30.3,38.732
			c-0.01-0.062-0.078-0.103-0.151-0.091l0,0c-0.075,0.012-0.126,0.073-0.118,0.136L30.071,39.033z"/>
		<path fill="#FFFFFF" d="M30.28,39.993c0.01,0.057,0.072,0.09,0.137,0.076l0,0c0.068-0.013,0.113-0.069,0.104-0.125l-0.045-0.231
			c-0.008-0.056-0.073-0.089-0.139-0.076l0,0c-0.07,0.014-0.111,0.069-0.101,0.127L30.28,39.993z"/>
		<path fill="#FFFFFF" d="M30.513,40.827c0.011,0.045,0.063,0.068,0.117,0.054l0,0c0.053-0.018,0.084-0.064,0.074-0.109
			l-0.051-0.184c-0.01-0.043-0.062-0.065-0.113-0.052l0,0c-0.055,0.016-0.09,0.062-0.077,0.109L30.513,40.827z"/>
		<path fill="#FFFFFF" d="M30.712,41.534c0.009,0.04,0.06,0.062,0.105,0.047l0,0c0.049-0.016,0.078-0.06,0.067-0.1l-0.047-0.164
			c-0.013-0.04-0.06-0.061-0.106-0.047l0,0c-0.049,0.016-0.08,0.062-0.066,0.099L30.712,41.534z"/>
	</g>
	<g>
		<path fill="#FFFFFF" d="M35.241,29.414c0.023,0.043,0.01,0.106-0.041,0.148l0,0c-0.053,0.034-0.113,0.032-0.141-0.008
			l-0.113-0.176c-0.025-0.042-0.008-0.107,0.043-0.146l0,0c0.051-0.038,0.115-0.036,0.139,0.007L35.241,29.414z"/>
		<path fill="#FFFFFF" d="M35.663,30.065c0.023,0.045,0.004,0.108-0.049,0.146l0,0c-0.049,0.038-0.109,0.033-0.137-0.011
			l-0.107-0.177c-0.029-0.041-0.01-0.105,0.041-0.143l0,0c0.051-0.04,0.113-0.035,0.139,0.01L35.663,30.065z"/>
		<path fill="#FFFFFF" d="M36.136,30.815c0.031,0.052,0.006,0.131-0.055,0.177l0,0c-0.062,0.045-0.141,0.037-0.172-0.015
			l-0.131-0.221c-0.029-0.054-0.008-0.134,0.057-0.177l0,0c0.062-0.047,0.135-0.039,0.168,0.013L36.136,30.815z"/>
		<path fill="#FFFFFF" d="M36.599,31.646c0.027,0.055-0.002,0.133-0.068,0.174l0,0c-0.062,0.04-0.141,0.028-0.168-0.025
			l-0.121-0.231c-0.025-0.053,0-0.129,0.068-0.171l0,0c0.062-0.04,0.141-0.029,0.172,0.024L36.599,31.646z"/>
	</g>
	<g>
		<path fill="#FFFFFF" d="M35.269,33.286c0.02,0.06,0.096,0.088,0.168,0.06l0,0c0.068-0.021,0.113-0.092,0.09-0.151l-0.076-0.247
			c-0.021-0.06-0.094-0.088-0.164-0.063l0,0c-0.074,0.025-0.113,0.094-0.096,0.154L35.269,33.286z"/>
		<path fill="#FFFFFF" d="M35.659,34.25c0.023,0.052,0.094,0.07,0.154,0.041l0,0c0.062-0.029,0.094-0.094,0.07-0.146l-0.088-0.214
			c-0.021-0.053-0.09-0.069-0.15-0.041l0,0c-0.064,0.03-0.096,0.094-0.076,0.146L35.659,34.25z"/>
		<path fill="#FFFFFF" d="M34.452,29.686c0.006,0.046,0.051,0.082,0.105,0.078l0,0c0.057-0.003,0.098-0.043,0.096-0.09l-0.012-0.189
			c0-0.046-0.047-0.08-0.104-0.077l0,0c-0.055,0.002-0.1,0.042-0.096,0.087L34.452,29.686z"/>
		<path fill="#FFFFFF" d="M34.415,29.003c-0.002,0.045,0.043,0.084,0.096,0.089l0,0c0.055,0.003,0.104-0.034,0.102-0.079
			l0.002-0.058l-0.197-0.075L34.415,29.003z"/>
		<path fill="#FFFFFF" d="M34.556,30.518c0.01,0.052,0.066,0.083,0.125,0.072l0,0c0.061-0.012,0.104-0.062,0.094-0.113l-0.037-0.208
			c-0.008-0.051-0.068-0.08-0.123-0.068l0,0c-0.062,0.011-0.105,0.061-0.096,0.111L34.556,30.518z"/>
		<path fill="#FFFFFF" d="M34.728,31.416c0.014,0.061,0.084,0.095,0.158,0.075l0,0c0.072-0.017,0.123-0.081,0.107-0.143
			l-0.057-0.254c-0.016-0.063-0.086-0.098-0.158-0.078l0,0c-0.074,0.019-0.125,0.084-0.109,0.146L34.728,31.416z"/>
		<path fill="#FFFFFF" d="M34.993,32.339c0.02,0.061,0.09,0.089,0.162,0.067l0,0c0.072-0.023,0.119-0.094,0.1-0.152l-0.074-0.249
			c-0.016-0.062-0.09-0.091-0.162-0.068l0,0c-0.072,0.022-0.117,0.091-0.098,0.153L34.993,32.339z"/>
		<path fill="#FFFFFF" d="M36.022,35.042c0.023,0.049,0.082,0.062,0.141,0.034l0,0c0.055-0.026,0.082-0.085,0.062-0.132
			l-0.084-0.192c-0.02-0.045-0.082-0.062-0.139-0.033l0,0c-0.053,0.025-0.084,0.087-0.062,0.132L36.022,35.042z"/>
		<path fill="#FFFFFF" d="M36.394,35.737c0.021,0.04,0.078,0.05,0.125,0.021l0,0c0.051-0.026,0.07-0.084,0.051-0.124l-0.09-0.164
			c-0.02-0.042-0.074-0.053-0.123-0.022l0,0c-0.047,0.028-0.072,0.083-0.047,0.123L36.394,35.737z"/>
		<path fill="#FFFFFF" d="M36.745,36.294c0.008,0.013,0.051,0.067,0.051,0.067c0.023,0.008,0.039,0.011,0.064-0.004l0,0
			c0.041-0.027,0.062-0.079,0.039-0.115l-0.08-0.153c-0.02-0.034-0.076-0.043-0.117-0.017l0,0c-0.047,0.028-0.064,0.079-0.043,0.114
			L36.745,36.294z"/>
		<path fill="#FFFFFF" d="M37.187,36.85L37.187,36.85c0.037-0.022,0.045-0.068,0.025-0.103l-0.068-0.134
			c-0.016-0.032-0.062-0.039-0.104-0.017l0,0c-0.014,0.01-0.025,0.021-0.033,0.033L37.187,36.85z"/>
	</g>
	<g>
		<path fill="#FFFFFF" d="M32.271,28.147c0.051-0.02,0.113,0.025,0.139,0.098l0,0c0.025,0.071,0.002,0.145-0.051,0.164l-0.217,0.082
			c-0.051,0.019-0.111-0.022-0.139-0.094l0,0c-0.025-0.074-0.002-0.146,0.054-0.167L32.271,28.147z"/>
		<path fill="#FFFFFF" d="M31.567,28.483c0.042-0.031,0.105-0.004,0.143,0.051l0,0c0.034,0.062,0.027,0.131-0.016,0.16l-0.176,0.118
			c-0.041,0.028-0.105,0.004-0.141-0.054l0,0c-0.032-0.057-0.028-0.128,0.016-0.157L31.567,28.483z"/>
		<path fill="#FFFFFF" d="M31.019,28.885c0.033-0.033,0.096-0.015,0.137,0.034l0,0c0.039,0.052,0.041,0.117,0.002,0.15l-0.152,0.134
			c-0.037,0.03-0.1,0.016-0.137-0.035l0,0c-0.043-0.052-0.043-0.118-0.006-0.15L31.019,28.885z"/>
		<path fill="#FFFFFF" d="M33.134,28.013c0.059-0.002,0.109,0.06,0.115,0.142l0,0c0.008,0.08-0.035,0.15-0.092,0.153l-0.244,0.017
			c-0.059,0.004-0.111-0.058-0.117-0.139l0,0c-0.006-0.082,0.035-0.149,0.098-0.154L33.134,28.013z"/>
		<path fill="#FFFFFF" d="M34.106,28.12c0.062,0.015,0.1,0.102,0.086,0.189l0,0c-0.02,0.088-0.084,0.146-0.146,0.13l-0.264-0.063
			c-0.064-0.014-0.102-0.099-0.086-0.187l0,0c0.018-0.087,0.082-0.146,0.146-0.131L34.106,28.12z"/>
		<path fill="#FFFFFF" d="M35.04,28.434c0.059,0.022,0.088,0.112,0.057,0.199l0,0c-0.023,0.082-0.098,0.134-0.158,0.105
			l-0.256-0.097c-0.061-0.024-0.09-0.113-0.061-0.198l0,0c0.027-0.088,0.102-0.135,0.16-0.11L35.04,28.434z"/>
		<path fill="#FFFFFF" d="M35.845,28.938c0.051,0.03,0.064,0.116,0.025,0.183l0,0c-0.035,0.074-0.104,0.105-0.156,0.074l-0.213-0.13
			c-0.049-0.032-0.061-0.114-0.023-0.188l0,0c0.035-0.069,0.104-0.101,0.156-0.069L35.845,28.938z"/>
		<path fill="#FFFFFF" d="M36.476,29.498c0.039,0.034,0.041,0.103,0.002,0.153l0,0c-0.035,0.055-0.096,0.069-0.135,0.036
			l-0.154-0.13c-0.035-0.031-0.035-0.101,0-0.152l0,0c0.037-0.053,0.096-0.068,0.137-0.037L36.476,29.498z"/>
		<path fill="#FFFFFF" d="M30.501,29.621c-0.035,0.036-0.102,0.023-0.143-0.028l0,0c-0.043-0.05-0.047-0.12-0.009-0.155l0.155-0.145
			c0.037-0.035,0.104-0.022,0.146,0.029l0,0c0.039,0.053,0.045,0.121,0.007,0.156L30.501,29.621z"/>
		<path fill="#FFFFFF" d="M29.773,30.015c-0.058,0.016-0.121-0.034-0.146-0.114l0,0c-0.02-0.078,0.008-0.154,0.064-0.173l0.235-0.07
			c0.057-0.018,0.123,0.032,0.145,0.11l0,0c0.021,0.077-0.009,0.155-0.063,0.172L29.773,30.015z"/>
		<path fill="#FFFFFF" d="M28.894,30.104c-0.062-0.009-0.111-0.086-0.105-0.179l0,0c0.01-0.088,0.068-0.156,0.133-0.149l0.269,0.03
			c0.064,0.005,0.113,0.085,0.104,0.174l0,0c-0.004,0.091-0.065,0.159-0.131,0.15L28.894,30.104z"/>
		<path fill="#FFFFFF" d="M28.065,29.956c-0.066-0.014-0.105-0.098-0.088-0.186l0,0c0.016-0.089,0.08-0.15,0.146-0.133l0.262,0.058
			c0.064,0.014,0.104,0.099,0.088,0.187l0,0c-0.016,0.088-0.078,0.148-0.143,0.135L28.065,29.956z"/>
		<path fill="#FFFFFF" d="M27.298,29.741c-0.057-0.017-0.086-0.094-0.066-0.175l0,0c0.018-0.076,0.08-0.126,0.135-0.109l0.236,0.072
			c0.057,0.018,0.084,0.096,0.066,0.174l0,0c-0.018,0.079-0.082,0.127-0.139,0.11L27.298,29.741z"/>
		<path fill="#FFFFFF" d="M26.647,29.464c-0.045-0.019-0.064-0.081-0.043-0.144l0,0c0.021-0.062,0.075-0.098,0.117-0.08l0.185,0.076
			c0.046,0.018,0.065,0.083,0.044,0.145l0,0c-0.021,0.06-0.074,0.097-0.119,0.079L26.647,29.464z"/>
		<path fill="#FFFFFF" d="M26.04,29.184c-0.044-0.024-0.06-0.087-0.033-0.149l0,0c0.024-0.059,0.08-0.089,0.123-0.066l0.178,0.09
			c0.041,0.023,0.057,0.09,0.031,0.149l0,0c-0.025,0.059-0.081,0.089-0.123,0.068L26.04,29.184z"/>
		<path fill="#FFFFFF" d="M25.489,28.866c-0.037-0.021-0.051-0.081-0.028-0.135l0,0c0.022-0.054,0.073-0.082,0.112-0.062
			l0.162,0.081c0.037,0.023,0.051,0.081,0.027,0.136l0,0c-0.023,0.052-0.072,0.081-0.111,0.061L25.489,28.866z"/>
		<path fill="#FFFFFF" d="M24.927,28.536c-0.037-0.022-0.047-0.082-0.021-0.134l0,0c0.025-0.055,0.077-0.08,0.113-0.057l0.158,0.091
			c0.035,0.024,0.048,0.083,0.021,0.137l0,0c-0.025,0.051-0.076,0.076-0.114,0.054L24.927,28.536z"/>
		<path fill="#FFFFFF" d="M24.41,28.227c-0.034-0.024-0.036-0.085-0.007-0.13l0,0c0.029-0.046,0.079-0.063,0.115-0.039l0.137,0.106
			c0.033,0.025,0.037,0.085,0.006,0.131l0,0c-0.029,0.046-0.08,0.063-0.113,0.038L24.41,28.227z"/>
		<path fill="#FFFFFF" d="M37.081,30.106c0.031,0.031,0.027,0.094-0.01,0.137l0,0c-0.037,0.044-0.09,0.052-0.123,0.022l-0.127-0.132
			c-0.035-0.032-0.027-0.095,0.01-0.137l0,0c0.039-0.044,0.094-0.053,0.125-0.021L37.081,30.106z"/>
		<path fill="#FFFFFF" d="M37.603,30.703c0.021,0.025,0.012,0.068-0.018,0.1l0,0c-0.031,0.027-0.07,0.03-0.09,0.007l-0.084-0.107
			c-0.023-0.023-0.014-0.067,0.014-0.096l0,0c0.031-0.029,0.07-0.033,0.094-0.007L37.603,30.703z"/>
	</g>
</g>
</svg>
