<?xml version="1.0" encoding="utf-8"?>
<!-- Generator: Adobe Illustrator 23.0.1, SVG Export Plug-In . SVG Version: 6.00 Build 0)  -->
<svg version="1.1" id="Capa_1" xmlns="http://www.w3.org/2000/svg" xmlns:xlink="http://www.w3.org/1999/xlink" x="0px" y="0px"
	 viewBox="0 0 466 466" style="enable-background:new 0 0 466 466;" xml:space="preserve">
<style type="text/css">
	.st0{fill:#FFFFFF;}
</style>
<g>
	<g>
		<g>
			<path class="st0" d="M370,26.4H18.5C8.3,26.4,0,34.6,0,44.8v289.5c0,10.2,8.3,18.5,18.5,18.5h262.7l-20.3-23.6h-48.5v-29.6h25.4
				l-0.2-0.2c-6.5-7.4-10.8-15.1-12.9-22.4H44.4V102.2h299.7V277h-40.2c6.1,6.5,12.5,13.1,17.9,18.4c3.8-3.5,8.2-7.4,13.2-11.3
				c16.9-13.3,33.4-21.4,48.9-24.2c1.6-0.3,3.1-0.5,4.7-0.6V44.8C388.5,34.6,380.2,26.4,370,26.4z M129,299.7h47.2v29.6H129V299.7z
				 M45.8,299.7H93v29.6H45.8V299.7z M93,79.5H45.8V49.9H93V79.5z M176.2,79.5H129V49.9h47.2V79.5z M259.5,79.5h-47.2V49.9h47.2
				V79.5z M342.7,79.5h-47.2V49.9h47.2V79.5z"/>
			<path class="st0" d="M464.7,354.3c-4.6-24.8-20.4-47.7-29.3-59.1c-12.2-15.5-27.7-21.8-46-18.5c-13.1,2.3-27.3,9.4-42.3,21.2
				c-10.6,8.3-18.6,16.6-22.1,20.5c-8.9-7.6-33.7-33.2-45.8-47.6c-6.1-7.2-21.9-22.6-33.6-12c-12.7,12.3,5.9,32.4,6.4,33l74.4,91
				c-0.3,0.4-0.6,0.8-1,1.1c-7.1,5.6-27.9-4.7-36.3-10.2c-7.7-5.1-20.6-5-27.1,0.1c-2.6,2.1-4.1,4.8-4.1,7.9c0,4.3,2.8,8.8,8.4,13.3
				c0.1,0.1,0.2,0.1,0.3,0.3c8.3,7.1,30.8,24.8,60.4,35.7c19,7,37.6,9.9,55.1,8.6c21.8-1.6,42-9.7,60.2-24
				C461.8,400,469.3,379.5,464.7,354.3z"/>
			<path class="st0" d="M176,127.4c-2.8-2.4-6.8-2.9-10.2-1.3c-3.4,1.6-5.5,4.9-5.5,8.7v100.8c0,3.7,2.2,7.1,5.5,8.7
				c1.3,0.6,2.7,0.9,4,0.9c2.2,0,4.4-0.8,6.1-2.2l60.2-50.4c2.2-1.8,3.4-4.5,3.4-7.3s-1.3-5.5-3.4-7.3L176,127.4z"/>
		</g>
	</g>
</g>
</svg>
