<?xml version="1.0" encoding="utf-8"?>
<!-- Generator: Adobe Illustrator 23.0.1, SVG Export Plug-In . SVG Version: 6.00 Build 0)  -->
<svg version="1.1" id="Capa_1" xmlns="http://www.w3.org/2000/svg" xmlns:xlink="http://www.w3.org/1999/xlink" x="0px" y="0px"
	 viewBox="0 0 1224 792" style="enable-background:new 0 0 1224 792;" xml:space="preserve">
<style type="text/css">
	.st0{fill:none;stroke:#FFFFFF;stroke-width:0.75;stroke-miterlimit:10;}
</style>
<g>
	<path class="st0" d="M525.01,383.09V396h-2.27v-12.91h-4.12v-2.04h10.5v2.04H525.01z"/>
	<path class="st0" d="M540.04,396v-6.53h-6.07V396h-2.27v-14.95h2.27v6.38h6.07v-6.38h2.27V396H540.04z"/>
	<path class="st0" d="M546.22,396v-14.95h9.55v2.04h-7.29v4.37h6.21v2.02h-6.21v4.49h7.29V396H546.22z"/>
	<path class="st0" d="M567.89,396.13c-2.25,0-3.84-0.52-5.29-1.97l1.49-1.49c1.09,1.09,2.33,1.45,3.84,1.45
		c1.97,0,3.09-0.84,3.09-2.31c0-0.67-0.17-1.2-0.59-1.55c-0.38-0.34-0.88-0.52-1.64-0.63l-1.76-0.25c-1.22-0.19-2.16-0.57-2.81-1.2
		c-0.73-0.67-1.11-1.64-1.11-2.88c0-2.6,1.89-4.37,5-4.37c1.99,0,3.36,0.5,4.64,1.7l-1.43,1.43c-0.92-0.88-2.02-1.15-3.3-1.15
		c-1.76,0-2.71,0.97-2.71,2.33c0,0.55,0.15,1.05,0.55,1.39c0.38,0.34,0.82,0.55,1.64,0.67l1.78,0.27c1.36,0.21,2.12,0.52,2.77,1.11
		c0.8,0.73,1.22,1.76,1.22,3.07C573.27,394.49,571.04,396.13,567.89,396.13z"/>
	<path class="st0" d="M581.37,383.09V396h-2.27v-12.91h-4.12v-2.04h10.5v2.04H581.37z"/>
	<path class="st0" d="M596.34,394.61c-0.97,0.97-2.23,1.51-3.86,1.51s-2.9-0.55-3.86-1.51c-1.47-1.47-1.51-2.96-1.51-6.09
		s0.04-4.62,1.51-6.09c0.97-0.97,2.23-1.51,3.86-1.51s2.9,0.55,3.86,1.51c1.47,1.47,1.51,2.96,1.51,6.09
		S597.81,393.14,596.34,394.61z M594.71,383.86c-0.57-0.59-1.32-0.92-2.23-0.92s-1.66,0.34-2.23,0.92c-0.73,0.8-0.88,1.7-0.88,4.66
		s0.15,3.84,0.88,4.64c0.57,0.59,1.32,0.94,2.23,0.94s1.66-0.36,2.23-0.94c0.76-0.78,0.88-1.68,0.88-4.64
		S595.46,384.64,594.71,383.86z"/>
	<path class="st0" d="M609.47,396l-3.15-6.3h-2.83v6.3h-2.27v-14.95h5.79c2.83,0,4.64,1.83,4.64,4.37c0,2.14-1.3,3.51-2.98,3.97
		l3.44,6.61H609.47z M606.85,383.09h-3.36v4.68h3.36c1.51,0,2.54-0.86,2.54-2.33S608.36,383.09,606.85,383.09z"/>
	<path class="st0" d="M619.76,389.85V396h-2.27v-6.15l-4.47-8.8h2.48l3.13,6.57l3.13-6.57h2.48L619.76,389.85z"/>
	<path class="st0" d="M637.38,396h-6.05v-14.95h5.82c2.77,0,4.51,1.57,4.51,4.09c0,1.62-1.01,2.77-2.02,3.17
		c1.15,0.46,2.25,1.57,2.25,3.46C641.89,394.53,640.02,396,637.38,396z M636.96,383.09h-3.36v4.28h3.36c1.45,0,2.44-0.76,2.44-2.14
		S638.41,383.09,636.96,383.09z M637.17,389.41h-3.57v4.56h3.57c1.57,0,2.46-0.97,2.46-2.29S638.74,389.41,637.17,389.41z"/>
	<path class="st0" d="M645.25,396v-14.95h9.55v2.04h-7.29v4.37h6.21v2.02h-6.21v4.49h7.29V396H645.25z"/>
	<path class="st0" d="M666.86,394.43c-1.11,1.18-2.54,1.7-4.12,1.7c-1.64,0-2.9-0.55-3.86-1.51c-1.45-1.47-1.51-2.96-1.51-6.09
		s0.06-4.62,1.51-6.09c0.97-0.97,2.23-1.51,3.86-1.51c3.15,0,5.02,2.08,5.42,4.62h-2.27c-0.38-1.64-1.47-2.6-3.15-2.6
		c-0.9,0-1.66,0.34-2.23,0.92c-0.74,0.8-0.88,1.7-0.88,4.66s0.15,3.86,0.88,4.66c0.57,0.59,1.32,0.92,2.23,0.92
		c0.99,0,1.87-0.38,2.46-1.07c0.55-0.63,0.74-1.39,0.74-2.35v-0.84h-3.19v-1.93h5.46v2.29
		C668.21,392.16,667.85,393.35,666.86,394.43z"/>
	<path class="st0" d="M671.55,396v-14.95h2.27V396H671.55z"/>
	<path class="st0" d="M686.9,396l-6.91-10.52V396h-2.27v-14.95h2.08l6.91,10.5v-10.5h2.27V396H686.9z"/>
	<path class="st0" d="M696.85,396.13c-2.25,0-3.84-0.52-5.29-1.97l1.49-1.49c1.09,1.09,2.33,1.45,3.84,1.45
		c1.97,0,3.09-0.84,3.09-2.31c0-0.67-0.17-1.2-0.59-1.55c-0.38-0.34-0.88-0.52-1.64-0.63l-1.76-0.25c-1.22-0.19-2.16-0.57-2.81-1.2
		c-0.73-0.67-1.11-1.64-1.11-2.88c0-2.6,1.89-4.37,5-4.37c1.99,0,3.36,0.5,4.64,1.7l-1.43,1.43c-0.92-0.88-2.02-1.15-3.3-1.15
		c-1.76,0-2.71,0.97-2.71,2.33c0,0.55,0.15,1.05,0.55,1.39c0.38,0.34,0.82,0.55,1.64,0.67l1.79,0.27c1.36,0.21,2.12,0.52,2.77,1.11
		c0.8,0.73,1.22,1.76,1.22,3.07C702.23,394.49,700,396.13,696.85,396.13z"/>
</g>
</svg>
