<?xml version="1.0" encoding="utf-8"?>
<!-- Generator: Adobe Illustrator 16.0.0, SVG Export Plug-In . SVG Version: 6.00 Build 0)  -->
<!DOCTYPE svg PUBLIC "-//W3C//DTD SVG 1.1//EN" "http://www.w3.org/Graphics/SVG/1.1/DTD/svg11.dtd">
<svg version="1.1" id="Capa_1" xmlns="http://www.w3.org/2000/svg" xmlns:xlink="http://www.w3.org/1999/xlink" x="0px" y="0px"
	 width="160px" height="160px" viewBox="0 0 160 160" enable-background="new 0 0 160 160" xml:space="preserve">
<g>
	<g>
		<path fill="#FFFFFF" d="M160,30.39c-5.95,2.61-12.29,4.34-18.9,5.18c6.801-4.06,11.99-10.44,14.43-18.13
			c-6.34,3.78-13.34,6.45-20.799,7.94C128.71,18.97,120.13,15,110.77,15C92.609,15,77.99,29.74,77.99,47.81
			c0,2.6,0.22,5.1,0.76,7.48c-27.27-1.33-51.4-14.4-67.61-34.31c-2.83,4.91-4.49,10.53-4.49,16.58c0,11.36,5.85,21.43,14.57,27.26
			c-5.27-0.1-10.44-1.63-14.82-4.04c0,0.1,0,0.23,0,0.36c0,15.94,11.37,29.18,26.28,32.23c-2.67,0.729-5.58,1.08-8.6,1.08
			c-2.1,0-4.22-0.12-6.21-0.56c4.25,12.989,16.31,22.539,30.65,22.85c-11.16,8.73-25.33,13.99-40.67,13.99
			c-2.69,0-5.27-0.121-7.85-0.451C14.53,139.65,31.75,145,50.32,145c60.36,0,93.36-50,93.36-93.34c0-1.45-0.05-2.85-0.119-4.24
			C150.07,42.8,155.54,37.03,160,30.39z"/>
	</g>
</g>
</svg>
